<svg width="90" height="61" viewBox="0 0 90 61" xmlns="http://www.w3.org/2000/svg"><title>Wildlife</title><path d="M19.873 4.441s-2.36-3.628-4.205-3.066c-2.03.617-.99 4.655-.99 4.655-3.782.656-5.435 6.313-12.2 6.764-2.484.165-.209 6.418 6.562 7.779 9.411 1.892 16.184 6.628 17.13 9.588.566 1.773 5.656 19.456 3.494 22.67 0 0-4.069.946-2.13 4.734.51.997 8.928.683 9.442-1.198.202-.746 2.22-7.18 2.22-7.18 1.831 2.104 1.768 4.52.278 6.276-1.215 1.432 1.497 4.267 5.338 3.025 4.609-1.492 4.841-14.02 4.841-18.978 0 0 8.676 3.215 17.691 1.633 0 0 1.124 10.897.614 11.6-.528.73-3.721 2.346-1.62 4.938 1.446 1.783 5.454 1.359 6.707.244 2.677-2.38 5.604-13.188 5.604-13.188s2.632 8.337 2.185 8.782c-2.793 2.774-1.011 5.491 1.827 5.491 0 0 4.767.807 5.84-3.488 0 0-1.209-22.351-.38-26.959 1.94-10.796-20.114-15.805-23.19-16.102-5.26-.508-17.674-.536-19.183-1.041-1.383-.464-4.774-2.403-7.112-2.847-1.893-.36-4.654.437-6.176.176-1.734-.298-6.568-2.534-6.568-2.534s.236-3.365-1.99-3.963c-1.492-.401-4.03 2.19-4.03 2.19z" stroke-width="2" stroke="#FFF" fill="none" fill-rule="evenodd"/></svg>