<svg width="81" height="81" viewBox="0 0 81 81" xmlns="http://www.w3.org/2000/svg"><title>Nature</title><g fill="#FFF" fill-rule="evenodd"><path d="M12.192 50.213l.056.036c2.151.64 2.797 2.88 3.423 4.784.7-.317 1.4-.636 2.102-.947 7.273-3.181 14.005-4.05 24.398-1.83.093.02.537-.046 1.247-.225.467-.118 2.485-.682 2.78-.762 1.551-.417 2.811-.699 4.045-.874l1.653-.163c3.499-.074 5.686.838 7.443 3.924l.284-.082c.775-.223 1.644-.476 2.585-.753.747-.22 3.872-1.196 3.646-1.126a87.074 87.074 0 0 1 2.693-.791c1.873-.583 3.802-.859 5.742-1.089 2.037.036 1.188-.06 2.56.154 2.78.586 4.081 2.693 3.558 6.153-.156 1.032-.897 1.386-2.586 1.781-.206.049-1.96.425-2.537.565-1.084.263-2.013.55-2.891.912-.231.096-.458.197-.678.302-3.731 1.782-7.073 3.013-10.308 3.878a55.902 55.902 0 0 1-3.806.872c-.754.148-3.036.558-3.038.559-1.139.212-1.889.383-2.551.594-1.03.327-2.15.701-3.523 1.171l-.89.306c-6.625 2.288-7.086 2.442-8.717 2.829-.296.07-.594.135-.894.194-5.057.999-9.839.514-16.826-1.125-1.869-.438-.85-.2-3.056-.713.076 2.478.274 4.966-.232 7.423-.206 1.001-.734 2.562-1.843 3.032-.119.157-.019.044-.414.183l-8.605 1.191a1 1 0 0 1-.274-1.981l6.444-.892c-2.419-3.62-2.858-8.161-3.473-12.376-.421-3.79-.855-7.683-.187-11.474.076-.436.222-.857.333-1.286l-8.698 1.381a1 1 0 0 1-.314-1.975l10.904-1.731.046-.013.031.001.019-.003c.261-.002.145.005.349-.014zm.91 17.657c-.648.022-.335-.007-.941.081h-.009c1.151 5.11.539 2.998 1.625 6.396.721 1.99 1.474 3.063 1.573 3.05.415-.766.507-1.705.649-2.55.268-2.175.221-4.375.072-6.558-1.496-.309-.724-.169-2.314-.414l-.655-.005zM51.87 52.235l-1.345.14c-1.139.162-2.328.428-3.807.826-.273.073-2.314.644-2.811.769-1.029.259-1.644.351-2.154.242-9.964-2.128-16.273-1.313-23.179 1.706-.63.276-2.887 1.309-3.4 1.533-1.271.555-2.261.918-3.238 1.162-.571.13-.345.087-.674.146.177 4.552.01 2.451.43 6.308l.14.913.007-.003c1.899-.309 2.001-.29 9.78 1.536 6.73 1.579 11.275 2.039 15.981 1.11.276-.054.549-.114.821-.178 1.529-.363 2.03-.53 8.526-2.773l.893-.308c1.387-.475 2.519-.852 3.566-1.185.758-.242 1.577-.428 2.791-.655 7.896-1.471 10.321-2.12 16.655-5.146.254-.122.513-.237.778-.346.983-.406 2.006-.722 3.182-1.008.61-.148 2.375-.526 2.553-.568.53-.124.873-.228 1.08-.327l.004.004c.265-1.911-.073-3.148-2.013-3.707-1.616-.341-4.028-.008-7.36.906-.794.218-1.624.463-2.633.774.241-.074-2.905.908-3.67 1.133-.945.278-1.817.532-2.595.757l-.729.209c-.56 1.927-3.761 2.464-5.463 2.924.006-.001-6.688 1.515-8.918 2.126-3.439.942-5.874 1.117-8.507.705-1.277-.2-6.202-1.412-6.426-1.462l-.157-.034a1 1 0 0 1 .427-1.954l.162.035c.302.067 5.127 1.255 6.303 1.439 2.343.366 4.493.212 7.669-.658 2.282-.625 9.011-2.149 8.966-2.138 3.388-.841 4.338-1.443 4.076-2.122-1.158-2.674-3.137-2.715-5.711-2.831zm-39.852.017c-.479 1.027-.559 2.202-.7 3.312l-.057 1.152.19-.043c.814-.203 1.602-.498 2.374-.824-.27-.981-.715-1.891-1.186-2.785-.221-.375-.427-.64-.595-.785l-.026-.027zM77.718 0l.421.321c.65.698.435 1.313-.195 2.068-.1.12-.538.62-.622.717-.296.345-.564.674-.846 1.047-1.766 2.334-3.503 5.623-5.269 10.536-1.269 3.531-1.795 4.933-2.613 6.862-5.959 14.042-15.055 20.764-32.429 19.05-10.158-1.003-15.253-.668-16.793.367l-.117.081-.155.269-.025.084c-.193.462-.049.279-.408.566-.075.09-.032.067-.115.092-.326.261-.119.159-.665.2l-.004-.001-.001.001-.008-.003c-.386-.076-.699-.067-.915-.529-.435-.93.019-2.588.165-3.58.332-2.152.929-4.661 1.751-7.151 2.258-6.844 5.765-12.467 10.606-15.713C38.975 8.919 49.265 6.45 58.35 7.302c4.719.444 8.982-.879 13.091-3.475 1.24-.783 1.895-1.267 3.707-2.672.604-.468.909-.693 1.193-.867.756-.398.309-.255 1.377-.288zm-4.081 4.771c-.522.372-.152.114-1.128.747-4.452 2.813-9.133 4.265-14.346 3.776-8.635-.811-18.465 1.548-27.568 7.651-4.406 2.954-7.689 8.218-9.821 14.679-.598 1.843-1.119 3.718-1.46 5.628 2.36-3.858 5.757-6.808 9.505-9.254 3.643-2.204 6.954-3.41 13.725-5.329 7.981-2.263 10.972-3.289 15.147-5.553a40.008 40.008 0 0 0 7.449-5.208l.344-.199c.884.056.552-.104 1.068.288a1 1 0 0 1-.089 1.411 41.961 41.961 0 0 1-7.819 5.466c-4.348 2.358-7.431 3.416-15.554 5.719-6.606 1.873-9.792 3.032-13.236 5.116-3.682 2.115-6.484 5.232-8.889 8.665 2.184-.553 4.646-.392 6.906-.346 2.838.078 5.665.319 8.491.583 16.411 1.619 24.747-4.542 30.391-17.841.798-1.882 1.316-3.263 2.572-6.758 1.217-3.156 2.392-6.423 4.312-9.241z"/></g></svg>