<svg width="41" height="102" viewBox="0 0 41 102" xmlns="http://www.w3.org/2000/svg"><title>Solitary</title><path d="M36.396 17.597a9.632 9.632 0 0 0 .273-13.635 9.636 9.636 0 0 0-13.629-.271c-3.848 3.692-3.966 9.793-.282 13.635 3.691 3.841 9.799 3.968 13.638.271zm-3.192 54.952l-7.297-17.863c.063-.4.129-.803.132-1.22l.193-25.973a8.146 8.146 0 0 0-8.095-8.217 8.142 8.142 0 0 0-6.798 3.55l.021.013-8.984 14.938a4.07 4.07 0 0 0 .279 4.63l10.671 13.618-3.594-3.979-.01 1.3c-.003.313.054.611.085.916l-.062.016L11.277 74.5l1.341 24.958 8.661-.196.194-25.113-.013-.287-.302-3.844 2.434 5.959 5.975 23.987 8.332-1.776-4.419-24.773-.276-.866zM10.812 39.593l7.576-12.491-6.103 12.403 8.343 12.601-9.816-12.513z" stroke-width="2" stroke="#FFF" fill="none" fill-rule="evenodd"/></svg>