<svg width="81" height="81" viewBox="0 0 81 81" xmlns="http://www.w3.org/2000/svg" xmlns:xlink="http://www.w3.org/1999/xlink"><title>Waste</title><defs><path d="M49.224 19.837a4.835 4.835 0 0 0 4.834-4.835 4.826 4.826 0 0 0-4.834-4.833 4.819 4.819 0 0 0-4.834 4.833 4.827 4.827 0 0 0 4.834 4.835z" id="a"/><mask id="g" x="0" y="0" width="9.668" height="9.668" fill="#fff"><use xlink:href="#a"/></mask><path d="M42.997 28.737l.03 36.938c.011 3.688 5.443 3.654 5.429-.085l.03-21.496h1.051v21.468c-.011 3.758 5.487 3.851 5.49.114v-37.11h.967v13.252c-.013 3.184 4.302 3.184 4.292.056V27.401c.009-3.907-2.889-6.201-5.942-6.199h-8.618c-2.041-.001-3.521.807-4.778 2.588l-4.351 6.341h-7.536c-3.046 0-2.876 4.305-.055 4.294h8.701c.677.011 1.506-.242 1.991-.968l3.299-4.72z" id="b"/><mask id="h" x="0" y="0" width="33.453" height="47.228" fill="#fff"><use xlink:href="#b"/></mask><path id="c" d="M28.808 51.371v-3.523h-3.526v3.523z"/><mask id="i" x="0" y="0" width="3.526" height="3.523" fill="#fff"><use xlink:href="#c"/></mask><path id="d" d="M30.74 43.522l-2.587-2.558-2.588 2.558 2.588 2.588z"/><mask id="j" x="0" y="0" width="5.175" height="5.146" fill="#fff"><use xlink:href="#d"/></mask><path id="e" d="M28.324 38.661l-2.588-2.559-2.559 2.559 2.559 2.588z"/><mask id="k" x="0" y="0" width="5.147" height="5.147" fill="#fff"><use xlink:href="#e"/></mask><path id="f" d="M33.67 68.405l4.606-24.427h-3.468l-4.011 21.015h-5.971l-3.951-21.015h-3.442l4.493 24.427z"/><mask id="l" x="0" y="0" width="20.843" height="24.427" fill="#fff"><use xlink:href="#f"/></mask></defs><g fill="none" fill-rule="evenodd"><use stroke="#FFF" mask="url(#g)" stroke-width="2" xlink:href="#a"/><use stroke="#FFF" mask="url(#h)" stroke-width="2" xlink:href="#b"/><use stroke="#FFF" mask="url(#i)" stroke-width="2" xlink:href="#c"/><use stroke="#FFF" mask="url(#j)" stroke-width="2" xlink:href="#d"/><use stroke="#FFF" mask="url(#k)" stroke-width="2" xlink:href="#e"/><use stroke="#FFF" mask="url(#l)" stroke-width="2" xlink:href="#f"/><path d="M40.105 0C17.991 0 0 17.991 0 40.105c0 22.114 17.991 40.104 40.105 40.104 22.114 0 40.105-17.99 40.105-40.104S62.219 0 40.105 0zm35.32 40.105c0 8.879-3.3 16.996-8.729 23.208l-49.798-49.8c6.212-5.428 14.329-8.729 23.208-8.729 19.475.001 35.319 15.845 35.319 35.321zm-70.64 0c0-8.879 3.3-16.997 8.729-23.209l49.799 49.8c-6.212 5.429-14.329 8.729-23.208 8.729-19.476 0-35.32-15.844-35.32-35.32z" fill="#FFF"/></g></svg>