<svg width="58" height="86" viewBox="0 0 58 86" xmlns="http://www.w3.org/2000/svg"><title>Walker</title><path d="M43.3 10.1c0 4.7-3.8 8.4-8.4 8.4-4.6 0-8.4-3.8-8.4-8.4 0-4.6 3.8-8.4 8.4-8.4 4.6 0 8.4 3.8 8.4 8.4zM21.9 20.9c.5-1.7-.6-4-2.8-4.1-1.2 0-3.7-.1-5.6-.1-1.9 0-3.6.3-4.1 2l-8 22.1c-.5 1.7.4 3.5 2.1 4l6.1 2.5c1.7.6 3.6-.3 4.1-2l8.2-24.4zm32.5 19.4l-.8-.4V29.1h-3v9.3L44 35.3l-8.2-11.4c-1.3-2.6-3.7-4.6-7.6-4-3.6.5-4.9 4.5-5.8 8.9L20 40.5l-2 9.1c-.1.4-.1.7-.1 1L15.8 61 3.5 76.5c-1.4 1.7-1.1 4.3.7 5.6.7.6 1.5.8 2.4.9 1.2 0 2.4-.5 3.2-1.5l12.8-16.3c.4-.5.6-1 .8-1.6l2-9.2 7.7 10.2.8 16c.1 2.1 1.8 3.8 3.9 3.8h.3c2.2-.1 3.9-2 3.8-4.2L41 62.9c0-.8-.3-1.6-.8-2.2L32.9 51l3.4-16.1 3.2 4.5c.3.4.7.7 1.1 1l9.9 4.7v38.1h3V45.9c.9-.1 1.8-.7 2.2-1.7.8-1.4.2-3.2-1.3-3.9z" stroke-width="2" stroke="#FFF" fill="none" fill-rule="evenodd"/></svg>