<svg width="59" height="73" viewBox="0 0 59 73" xmlns="http://www.w3.org/2000/svg"><title>Strong</title><path d="M58.132 39.93c-.49-3.996-1.142-6.606-1.876-9.38-.652-2.61-1.386-5.627-2.12-10.276-.653-4.242-.082-7.34.489-9.788.408-2.12.816-3.996.082-5.79-.571-1.306-1.795-1.632-2.774-1.958-.57-.163-1.141-.327-1.55-.653-2.854-2.284-6.28-2.691-9.46-1.223-2.284 1.06-3.59 2.365-3.997 4.078a4.266 4.266 0 0 0 .163 2.528c-1.305 1.06-2.692 2.774-2.202 4.976.49 2.61 4.975 5.057 7.34 6.117-.244 2.692-1.141 10.522-2.936 16.802-1.386 4.73-1.468 8.401-1.142 10.848-3.996-2.692-11.174-6.688-19.249-7.34-11.419-.898-17.046 4.24-17.291 4.404-.571.489-.571 1.386-.082 1.957.49.571 1.387.571 1.958.082.081-.082 4.975-4.486 15.17-3.67 11.175.897 20.88 8.971 20.962 9.053l2.121-1.713c0-.082-2.284-4.404.245-12.969 2.283-7.911 3.1-17.943 3.1-18.351l.08-.979-.897-.408c-2.936-1.305-6.443-3.425-6.606-4.567-.163-.816.408-1.468.979-1.958.897.653 2.283 1.468 3.67 1.468h.082c.652 0 2.12-.244 2.691-2.447.245-.815.245-1.63.245-1.794 0-.734-.653-1.387-1.387-1.387s-1.386.653-1.386 1.469c0 .489-.163 1.223-.163 1.305-.49 0-1.06-.327-1.713-.653l-.653-.816s-.49-.734-.326-1.468c.163-.734 1.06-1.55 2.447-2.202 2.855-1.305 5.138-.245 6.525.897.816.653 1.713.897 2.447 1.142.326.082.897.245.979.408.407.979.163 2.284-.245 4.078-.49 2.529-1.224 6.036-.49 10.848.735 4.73 1.55 7.83 2.203 10.522.734 2.773 1.305 5.22 1.794 9.053.897 6.852 1.142 10.603.245 13.458-.49 1.468-.653 3.018-.816 4.568-.245 2.283-.49 4.323-1.713 5.628-.652.734-1.957.978-3.18 1.141-.898.164-1.877.327-2.692.735-4.812 2.202-10.277 1.794-14.192 1.468-2.855-.245-4.976-.408-6.28.407-7.994 5.139-20.8 1.224-24.551-1.141-.653-.408-1.55-.245-1.958.407-.407.653-.244 1.55.408 1.958 2.773 1.713 9.38 4.078 16.231 4.078 3.997 0 7.993-.816 11.42-2.936.488-.326 2.772-.163 4.567 0 4.24.326 10.113.815 15.578-1.713.49-.245 1.305-.408 2.04-.49 1.63-.326 3.425-.652 4.73-1.957 1.957-1.957 2.284-4.649 2.528-7.26.164-1.386.327-2.772.653-3.996.979-3.262.734-7.34-.245-14.6z" fill="#FFF" fill-rule="evenodd"/></svg>