<svg width="66" height="68" viewBox="0 0 66 68" xmlns="http://www.w3.org/2000/svg"><title>Observation</title><path d="M64.265 41.112c0-.1-.014-.195-.038-.286l-.024-.187-7.093-28.286a1.157 1.157 0 0 0-1.135-.914h-6.793V4.502a3.05 3.05 0 0 0-3.045-3.047h-7.543a3.05 3.05 0 0 0-3.043 3.047v10.705h-5.224V4.502a3.05 3.05 0 0 0-3.043-3.047h-7.542a3.05 3.05 0 0 0-3.046 3.047v6.937H9.903c-.544 0-1.007.37-1.13.898L1.655 40.81a1.15 1.15 0 0 0-.041.302v22.39a3.046 3.046 0 0 0 3.043 3.044H19.74a3.047 3.047 0 0 0 3.044-3.044V40.15h6.348c.678 0 1.194-.52 1.194-1.16v-2.61h5.224v2.61c0 .64.52 1.16 1.16 1.16h6.383v23.353a3.047 3.047 0 0 0 3.043 3.043H61.22a3.048 3.048 0 0 0 3.045-3.043V41.112z" stroke-width="2" stroke="#FFF" fill="none" fill-rule="evenodd"/></svg>