<svg id="Layer_1" xmlns="http://www.w3.org/2000/svg" viewBox="0 0 24 24"><style>.st0{fill:#ff6e41}</style><path class="st0" d="M12 24.2l-.6-.3c-3.7-2-6.7-5.7-8.8-10.7-1.5-3.7-2-6.8-2-6.9L.4 5l1.3-.1C6.1 4.6 11.2.8 11.3.8l.7-.6.7.5c.1 0 5.2 3.9 9.6 4.1l1.3.2-.2 1.3c0 .1-.5 3.2-2 6.9-2.1 5-5.1 8.7-8.8 10.7l-.6.3zM3.2 7.1c.7 3 2.9 10.6 8.8 14.3 5.9-3.6 8.1-11.3 8.8-14.3-3.7-.7-7.3-2.9-8.8-3.9-1.5 1-5.1 3.3-8.8 3.9z"/><path class="st0" d="M14.5 11.2c.4.1 1.6.2 1.6.2-.8-1-4.1-6.6-4.1-6.6s-3.3 5.6-4.1 6.6c0 0 1.2 0 1.6-.2 0 0-.7 1.8-2.2 4 0 0 2 0 3.3-.3V18h2.7v-3.1c1.3.3 3.3.3 3.3.3-1.5-2.2-2.1-4-2.1-4z"/></svg>