<svg width="90" height="70" viewBox="0 0 90 70" xmlns="http://www.w3.org/2000/svg"><title>NoWifi</title><g fill="#FFF" fill-rule="evenodd"><g transform="translate(0 5)"><circle cx="45.2" cy="60" r="5"/><path d="M45 45.1c4.9 0 9.5 1.9 13 5.4l2-2c-4.1-4.1-9.5-6.2-14.9-6.2-1.5 0-3 .2-4.5.5l-4.9 4.9c2.7-1.7 5.9-2.6 9.3-2.6zM67.9 40.5l2-2c-4.6-4.6-10.1-7.6-15.9-9.2l-2.3 2.3c6.1 1.3 11.7 4.4 16.2 8.9zM20.1 38.5l2 2c4.7-4.7 10.6-7.8 16.9-8.9l3.3-3.3c-8.1.6-16 4-22.2 10.2zM77.9 30.5l2-2c-4.4-4.4-9.5-7.8-14.9-10.2l-2.1 2.1c5.5 2.4 10.6 5.7 15 10.1zM45 14.1c-12.6 0-25.2 4.8-34.9 14.4l2 2c8.8-8.8 20.5-13.6 32.9-13.6 2.7 0 5.4.2 8 .7l2.4-2.4c-3.4-.7-6.9-1.1-10.4-1.1zM45 0C28.8 0 12.6 6.2.2 18.6l2 2C13.6 9.1 28.8 2.8 45 2.8c6.7 0 13.3 1.1 19.5 3.2l2.2-2.2C59.7 1.3 52.4 0 45 0zM87.8 20.6l2-2c-4.4-4.4-9.2-7.9-14.3-10.8l-2.1 2.1c5.3 2.8 10.1 6.3 14.4 10.7z"/></g><path d="M80.042.02l2.121 2.121-63.639 63.64-2.121-2.122z"/></g></svg>