<svg width="56" height="70" viewBox="0 0 56 70" xmlns="http://www.w3.org/2000/svg"><title>Hiking trail</title><path d="M8.4 46.3c.2.2.4.3.7.3h14.5v22c0 .6.4 1 1 1h5.3c.6 0 1-.4 1-1v-22h15.3c.6 0 1-.4 1-1V30c0-.6-.4-1-1-1H31v-5.1h15.4c.3 0 .5-.1.7-.3l8.1-7.8c.2-.2.3-.4.3-.7 0-.3-.1-.5-.3-.7l-8.1-7.8c-.2-.2-.4-.3-.7-.3H31V3.5C31 1.6 29.4 0 27.5 0h-.4c-1.9 0-3.5 1.6-3.5 3.5v2.8H9.3c-.6 0-1 .4-1 1v15.5c0 .6.4 1 1 1h14.4v5.1H9.1c-.3 0-.5.1-.7.3L.3 37c-.2.2-.3.4-.3.7 0 .3.1.5.3.7l8.1 7.9zM29 67.6h-3.3v-21H29v21zM25.6 3.5c0-.8.7-1.5 1.5-1.5h.4c.8 0 1.5.7 1.5 1.5v2.8h-3.3V3.5h-.1zM10.3 8.4H46l7.1 6.8L46 22H10.3V8.4zm15.3 15.5h3.3V29h-3.3v-5.1zM9.5 31h35.7v13.5H9.5l-7.1-6.7L9.5 31z" fill="#FFF" fill-rule="evenodd"/></svg>