<svg width="92" height="45" viewBox="0 0 92 45" xmlns="http://www.w3.org/2000/svg"><title>Poaching</title><path d="M90.78 22.07c.279-1.418.166-2.82-.453-4.29a34.807 34.807 0 0 0-2.418-4.668c-1.43-2.317-2.703-4.78-4.443-6.844-2.152-2.553-5.018-4.104-8.507-4.237a9.269 9.269 0 0 1-2.683-.51 9.381 9.381 0 0 0-5.616-.173c-5.208 1.438-10.54 1.208-15.84 1.387-1.416.048-2.86-.283-4.272-.543-3.487-.642-6.905-1.017-10.161.976-2.362 1.445-4.861 2.667-7.22 4.116-1.966 1.207-3.813 2.608-5.723 3.908-.798.543-1.623 1.045-2.448 1.574-1.102-2.177-3.34-2.107-5.472-1.39-1.848.837-.194 2.138 1.308 2.997.708.405.734.97.326 1.742-.36.678-.385 1.528-.6 2.29-.214.758-.387 1.55-.75 2.239-.38.723-.83.82-1.743.31-1.404-.785-2.901-1.762-3.916-2.92-.308-.352-1.038-.99-1.417-.676-.378.314.01 1.446.155 1.924.45 1.489 1.032 2.937 1.539 4.41.402 1.169.18 1.4-1.075 1.247-3.58-.44-6.265-2.133-7.863-5.454-.68-1.215-.451.729-.451.729.36 2.784 1.739 4.845 3.759 6.432.98.77 4.333 2.899 5.52 3.502.468 3.013 2.396 5.212 4.888 4.799 3.312-.55 5.75-2.812 7.899-5.291 2.149-2.48 3.955-4.21 6.6-4.417 2.647-.208 4.189 1.333 4.779 2.269.898 1.422 1.68 2.92 2.426 4.43.292.59.464 1.274.537 1.932.104.939-.008 1.903.108 2.839.199 1.593-.202 2.832-1.657 3.678-.443.258-.911.665-1.097 1.116-.16.388-.156 1.172.138 1.352.61.375 4.85.435 5.467.36 1.344-.166 1.837-1.091 1.306-2.317-.205-.473-.326-1.248-.191-1.746.48-1.772 1.093-3.508 1.59-5.055 1.083 2.779 1.932 3.149 4.842 4.549 2.44 1.174 2.722 3.362 3.768 3.513 1.046.15 2.526-.388 2.673-2.563.015-.225.038-.455.095-.672.609-2.312-.077-3.16-2.48-3.101-.95.024-1.708-.323-2.374-1.083-1.414-1.613-1.241-3.361-.614-5.295a.973.973 0 0 1 1.01-.667c1.259.097 2.547.036 3.783.262 2.517.459 5.049.942 7.573.359 3.103-.717 6.174-1.61 8.403-4.155.387-.442.847-.82 1.433-1.378.866 1.587 2.193 2.973 2.289 4.44.143 2.186 1.565 3.919 1.445 6.222-.1 1.903.15 3.712-1.078 5.35-.822 1.098-.253 2.45 1.13 2.41 1.243-.036 2.905-.33 3.709-.812.804-.483 1.183-2.39.543-3.826-.175-.392.322-1.938.43-2.457.279.537.755 2.67.883 3.546.21 1.435-.455 1.418-1.24 2.22-.63.814-.455 1.882.234 1.984 1.326.196 3.997.203 5.258-.05 1.26-.251.992-1.503.685-2.654-.51-1.908-1.065-3.907.319-5.8.27-.37.178-1.102.07-1.63-.13-.621-.568-1.183-.677-1.805-.271-1.548-.8-3.175-.561-4.663.55-3.42 1.497-6.776 2.283-10.158.07-.305.143-.61.27-1.147 1.58 2.249 3.375 4.68 2.639 7.5-.16.487-.63 1.46-.71 2.002-.094.64.327 1.5.327 1.5s.64-.188 1.14-1.172c.5-.984.194-2.804.194-2.804l-.022.008z" stroke-width="2" stroke="#FFF" fill="none" fill-rule="evenodd"/></svg>