<svg width="60" height="80" viewBox="0 0 60 80" xmlns="http://www.w3.org/2000/svg"><title>Fire</title><path d="M18.59 75.83c3.721 1.903 8.063 2.91 12.559 2.91h.002c8.114 0 15.656-3.218 20.69-8.825 5.245-5.843 7.49-13.895 6.496-23.292-.038-1.618-.628-16.576-9.32-28.166l-2.083-2.78-4.236 6.386C39.656 17.017 32.943 8.41 20.877 4.346l-6.002-2.02 3.078 5.536c.036.067 3.206 5.863 2.626 12.262l-9.602-5.67 1.127 5.428c.024.115 2.304 11.348.209 21.896-.27.225-.637.422-1.136.422-.763 0-2.445-.449-5.128-3.455l-3.533-3.958-.725 5.257c-.034.26-3.357 26.213 16.799 35.786z" stroke="#FFF" stroke-width="2" fill="none" fill-rule="evenodd"/></svg>