<svg width="243" height="164" viewBox="0 0 243 164" xmlns="http://www.w3.org/2000/svg"><title>topography_01</title><path d="M-57.219 160.693c.792-.023 8.99-.348 9.804-.312 2.631.108 5.36.22 7.432-1.384.7-.54 1.122-1.14 1.262-1.789.152-.702-.02-1.429-.53-2.177-1.161-1.746-3.84-3.147-5.788-3.507-.638.004-1.359-.02-2.122-.052-3.026-.123-14.142.083-16.314 2.1-1.403 1.298-1.61 2.74-.588 4.075 1.217 1.609 4.084 2.882 6.844 3.046zm-7.202-5.238c.126-.583.498-1.157 1.096-1.71 2.11-1.95 13.167-2.16 16.15-2.046.772.035 1.49.067 2.112.059 1.882.336 4.505 1.708 5.626 3.402.46.692.625 1.364.488 1.999-.129.59-.514 1.145-1.172 1.657-2.01 1.556-4.693 1.446-7.288 1.336-.815-.036-9.012.289-9.813.31-2.673-.162-5.475-1.404-6.652-2.95-.509-.677-.697-1.363-.547-2.057zm78.154-45.999c-2.691.258-5.663.967-9.18 4.484a30.433 30.433 0 0 0-1.736 1.92c-3.057 3.67-5.724 10.26-7.002 15.183-.318 1.199-1.265 4.838 1.603 6.054 4.714 1.364 9.392 1.309 13.905-.183 2.477-.813 4.843-2.079 6.5-3.467.252-.214.501-.441.74-.679 2.813-2.813 4.91-7.613 5.48-12.524.366-3.13-.58-6.11-2.575-8.15-1.932-1.983-4.684-2.925-7.735-2.638zm10.083 10.77c-.562 4.855-2.636 9.594-5.418 12.376-.238.239-.482.46-.726.667-1.627 1.37-3.964 2.617-6.429 3.432-4.463 1.466-9.099 1.528-13.753.176-2.671-1.118-1.76-4.623-1.454-5.772 1.284-4.893 3.932-11.454 6.966-15.098a27.036 27.036 0 0 1 1.716-1.902c3.468-3.468 6.391-4.177 9.045-4.41 2.978-.287 5.65.625 7.534 2.557 1.963 2 2.874 4.904 2.52 7.974zm-6.977-3.076l-.012-.012c-1.712-1.32-3.797-1.902-6.01-1.657-1.53.22-3.187 1.156-4.66 2.629-3.033 3.033-5.052 8.145-3.2 11.465.277.496.723.881 1.15 1.248.264.213.527.44.753.692l.018.018.024.012c4 1.994 7.986.146 10.377-2.245l.007-.006c2.99-2.99 4.757-8.072 1.56-12.138l-.007-.006zm-1.712 11.985l-.006.007c-2.33 2.33-6.207 4.127-10.108 2.207-.233-.257-.501-.476-.753-.702-.434-.374-.85-.716-1.106-1.18-1.792-3.224.195-8.22 3.167-11.192 1.43-1.431 3.045-2.348 4.525-2.568 2.146-.239 4.152.324 5.828 1.608 3.1 3.957 1.376 8.897-1.547 11.82zm41.662 20.517c.941-2.263 2.574-4.397 4.305-6.654 2.312-3.02 4.696-6.127 5.308-9.6.556-5.913 1.01-13.447-.453-19.178-.685-2.665-2.268-6.769-3.486-9.441-1.076-2.348-4.09-4.666-7.02-6.897-.758-.575-1.534-1.181-2.256-1.756-.238-.385-.508-.728-.801-1.106-.6-.808-1.235-1.65-1.754-2.869a9.61 9.61 0 0 1-.392-1.051c-.666-2-1.676-5.002-4.703-4.47-1.058.189-2.085.752-2.965 1.632-1.028 1.028-1.798 2.447-1.958 3.62-.176 1.328-.184 2.826-.196 4.269.013 1.309-.006 2.66-.134 3.877-.5 4.5-1.743 9.154-3.894 14.658a45.303 45.303 0 0 0-2.13 7.142c-.299 1.4-.495 2.782-.684 4.11-.183 1.295-.355 2.519-.611 3.718-.563 2.617-1.756 5.51-2.11 6.341-.74 1.718-1.84 3.919-2.66 4.983-.342.44-.685.844-1.046 1.205-1.168 1.169-2.299 1.737-3.382 2.294-.776.397-1.56.789-2.366 1.399-.25.19-.478.392-.685.6-2.678 2.678-1.193 6.317-.312 8.493l.14.35c1.976 4.86 5.083 9.178 9.504 13.184 3.076 2.794 4.414 4.402 4.678 7.185.14 1.4.104 2.72.073 3.998-.08 2.917-.153 5.413 1.786 7.78 1.957 2.788 5.6 4.733 9.521 5.069 3.712.324 7.179-.82 9.515-3.156.868-.868 1.59-1.92 2.153-3.081 1.687-3.596 1.326-12.42-.135-16.842-.208-.6-.41-1.192-.605-1.767-1.217-3.577-2.282-6.671-2.012-10.268.213-2.977.733-5.295 1.767-7.771zm.03 18.12c.19.568.397 1.154.6 1.76 1.442 4.39 1.81 13.122.134 16.67a10.598 10.598 0 0 1-2.103 3.008c-2.287 2.287-5.688 3.424-9.326 3.1-3.853-.33-7.43-2.232-9.355-4.977-1.89-2.306-1.83-4.776-1.744-7.638.043-1.278.074-2.617-.061-4.035-.282-2.85-1.632-4.496-4.758-7.327-4.402-3.987-7.496-8.267-9.441-13.099l-.14-.36c-.87-2.116-2.324-5.662.25-8.236.202-.203.423-.399.672-.575.777-.593 1.56-.998 2.319-1.377 1.113-.562 2.25-1.15 3.442-2.342.367-.367.721-.77 1.07-1.23.832-1.075 1.945-3.301 2.685-5.032.348-.825 1.553-3.742 2.122-6.377.263-1.205.435-2.429.623-3.73.184-1.334.392-2.704.686-4.098a44.408 44.408 0 0 1 2.109-7.112c2.158-5.522 3.405-10.194 3.907-14.718.134-1.225.147-2.582.147-3.89 0-1.444.006-2.93.184-4.244.164-1.12.911-2.501 1.896-3.486.85-.85 1.828-1.388 2.843-1.57 2.83-.497 3.797 2.402 4.44 4.316.14.423.269.782.385 1.07.543 1.242 1.217 2.134 1.81 2.911.275.386.55.734.795 1.112l.005.02.013.013c.728.579 1.517 1.185 2.287 1.772 2.887 2.213 5.876 4.507 6.929 6.806 1.228 2.66 2.8 6.74 3.485 9.394 1.444 5.71.997 13.213.447 19.095-.6 3.402-2.967 6.502-5.265 9.498-1.744 2.269-3.382 4.408-4.336 6.708-1.033 2.489-1.579 4.83-1.792 7.833-.263 3.651.807 6.764 2.036 10.366zm-61.322-1.066c-1.363-.703-2.739-.77-3.797-.2-.936.518-1.382 1.332-1.315 2.365.147 2.067 2.263 4.574 3.755 5.712 1.321.636 2.624.446 3.595-.526a3.808 3.808 0 0 0 1.058-3.1c-.195-1.639-1.522-3.346-3.296-4.25zm2.08 7.192c-.899.899-2.11 1.07-3.321.483-1.437-1.095-3.503-3.528-3.638-5.522-.043-.692.146-1.26.593-1.706.165-.165.367-.318.606-.447.978-.538 2.274-.463 3.577.203 1.712.88 2.984 2.506 3.173 4.079.122 1.05-.25 2.17-.99 2.91zm62.832-45.001c-.227-1.963-1.07-5.057-2.69-7.35-.857-1.199-2.08-2.41-3.26-3.577-.69-.68-1.345-1.321-1.92-1.958l-.343-.366c-2.274-2.544-3.937-4.367-6.506-2.531a8.119 8.119 0 0 0-1.015.855c-2.152 2.152-3.827 6.017-4.06 9.368-.049.76-.055 1.438-.075 2.104-.011.746-.023 1.541-.097 2.458-.22 2.74-1.064 5.283-1.865 7.737-1.002 3.032-1.944 5.906-1.57 8.725.17 1.272.568 2.672 2.25 4.28l.029.018c.209.099.416.196.63.301 3.095 1.492 6.318 3.039 9.803-.446.073-.075.146-.148.22-.233.703-.753 1.425-1.768 2.25-2.947.863-1.217 1.84-2.6 2.979-3.908 4.194-4.807 5.846-7.29 5.24-12.53zm-8.402 16.316c-.825 1.167-1.54 2.176-2.238 2.91-.08.08-.14.153-.214.227-3.369 3.368-6.506 1.858-9.545.397-.196-.098-.41-.19-.606-.288-1.62-1.547-1.993-2.898-2.165-4.122-.367-2.763.562-5.625 1.559-8.628.808-2.47 1.651-5.026 1.87-7.79.081-.923.1-1.713.106-2.477.011-.684.018-1.34.074-2.08.225-3.307 1.876-7.098 3.998-9.22.318-.319.648-.612.979-.832 2.408-1.725 3.914-.05 6.213 2.483l.33.378c.58.643 1.235 1.285 1.92 1.97 1.186 1.15 2.404 2.354 3.247 3.54 1.59 2.25 2.416 5.315 2.642 7.252.593 5.143-1.033 7.59-5.18 12.348-1.15 1.307-2.134 2.696-2.99 3.932zm-55.298 72.372l.036.023c2.825 1.627 7.087.129 9.41-2.195 1.407-1.406 2.104-3.057 1.976-4.654-.147-1.724-1.205-3.32-3.174-4.738-2.714-1.958-8.345-3.419-11.576-3.015-.568.079-1.284.171-1.79.678-.22.22-.398.508-.496.863-.403 1.26 1.968 7.607 3.216 9.955.636 1.187 1.175 1.884 2.398 3.083zm-5.4-12.97c.104-.325.25-.582.44-.771.46-.46 1.095-.533 1.657-.606 3.192-.404 8.733 1.04 11.417 2.966 1.901 1.375 2.948 2.923 3.075 4.58.13 1.523-.55 3.106-1.907 4.464-2.268 2.257-6.385 3.73-9.124 2.164-1.198-1.185-1.736-1.858-2.341-3.026-1.248-2.336-3.585-8.597-3.217-9.772zm31.486-8.47c.355-.355.66-.759.9-1.205 1.564-2.923.293-7.008-1.664-9.748-2.006-2.813-4.617-4.25-6.977-3.858-.465.073-1.26.403-1.927 1.07a3.408 3.408 0 0 0-.49.6c-2.458 3.558-1.039 10.065 1.848 12.902 2.556 2.324 6.127 2.421 8.31.239zm-8.151-.398c-2.82-2.77-4.22-9.137-1.822-12.622.147-.194.3-.385.47-.555.832-.832 1.706-.998 1.798-1.016 2.28-.372 4.8 1.046 6.752 3.78 1.926 2.684 3.173 6.66 1.644 9.495-.226.435-.513.82-.85 1.157-2.09 2.092-5.534 1.987-7.992-.24zm100.458-49.74c-.043 1.303.509 2.71 1.67 4.299.978 1.638 2.813 3.4 4.695 3.632 1.004.122 1.909-.196 2.668-.953.048-.05.085-.099.122-.135.996-1.082 1.523-2.917 1.413-4.91-.13-2.037-.9-3.86-2.074-4.874-2.556-2.226-5.625-1.724-7.216-.135-.813.813-1.26 1.87-1.278 3.076zm8.347-2.77c1.137.978 1.878 2.746 1.988 4.714.11 1.933-.398 3.7-1.346 4.746-.035.036-.073.086-.116.128-.703.703-1.546.997-2.482.88-1.798-.22-3.572-1.93-4.525-3.533-1.132-1.548-1.664-2.912-1.634-4.165.025-1.138.447-2.147 1.211-2.911 1.517-1.517 4.446-1.988 6.904.141zm-46.687 45.845c1.644.935 3.478 1.241 5.423 1.571.893.147 1.823.293 2.739.514.649.16 1.406.428 2.213.697 2.6.899 5.53 1.908 7.101.336.679-.679 1.027-1.773 1.04-3.326.042-3.333-1.853-8.03-4.734-9.711-1.48-.868-3.082-.843-4.629.055-.789.459-1.437 1.07-1.926 1.559-.24.239-.477.49-.722.747-.232.244-.47.495-.71.733-.372.373-.69.654-.99.906-.696.55-1.498.947-2.269 1.326-.965.477-1.87.93-2.617 1.676-.263.262-.489.537-.678.862l-.018.043c-.11.72.17 1.455.764 1.999l.013.013zm-.552-1.957a4.32 4.32 0 0 1 .636-.795c.716-.715 1.614-1.162 2.556-1.627.784-.392 1.584-.789 2.306-1.364.318-.244.635-.537 1.015-.917.244-.244.477-.489.722-.746.232-.244.47-.494.708-.733.478-.477 1.114-1.077 1.872-1.517 1.492-.869 2.978-.899 4.404-.062 2.818 1.633 4.659 6.238 4.621 9.504-.018 1.474-.342 2.544-.97 3.173-1.469 1.468-4.343.478-6.874-.392-.808-.28-1.572-.543-2.226-.696-.936-.226-1.86-.38-2.752-.526-1.92-.318-3.737-.617-5.333-1.54-.525-.49-.777-1.12-.685-1.762zm-30.843 68.868l.225-.104c1.4-.593 4.305-2.154 6.33-4.177 2.165-2.165 2.69-4.243 1.522-6.022-.893-1.359-2.043-2.117-3.418-2.258-2.385-.244-5.027 1.443-6.696 3.113-.086.086-.172.171-.256.27l-.038.036c-1.412 1.51-4.06 4.305-4.402 6.897-.117.825.024 1.578.397 2.245 1.254 2.195 4.56.77 6.336 0zm-6.507-2.214c.33-2.506 2.948-5.283 4.341-6.763l.043-.042a4.89 4.89 0 0 1 .252-.264c1.638-1.639 4.193-3.29 6.505-3.045 1.316.128 2.398.856 3.254 2.153 1.113 1.699.611 3.632-1.492 5.736-2.006 2.006-4.874 3.528-6.263 4.133l-.226.092c-1.717.74-4.89 2.116-6.048.092-.348-.606-.47-1.316-.366-2.092zM55.157 58.824c.616 1.242 1.308 2.483 1.986 3.675 1.303 2.293 2.636 4.666 3.444 7.197 1.675 5.31 2.01 9.534 1.014 12.928-1.205 4.128.123 7.95 3.394 9.73 3.034 1.638 7.73 1.185 10.818.079 3.339-1.211 6.494-3.094 9.533-4.911.678-.397 1.333-.794 2.007-1.186.66-.39 1.332-.758 2.047-1.155a75.091 75.091 0 0 0 2.348-1.322c1.934-1.137 3.284-2.11 4.367-3.167l.085-.086c.887-.886 1.315-1.791 1.254-2.709-.098-1.554-1.523-2.844-2.9-3.914-.652-.507-1.325-.995-2.035-1.522-3.137-2.293-6.396-4.672-7.845-8.237-.82-2.03-.905-4.146-.997-6.402-.105-2.256-.19-4.593-1.12-6.807-.617-1.473-2.5-4.775-5.203-6.696-3.51-2.482-6.88-1.608-10.451-.678-1.51.384-3.082.794-4.702.947-.642-.03-1.566-.219-2.648-.434-2.942-.592-6.604-1.32-8.213.288-.458.458-.715 1.07-.777 1.828-.245 3.376 1.853 7.345 3.529 10.524.385.716.752 1.4 1.065 2.03zm-3.493-14.059c1.431-1.43 5.113-.697 7.791-.158 1.112.22 2.06.41 2.74.44h.036c1.664-.159 3.247-.569 4.782-.967 3.473-.892 6.745-1.742 10.077.612 2.422 1.725 4.349 4.837 5.046 6.5.886 2.135.985 4.434 1.075 6.642.093 2.195.185 4.451 1.04 6.567 1.5 3.688 4.813 6.097 8 8.427.696.526 1.375 1.021 2.03 1.517 1.222.954 2.622 2.207 2.714 3.582.05.784-.318 1.553-1.12 2.355l-.078.08c-1.064 1.027-2.392 1.987-4.28 3.094-.771.465-1.572.899-2.336 1.32-.716.399-1.388.777-2.067 1.163-.66.39-1.327.789-2.006 1.186-3.021 1.81-6.159 3.675-9.454 4.868-3.088 1.118-7.656 1.467-10.438-.043-3.064-1.67-4.311-5.278-3.168-9.198 1.02-3.48.685-7.801-1.021-13.202-.82-2.58-2.177-4.964-3.486-7.29a77.633 77.633 0 0 1-1.975-3.637 104.23 104.23 0 0 0-1.064-2.055c-1.65-3.12-3.712-7.014-3.473-10.262.049-.659.256-1.162.635-1.54zm10.929 13.73c1.136.304 2.182.164 3.136-.045.251-.053.502-.109.758-.17 1.56-.373 3.034-.71 4.788.153.349.19.71.428 1.053.66 1.02.666 2.053 1.358 3.277.844.14-.08.281-.22.41-.336l-.073-.097.084.084.001-.012c1.192-1.498 1.351-4.115.361-6.072-.838-1.657-2.28-2.526-4.06-2.458-.875.03-1.664.319-2.428.606-.96.336-1.939.69-3.095.562-.953-.11-2.354-.715-3.466-1.205-.203-.092-.399-.177-.575-.256-.374-.154-.851-.41-1.358-.673-1.285-.696-2.912-1.554-3.987-1.468-.35.03-.63.141-.832.342-.679.68-.343 2.166.06 3.29.894 2.484 3.138 5.498 5.946 6.25zm-5.841-9.376c.166-.165.386-.25.685-.28 1.015-.086 2.593.77 3.865 1.443.502.268.99.525 1.363.69.19.08.38.16.575.245 1.192.52 2.55 1.12 3.547 1.223 1.199.134 2.207-.226 3.186-.58.783-.282 1.534-.546 2.367-.582 2.268-.08 3.381 1.413 3.834 2.33.96 1.878.819 4.378-.33 5.822-.11.11-.24.238-.343.293-1.094.471-2.03-.158-3.039-.825-.355-.232-.715-.483-1.09-.66-1.815-.911-3.41-.539-4.934-.19-.25.066-.502.122-.758.184-.929.183-1.933.329-3.026.043-2.74-.735-4.918-3.682-5.786-6.103-.312-.876-.746-2.422-.116-3.053zm34.813-9.79l-.042-.006c-.796.184-1.431.771-1.622 1.535l.001.037c.171 1.994 1.438 3.835 3.228 4.71l.037.023.05-.025c.343-.134.623-.318.855-.55.672-.672.838-1.73.453-2.898-.501-1.48-1.724-2.654-2.96-2.825zm2.349 5.565a2.334 2.334 0 0 1-.734.477c-1.682-.838-2.874-2.592-3.046-4.476.165-.667.722-1.186 1.426-1.34 1.149.172 2.268 1.267 2.74 2.68.365 1.075.225 2.047-.386 2.659zM74.089 66.26c-.668.324-1.335.818-1.988 1.472-1.358 1.358-2.538 3.322-2.856 4.79-.752 3.393.643 7.013 3.468 9.006 2.353 1.67 5.943 1.064 8.823.581.3-.054.582-.104.857-.145 1.125-.173 3.198-.509 4.255-1.566.362-.362.582-.776.649-1.248.196-1.346-.862-2.807-1.724-3.987-.178-.239-.343-.477-.484-.679-.214-.324-.427-.649-.648-.99-2.024-3.04-4.305-6.495-7.833-7.528-.776-.24-1.633-.14-2.519.294zm10.156 7.368c.22.33.441.66.65.98.146.219.317.45.5.696.82 1.137 1.853 2.562 1.676 3.803-.067.423-.263.8-.587 1.126-1.003 1.002-3.034 1.332-4.129 1.51-.268.037-.555.091-.85.14-2.849.465-6.39 1.07-8.67-.537-2.74-1.946-4.098-5.48-3.363-8.782.317-1.418 1.455-3.34 2.788-4.672.642-.642 1.29-1.119 1.938-1.425.825-.398 1.62-.507 2.342-.288 3.45 1.016 5.712 4.428 7.705 7.449zm32.57 55.244c-.416.537-.857 1.088-1.132 1.743-.183.415-.286.825-.398 1.217-.171.647-.335 1.253-.782 1.858-.305.416-.66.783-.99 1.114l-.295.293-.298.3c-.41.409-.845.855-1.199 1.369-1.467 2.177-2.306 4.116-2.648 6.097-.63 3.627.55 7.4 3.62 11.545.422.57.85 1.193 1.309 1.86 1.945 2.812 4.366 6.322 7.478 7.38 2.013.678 4.068.165 5.644-1.412a8.107 8.107 0 0 0 1.076-1.358c1.505-2.385 1.922-4.806 2.356-7.38.262-1.548.525-3.156 1.064-4.77 1.075-3.254 2.696-6.477 4.255-9.602a170.33 170.33 0 0 0 1.682-3.406c.336-.715.716-1.424 1.1-2.176.275-.52.551-1.04.802-1.572.862-1.706 1.773-3.718 2.024-5.73.764-6.268-5.436-14.144-11.044-16.192-3.443-1.266-9.974-2.33-12.817.17-2.862 2.519-1.462 6-.239 9.057.435 1.07.845 2.092 1.046 3.002.355 1.59.153 3.492-.527 4.966-.274.593-.677 1.119-1.087 1.627zm1.84-6.635c-.208-.942-.624-1.97-1.057-3.051-1.2-2.984-2.563-6.39.183-8.794 2.757-2.44 9.178-1.376 12.578-.142 2.679.992 5.584 3.395 7.766 6.434 2.33 3.235 3.468 6.71 3.13 9.527-.243 1.982-1.142 3.97-1.986 5.657-.275.532-.55 1.052-.807 1.566a48.795 48.795 0 0 0-1.113 2.189 591.678 591.678 0 0 1-1.681 3.406c-1.566 3.13-3.18 6.36-4.269 9.624-.538 1.628-.802 3.247-1.07 4.813-.428 2.543-.838 4.949-2.324 7.29a7.529 7.529 0 0 1-1.046 1.314c-1.51 1.511-3.485 2.007-5.411 1.352-3.034-1.015-5.43-4.501-7.357-7.296-.452-.66-.886-1.29-1.32-1.859-3.022-4.084-4.19-7.795-3.572-11.36.336-1.965 1.175-3.866 2.611-6 .343-.514.764-.948 1.168-1.352l.299-.3.294-.293c.336-.336.698-.71 1.022-1.131.471-.642.641-1.303.813-1.938.104-.387.214-.79.385-1.193.275-.617.697-1.162 1.113-1.688.404-.513.825-1.045 1.113-1.676.697-1.515.906-3.473.539-5.099zM75.05 176.386c-.57.361-1.187.698-1.779 1.01-1.211.637-2.465 1.302-3.517 2.355a7.865 7.865 0 0 0-1.375 1.852c-1.536 2.856-2.055 8.108-2.47 12.327-.289 2.918.11 5.48 1.192 7.614.697 1.37 1.418 2.764 2.121 4.115 3.009 5.81 6.134 11.81 7.857 18.193.142.508.264 1.058.387 1.633.317 1.48.653 3.014 1.35 4.188.465.77 1.138 1.431 1.799 2.055.514.514 1.057 1.033 1.479 1.614 1.057 1.45 2.294 2.943 3.999 3.987 6.837 4.196 15.765-.782 20.468-4.114a20.34 20.34 0 0 0 2.58-2.19 20.468 20.468 0 0 0 2.605-3.167c2.05-3.113 3.352-6.69 4.213-11.6a77.36 77.36 0 0 1 .643-3.15c.973-4.41 1.987-8.97-.998-13.116a14.96 14.96 0 0 0-.397-.533c-1.608-2.085-3.65-3.785-5.613-5.43-2.918-2.428-5.92-4.94-7.564-8.703-.434-1.008-.619-2.084-.802-3.123-.146-.857-.3-1.731-.594-2.576-.604-1.803-1.858-3.741-3.014-5.411l-.184-.269c-.728-1.046-1.479-2.14-1.914-3.112-1.192-2.721-.311-4.703.612-6.8.092-.178.153-.35.233-.514 1.56-3.553 2.709-7.797-.538-12.292-2.342-3.234-5.639-5.675-7.98-7.148-4.61-2.899-9.748-2.886-14.108.03a18.733 18.733 0 0 0-2.703 2.214c-2.55 2.55-3.864 5.576-3.7 8.506.16 2.703 1.535 5.155 3.987 7.106.441.342.838.605 1.21.855.37.245.71.479 1.071.765 3.034 2.434 4.715 4.96 4.843 7.314.086 1.541-.5 2.96-1.748 4.206-.46.46-1.016.906-1.65 1.31zm3.859-5.546c-.135-2.482-1.872-5.137-5.015-7.643a18.853 18.853 0 0 0-1.094-.777c-.368-.257-.76-.513-1.187-.856-2.343-1.853-3.664-4.189-3.81-6.746-.159-2.812 1.1-5.698 3.565-8.163.77-.77 1.652-1.492 2.636-2.158 4.195-2.814 9.155-2.82 13.6-.025 2.312 1.456 5.547 3.847 7.846 7.027 2.513 3.466 2.654 6.897.495 11.833l-.227.519c-.929 2.091-1.895 4.268-.617 7.161.446 1.02 1.211 2.127 1.964 3.197l.176.275c1.132 1.634 2.372 3.548 2.96 5.297.281.808.433 1.67.568 2.5.184 1.065.38 2.165.838 3.235 1.688 3.853 4.733 6.41 7.681 8.867 1.951 1.633 3.974 3.315 5.558 5.364.129.164.257.33.392.512 2.85 3.975 1.915 8.239.91 12.751-.225 1.033-.464 2.103-.647 3.167-.85 4.85-2.122 8.371-4.133 11.423-.685 1.052-1.573 2.122-2.55 3.1-.802.802-1.658 1.524-2.52 2.141-4.617 3.272-13.35 8.152-19.954 4.104-1.651-1.016-2.837-2.46-3.883-3.883-.44-.6-.991-1.138-1.522-1.658-.66-.648-1.297-1.248-1.725-1.97-.666-1.106-.985-2.598-1.303-4.053a26.145 26.145 0 0 0-.379-1.651c-1.742-6.44-4.88-12.463-7.9-18.284-.703-1.352-1.431-2.74-2.116-4.11-1.04-2.054-1.425-4.53-1.15-7.363.416-4.183.93-9.38 2.416-12.15a7.625 7.625 0 0 1 1.302-1.743c1.01-1.008 2.22-1.645 3.4-2.274.606-.325 1.23-.654 1.817-1.034.654-.422 1.241-.874 1.73-1.364 1.346-1.344 1.975-2.879 1.878-4.568zm10.676 30.93c-.49.257-.978.514-1.498.68-.746.243-1.259.195-1.86.146a8.32 8.32 0 0 0-1.075-.048c-1.223.06-2.465.642-3.491 1.668-.888.888-1.53 2.018-1.81 3.168-.338 1.389.146 2.568.604 3.7.318.795.649 1.626.716 2.513.104 1.29-.153 2.587-.398 3.847-.244 1.21-.483 2.463-.434 3.723.245 5.174 3.01 9.161 7.62 10.947 5.49 2.127 12.254.685 16.437-3.498.312-.313.618-.643.899-.972 3.492-4.214 3.913-8.745 4.36-13.534.11-1.185.226-2.414.39-3.644.259-2.018.05-3.84-.653-5.45-1.627-3.741-5.766-5.85-10.8-5.502-2.507.183-5.247.918-7.355 1.535-.588.171-1.125.44-1.652.722zm9.02-2.023c4.94-.343 8.99 1.712 10.566 5.368.685 1.565.9 3.345.637 5.32a86.422 86.422 0 0 0-.38 3.657c-.445 4.752-.861 9.24-4.317 13.392-.27.343-.561.66-.874.973-4.127 4.127-10.787 5.54-16.187 3.442-4.519-1.755-7.252-5.662-7.48-10.744-.053-1.228.191-2.476.424-3.662.25-1.278.507-2.6.409-3.908-.061-.93-.41-1.767-.734-2.58-.464-1.163-.912-2.257-.599-3.56.275-1.118.9-2.208 1.755-3.064.984-.985 2.171-1.558 3.332-1.608.398-.005.741.019 1.052.049.6.05 1.156.105 1.958-.147.537-.17 1.038-.44 1.522-.69.52-.275 1.046-.557 1.609-.716 2.097-.618 4.825-1.34 7.307-1.522zm-7.68 26.673c1.766 1.206 4.231 1.125 6.286-.195a7.177 7.177 0 0 0 1.18-.96c2.36-2.36 3.559-6.593 1.486-9.608a5.967 5.967 0 0 0-.862-.995c-1.798-1.639-4.385-1.108-6.904 1.411-1.523 1.524-2.745 3.553-3.046 5.051-.446 2.245.233 4.183 1.86 5.296zm-1.633-5.252c.287-1.45 1.486-3.431 2.984-4.93.911-.91 4.073-3.692 6.58-1.406.317.294.599.612.831.966 1.988 2.868.79 7.064-1.454 9.307a7.292 7.292 0 0 1-1.151.93c-1.963 1.266-4.341 1.346-6.023.19-1.553-1.052-2.195-2.904-1.767-5.057zm72.672-49.154c-1.181-.128-2.172.202-2.955.985-2.329 2.33-2.024 7.87-1.204 10.194 1.278 3.664 4.58 6.635 5.926 7.736 1.87 1.528 4.708 3.472 7.802 2.764.801-.178 1.443-.514 1.908-.98.251-.25.454-.537.606-.861.61-1.285.483-3.162-.368-5.601-3.1-8.824-7.154-13.748-11.715-14.237zm11.88 19.734c-.415.88-1.216 1.461-2.36 1.724-2.996.685-5.772-1.223-7.601-2.72-1.345-1.09-4.598-4.025-5.864-7.626-.777-2.22-1.075-7.742 1.15-9.968.728-.727 1.657-1.034 2.776-.918 4.457.484 8.445 5.352 11.509 14.078.838 2.39.971 4.213.39 5.43zm-32.813.11l-.086-.036-.054.066c-1.15 1.212-.972 3.516-.092 4.935.16.808 1.223 1.15 1.938 1.144h.025l.024-.012c.122-.061.27-.184.453-.367l.135-.135.024-.037.006-.03c.226-1.95-.415-4.513-2.373-5.528zm2.154 5.466l-.105.104a1.637 1.637 0 0 1-.38.306c-.617-.006-1.552-.306-1.674-.978l-.013-.036c-.819-1.285-1.015-3.462-.018-4.605 1.791.972 2.384 3.362 2.19 5.21zM88.478 316.13c2.91.208 5.92.428 8.953-1.346l.017-.006.013-.013c1.773-1.895.232-3.632-1.547-5.62-.691-.775-1.407-1.576-2-2.463-1.756-2.624-3.04-7.039-3.43-11.797l-.025-.133c-.073-.942-.147-1.823 0-2.912.525-3.766 3.363-6.616 6.371-9.625 1.463-1.461 2.96-2.96 4.164-4.58 1.756-2.342 2.478-4.58 2.196-6.843-.452-3.717-2.61-7.429-5.521-9.435-2.06-1.437-4.336-1.914-6.58-1.382-3.981.948-9.405 3.02-12.072 5.137-.55.44-1.35 1.168-2.097 1.914-.655.654-1.23 1.278-1.645 1.804-1.945 2.397-3.521 5.577-5.18 8.958-1.73 3.516-3.515 7.137-5.766 9.79-.477.575-.992 1.15-1.492 1.7-1.993 2.226-4.048 4.538-4.373 6.928-.348 2.612.527 4.746 1.554 7.228.282.685.587 1.407.862 2.16.367 1.295.581 2.782.807 4.353.354 2.373.697 4.83 1.652 6.825.446.91.965 1.821 1.48 2.715.952 1.663 1.938 3.381 2.42 5.173.05.209.092.41.136.612.134.623.28 1.295.715 2l1.504 1.504c.936.311 1.92-.025 2.868-.972a7.6 7.6 0 0 0 .673-.784c.684-.93 1.247-2.017 1.828-3.173.68-1.326 1.376-2.697 2.324-3.865.323-.397.648-.771.977-1.1 3.272-3.273 6.642-3.021 10.214-2.752zm-10.37 2.593a14.67 14.67 0 0 0-.998 1.106c-.96 1.193-1.664 2.581-2.349 3.914-.58 1.143-1.131 2.231-1.815 3.149-.214.276-.43.54-.643.753-.948.948-1.926 1.228-2.837.844-1.424-1.168-1.645-2.233-1.865-3.26-.043-.215-.08-.422-.147-.623-.47-1.83-1.474-3.554-2.44-5.23-.508-.885-1.033-1.804-1.461-2.695-.942-1.97-1.291-4.41-1.633-6.77-.22-1.578-.44-3.07-.82-4.392-.281-.758-.587-1.479-.874-2.182-1.01-2.44-1.87-4.55-1.535-7.088.312-2.342 2.348-4.61 4.317-6.812a99.396 99.396 0 0 0 1.511-1.706c2.255-2.672 4.047-6.323 5.785-9.845 1.656-3.357 3.216-6.544 5.142-8.91.428-.514.991-1.137 1.639-1.785.74-.74 1.535-1.463 2.078-1.896 2.637-2.097 8.025-4.147 11.974-5.087 2.19-.527 4.404-.062 6.403 1.326 2.844 1.987 4.977 5.627 5.425 9.276.268 2.215-.435 4.397-2.148 6.696-1.204 1.597-2.69 3.095-4.146 4.55-2.904 2.905-5.9 5.914-6.438 9.754-.153 1.119-.074 2.054 0 2.96l.012.134c.403 4.795 1.7 9.246 3.474 11.9.598.905 1.333 1.712 2.023 2.501 1.78 1.975 3.173 3.54 1.56 5.303-2.967 1.717-5.938 1.498-8.806 1.296-3.62-.282-7.044-.526-10.389 2.819zm55.486-101.084c-1.26-.354-2.745-.519-4.176.912-.16.16-.324.35-.476.539-1.016 1.296-1.94 2.892-2.936 4.573-1.212 2.068-2.594 4.415-4.33 6.556-2.477 3.063-5.797 6.885-8.878 10.237-1.102 1.43-1.548 3.296-1.224 5.124a6.496 6.496 0 0 0 2.93 4.385l.023.011c.22.062.447.104.68.166.366.085.745.171 1.106.287l.024.012h.038c2.005-.452 3.9-1.736 5.907-3.093 2.2-1.492 4.47-3.016 7.202-3.73 1.518-.405 2.967-.57 4.379-.735 1.297-.148 2.501-.287 3.682-.587 3.419-.862 7.136-2.721 9.95-4.971.42-.336.8-.667 1.118-.985 1.358-1.357 1.871-2.641 1.688-4.183-.416-3.448-4.09-8.102-6.544-9.918-.25-.178-1.681-1.009-2.304-1.315-2.556-1.247-5.963-2.758-7.859-3.285zm16.469 14.55c.183 1.479-.3 2.671-1.616 3.985-.311.313-.684.636-1.093.973-2.789 2.227-6.482 4.06-9.858 4.93-1.162.292-2.38.433-3.651.58-1.425.165-2.886.33-4.42.74-2.77.715-5.053 2.263-7.278 3.766-1.976 1.328-3.847 2.587-5.79 3.04-.356-.123-.74-.202-1.102-.294-.214-.043-.44-.098-.642-.152-1.51-.961-2.495-2.46-2.813-4.22a6.322 6.322 0 0 1 1.174-4.941c3.082-3.338 6.403-7.16 8.886-10.23 1.75-2.166 3.13-4.513 4.347-6.586.985-1.67 1.915-3.26 2.917-4.544.136-.196.3-.372.452-.525 1.347-1.346 2.759-1.18 3.957-.851 1.871.526 5.259 2.031 7.81 3.272.61.281 2.035 1.118 2.269 1.29 2.683 1.987 6.083 6.684 6.45 9.766zM88.47 272.888c-2.31-2.31-5.344-.93-7.41 1.137-1.86 1.859-3.205 4.428-3.53 6.697-.19 1.388-.268 2.984 1.273 4.28 1.815 1.045 4.965-.807 7.136-2.978 1.51-1.51 2.635-3.199 3.173-4.752.637-1.822.41-3.332-.642-4.384zm-2.696 8.97c-2.574 2.575-5.393 3.793-6.83 2.955-1.437-1.205-1.371-2.728-1.18-4.055.311-2.22 1.632-4.74 3.46-6.567 2.574-2.574 5.217-3.003 7.081-1.138 1.247 1.247 1.003 2.935.587 4.145-.52 1.523-1.632 3.175-3.118 4.66zm48.504-53.825c-1.822.074-3.57.906-5.069 2.404-1.455 1.455-2.537 3.43-2.954 5.412l-.005.055.024.037a.66.66 0 0 1 .134.428l.007.042c.153.385.452.526.746.649.196.098.379.17.52.323l.03.03.043.007c2.763.331 7.924.967 10.567-1.675.415-.416.751-.9 1.026-1.444.643-1.326.588-2.715-.189-3.882-.978-1.505-2.941-2.452-4.88-2.386zm4.862 6.16c-.25.53-.587.99-.985 1.387-2.543 2.544-7.595 1.957-10.34 1.62a1.592 1.592 0 0 0-.563-.343c-.269-.122-.501-.232-.605-.519a1.023 1.023 0 0 0-.153-.484c.403-1.93 1.454-3.839 2.874-5.258 1.45-1.45 3.161-2.256 4.922-2.33 1.86-.073 3.737.85 4.672 2.275.514.77.955 2.042.178 3.651zm4.458 23.18c-2.788-4.243-9.711-5.515-13.429-3.583-.612.319-1.577.967-2.244 1.511a43.37 43.37 0 0 0-3.26 2.942c-6.035 6.035-8.922 12.493-7.698 17.262.489 1.933 1.075 3.546 1.65 5.112 1.218 3.345 2.275 6.225 1.933 10.848-.067 1.047-.306 2.19-.545 3.308-.152.74-.306 1.505-.42 2.245-.222 1.444-.441 2.936.921 4.263l.025.023.026.013c2.2.733 4.835.911 7.038.471 2.685-.533 7.141-2.79 10.12-5.131a20.54 20.54 0 0 0 1.694-1.486c3.394-3.394 3.596-6.666 3.823-10.12.067-.948.122-1.944.256-2.948.067-.531.146-1.076.22-1.626.764-5.682 1.632-12.127 1.04-19.165-.13-1.536-.582-3.089-1.15-3.938zm-.11 23.08c-.086.55-.154 1.094-.227 1.62-.134 1.014-.195 2.005-.263 2.966-.22 3.412-.428 6.63-3.76 9.961-.495.496-1.057.997-1.67 1.474-2.959 2.323-7.35 4.562-10.016 5.087-2.153.428-4.74.264-6.904-.458-1.265-1.254-1.046-2.672-.832-4.049.104-.728.263-1.497.422-2.232.233-1.112.47-2.28.545-3.333.342-4.683-.71-7.582-1.945-10.945-.581-1.56-1.173-3.18-1.657-5.094-1.186-4.696 1.675-11.068 7.65-17.042a43.052 43.052 0 0 1 3.234-2.93c.667-.532 1.609-1.168 2.22-1.486 3.626-1.889 10.401-.642 13.129 3.505.532.812.98 2.36 1.101 3.84.6 7.008-.27 13.428-1.027 19.115zm-9.528-20.45c-1.865-.177-4.005.826-6.023 2.843-2.71 2.71-4.47 6.513-4.28 9.247.19 2.844 1.516 5.87 2.788 8.794.65 1.467 1.315 2.99 1.81 4.427.44 1.43 1.473 2.464 2.758 2.794 1.174.28 2.366-.08 3.289-1.003.154-.153.3-.311.434-.507.257-.33.52-.912.851-1.828.63-1.73 1.297-3.792 2.006-5.968.257-.783.508-1.572.764-2.343.685-2.092 1.01-4.666 1.01-6.17.005-2.575-.557-6.01-1.792-7.87-.98-1.467-2.19-2.275-3.615-2.416zm4.177 16.382c-.252.777-.514 1.567-.758 2.336-.716 2.184-1.388 4.239-2.006 5.969-.324.887-.593 1.462-.82 1.773a3.99 3.99 0 0 1-.415.478c-.868.868-1.982 1.198-3.063.935-1.212-.294-2.19-1.273-2.605-2.63-.502-1.454-1.17-2.977-1.81-4.451-1.273-2.912-2.587-5.913-2.778-8.72-.182-2.667 1.554-6.397 4.22-9.063 1.962-1.963 4.042-2.954 5.834-2.776 1.345.134 2.508.905 3.448 2.312 1.212 1.821 1.756 5.19 1.756 7.735-.006 1.486-.318 4.036-1.003 6.102zm-33.725 18.23c.238.459.521.667.844.929.208.171.465.38.734.685l.019.018.036.013c2.06.789 4.238.25 5.962-1.474 1.59-1.59 2.544-3.975 2.422-6.078-.067-1.094-.575-2.984-1.51-3.76-1.572-1.303-3.628-.888-5.644 1.13-2.312 2.312-4.006 6.28-2.863 8.537zm3.021-8.378c.911-.912 3.253-2.837 5.344-1.113.869.722 1.364 2.574 1.42 3.595.122 2.043-.807 4.355-2.355 5.902-1.65 1.65-3.724 2.17-5.693 1.425a5.888 5.888 0 0 0-.758-.685c-.306-.244-.557-.446-.765-.85-1.088-2.128.6-6.066 2.807-8.274zm86.785-67.4l.038.012c.617.043 1.204-.165 1.571-.532.22-.22.367-.49.428-.808l-.006-.042c-.055-.423-.252-.752-.588-.978-.746-.527-1.84-.362-2.17-.3l-.03.006-.019.019c-.251.202-.434.409-.495.605-.239.948.654 1.584 1.247 2.005l.024.012zm-1.057-1.951c.043-.128.201-.3.403-.476.611-.123 1.443-.11 1.969.255.276.203.44.478.483.814a1.24 1.24 0 0 1-.348.68c-.318.317-.827.482-1.358.451-.574-.403-1.34-.947-1.15-1.724zm-32.001 54.382l-.055.006c-.104.018-.196-.036-.311-.092-.123-.062-.27-.147-.453-.11l-.037.011c-.232.11-.446.264-.618.435-1.173 1.174-.904 3.547.098 4.819l.037.049.08-.006c.073-.013.165.03.256.06.056.032.11.062.172.074l.037.012.023-.013c.367-.12.68-.311.955-.586.562-.562.868-1.406.83-2.336-.017-.923-.378-1.761-.977-2.287l-.037-.036zm.02 4.494c-.246.245-.521.41-.833.514-.03-.006-.062-.026-.098-.038a.791.791 0 0 0-.324-.09c-.918-1.2-1.162-3.388-.08-4.47.154-.154.343-.27.539-.38.115-.006.201.03.312.092.11.06.232.123.378.11.527.5.85 1.253.875 2.097.019.862-.257 1.651-.77 2.165zm-71.816 66.675c-1.377-1.354-3.092-1.98-4.613-1.706-1.604.29-2.265 1.258-2.265 1.258-.32.414-.531.961-.537 1.493-.01.604.238 1.12.697 1.45 1.364.984 2.71 1.13 4.268 1.3l.551.063c.162.018.321.028.475.028 1.065 0 1.901-.442 2.237-1.21.35-.796.106-1.737-.676-2.535 0 0-.093-.097-.137-.14zm.443 2.514c-.323.7-1.174 1.071-2.297.94l-.553-.062c-1.562-.169-2.798-.305-4.074-1.224-.447-.323-.536-.787-.53-1.118.004-.437.167-.97.548-1.346a3.686 3.686 0 0 1 1.904-1.002c1.357-.246 2.896.33 4.153 1.49 0 0 1.367 1.203.849 2.322zm113.364-204.559c-4.91-.349-9.766 1.107-12.377 3.719-1.131 1.13-1.822 2.432-2.05 3.883-.733 4.586 2.503 8.26 5.022 10.634 5.02 3.504 11.073 3.93 15.055 1.076.318-.232.624-.5.912-.789 3.314-3.314 4.983-10.89 2.146-14.682-1.62-2.16-4.794-3.56-8.708-3.84zm6.402 18.365c-.281.28-.574.536-.886.75-3.902 2.814-9.852 2.38-14.787-1.064-2.458-2.322-5.638-5.943-4.928-10.42.226-1.388.892-2.653 1.987-3.748 2.563-2.562 7.35-3.998 12.193-3.657 3.847.288 6.965 1.645 8.543 3.761 2.776 3.706 1.132 11.124-2.122 14.378zm-7.442-10.305c-.574 0-1.156.263-1.615.722-.55.55-.849 1.302-.789 2.011.05.674.411 1.278 1.034 1.743l.024.013c1.572.654 2.477.079 2.875-.32.703-.701.923-1.9.525-2.847-.348-.851-1.094-1.316-2.054-1.322zm1.364 4.006c-.618.617-1.536.715-2.605.269-.57-.41-.887-.949-.936-1.56-.049-.648.214-1.327.722-1.834.416-.416.948-.642 1.455-.649 1.174.001 1.664.734 1.841 1.169.366.868.159 1.968-.477 2.605zm17.672 25.744c1.395.49 2.905.056 4.147-1.186 1.18-1.18 1.889-2.88 1.864-4.433-.024-1.176-.451-2.177-1.253-2.918-1.73-1.608-5.56-2.024-7.394-.19a3.787 3.787 0 0 0-.592.802c-1.45 2.782.507 6.084 3.197 7.918l.031.007zm-3.02-7.803c.14-.287.33-.538.55-.759 1.7-1.7 5.43-1.332 7.075.19.752.704 1.15 1.651 1.174 2.753.031 1.497-.66 3.13-1.798 4.267-1.18 1.18-2.586 1.596-3.889 1.138-2.599-1.767-4.507-4.947-3.112-7.589zM93.23 338.394s-5.171-4.525-8.807-5.047c-2.51-.36-4.746.39-6.406 2.062-.57.572-1.09 1.375-1.09 1.375-.892 1.37-1.792 3.291-1.535 5.235a7.295 7.295 0 0 0 2.991 4.93c.632.443 1.362.811 2.368 1.194a21.255 21.255 0 0 0 11.029 1.096c.779-.13 1.589-.318 2.226-.81.693-.534 1.084-1.343 1.424-2.124.502-1.158 1.175-5.097-2.2-7.911zm1.952 7.802c-.326.75-.697 1.525-1.342 2.02-.589.456-1.36.634-2.105.758a21.031 21.031 0 0 1-10.889-1.082c-.985-.376-1.696-.734-2.307-1.164a7.01 7.01 0 0 1-2.879-4.744c-.244-1.841.606-3.678 1.46-5.006h.001a8.363 8.363 0 0 1 1.087-1.379c1.606-1.607 3.736-2.241 6.179-1.966 3.057.343 8.67 4.97 8.67 4.97 3.249 2.706 2.607 6.483 2.125 7.593zm2.169-8.207c-.704-.641-1.37-1.332-2.024-2.011-.636-.672-1.247-1.308-1.89-1.89-.221-.207-.452-.416-.68-.617-2.066-1.846-4.016-3.59-4.096-5.406-.037-.832.306-1.639 1.058-2.452 1.431-1.529 3.76-2.207 6.262-2.923 1.523-.434 3.089-.887 4.635-1.565 2.367-1.046 4.745-2.544 6.52-4.147.206-.17.402-.354.58-.53 2.72-2.722 3.918-6.049 2.91-8.098-.379-.77-.91-1.13-1.259-1.381l-.116-.068c-.99-.697-2.177-1.113-3.424-1.566-1.474-.507-3.016-1.044-4.428-2.103-3.798-2.832-4.342-6.347-4.128-8.8.373-4.483 3.04-7.87 6.476-11.856l.446-.509c3.498-4.036 6.807-7.857 5.48-12.877-1.071-4.08-2.672-9.228-5.626-12.83-2.3-2.8-5.076-3.462-8.01-4.171-1.23-.287-2.515-.605-3.793-1.076l-.036-.012-.043-.006c-1.37.025-2.887-.367-4.494-.777-2.973-.77-6.043-1.565-8.55.184a4.61 4.61 0 0 0-.599.514c-.831.83-1.357 1.87-1.54 2.287-.46 1.008-.796 2.091-1.163 3.228-.477 1.529-.984 3.113-1.78 4.494-.672 1.138-1.424 2.172-2.232 3.26-.782 1.039-1.583 2.122-2.31 3.34-1.352 2.244-2.588 4.493-3.798 6.659-2.446 4.402-4.752 8.567-7.919 12.883-3.229 4.366-5.46 7.785-4.984 11.98.214 1.938.801 3.59 1.358 5.198.623 1.75 1.253 3.553 1.42 5.735.047.845.071 1.67.071 2.471 0 1.587.104 2.379.104 2.379.415 2.785 2.548 4.661 4.639 6.468.97.839 1.972 1.705 2.786 2.651 2.868 3.33 4.246 7.708 5.578 11.939 1.439 4.57 2.927 9.294 6.294 12.737 3.177 3.246 7.297 4.596 10.194 5.155 2.009.39 4.04.524 5.93.524 2.1 0 4.026-.166 5.551-.329 1.757-.188 3.59-.468 4.986-1.607 2.254-1.843 2.305-5.148 1.488-7.472-1.387-3.941-5.5-6.69-5.844-7.007zm4.05 14.106c-1.293 1.055-3.046 1.32-4.732 1.5-2.864.309-7.16.623-11.337-.187-2.83-.548-6.852-1.863-9.941-5.02-3.289-3.36-4.758-8.03-6.18-12.544-1.346-4.28-2.74-8.703-5.671-12.109-.838-.974-1.854-1.851-2.838-2.7-2.175-1.882-4.217-3.67-4.512-6.406a38.945 38.945 0 0 1-.08-2.09c-.019-.801-.03-1.633-.091-2.489-.154-2.243-.801-4.079-1.425-5.864-.557-1.572-1.131-3.21-1.35-5.094-.455-4.023 1.742-7.368 4.903-11.655 3.192-4.342 5.613-8.708 7.955-12.934 1.204-2.158 2.447-4.403 3.798-6.647.71-1.198 1.505-2.262 2.268-3.296.82-1.1 1.59-2.14 2.264-3.302.831-1.43 1.339-3.039 1.833-4.598.355-1.125.691-2.183 1.132-3.175.146-.292.649-1.344 1.45-2.146.17-.17.354-.33.537-.465 2.337-1.614 5.308-.855 8.176-.115 1.62.422 3.156.819 4.568.8 1.29.484 2.568.784 3.81 1.083 2.849.685 5.552 1.333 7.754 4.011 2.892 3.529 4.477 8.623 5.54 12.659 1.254 4.776-1.834 8.34-5.388 12.456l-.446.507c-3.497 4.049-6.2 7.498-6.586 12.114-.22 2.569.343 6.25 4.312 9.204 1.473 1.106 3.038 1.657 4.549 2.189 1.23.422 2.374.831 3.314 1.492l.11.073c.331.233.796.55 1.107 1.205.924 1.865-.226 4.984-2.813 7.57-.17.171-.366.343-.561.514-1.738 1.566-4.08 3.04-6.403 4.067-1.517.66-3.076 1.119-4.58 1.547-2.55.728-4.954 1.42-6.465 3.051-.843.905-1.229 1.828-1.186 2.777.086 2.017 2.103 3.827 4.25 5.73.239.213.465.416.69.63.625.563 1.224 1.186 1.853 1.852.656.68 1.334 1.394 2.05 2.036.352.323 1.341 1.13 1.341 1.13 2.27 1.812 3.513 3.435 4.363 5.709.805 2.151.729 5.238-1.342 6.93zm69.329-84.989l.002-.002c-.012-.027-.028-.05-.04-.076-.023-.045-.043-.093-.066-.138l-.005.002c-.039-.074-.075-.15-.116-.223-1.492-2.69-3.78-6.42-5.29-8.285-1.222-1.517-2.684-2.66-3.547-2.788-2.121-.312-5.18 1.877-7.343 4.041-1.419 1.42-2.556 2.912-3.101 4.104-1.003 2.177-1.18 5.497-1.32 8.17-.093 1.522-.281 3.155-.453 4.733-.453 3.95-.908 8 .121 11.303h-.003c.004.017.012.032.017.048.02.065.032.136.055.2l.012-.012c.435 1.246 1.546 2.259 3.173 2.864 1.482.552 3.1.603 4.634.61h.215c3.312 0 6.703-.308 9.22-2.349.868-.703 1.658-1.648 2.415-2.887 3.629-5.938 4.196-13.836 1.42-19.315zm-1.62 19.191c-.744 1.217-1.516 2.142-2.363 2.83-2.46 1.993-5.802 2.295-9.072 2.295l-.215-.001c-1.51-.005-3.108-.057-4.552-.595-.958-.357-2.639-1.214-3.11-2.94l-.014.003c-1.006-3.263-.56-7.297-.107-11.227.178-1.571.373-3.198.458-4.74.135-2.654.313-5.95 1.303-8.089.538-1.162 1.645-2.636 3.045-4.036 2.025-2.024 5.107-4.275 7.149-3.982.795.123 2.226 1.26 3.407 2.71 1.504 1.858 3.778 5.59 5.265 8.248.038.078.079.15.119.225l-.006.002c2.864 5.415 2.327 13.35-1.308 19.297zm38.72-75.739c-.45-.942-.941-1.884-1.411-2.795-.527-1.027-1.07-2.086-1.584-3.137-1.29-2.684-2.629-5.577-3.51-8.683l-.122-.453c-.349-1.217-.642-2.268-.6-3.534.068-1.596-.353-2.801-.88-4.33l-.16-.476c-.341-1.004-.568-2.086-.782-3.132-.257-1.21-.514-2.47-.965-3.645-.87-2.261-2.85-3.338-4.77-4.377-.656-.362-1.333-.734-1.94-1.132-2.348-1.565-3.797-3.601-5.337-5.767-.68-.948-1.383-1.931-2.172-2.88-.831-1.003-1.754-1.963-2.648-2.892-1.173-1.223-2.286-2.386-3.216-3.62-1.217-1.62-1.835-3.35-2.434-5.014-.435-1.217-.837-2.355-1.455-3.425-.887-1.56-3.033-3.852-5.272-3.828-1.547.031-2.696 1.119-3.712 2.085-.304.28-.605.557-.898.8-.789.656-1.683 1.109-2.623 1.573-.82.415-1.676.844-2.459 1.43-2.55 1.89-4.788 4.874-5.907 6.483-1.638 2.397-3.577 6.304-3.913 8.83-.3 2.293.593 5.24 1.381 7.852.35 1.119.66 2.177.875 3.113.06.269.123.55.178.813.953 4.39 1.859 8.548 7.692 13.465 1.247 1.052 5.552 4.623 8.524 6.225 1.744.948 3.56 1.273 5.308 1.577 2.538.447 4.728.839 6.225 2.972.863 1.217 1.23 2.624 1.016 3.865-.196 1.09-.82 2.019-1.86 2.74-.709.49-1.547.862-2.348 1.223-.807.355-1.651.721-2.373 1.211-2.126 1.456-3.331 2.696-4.426 4.611-3.186 5.546 0 10.774 3.375 16.303.3.495.6.99.905 1.479 3.395 5.67 4.464 10.225 3.834 16.26-.055.496-.122.967-.201 1.413-.037.305-.092.593-.116.862-.355 2.715-.54 4.635-.38 6.544l.017-.017c.062 1.05.185 2.163.524 3.049.556 1.457 1.638 2.5 2.893 2.787.19.045.385.064.58.064.923 0 1.888-.433 2.697-.796.345-.156.788-.375 1.165-.699 1.214-1.046 1.386-2.81 1.41-4.047.033-1.76-.282-3.103-.648-4.656-.286-1.214-.61-2.589-.827-4.431l-.02.002a48.888 48.888 0 0 1-.214-1.99 48.44 48.44 0 0 0-.306-2.824c-.685-4.77-2.838-8.903-5.577-13.82l-.153-.275c-1.498-2.673-3.186-5.706-2.312-8.513 3.725-4.237 8.85-.715 13.369 2.386.71.49 1.369.94 2.024 1.364 1.313.85 2.391 1.424 3.717 1.968 1.487.606 3.241.71 4.917.722.55.012 1.149.06 1.773.11 1.651.147 3.443.312 4.941-.355l2.153-2.152c.422-.973.52-2.123.636-3.241.079-.9.153-1.744.379-2.459 1.479-4.695-.172-9.099-1.976-12.786zm1.323 12.572c-.257.795-.338 1.706-.417 2.605-.128 1.401-.274 2.856-1.039 3.803-1.394 1.726-3.706 1.53-5.932 1.334a22.537 22.537 0 0 0-1.833-.122c-1.609-.006-3.29-.11-4.66-.672-1.279-.521-2.33-1.07-3.615-1.902-.636-.417-1.303-.876-2.006-1.357-4.537-3.12-10.17-7.003-14.321-2.215l-.043.056-.03.066c-1.003 3.107.776 6.305 2.347 9.124l.16.282c2.703 4.842 4.818 8.928 5.504 13.575.128.936.214 1.878.293 2.789.104 1.168.208 2.311.415 3.364l.002-.003c.2 1.23.436 2.239.652 3.154.354 1.508.66 2.81.628 4.485-.021 1.103-.163 2.669-1.167 3.531-.307.265-.676.448-1.003.596-.878.393-1.97.888-2.828.687-1.213-.28-2.035-1.402-2.4-2.36-.426-1.115-.487-2.77-.532-3.979l-.003-.096h-.012c-.008-1.476.142-3.072.42-5.166.025-.27.073-.55.117-.838.072-.465.146-.942.207-1.455.648-6.2-.451-10.873-3.938-16.683-.294-.489-.6-.99-.899-1.485-3.265-5.357-6.347-10.408-3.364-15.594 1.034-1.816 2.177-2.996 4.208-4.379.685-.464 1.45-.8 2.262-1.161.839-.374 1.7-.746 2.47-1.284 1.181-.826 1.921-1.92 2.141-3.192.245-1.407-.159-3.009-1.124-4.379-1.67-2.366-4.104-2.807-6.68-3.253-1.693-.3-3.453-.605-5.086-1.503-2.917-1.586-7.186-5.107-8.426-6.153-5.645-4.764-6.52-8.805-7.449-13.074-.06-.281-.115-.545-.184-.832-.22-.953-.53-2.024-.873-3.161-.777-2.538-1.652-5.407-1.365-7.553.318-2.42 2.19-6.2 3.804-8.524 1.077-1.577 3.266-4.488 5.742-6.329.74-.544 1.553-.953 2.36-1.358.93-.476 1.89-.959 2.753-1.663a20 20 0 0 0 .923-.837c.965-.918 1.975-1.853 3.253-1.872 1.932-.037 3.878 2.104 4.66 3.461.593 1.021.99 2.13 1.405 3.315.613 1.713 1.248 3.498 2.526 5.204.96 1.266 2.135 2.489 3.278 3.67.874.935 1.793 1.888 2.605 2.86.777.924 1.467 1.91 2.146 2.857 1.511 2.11 3.064 4.298 5.51 5.925.649.428 1.339.8 2 1.156 1.89 1.033 3.681 2.006 4.45 4.024.442 1.125.687 2.36.937 3.54.22 1.064.453 2.164.795 3.217l.17.477c.503 1.455.9 2.61.845 4.073-.054 1.375.275 2.536.63 3.76l.116.446c.893 3.155 2.245 6.085 3.56 8.793.507 1.058 1.058 2.123 1.583 3.15.477.917.954 1.859 1.419 2.788 1.737 3.572 3.339 7.816 1.933 12.267zm37.223-26.698c-.361-.988-1.254-1.776-2.609-2.364l.015-.015c-1.468-.574-3.063-1.327-4.617-2.06-2.647-1.266-5.387-2.562-7.729-3.083-2.783-.63-5.369-.11-7.297 1.474a7.371 7.371 0 0 0-.55.501c-2.96 2.96-4.396 8.862-3.888 12.524.207 1.504.966 2.887 2.091 3.791 1.913 1.275 4.106 1.964 6.328 2.237l-.001.011c.037.004.076.002.113.008.043.004.085.016.128.02l.01-.01c.344.037.69.07 1.045.07 1.767 0 3.695-.479 5.956-1.468 4.865-2.128 8.727-5.458 10.874-9.377.277-.506.457-1.367.13-2.26zm-.337 2.146c-2.123 3.872-5.945 7.167-10.763 9.274-2.664 1.167-4.854 1.607-6.857 1.386-2.283-.235-4.543-.918-6.493-2.22-1.07-.863-1.803-2.196-2-3.64-.5-3.607.918-9.417 3.83-12.327.177-.178.354-.342.538-.49 1.859-1.54 4.384-2.036 7.098-1.425 2.312.514 5.04 1.81 7.682 3.058 1.438.687 2.919 1.382 4.29 1.938l-.002.006c1.486.574 2.425 1.372 2.792 2.374.3.82.137 1.606-.115 2.066zm4.799-12.454l-.01.013c-.085-.07-.161-.141-.252-.21-1.823-1.407-3.889-1.774-5.896-2.128-2.5-.448-4.867-.868-6.323-3.4-.966-1.676-.61-3.45-.238-5.327.392-1.993.814-4.041-.446-6.01-1.627-2.581-6.899-7.535-8.8-8.74-.673-.427-1.559-.74-2.494-1.063-1.841-.642-3.926-1.371-4.794-3.119-1.125-2.287-.233-5.688.635-8.99.361-1.363.69-2.66.893-3.853.514-3.24 1.284-8.131-2.538-10.841-3.094-2.19-6.414-1.132-9.93-.013-2.11.668-4.478.943-6.777 1.211-2.811.331-5.716.667-8.236 1.731-.288.117-.57.226-.844.343-.63.238-1.285.489-1.896.843-.214.117-.44.257-.679.386-1.938 1.106-4.585 2.63-6.597 4.641a11.842 11.842 0 0 0-1.633 2c-2.385 3.692-.967 9.637 1.664 13.575 4.585 6.885 10.076 8.084 14.92 9.16 1.987.435 3.87.85 5.522 1.633 1.027.49 2.458 1.382 3.345 2.88 2.629 4.404 2.996 10.2 3.381 16.347.086 1.479.183 3.02.318 4.537.287 3.332.318 6.127.104 8.799l-.018.201c-.141 1.609-.263 3.15.018 4.764.03.203.074.405.117.593.984 4.214 2.923 6.58 5.95 7.26 1.034.225 2.06.202 3.057.17a21.008 21.008 0 0 1 1.87.023c1.488.16 3.055.243 4.906.248l.707.001c1.77 0 3.584-.034 5.35-.361 2.297-.423 4.169-1.285 5.566-2.557.639-.584 1.182-1.26 1.707-1.913.404-.505.823-1.027 1.276-1.49.476-.487 1.014-.937 1.548-1.382 1.811-1.513 3.42-2.9 4.769-4.547 1.597-1.948 2.562-3.962 2.87-5.986.014-.088.036-.206.063-.349.297-1.624 1.203-6.562-2.155-9.08zm1.47 8.955c-.028.15-.05.277-.065.37-.29 1.898-1.205 3.799-2.72 5.65-1.313 1.598-2.895 2.963-4.69 4.464-.534.446-1.088.906-1.588 1.418-.476.488-.906 1.023-1.322 1.54-.508.634-1.033 1.289-1.631 1.835-1.3 1.185-3.057 1.988-5.224 2.389-1.94.358-3.968.36-5.929.348-1.962-.006-3.602-.095-5.161-.279l-.003.03c-.553-.03-1.1-.026-1.633-.018-.996.03-1.932.05-2.886-.158-2.74-.613-4.513-2.814-5.424-6.733-.044-.177-.074-.367-.115-.545-.271-1.54-.142-3.038-.013-4.61l.018-.202c.22-2.702.19-5.534-.104-8.897-.128-1.522-.22-3.058-.312-4.531-.386-6.232-.758-12.12-3.479-16.653-.985-1.645-2.526-2.622-3.652-3.161-1.718-.813-3.632-1.234-5.668-1.68-4.709-1.041-10.053-2.215-14.486-8.874-2.502-3.761-3.877-9.368-1.664-12.817.41-.63.936-1.266 1.548-1.877 1.944-1.945 4.549-3.438 6.457-4.526.24-.141.465-.268.673-.392.563-.33 1.167-.556 1.803-.8.282-.11.575-.22.851-.35 2.44-1.02 5.295-1.356 8.052-1.68 2.331-.264 4.747-.55 6.918-1.242 3.491-1.107 6.506-2.067 9.313-.08 3.473 2.458 2.745 7.1 2.25 10.176-.178 1.156-.514 2.434-.875 3.786-.893 3.423-1.828 6.953-.58 9.46.996 2.01 3.216 2.788 5.18 3.467.905.317 1.748.624 2.353.996 1.854 1.168 7.051 6.097 8.598 8.525 1.101 1.736.728 3.577.337 5.51-.373 1.914-.77 3.902.33 5.808 1.608 2.807 4.244 3.278 6.8 3.731 1.908.343 3.895.69 5.589 1.993.227.18.436.364.645.537 2.55 2.353 1.775 6.622 1.509 8.072zm7.384-5.99c-.684-6.21-3.426-11.544-7.524-14.634-.815-.616-1.706-1.164-2.566-1.695-1.83-1.126-3.557-2.189-4.696-3.867-.785-1.16-1.223-2.556-1.646-3.906a52.83 52.83 0 0 0-.33-1.032 30.226 30.226 0 0 0-5.867-10.25 58.388 58.388 0 0 0-.81-.9c-.816-.897-1.663-1.825-2.288-2.867-1.436-2.39-1.689-5.165-1.954-8.103-.114-1.257-.233-2.555-.452-3.806-.912-5.192-3.791-10.065-7.898-13.37-3.91-3.145-7.957-5.156-14.996-4.73v.006c-2.467.093-4.747-.168-6.35-1.996a45.996 45.996 0 0 1-1.247-1.529c-1.547-1.938-3.015-3.761-5.821-4.586-2.416-.703-4.392-.245-6.665.293-.239.055-.496.117-.735.171-2.965.679-5.37 0-6.947-1.944-2.164-2.703-2.427-7.479-.605-11.369.748-1.586 1.669-3.098 2.652-4.672l.007.005c.061-.094.127-.216.192-.325l.079-.126c-.004-.003-.001-.004 0-.006.445-.777.937-1.806 1.316-2.607.219-.46.393-.83.488-.997.649-1.139.649-2.454 0-3.274-.332-.419-1.121-1.055-2.698-.587-1.401.413-2.52 1.492-3.581 3.443a45.139 45.139 0 0 1-2.136 3.423c-1.175 1.65-2.349 3.01-3.486 4.318-.777.898-1.59 1.82-2.379 2.843-1.968 2.52-1.815 3.908-1.552 6.2.035.343.086.698.11 1.089.048.477.078.924.116 1.364.214 2.672.379 4.794 2.697 7.308 1.975 2.146 4.127 2.5 6.616 2.91.373.055.752.116 1.148.183.331.062.705.13 1.09.184 4.188.716 10.536 1.78 11.766 6.005 1.387 4.764-5.095 9.143-8.573 11.484l-.331.233c-.374.25-.752.507-1.144.752-2.953 1.95-6.017 3.963-5.59 6.677l.191.997c.843 4.366 1.639 8.487 3.778 12.01 1.933 3.18 4.709 6.226 7.994 8.812 2.024 1.584 4.818 2.434 7.52 3.254 3.866 1.173 7.497 2.287 8.752 5.326 1.15 2.812 1.008 6.06.88 9.209-.08 1.852-.159 3.78.03 5.558.093.863.166 1.719.24 2.55.3 3.492.592 6.782 1.876 10.047.3.777.6 1.554.882 2.312.665 1.804 1.35 3.662 2.286 5.455 1.636 3.15 3.54 6.181 5.414 9.12.014.023.03.043.042.067l.47.737a.254.254 0 0 1 .049.074l.01-.01c2.633 3.544 7.753 4.553 10.744 4.553.763 0 1.388-.066 1.798-.17 1.673-.429 3.397-.801 5.063-1.16 3.377-.729 6.87-1.482 10.155-2.751 5.758-2.221 9.91-5.85 11.692-10.215.666-1.63 1.02-3.428 1.305-4.872 1.056-5.337 2.034-11.016 1.419-16.616zm-2.1 16.481c-.28 1.415-.627 3.175-1.269 4.744-2.304 5.648-8.068 8.583-11.297 9.83-3.236 1.248-6.7 1.995-10.053 2.719-1.671.361-3.402.734-5.088 1.166-1.95.502-9.073.037-12.042-4.475-1.972-3.066-4-6.247-5.7-9.54-.912-1.755-1.567-3.51-2.25-5.37l-.88-2.335c-1.26-3.168-1.537-6.416-1.842-9.851-.073-.833-.147-1.701-.238-2.551-.178-1.755-.104-3.638-.025-5.466.14-3.223.282-6.556-.935-9.498-1.37-3.35-5.346-4.562-9.185-5.723-2.643-.808-5.376-1.634-7.295-3.138-3.235-2.55-5.937-5.522-7.828-8.633-2.078-3.413-2.862-7.486-3.693-11.778l-.185-.98c-.36-2.267 2.508-4.157 5.285-5.98.385-.263.776-.508 1.143-.765l.336-.225c3.626-2.451 10.372-7.008 8.855-12.255-1.357-4.659-7.95-5.76-12.315-6.493-.392-.061-.753-.129-1.102-.185-.385-.066-.77-.134-1.143-.189-2.465-.41-4.41-.715-6.225-2.69-2.152-2.336-2.3-4.245-2.508-6.898a82.04 82.04 0 0 0-.109-1.382c-.044-.385-.08-.752-.123-1.088-.257-2.276-.379-3.413 1.413-5.706a72.324 72.324 0 0 1 2.354-2.807c1.155-1.327 2.342-2.696 3.522-4.366a41.656 41.656 0 0 0 1.9-3.012l.024.012c.091-.183.182-.348.274-.516.019-.033.04-.065.058-.098l-.003-.003c.946-1.705 1.92-2.642 3.105-2.992.894-.262 1.565-.14 1.956.352.466.59.443 1.616-.06 2.497-.1.176-.283.563-.512 1.045-.367.775-.842 1.768-1.265 2.514l-.016.024c-1.094 1.767-2.128 3.424-2.966 5.204-1.926 4.102-1.626 9.197.71 12.084 1.21 1.515 3.535 3.13 7.614 2.194.262-.066.506-.117.757-.183 2.19-.514 4.067-.947 6.305-.3 2.605.758 3.932 2.428 5.473 4.36.41.508.831 1.039 1.284 1.554 1.938 2.214 4.665 2.373 7.581 2.197 6.395-.24 10.182 1.666 13.835 4.606 3.979 3.2 6.766 7.92 7.65 12.948.215 1.222.33 2.506.444 3.748.261 2.888.532 5.873 2.052 8.4.66 1.1 1.528 2.054 2.37 2.977.268.295.537.59.798.89a29.485 29.485 0 0 1 5.73 10.01c.114.338.22.68.328 1.022.438 1.397.89 2.843 1.735 4.088 1.222 1.801 3.095 2.954 4.906 4.07.846.52 1.723 1.06 2.514 1.656 3.944 2.974 6.587 8.134 7.248 14.154.606 5.504-.364 11.122-1.407 16.406zM195.472 98.28c.045-1.23-.574-2.404-1.577-2.993-.64-.376-2.277-.928-3.893-.329-1.223.454-2.117 1.468-2.679 2.988l-.014-.014c-.017.048-.027.093-.042.142-.005.014-.012.024-.017.039h.006c-.772 2.405-.54 4.263.376 5.157.87.857 2.305.749 4.535-.048l.003.006c.024-.01.046-.022.07-.031.085-.03.162-.054.249-.086l-.014-.014c2.853-1.228 2.963-3.912 2.997-4.817zm-3.385 4.727l.001.004c-2.145.763-3.492.88-4.296.087-.834-.82-1.06-2.638-.302-4.947.532-1.528 1.403-2.53 2.595-2.972 1.528-.568 3.083-.046 3.69.31.931.547 1.504 1.639 1.461 2.782-.033.898-.135 3.63-3.149 4.736zM170.31 87.12c-.336-1.902-1.614-3.387-2.966-4.96-.6-.696-1.217-1.412-1.742-2.17-1.255-1.81-1.879-3.918-2.341-6.04-.504-2.483-.667-4.522-.804-6.318-.246-3.236-.425-5.574-2.61-7.743-2.576-2.558-7.799-2.579-11.862-1.281l-.008-.009c-.074.024-.152.06-.226.086-.104.035-.212.067-.314.104l.004.012c-3.025 1.126-6.356 3.735-8.978 5.79-.44.355-.862.692-1.272 1.004-.36.288-.71.586-1.028.904-2.844 2.844-3.111 6.44-3.375 10.25l-.03.422c-.073.917-.197 1.81-.3 2.672-.25 1.926-.514 3.925-.208 6.127.483 3.492 3.107 5.944 5.657 8.334 1.008.937 1.943 1.823 2.776 2.777l.005.018.02.007c1.576 1.027 2.941 1.608 4.139 1.768 1.547.213 3.1-.129 4.593-.471 1.419-.318 2.873-.649 4.33-.502.69.067 1.38.196 2.103.33 1.381.27 2.788.539 4.28.342 2.483-.343 5.167-1.743 7.155-3.73 2.366-2.367 3.46-5.186 3.002-7.723zm-3.167 7.558c-1.957 1.957-4.586 3.327-7.02 3.656-1.456.209-2.85-.06-4.208-.33-.697-.134-1.418-.268-2.121-.337-1.499-.14-2.973.185-4.404.515-1.467.331-3.002.679-4.513.465-1.162-.159-2.476-.728-4.029-1.73-.838-.961-1.835-1.884-2.783-2.784-2.518-2.347-5.118-4.787-5.59-8.193-.298-2.172-.054-4.066.21-6.067.115-.862.232-1.76.3-2.684l.03-.422c.274-3.761.525-7.326 3.308-10.108.311-.312.654-.606 1.014-.881.397-.312.832-.649 1.273-1.002 2.666-2.095 6.094-4.789 9.132-5.84 4.035-1.38 9.362-1.438 11.94 1.12 2.122 2.108 2.29 4.29 2.54 7.593.129 1.697.29 3.622.73 5.924l-.011-.01.057.262c.03.154.05.294.084.451l.014-.003c.461 2.058 1.093 4.085 2.31 5.839.543.777 1.155 1.498 1.767 2.195 1.334 1.553 2.58 3.009 2.917 4.849.434 2.465-.636 5.21-2.947 7.522zm-29.704-55.123c-.268-1.081-1.192-1.892-2.603-2.281-1.8-.498-4.89-.157-6.975 1.208l-.014-.014c-1.23.838-2.483 1.713-3.51 2.825-1.028 1.138-1.89 2.44-2.72 3.7-.869 1.308-1.763 2.666-2.85 3.816-1.756 1.474-3.89 2.201-5.938 2.905-2.349.808-4.783 1.625-6.727 3.57-1.248 1.248-2.183 2.844-2.861 4.88l-.008.031.008.031c.194.77.795 1.296 1.387 1.804l.238.202.043.006c.214-.006.435.078.648.17.117.043.209.086.312.117l.019.007c4.378.403 7.453-2.38 10.42-5.064 1.853-1.682 3.767-3.412 5.974-4.348a20.181 20.181 0 0 0 7.058-4.537 17.094 17.094 0 0 0 1.546-1.754c.226-.301.496-.606.79-.9.517-.518 1.119-.992 1.76-1.438.199-.134.4-.267.594-.396 2.09-1.384 3.896-2.58 3.409-4.54zm-3.539 4.344c-.232.153-.467.31-.705.47l.01.014c-.613.43-1.192.878-1.695 1.38-.3.3-.574.612-.807.93-.454.587-.96 1.168-1.523 1.73-1.932 1.932-4.41 3.518-6.984 4.49-2.244.947-4.176 2.696-6.048 4.384-2.922 2.654-5.956 5.393-10.218 4.996a1.483 1.483 0 0 1-.275-.092c-.226-.091-.458-.178-.71-.196l-.164-.14c-.55-.49-1.12-.985-1.308-1.664.666-1.974 1.583-3.529 2.8-4.744 1.902-1.902 4.305-2.74 6.623-3.53 2.079-.697 4.231-1.443 6.036-2.953 1.106-1.168 2-2.538 2.867-3.859.838-1.254 1.688-2.544 2.71-3.663.92-1.01 2.045-1.816 3.167-2.58l.003.003c2.02-1.503 5.257-1.883 7.094-1.374.767.212 2.105.768 2.438 2.11.446 1.8-1.295 2.952-3.31 4.288zm-19.27-12.953c2.215-2.828 3.508-5.169 3.553-8.282.032-2.302-.982-4.745-2.853-6.88-1.432-1.635-3.272-3.148-5.787-4.761-3.374-2.163-5.957-4.64-8.03-6.63C98.891 1.878 96.996.06 95.192.534c-2.343.615-2.429 3.56-1.969 6.73 0 0 .091.75.188 1.158.028.156.114.462.114.462.124.469.271.978.425 1.514.269.903.521 1.758.6 2.29.26 1.708.082 3.13-.091 4.64-.293 2.537-.607 5.144.981 9.355l.028.053c.671.906 1.376 2.074 2.123 3.309 2.327 3.858 4.965 8.225 8.47 8.09.407-.01.885-.108 1.41-.285a9.91 9.91 0 0 0 1.354-.586c1.874-.99 2.997-2.557 4.195-4.221.382-.526.776-1.051 1.188-1.57l.006.004c.12-.15.227-.291.342-.439.026-.03.047-.061.073-.091v-.002zm-6.026 5.91a8.814 8.814 0 0 1-1.28.561c-.483.163-.91.245-1.292.255-3.215.128-5.774-4.119-8.045-7.86-.749-1.244-1.454-2.411-2.127-3.325-1.54-4.09-1.239-6.629-.94-9.095.179-1.549.356-2.996.084-4.767-.081-.565-.339-1.436-.614-2.357-.188-.668-.397-1.379-.535-1.962-.054-.31-.177-1.086-.18-1.096-.555-3.9-.048-5.799 1.632-6.241 1.562-.409 3.381 1.337 5.895 3.748 2.088 2.004 4.687 4.497 8.098 6.683 2.479 1.591 4.289 3.078 5.693 4.68 1.796 2.052 2.77 4.387 2.74 6.576-.043 3.027-1.332 5.315-3.536 8.114a32.022 32.022 0 0 0-1.54 2.004c-1.173 1.61-2.27 3.141-4.053 4.082zm-33.97-11.963c-.223-1.555-1.215-2.922-2.79-3.884l.013-.024c-.093-.054-.182-.084-.274-.133-.032-.019-.06-.039-.092-.056l-.005.008c-2.696-1.393-5.021-.61-6.904.046-1.05.368-2.025.94-2.968 1.493-.751.442-1.53.898-2.123 1.57-.53.602-.877 1.337-1.21 2.047l-.088.184c-.663 1.398-1.437 2.843-2.611 3.943-.233.218-.469.428-.706.638-.266.237-.532.473-.79.718-1.315 1.243-1.844 2.33-1.528 3.144.312.806 1.425 1.267 3.135 1.3v-.015c2.997.158 5.94-.416 8.166-1.366 1.803-.764 6.225-2.716 8.133-4.146.324-.24.61-.49.88-.758 1.364-1.365 2.006-3.082 1.762-4.709zm-1.927 4.544a8.697 8.697 0 0 1-.855.746c-1.89 1.4-6.28 3.345-8.079 4.115-2.39 1.02-5.604 1.596-8.808 1.295-1.181-.126-1.949-.503-2.177-1.095-.277-.714.231-1.708 1.467-2.877.256-.243.52-.477.784-.713.239-.21.477-.423.71-.64 1.205-1.129 1.994-2.598 2.666-4.018l.088-.185c.326-.694.665-1.414 1.172-1.987.57-.645 1.33-1.091 2.064-1.524.932-.546 1.897-1.112 2.926-1.471 2.386-.833 4.422-1.347 6.899.03 1.613.928 2.62 2.268 2.844 3.81.226 1.571-.374 3.187-1.7 4.514zM-2.757 93.798l-.003-.007c-.062-.122-.121-.256-.183-.374l-.009.009c-.623-1.163-1.604-2.57-3.226-3.06-1.455-.441-3.225-.076-5.25 1.085-1.305.748-2.496 1.76-3.537 3.01-1.237 1.482-3.757 4.582-7.487 9.213l-.201.25c-1.655 2.055-2.975 6.036-1.382 10.584l-.005.007c.012.038.032.073.046.11.02.063.038.123.06.184l.012-.004c.267.718.59 1.398 1.026 2.027.728 1.033 1.889 1.927 2.806 2.635.305.233.593.447.844.662 3.596 2.299 6.794 2.085 9.528-.65.433-.433.861-.935 1.271-1.504 2.24-3.093 6.262-10.286 7.198-14.058.957-3.852-.199-7.496-1.508-10.119zm1.288 10.057c-.93 3.756-4.923 10.904-7.167 13.98-.405.563-.82 1.064-1.242 1.485-2.641 2.643-5.76 2.85-9.234.624a14.75 14.75 0 0 0-.837-.655c-.917-.708-2.055-1.576-2.751-2.592-.455-.65-.786-1.355-1.059-2.104-1.65-4.526-.347-8.49 1.29-10.522l.2-.249c3.729-4.63 6.247-7.729 7.484-9.211 1.024-1.227 2.193-2.221 3.474-2.956 1.968-1.127 3.672-1.485 5.066-1.063 1.693.511 2.64 2.039 3.277 3.312l.006-.003c1.297 2.578 2.434 6.19 1.493 9.954zm-16.707 96.386c-1.553-2.176-5.748-7.13-11.105-6.2l-.043.018a18.704 18.704 0 0 0-3.295 2.649c-2.024 2.023-3.663 4.47-5.253 6.829-1.542 2.3-3.131 4.686-5.094 6.685-.938.83-1.965 1.535-2.981 2.208l-.006-.01-.136.086c-1.472.93-3.489 2.203-4.288 3.303-.296.407-.395.93-.268 1.4.1.366.383.876 1.163 1.215.406.178 1.874.773 3.713.995.472.058.928.086 1.369.086 1.438 0 2.705-.318 3.805-.92l.014.014c1.192-.801 2.574-1.498 3.987-2.226 2.11-1.07 4.286-2.182 6.182-3.748 3.614-2.966 5.963-4.947 9.564-8.206.36-.153.679-.374.997-.692.47-.47.826-1.046 1.18-1.596.152-.25.3-.484.458-.703l.02-.043c.03-.202.03-.41.023-.61 0-.16 0-.307.012-.454l.013-.049-.031-.03zm-.22.54c-.006.189 0 .366-.024.537-.14.214-.295.44-.44.685-.349.545-.703 1.107-1.156 1.56a2.92 2.92 0 0 1-.942.647l-.031.02c-3.602 3.27-5.955 5.258-9.57 8.224-1.877 1.534-4.048 2.641-6.146 3.712-1.15.591-2.263 1.17-3.292 1.791l-.009-.013c-3.636 2.637-8.802.507-9.378.254-.546-.238-.9-.602-1.022-1.054-.11-.4-.024-.844.228-1.19.72-.99 2.493-2.145 3.909-3.042l.006.006c.105-.067.214-.14.324-.214l.03-.02.087-.055-.002-.004c1.022-.69 2.068-1.39 3.01-2.238 1.982-2.018 3.59-4.422 5.137-6.727 1.578-2.349 3.205-4.781 5.217-6.794a18.17 18.17 0 0 1 3.24-2.605c5.192-.874 9.283 3.926 10.83 6.085-.012.147-.006.287-.007.435zm7.344 47.347l.006.007-.018-.09c-.05-.297-.112-.618-.199-.982l-.007.002c-.044-.217-.092-.433-.136-.647-.428-2.179-.875-4.448-1.871-6.398-2.477-4.873-6.006-7.326-10.782-7.503-.524-.004-1.085.091-1.657.227 0 0-.334.064-.495.12-.029.008-.08.027-.08.027-1.07.384-1.862.97-2.322 1.771-.733 1.275-.494 2.736-.286 3.494a9.309 9.309 0 0 0 2.092 3.79c.6.658 1.32 1.248 1.896 1.72 1.456 1.195 2.688 2.18 3.978 3.107 1.313.943 2.69 1.824 4.019 2.677.858.549 1.744 1.12 2.707 1.538.32.14.916.358 1.52.358.445 0 .893-.117 1.241-.47.346-.35.671-.993.394-2.748zm-.568 2.575c-.713.724-1.977.283-2.49.059-.943-.412-1.822-.975-2.67-1.52-1.329-.85-2.7-1.73-4.009-2.67-1.284-.923-2.515-1.904-3.964-3.095-.728-.596-1.326-1.1-1.872-1.695a9.054 9.054 0 0 1-2.035-3.692c-.2-.72-.428-2.108.26-3.305.472-.82 1.317-1.406 2.484-1.764.634-.175 1.259-.281 1.852-.265 4.684.171 8.139 2.574 10.578 7.363.978 1.932 1.432 4.17 1.854 6.34l.137.659-.008.002c.59 2.475.247 3.215-.117 3.583zm79.747-25.64c-.41-2.55-2.733-5.339-4.599-7.57-.44-.539-.85-1.034-1.217-1.487-3.376-4.318-6.69-4.672-9.894-5.014-1.846-.208-3.608-.391-5.387-1.29l-.276-.14c-.727-.374-1.547-.79-2.183-1.01-1.7-.6-3.057-.392-4.041.593-1.45 1.45-1.744 4.287-1.884 5.65-.11 1.028-.263 2.001-.423 3.027-.073.501-.152 1.01-.232 1.542-.55 3.828.355 7.496 1.235 11.043.477 1.932.98 3.938 1.236 5.92-.007 2.012-.795 4.195-2.3 6.285-.893 1.26-2.085 2.49-3.332 3.8-.832.867-1.694 1.753-2.526 2.708a61.08 61.08 0 0 0-1.42 1.724c-.726.898-1.424 1.756-2.157 2.514-1.498 1.546-3.039 2.525-4.507 3.466-.85.545-1.639 1.053-2.408 1.652-.405.318-.808.66-1.187 1.04-1.021 1.021-1.945 2.274-2.838 3.802-.44.784-.942 1.566-1.424 2.318-1.208 1.92-2.439 3.897-3.163 6.058l-.008-.003c-.045.14-.079.258-.12.391-.014.043-.03.085-.042.128l.002.003c-.873 2.816-.98 4.303-.376 5.183.492.716 1.518.728 2.342.738h.075c.476 0 2.361-.335 4.343-1.193l-.006-.016c1.172-.493 2.314-1.082 3.428-1.658 1.663-.855 3.381-1.754 5.15-2.31 5.778-1.792 10.548-2.526 14.192-2.16 3.73.38 7.644.416 10.848-1.81 1.78-1.24 3.376-2.568 4.752-3.943 2.58-2.581 4.378-5.32 5.308-8.134.52-1.56.66-3.216.458-5.375a61.485 61.485 0 0 0-.349-2.648c-.305-1.944-.604-3.968-.384-5.986.042-.386.078-.801.134-1.236.232-2.336.525-5.247 1.204-7.246.393-1.15 1.126-2.238 1.84-3.297 1.244-1.828 2.52-3.717 2.136-6.059zM65.796 231c-.709 1.065-1.467 2.165-1.858 3.339-.697 2.031-.985 4.96-1.218 7.308-.061.428-.097.843-.134 1.235-.227 2.049.08 4.08.373 6.048.134.856.264 1.755.355 2.63.201 2.122.067 3.748-.435 5.277-.942 2.777-2.702 5.491-5.258 8.047-1.37 1.37-2.948 2.68-4.715 3.908-3.149 2.195-7.014 2.147-10.708 1.779-3.669-.366-8.468.362-14.278 2.17-1.792.558-3.516 1.45-5.18 2.319-1.534.789-3.094 1.602-4.709 2.152l.006.006c-1.438.485-2.632.688-2.975.681H15c-.81-.01-1.727-.021-2.15-.637-.552-.801-.446-2.202.369-4.862.667-2.391 2.024-4.556 3.352-6.641.47-.765.971-1.547 1.412-2.318.88-1.53 1.797-2.752 2.806-3.76a11.06 11.06 0 0 1 1.163-1.016c.758-.6 1.553-1.101 2.383-1.638 1.494-.955 3.04-1.952 4.557-3.505.74-.764 1.437-1.632 2.177-2.544.453-.562.924-1.143 1.413-1.706.825-.947 1.681-1.84 2.513-2.709 1.259-1.308 2.452-2.538 3.363-3.816 1.53-2.14 2.33-4.36 2.324-6.432-.25-2.013-.753-4.018-1.23-5.963-.868-3.533-1.773-7.179-1.235-10.958.08-.532.16-1.04.227-1.535.166-1.033.317-2.005.428-3.034.135-1.344.428-4.133 1.816-5.521.916-.917 2.207-1.094 3.81-.531.612.22 1.43.636 2.158.996l.275.14c1.823.918 3.67 1.115 5.468 1.31 3.143.342 6.414.69 9.734 4.927.362.46.777.961 1.212 1.48 1.858 2.227 4.152 4.985 4.562 7.474.36 2.243-.894 4.109-2.111 5.9zm-45.147 4.593c-.612-2.128-1.877-3.773-3.662-4.74-3.92-2.133-6.783 1.633-8.666 4.116-2.067 2.727-5.155 6.55-8.139 8.31-2.844 1.67-5.412.422-8.079-3.92-.678-1.094-1.26-2.371-1.827-3.601-1.272-2.752-2.581-5.602-5.065-7.02a11.942 11.942 0 0 0-1.858-.844c-4.088-1.367-8.381-1.116-12.246.603l-.015-.032c-.366.169-.709.349-1.04.534-.051.027-.107.047-.158.075l.01.012c-4.019 2.31-5.379 5.795-4.026 10.384 1.536 5.211 6.156 8.432 11.504 12.163 2.101 1.466 4.274 2.981 6.462 4.744 9.194 7.412 14.274 10.496 17.428 10.496.313 0 .609-.031.887-.091 1.379-.297 2.277-1.287 2.985-2.458l.004.003c.022-.038.04-.077.063-.116.171-.29.335-.587.488-.889h-.001c.349-.632.702-1.268 1.033-1.887 1.187-2.226 2.312-4.316 3.809-6.365 1.144-1.572 2.637-3.284 4.067-4.935 2.055-2.373 3.999-4.611 5.082-6.513 1.333-2.347 1.706-5.425.96-8.029zm-1.566 7.693c-1.039 1.847-2.966 4.054-4.995 6.39-1.45 1.67-2.948 3.388-4.116 4.984-1.522 2.085-2.647 4.2-3.853 6.458-.33.62-.685 1.258-1.036 1.893l-.005-.002c-.119.233-.235.45-.351.654l-.016.029c-.845 1.472-1.655 2.185-2.698 2.41-2.814.59-7.941-2.373-17.733-10.267-2.206-1.778-4.39-3.302-6.5-4.772-5.24-3.656-9.768-6.814-11.235-11.789-1.29-4.375-.003-7.562 3.924-9.714 3.935-2.04 8.418-2.429 12.663-1.005a9.789 9.789 0 0 1 1.737.782c2.294 1.303 3.559 4.048 4.776 6.709.581 1.253 1.162 2.543 1.865 3.687 1.058 1.706 4.275 6.929 9.021 4.14 3.088-1.817 6.249-5.712 8.34-8.476 2.311-3.058 4.641-5.644 7.791-3.938 1.608.875 2.757 2.379 3.327 4.33.684 2.421.342 5.295-.906 7.497zm-79.357-70.195c-2.948.073-5.841.733-8.911 1.429-2.935.666-5.957 1.34-9.105 1.479-1.874.162-3.175.7-3.852 1.606-.354.472-.713 1.283-.41 2.5.668 2.858 4.475 4.802 6.394 5.43 1.173.385 2.362.747 3.554 1.11 5.015 1.524 10.2 3.1 14.205 6.467.98.824 3.583 3.014 6.1 1.983.452-.185.831-.406 1.133-.664.355-.298.608-.647.755-1.04.19-.51.184-1.083 0-1.706h.021c-.015-.03-.026-.06-.04-.09a4.81 4.81 0 0 0-.29-.704l-.018.01a10.143 10.143 0 0 1-.728-2.942 5.916 5.916 0 0 1 .022-.883 31 31 0 0 1 .2-1.65c.097-.747.22-1.587.293-2.457.154-1.836.206-4.514-1.076-6.512-1.548-2.422-4.091-3.452-8.247-3.366zm7.862 3.62c1.205 1.87 1.145 4.443.996 6.218-.072.863-.187 1.703-.284 2.442-.086.609-.16 1.184-.2 1.666a5.708 5.708 0 0 0-.02.963c.099 1.151.389 2.162.776 3.105l-.006.004c.411.813.508 1.524.287 2.113-.224.6-.769 1.078-1.617 1.428-2.015.823-4.166-.694-5.61-1.908-4.08-3.428-9.313-5.02-14.374-6.558-1.189-.363-2.376-.722-3.545-1.105-1.471-.483-5.431-2.337-6.083-5.122-.25-1.002.044-1.675.335-2.063.661-.881 2.038-1.373 4.094-1.456l-.001-.026c2.96-.201 5.81-.819 8.58-1.45 3.053-.698 5.927-1.341 8.822-1.402 3.974-.091 6.4.885 7.85 3.15zM52.691 62.145c-1.228-1.914-2.14-4.072-3.032-6.164-.868-2.055-1.761-4.183-2.973-6.115a237.358 237.358 0 0 0-1.93-3.05c-.011-.02-.026-.035-.038-.056l-.349-.546c0-.023-.025-.048-.036-.072l-.02.019c-1.666-2.342-4.324-3.497-7.417-3.16-1.762.192-3.573.935-5.7 2.34a29.34 29.34 0 0 0-7.431 7.042c-1.098 1.483-2.065 3.085-3.01 4.653l-3.338 5.535c-.915 1.52-1.864 3.092-3.017 4.465-.246.29-.5.574-.754.857-.366.408-.732.814-1.07 1.244-2.182 2.77-2.975 6.747-2.26 11.02l-.02.021c.021.105.053.201.076.304.037.204.06.404.105.608l.046-.01c.155.569.335 1.119.592 1.618.74 1.424 1.597 2.183 2.636 2.317 2.079.269 4.25-2.121 6.34-4.433l.203-.214c3.547-3.902 5.767-6.011 8.084-6.665 2.715-.807 5.467-.66 8.115-.509.41.02.814.044 1.223.062 2.508.122 8.848.152 13.527-1.994.532-.238.99-.563 1.381-.953a4.618 4.618 0 0 0 1.162-1.982c.538-1.859.116-4.274-1.095-6.182zm.43 5.992c-.343 1.162-1.071 2-2.165 2.508-4.538 2.08-10.75 2.042-13.21 1.92-.404-.012-.8-.043-1.204-.066-2.728-.148-5.534-.301-8.36.542-2.47.697-4.77 2.863-8.402 6.862l-.196.22c-1.882 2.08-4.023 4.44-5.741 4.213-.795-.11-1.487-.75-2.116-1.956-.286-.556-.487-1.184-.643-1.858-.828-4.262-.102-8.238 2.038-10.954.33-.419.686-.813 1.041-1.21.259-.288.52-.577.77-.875 1.188-1.414 2.15-3.01 3.08-4.552l3.35-5.555c.925-1.535 1.882-3.122 2.96-4.58a28.653 28.653 0 0 1 7.255-6.875c2.032-1.341 3.747-2.05 5.393-2.227 1.815-.202 5.172-.011 7.184 3.47l.006-.004c.646 1.013 1.306 2.043 1.939 3.072 1.167 1.89 2.06 3.982 2.923 6.018.892 2.116 1.823 4.316 3.081 6.274 1.095 1.706 1.499 3.969 1.016 5.613zm-87.548 111.621c-.649-3.743-4.563-12.092-7.776-13.298-1.38-.515-2.668-.267-3.815-.051-.415.085-.83.164-1.213.192-1.871.156-3.263.204-4.89.266-.645.016-1.324.046-2.064.07-3.537.155-6.877.568-10.42 1-1.095.124-2.226.264-3.365.393-1.42.158-2.815.449-4.176.726-1.244.26-2.526.525-3.814.686a9.235 9.235 0 0 1-.214.024c-.593.054-1.145.09-1.654.109-.042 0-.081.003-.123.003v.002c-1.684.059-2.936-.034-3.915-.107-2.289-.172-3.434-.258-5.48 1.934-2.08 2.232-1.666 8.026.15 10.563 1.51 2.113 3.736 3.538 5.887 4.915.33.211.656.42.982.633a61.222 61.222 0 0 1 9.948 8.102c.265.267.528.536.791.807 1.218 1.248 2.478 2.538 3.95 3.545 1.76 1.206 3.715 1.957 5.904 2.746 2.065.741 3.934 1.357 5.919 1.367h.053c1.028 0 2.046-.167 3.032-.328.643-.104 1.308-.213 1.96-.272l.352-.029c.49-.038.996-.078 1.49-.225.63-.186 1.193-.535 1.662-.852 3.871-2.617 6.585-5.35 7.292-9.95l.035.004c.152-1.81.911-3.188 1.708-4.63 1.216-2.172 2.464-4.428 1.804-8.345zm-2.4 8.008c-.73 1.315-1.482 2.667-1.734 4.37-.543 4.67-3.227 7.365-7.09 9.977-.446.3-.933.603-1.471.762-.425.125-.875.16-1.35.198l-.36.03c-.677.06-1.355.171-2.009.28-.974.159-1.97.333-2.97.316-1.876-.008-3.687-.605-5.69-1.326-2.145-.773-4.056-1.505-5.75-2.665-1.416-.97-2.652-2.236-3.846-3.46-.265-.271-.53-.542-.797-.81a61.858 61.858 0 0 0-10.059-8.194c-.326-.213-.656-.424-.986-.635-2.097-1.343-4.267-2.732-5.701-4.738-1.658-2.316-2.043-7.723-.204-9.696 1.822-1.955 2.672-1.888 4.925-1.72.984.075 2.235.167 3.91.112v.009a17.92 17.92 0 0 0 2.129-.142c1.316-.167 2.615-.44 3.886-.698 1.325-.279 2.711-.553 4.105-.713 1.139-.139 2.26-.27 3.375-.411 3.524-.424 6.847-.821 10.357-.978.741-.033 1.411-.055 2.063-.079 1.558-.05 3.039-.1 4.917-.263.42-.034.852-.12 1.302-.204 1.092-.203 2.23-.42 3.417.019 2.786 1.041 6.668 8.84 7.345 12.767.627 3.688-.559 5.82-1.714 7.892zm201.957 42.525c-.606-.85-1.217-1.73-1.804-2.586-2.996-4.428-2.17-6.256.684-10.873 2.734-4.421 3.92-7.93 1.438-11.784-1.743-2.697-4.195-4.83-7.339-7.179-.293-.22-.586-.428-.88-.648-2.311-1.712-4.507-3.332-5.962-5.706-1.975-3.186-2.935-6.824-3.864-10.322-.662-2.506-1.358-5.1-2.41-7.546-1.608-3.724.012-7.155 1.737-10.775.574-1.21 1.167-2.463 1.62-3.723 1.798-4.954 4.623-8.269 7.888-12.096.38-.44.76-.893 1.15-1.346 1.681-1.999 3.106-4.304 4.47-6.524.801-1.278 1.615-2.618 2.471-3.852 2.77-4.03 3.564-9.082 2.121-13.522-.77-2.397-2.116-4.525-3.772-5.974-.361-.3-.734-.563-1.102-.808-.525-.341-1.002-.67-1.4-1.13-.495-.557-.85-1.242-1.235-1.957-.3-.58-.623-1.174-1.01-1.707-2.8-3.84-6.634-4.481-10.352-5.106-2.39-.396-4.868-.806-7.112-2.072-1.92-1.089-4.72-3.718-7.43-6.244-.434-.409-.874-.813-1.307-1.21-2.226-2.055-4.496-4.618-4.557-7.968.244-2.373.643-4.764 1.033-7.063l.092-.545c.233-1.345.386-2.696.539-3.999.39-3.51.776-6.83 2.52-9.747 1.827-3.065 4.824-5.156 7.991-7.357.967-.673 1.963-1.351 2.91-2.078a17.377 17.377 0 0 1 2.202-1.404c1.912-1.013 3.4-1.604 4.709-2.11 1.267-.491 2.464-.955 3.83-1.729 2.24-1.27 3.555-4.118 3.518-7.616-.057-5.24-3.347-13.095-12.437-17.993-6.393-3.445-18.848-2.545-25.071 3.639l-.024-.024c-.324.323-.642.69-.93 1.1-1.424 1.976-1.956 4.035-2.482 6.018-.526 2.054-1.04 3.986-2.513 5.46a7.434 7.434 0 0 1-.875.74c-1.681 1.193-3.436 1.675-5.057 1.388-1.663-.293-3.155-1.345-4.311-3.051-.183-.257-.367-.539-.544-.802-1.737-2.568-3.377-5.001-6.483-7.032-1.222-.794-2.665-1.431-4.188-2.097-2.813-1.223-5.7-2.496-7.205-4.892-1.24-2-1.821-3.926-2.378-5.779-.724-2.435-1.432-4.76-3.517-6.957l.01-.01c-.249-.261-.51-.503-.78-.735-.038-.035-.07-.072-.11-.107l-.007.008c-3.247-2.733-7.843-3.4-11.806-1.61-1.554.703-2.891 1.714-4.236 2.777-1.814 1.431-3.675 3.003-4.761 5.088-.422.809-.716 1.674-1.001 2.513a25.958 25.958 0 0 1-8.985 12.664l-.139.105c-.541.406-1.102.826-1.477 1.433-.408.658-.57 1.687.043 2.387.382.436 1.384 1.043 5.362 1.643l-.01.008.142.018c.103.01.205.026.308.037.844.12 1.797.24 2.907.357l.003-.018c1.1.14 2.226.284 3.35.347 3.529.213 6.676-.77 9.723-1.725 1.98-.624 3.846-1.217 5.65-1.394 3.608-.366 6.213.208 8.885 4.201 1.908 2.862 4.311 6.915 5.345 9.552.794 2.03.881 4.072.966 6.054.146 3.558.293 6.934 4.464 9.661 1.908 1.248 4.22 2.263 6.457 3.241 1.45.63 2.943 1.278 4.336 2 1.73.887 3.278 1.908 4.8 2.893.343.232.692.458 1.04.672 2.22 1.438 4.348 1.107 6.475-1.021.679-.68 1.37-1.541 2.22-2.77 1.132-1.622 2.013-3.174 2.863-4.672 1.002-1.762 1.95-3.43 3.155-4.929.6-.733 1.223-1.443 1.945-2.164 1.92-1.92 4.066-3.554 6.555-5.455.844-.636 1.705-1.315 2.61-2.025a278.12 278.12 0 0 1 3.644-2.795c2.967-2.274 5.872-3.603 8.636-3.948 1.14-.139 2.108.108 2.414.624.292.49-.05 1.152-.387 1.622-.348.484-.818.632-1.669.904-1.342.428-3.369 1.074-6.858 3.56l.013.02c-1.381.97-2.777 2.012-4.233 3.114-.764.581-1.534 1.168-2.341 1.767-2.581 1.933-5.046 3.882-6.685 6.537-2.067 3.351-2.819 6.83-3.467 10.401-.368 2.019-.874 4.153-1.37 6.226-.715 3.077-1.411 5.975-1.566 8.146-.323 4.604 1.064 7.729 4.807 10.8 4.018 3.307 7.73 5.54 11.338 7.704 2.6 1.56 5.29 3.173 8.065 5.19.692.496 1.395.992 2.141 1.517 3.21 2.258 6.843 4.813 8.959 7.467 2.806 3.52 3.18 8.49.985 13.012a3.857 3.857 0 0 1-1.14 1.317l-.005.005c-5.326 3.37-9.068 8.628-12.15 13.3-3.332 5.021-5.626 10.8-6.825 17.16-.508 2.745-.77 5.858-.795 9.502-.005 1.632.385 3.187.746 4.697.356 1.43.685 2.776.716 4.188a5.32 5.32 0 0 1-.416.453c-1.387-.091-2.63-.55-3.95-1.027-.874-.324-1.773-.661-2.722-.862l-1.057-.24c-2.14-.488-4.158-.93-6.261-1.504-2.863-.758-4.746-3.008-6.41-4.977-.66-.782-1.358-1.504-2.037-2.195-1.093-1.12-2.12-2.17-2.995-3.474-1.224-1.847-1.443-4.158-1.682-6.598-.178-1.939-.367-3.926-1.046-5.876a36.657 36.657 0 0 0-1.003-2.459l-.153-.337c-3.296-7.551-4.843-13.856-1.663-20.082.55-1.1 1.248-2.151 1.932-3.167.692-1.057 1.413-2.159 2.006-3.314.446-.887.728-1.877 1.004-2.825.201-.692.402-1.407.684-2.067 1.125-2.801.697-7.118-1.272-12.817-.33-.954-.721-1.92-1.108-2.856-.659-1.65-1.35-3.358-1.736-5.04-.691-3.026-.5-8.426 2.074-10.94.214-.213.434-.409.648-.598.794-.71 1.547-1.376 1.816-2.697.428-2.018-.08-4.25-1.285-5.675l-.109-.122h-.16a.721.721 0 0 1-.256-.073c-.165-.08-.404-.185-.679-.14-.85.116-2.091 1.026-3.406 1.999-.403.293-.789.57-1.15.831-4.353 3.01-9.465 4.832-14.425 6.599a189.292 189.292 0 0 0-5.18 1.914l-.642.25c-4.616 1.828-8.61 3.388-13.642 3.15-4.122-.196-7.663-1.352-10.249-3.351-4.171-3.217-4.421-6.22-4.684-9.405-.08-.924-.16-1.871-.337-2.844-.306-1.688-.88-3.412-3.014-4.568-2.012-1.095-4.434-.825-7.259-.52-.403.037-.826.08-1.248.123-1.998.201-3.864.17-5.667.14-3.224-.055-6.006-.098-8.483 1.205-2.33 1.217-4.054 3.638-4.726 6.634-.705 3.114-.172 6.361 1.393 8.453.692.922 1.652 1.797 2.563 2.647 1.1 1.014 2.243 2.06 2.972 3.204 1.968 3.12.777 7.05-.49 10.114-1.265 3.076-2.2 6.518-3.112 9.852-1.315 4.812-2.55 9.35-4.69 12.92-2.287 3.829-6.164 5.774-9.594 7.493-1.31.647-2.545 1.258-3.578 1.937-3.522 2.287-4.495 5.29-2.666 8.207.58.923 1.308 1.797 2.011 2.635.483.58.979 1.186 1.431 1.786 2.178 2.997 3.253 6.176 4.28 9.258.888 2.612 1.799 5.296 3.365 7.84.623 1.003 1.687 2.311 2.83 3.688 1.29 1.57 2.618 3.191 3.351 4.451 1.248 2.128 2.025 4.373 2.832 6.757.52 1.486 1.046 3.039 1.718 4.617.19.446.392.893.588 1.321 1.472 3.247 2.745 6.047-1.163 8.769-4.09 2.867-9.637 3.412-13.49 1.32-2.763-1.492-6.707-5.069-8.61-7.79-2.225-3.18-4.605-8.359-4.042-12.469.22-1.626.746-2.971 1.272-4.268.795-2.03 1.627-4.134 1.193-7.234-.47-3.382-3.908-8.825-8.867-12.06-1.883-1.234-3.846-2.011-5.931-2.812-1.756-.69-3.57-1.382-5.504-2.421-1.236-.673-3.272-2.367-4.532-4.055-.635-.856-1.26-2.03-1.92-3.253l-.33-.624c-2.152-3.963-4.813-8.897-2.335-12.853 1.313-2.086 3.889-2.312 6.617-2.544 1.766-.153 3.6-.313 5.203-.998 3.687-1.558 5.711-5.247 7.845-9.166.728-1.34 1.492-2.74 2.342-4.08.942-1.503 2.012-2.916 3.039-4.273 1.53-2.018 2.967-3.92 4-6.03 1.553-3.204 1.51-6.305-.129-10.695-1.09-2.911-1.675-4.895-1.923-6.777h.003c-.262-2.098-.144-3.785-.05-5.14.115-1.654.199-2.848-.527-3.658-.781-.87-2.998-1.568-4.019-1.712-4.937-.699-10.31 1.265-14.753 5.39-3.917 3.637-6.582 8.255-9.188 13.064-2.378 4.388-4.804 9.093-6.039 14.12-.28 1.144-.51 2.333-.731 3.482-.652 3.386-1.325 6.887-3.41 9.58-1.617 2.092-3.922 3.505-6.34 4.886-5.754 3.287-15.514 9.297-16.238 12.622-.266 1.217-.19 2.037.236 2.58.409.519 1.1.762 2.239.789h.066c1.108 0 2.39-.64 3.65-1.31.654-.32 1.27-.643 1.83-.976.776-.459 1.492-1.015 2.25-1.59.802-.63 1.632-1.266 2.55-1.805 2.881-1.668 7.89-3.754 9.851-2.66.324.178.747.71.924 1.071.593 1.253.953 2.665 1.339 4.164.373 1.486.765 3.028 1.425 4.459.312.665.618 1.253.936 1.888.122.233.25.484.372.74.753 1.486.936 2.844 1.12 4.152.165 1.23.341 2.508 1.002 3.829.685 1.394 2 2.172 3.382 2.99.343.22.703.435 1.052.648 3.712 2.391 6.592 4.708 4.244 8.757-.52.887-1.131 1.608-1.816 2.44l-.104.116c-.807.942-1.755 1.78-2.68 2.593-2.298 2.017-4.462 3.926-2.934 6.75 1.24 2.282 3.65 4.654 7.192 7.058 2.77 1.865 5.472 2.378 8.09 2.88 2.654.501 5.399 1.021 8.218 2.984 1.193.837 2.446 1.932 3.553 2.905 1.59 1.419 3.295 2.745 4.941 4.023 3.388 2.642 6.586 5.118 8.414 7.963 3.266 5.05-2.11 9.606-8.402 14.21-4.255 3.107-7.167 4.722-11.808 1.022-1.668-1.339-3.155-2.948-4.586-4.5-1.554-1.689-3.02-3.278-4.567-4.324-2.289-1.541-4.655-1.45-7.706.282-1.4.813-3.003 1.84-4.543 2.83-.814.533-1.663 1.076-2.47 1.578-1.45.911-3.315 2.214-5.572 3.895v.001c-.716.485-1.522.988-2.268 1.45-1.106.685-2.063 1.278-2.457 1.653-.686.657-.943 1.316-.743 1.908.216.64.885.995 1.987 1.056.07.004.139.006.21.006 2.478 0 6.53-2.23 8.625-3.717 3.177-1.917 6.333-3.146 9.817-2.986 4.727.213 8.574 1.614 13.172 7.9 1.762 2.41 3.26 4.275 5.284 4.563 1.26.183 2.599-.288 4.086-1.432 1.46-1.143 2.762-2.482 4.15-3.907 1.805-1.853 3.67-3.78 5.932-5.21 3.193-2.018 6.555-3.584 9.552-1.346.863.642 1.614 1.53 2.422 2.459.287.324.568.667.875.996 5.851 6.489 8.524 9.833 5.368 14.909-2.152 3.449-5.767 7.002-9.912 9.753-5.021 3.333-6.941 7.1-8.972 11.112-.708 1.394-1.442 2.825-2.304 4.238-.184.293-.522.896-.522.896-3.282 5.756-3.995 11.013-2.107 15.638 2.288 5.604 7.816 8.784 11.854 9.804l.442.12c1.669.452 6.246 1.695 13.893 1.695.977 0 2.022-.03 3.1-.074l1.156-.08c4.556-.404 7.75-1.13 9.963-2.243 4.598-2.323 9.22-8.476 10.67-11.832 1.61-3.75 3.639-7.308 5.602-10.75 1.302-2.269 2.635-4.618 3.858-7.028 1.786-3.533 2.746-6.574 3.016-9.57.17-1.797.06-3.595-.043-5.325-.087-1.517-.178-3.077-.092-4.642l.054-1.046c.27-4.794.52-9.312 2.103-13.99.178-.509.35-.974.509-1.377.6-1.54 1.027-2.654.507-4.8-.6-2.434-1.773-4.232-3.008-6.128a56.649 56.649 0 0 1-1.327-2.11c-2.171-3.687-4.416-6.26-7.057-8.108a29.563 29.563 0 0 0-1.756-1.106c-2.923-1.75-5.93-3.571-4.127-7.002.63-1.168 1.743-2.5 2.826-3.78.843-1.015 1.724-2.054 2.383-3.032 1.701-2.557 2.263-5.32 2.809-7.98.457-2.22.885-4.312 1.925-6.232.3-.544.648-1.087.997-1.62 1.174-1.823 2.378-3.688 1.504-5.847-.446-1.082-1.346-2.091-2.146-2.977-.38-.417-.733-.807-.997-1.18-4.115-5.51-4.06-12.733.135-18.823 1.058-1.536 2.311-3.094 3.516-4.593 2.036-2.526 3.963-4.916 4.995-7.198 1.236-2.714.827-5.74.399-8.933-.061-.452-.13-.899-.185-1.345-.666-5.326-.904-12.511.582-15.294.93-1.713 2.213-2.74 3.82-3.052 2.576-.507 6.013.838 9.432 3.694 1.6 1.333 2.457 2.153 3.392 3.957.973 1.84.771 3.9.582 6.084-.245 2.654-.496 5.387 1.266 8.053.367.563.777 1.07 1.173 1.554.349.42.667.825.943 1.223 1.418 2.116 1.498 4.14 1.602 6.482.048 1.589.122 3.387.63 5.46l.023.061c.998 2.245 1.69 4.012 2.422 5.872.166.433.325.849.501 1.284 2.294 5.815 2.924 9.784 2.294 14.657-.46 3.456-.16 5.638 1.144 8.347.35.753.703 1.535 1.076 2.36 1.828 4.091 3.901 8.722 7.692 11.045 1.53.941 3.37 1.68 5.315 2.476 3.865 1.566 7.876 3.192 9.668 6.44 2.177 3.925-.318 7.826-2.52 11.263-.648 1.015-1.265 1.976-1.755 2.905-1.308 2.507-1.767 5.278-2.2 7.937-.46 2.783-.919 5.663-2.362 8.365-1.369 2.581-3.73 6.482-8.323 10.402-.507.446-1.039.88-1.546 1.29-1.529 1.26-2.984 2.458-3.951 3.743-2.917 3.908 1.114 9.185 4.037 13.05.38.488.72.941 1.045 1.376.086.134.184.268.281.403.869 1.187 1.841 2.538 3.04 3.052 3.222 1.375 6.5-1.645 9.985-4.862 1.59-1.455 3.229-2.972 4.844-4 2.764-1.76 5.296-1.943 8.487-2.188a68.855 68.855 0 0 0 3.767-.355c1.87-.257 3.664-.678 5.382-1.088 3.639-.863 6.775-1.602 9.33-.367 1.218.593 2.374 1.663 3.59 2.806.734.698 1.5 1.414 2.3 2.03 1.131.863 2.458 1.176 3.865.881 2.226-.477 4.3-2.39 5.204-4.042 3.204-5.907-.845-11.63-4.764-17.165zm4.158 16.829c-.825 1.51-2.715 3.277-4.74 3.7-1.21.256-2.329-.007-3.301-.758-.77-.588-1.517-1.297-2.25-1.982-1.26-1.173-2.446-2.286-3.755-2.923-2.777-1.346-6.03-.563-9.802.325-1.706.396-3.462.819-5.31 1.063-1.332.183-2.549.263-3.723.36-3.167.234-5.894.442-8.812 2.306-1.657 1.046-3.326 2.58-4.934 4.067-3.315 3.045-6.44 5.926-9.252 4.727-1.021-.446-1.938-1.707-2.74-2.826a12.441 12.441 0 0 0-.293-.391c-.325-.446-.679-.91-1.046-1.4-2.801-3.681-6.634-8.739-4.042-12.212.911-1.229 2.336-2.397 3.834-3.614.514-.429 1.052-.856 1.566-1.308 4.683-4 7.087-7.969 8.481-10.61 1.491-2.8 1.962-5.73 2.434-8.574.447-2.733.874-5.313 2.135-7.724.482-.91 1.082-1.852 1.718-2.854 2.305-3.602 4.922-7.687 2.544-11.986-1.915-3.443-6.03-5.125-10.005-6.739-1.927-.777-3.75-1.51-5.228-2.415-3.59-2.208-5.62-6.746-7.412-10.738-.38-.833-.727-1.609-1.094-2.38-1.237-2.568-1.51-4.653-1.09-7.949.655-5.009.02-9.069-2.323-15.006a52.99 52.99 0 0 1-.501-1.284c-.74-1.866-1.432-3.62-2.422-5.871-.482-2-.55-3.755-.612-5.296-.097-2.446-.178-4.567-1.718-6.843-.281-.427-.617-.837-.966-1.271-.39-.478-.8-.96-1.15-1.505-1.62-2.452-1.382-5.075-1.15-7.607.203-2.182.41-4.445-.647-6.457-.961-1.83-1.84-2.733-3.572-4.183-3.578-2.978-7.216-4.378-9.998-3.847-1.822.355-3.272 1.511-4.293 3.413-2.03 3.779-.91 13.74-.665 15.698.054.458.122.917.176 1.362.422 3.101.819 6.018-.336 8.556-1.003 2.202-2.905 4.556-4.905 7.056-1.21 1.505-2.47 3.071-3.545 4.636-4.367 6.335-4.422 13.863-.123 19.629.287.386.66.795 1.034 1.218.764.85 1.627 1.809 2.017 2.775.752 1.828-.319 3.473-1.437 5.217-.348.545-.709 1.1-1.015 1.663-1.095 2.011-1.553 4.243-2 6.427-.544 2.6-1.094 5.29-2.715 7.73-.63.948-1.485 1.975-2.329 2.965-1.108 1.315-2.257 2.672-2.905 3.908-2.122 4.017 1.48 6.176 4.372 7.919.63.373 1.218.727 1.718 1.082 2.563 1.791 4.739 4.3 6.85 7.888.446.753.91 1.462 1.357 2.14 1.205 1.842 2.342 3.59 2.905 5.913.476 1.933.116 2.857-.478 4.392-.165.409-.342.868-.513 1.395-1.613 4.769-1.871 9.344-2.135 14.18l-.06 1.04c-.093 1.596.006 3.185.091 4.726.104 1.705.196 3.474.055 5.216-.262 2.905-1.204 5.877-2.953 9.326-1.212 2.385-2.556 4.733-3.84 6.996-1.969 3.461-4.012 7.033-5.64 10.824-1.429 3.338-6.088 9.249-10.351 11.477-3.376 1.765-9.685 2.15-9.685 2.15-10.114.572-15.983-1.025-17.913-1.548l-.455-.12c-4.174-1.057-9.301-4.36-11.342-9.363-1.89-4.629-1.026-9.962 2.57-15.851 0 0 1.571-2.926 2.287-4.326 1.981-3.915 3.864-7.62 8.732-10.848 4.232-2.802 7.913-6.434 10.12-9.962 3.578-5.742-.012-9.723-5.442-15.74-.3-.325-.587-.66-.869-.978-.82-.967-1.601-1.884-2.537-2.563-3.32-2.501-7.087-.74-10.328 1.314-2.325 1.469-4.22 3.426-6.054 5.31-1.364 1.411-2.655 2.738-4.08 3.833-1.326 1.033-2.494 1.455-3.558 1.31-1.762-.259-3.168-2.02-4.832-4.282-4.75-6.525-8.769-7.974-13.691-8.2-3.649-.168-6.91 1.108-10.173 3.074l-.019.012c-.661.4-1.324.817-1.989 1.267l.002.003c-2.178 1.262-4.86 2.444-6.472 2.354-.796-.044-1.259-.243-1.377-.592-.144-.427.294-.93.568-1.192.342-.327 1.315-.93 2.345-1.568a64.673 64.673 0 0 0 2.417-1.547c.296-.202.58-.403.83-.596l-.006-.01c1.825-1.339 3.374-2.411 4.61-3.18.802-.508 1.652-1.065 2.477-1.585 1.528-.99 3.112-2.011 4.519-2.818 2.77-1.584 4.929-1.676 6.964-.3 1.474.997 2.923 2.556 4.447 4.213 1.449 1.571 2.94 3.198 4.659 4.562 5.4 4.311 9.087 1.614 12.64-.997 2.305-1.681 4.488-3.35 6.194-5.07 3.18-3.18 4.727-6.462 2.398-10.077-1.897-2.935-5.137-5.454-8.573-8.132-1.64-1.272-3.333-2.587-4.918-3.988-1.106-.984-2.372-2.09-3.62-2.96-2.94-2.049-5.754-2.574-8.475-3.094-2.667-.514-5.18-.985-7.828-2.776-3.442-2.343-5.784-4.635-6.97-6.8-1.279-2.354.52-3.92 2.782-5.913.935-.825 1.914-1.682 2.752-2.68l.097-.108c.692-.814 1.334-1.59 1.897-2.545 2.64-4.561-.612-7.178-4.477-9.673-.355-.22-.715-.448-1.076-.66-1.28-.766-2.513-1.5-3.113-2.71-.61-1.211-.765-2.379-.941-3.62-.185-1.358-.374-2.77-1.181-4.373-.135-.244-.245-.49-.379-.733-.311-.618-.618-1.205-.917-1.86-.642-1.376-1.015-2.886-1.388-4.347-.374-1.462-.765-2.966-1.382-4.293-.19-.374-.697-1.076-1.212-1.37-2.99-1.67-10.224 2.495-10.53 2.667-.965.562-1.81 1.21-2.629 1.846-.734.575-1.437 1.119-2.183 1.547-.151.091-.32.178-.479.268v-.002a49.772 49.772 0 0 0-1.244.654c-.174.084-.337.17-.515.254l-.033.033c-1.045.54-2.07.996-2.903.983-.901-.02-1.444-.187-1.71-.523-.284-.362-.317-1.017-.103-2 .481-2.206 6.426-6.754 15.905-12.168 2.48-1.416 4.848-2.87 6.544-5.063 2.187-2.825 2.876-6.41 3.544-9.875.22-1.141.445-2.322.722-3.448 1.216-4.947 3.62-9.606 5.976-13.955 2.577-4.756 5.21-9.32 9.048-12.884 4.226-3.924 9.529-5.87 14.183-5.213 1.045.149 3.017.84 3.6 1.489.528.59.457 1.607.35 3.145-.082 1.184-.167 2.636-.024 4.38l-.015.014c.023.28.053.558.09.838l.003.042h.003c.258 1.936.855 3.983 1.959 6.923 1.572 4.201 1.615 7.143.141 10.158-.997 2.048-2.41 3.926-3.908 5.913-1.046 1.376-2.11 2.795-3.068 4.33-.87 1.37-1.634 2.77-2.38 4.127-2.067 3.791-4.03 7.394-7.504 8.848-1.504.636-3.283.79-5.002.942-2.77.239-5.637.49-7.13 2.875-2.685 4.299.08 9.424 2.306 13.544l.336.618c.66 1.26 1.303 2.44 1.975 3.333 1.316 1.78 3.455 3.553 4.758 4.256 1.975 1.058 3.804 1.773 5.57 2.452 2.056.808 3.988 1.553 5.816 2.745 4.727 3.1 8.12 8.427 8.555 11.577.404 2.923-.355 4.854-1.15 6.897-.538 1.334-1.076 2.716-1.315 4.422-.593 4.311 1.872 9.674 4.16 12.964 1.993 2.849 5.955 6.432 8.835 8.004 4.08 2.208 9.93 1.651 14.236-1.358 4.366-3.07 2.85-6.396 1.394-9.625a91.213 91.213 0 0 1-.587-1.308c-.66-1.553-1.186-3.094-1.687-4.575-.838-2.414-1.615-4.683-2.899-6.872-.765-1.316-2.11-2.953-3.418-4.544-1.126-1.37-2.184-2.66-2.777-3.62-1.528-2.471-2.379-5.009-3.29-7.693-1.057-3.136-2.146-6.366-4.39-9.442-.453-.623-.96-1.229-1.45-1.815-.684-.833-1.406-1.69-1.956-2.569-2.19-3.498.606-6.047 2.464-7.259.984-.654 2.208-1.266 3.498-1.907 3.522-1.75 7.497-3.743 9.888-7.748 2.171-3.651 3.485-8.452 4.758-13.1.898-3.308 1.84-6.743 3.088-9.765 1.326-3.223 2.574-7.356.422-10.743-.765-1.218-1.939-2.306-3.07-3.352-.948-.863-1.835-1.675-2.483-2.544-1.45-1.938-1.939-4.96-1.278-7.882.636-2.8 2.233-5.058 4.385-6.183 2.304-1.217 5.013-1.174 8.138-1.12 1.823.025 3.706.05 5.749-.146.428-.035.85-.079 1.26-.135 2.806-.3 5.027-.55 6.855.448 1.962 1.069 2.416 2.671 2.66 4.078.184.942.245 1.885.33 2.789.256 3.18.531 6.476 4.941 9.893 2.708 2.086 6.378 3.284 10.652 3.499 5.173.244 9.234-1.358 13.924-3.211l.636-.245c1.689-.66 3.456-1.29 5.16-1.907 4.997-1.78 10.158-3.627 14.586-6.684.373-.251.758-.538 1.173-.844 1.125-.83 2.404-1.767 3.095-1.858.085-.026.165.018.3.078.092.044.214.092.354.123 1.016 1.272 1.43 3.205 1.058 4.972-.232 1.1-.838 1.644-1.607 2.329-.227.19-.441.392-.674.612-2.764 2.715-2.984 8.414-2.262 11.594.403 1.736 1.107 3.468 1.78 5.143.372.935.764 1.889 1.088 2.826 1.89 5.46 2.336 9.721 1.277 12.321-.287.703-.494 1.438-.708 2.153-.269.953-.539 1.859-.96 2.696-.563 1.125-1.272 2.202-1.957 3.24-.691 1.035-1.395 2.105-1.976 3.235-3.295 6.464-1.724 12.94 1.652 20.67l.16.355c.335.764.684 1.565.976 2.397.655 1.877.845 3.828 1.016 5.71.232 2.533.471 4.924 1.792 6.917.905 1.358 2.017 2.484 3.076 3.577.666.692 1.357 1.395 2 2.146 1.73 2.062 3.692 4.392 6.763 5.224 2.11.568 4.145 1.014 6.291 1.497l1.047.239c.91.202 1.792.519 2.648.838 1.345.489 2.74 1.003 4.292 1.076l.147.012.105-.103c.072-.061.152-.14.238-.226.19-.19.373-.398.47-.581l.037-.074.006-.092c-.013-1.517-.385-3.003-.746-4.44-.354-1.468-.721-2.984-.715-4.518.018-3.615.28-6.679.782-9.393 1.175-6.263 3.426-11.95 6.708-16.908 3.034-4.575 6.71-9.73 11.864-13.025.012-.001.024-.013.03-.02l.202-.127c.053-.01.183-.125.338-.28.863-.725.971-1.347.971-1.347l-.003-.01c2.257-4.723 1.836-9.931-1.123-13.639-2.176-2.715-5.858-5.308-9.099-7.595-.746-.525-1.449-1.021-2.128-1.517-2.807-2.024-5.51-3.65-8.126-5.215-3.571-2.153-7.266-4.367-11.258-7.651-3.541-2.905-4.863-5.863-4.544-10.205.153-2.123.825-4.997 1.547-8.041.495-2.073 1.009-4.226 1.376-6.27.66-3.63 1.37-6.91 3.376-10.162 1.571-2.539 3.974-4.451 6.506-6.335.807-.6 1.583-1.193 2.36-1.774 1.731-1.316 3.387-2.564 5.02-3.68 2.891-1.949 4.652-2.521 5.842-2.901.927-.296 1.54-.492 2.021-1.162.832-1.156.69-1.933.423-2.382-.46-.773-1.653-1.138-3.1-.96-2.755.344-5.629 1.621-8.55 3.777l-.005-.005-.318.242c-.053.04-.107.077-.16.117l.002.003c-1.108.839-2.29 1.744-3.584 2.768-.899.704-1.774 1.37-2.611 2.013-2.5 1.902-4.66 3.558-6.617 5.515a25.954 25.954 0 0 0-2 2.22c-1.247 1.54-2.201 3.23-3.215 5.014-.85 1.486-1.719 3.027-2.82 4.618-.837 1.204-1.51 2.023-2.158 2.671-1.89 1.89-3.67 2.19-5.608.937-.342-.209-.686-.441-1.04-.673-1.522-.997-3.106-2.018-4.855-2.923-1.418-.735-2.917-1.389-4.372-2.024-2.312-1.003-4.501-1.957-6.354-3.174-3.877-2.544-4.011-5.602-4.153-9.13-.09-2.037-.183-4.134-1.02-6.268-1.058-2.684-3.48-6.794-5.412-9.681-2.85-4.267-5.761-4.879-9.521-4.506-1.877.19-3.786.789-5.797 1.42-2.99.934-6.072 1.9-9.472 1.692-1.272-.072-2.568-.245-3.816-.403-.76-.099-1.529-.196-2.3-.282l-.011.011c-4.05-.576-5.168-1.157-5.453-1.484-.363-.415-.263-1.1.023-1.564.307-.494.791-.858 1.303-1.243l.142-.106c4.046-3.055 7.216-7.366 8.928-12.14.102-.283.199-.569.295-.855.276-.812.562-1.652.96-2.413 1.023-1.964 2.82-3.48 4.574-4.865 1.31-1.035 2.61-2.018 4.092-2.689 3.775-1.706 8.159-1.037 11.21 1.622 2.518 2.29 3.271 4.753 4.054 7.35.568 1.903 1.162 3.878 2.458 5.944 1.608 2.587 4.605 3.895 7.516 5.167 1.491.649 2.904 1.279 4.073 2.043 2.996 1.957 4.592 4.336 6.304 6.843.171.27.348.532.532.802 1.272 1.859 2.917 3.014 4.764 3.344 1.809.318 3.748-.202 5.583-1.523.343-.232.666-.507.96-.801 1.608-1.608 2.14-3.632 2.696-5.78.508-1.913 1.028-3.912 2.373-5.796.182-.248.38-.482.582-.705l.007.005c5.911-6.242 18.262-7.18 24.543-3.793 8.823 4.754 12.017 12.337 12.071 17.387.035 3.241-1.148 5.86-3.166 7.004-1.32.749-2.44 1.183-3.738 1.685-1.315.51-2.814 1.105-4.737 2.12l-.007-.007c-.053.029-.103.063-.157.092-.17.092-.322.164-.5.262l.013.025c-.576.343-1.142.71-1.686 1.12a75.214 75.214 0 0 1-2.892 2.06c-3.089 2.159-6.286 4.379-8.2 7.577-1.822 3.046-2.196 6.427-2.606 10.016a87.108 87.108 0 0 1-.519 3.969l-.092.532c-.398 2.33-.807 4.733-1.05 7.13l-.002.037c.05 3.633 2.453 6.329 4.782 8.488.422.397.857.808 1.303 1.217 2.739 2.556 5.583 5.204 7.564 6.328 2.35 1.334 4.88 1.75 7.338 2.166 3.737.63 7.272 1.217 9.9 4.837.361.483.661 1.052.96 1.608.393.72.783 1.468 1.315 2.085.46.532 1.01.9 1.547 1.254.355.245.71.476 1.028.759 1.547 1.35 2.849 3.424 3.576 5.668 1.377 4.238.613 9.063-2.035 12.908-.862 1.265-1.687 2.594-2.489 3.884-1.358 2.201-2.763 4.476-4.409 6.439-.398.459-.77.905-1.15 1.345-3.308 3.895-6.164 7.24-8.01 12.315-.447 1.23-1.033 2.465-1.595 3.664-1.708 3.6-3.475 7.326-1.75 11.337 1.027 2.41 1.712 4.965 2.373 7.449.947 3.552 1.92 7.227 3.95 10.517 1.529 2.483 3.865 4.22 6.14 5.895.293.209.58.435.868.649 3.094 2.31 5.497 4.384 7.178 6.995 2.03 3.143 1.652 6.03-1.442 11.044-2.892 4.69-3.938 6.788-.679 11.625.6.867 1.223 1.748 1.828 2.599 3.964 5.613 7.717 10.91 4.715 16.43z" fill="#200002" fill-rule="evenodd"/></svg>