<svg id="Calque_1" data-name="Calque 1" xmlns="http://www.w3.org/2000/svg" viewBox="0 0 1446.01 1950.59"><defs><style>.cls-1{fill:#fff;}.cls-2{font-size:11.47px;}.cls-10,.cls-11,.cls-12,.cls-13,.cls-14,.cls-15,.cls-16,.cls-17,.cls-18,.cls-19,.cls-2,.cls-20,.cls-21,.cls-22,.cls-23,.cls-24,.cls-25,.cls-26,.cls-27,.cls-28,.cls-29,.cls-3,.cls-30,.cls-31,.cls-32,.cls-33,.cls-34,.cls-35,.cls-36,.cls-37,.cls-38,.cls-39,.cls-4,.cls-40,.cls-41,.cls-42,.cls-43,.cls-44,.cls-45,.cls-46,.cls-47,.cls-48,.cls-49,.cls-5,.cls-50,.cls-51,.cls-52,.cls-53,.cls-54,.cls-55,.cls-56,.cls-57,.cls-58,.cls-59,.cls-6,.cls-60,.cls-61,.cls-62,.cls-63,.cls-64,.cls-65,.cls-7,.cls-8,.cls-9{fill:#009dda;font-family:Futura, Futura;}.cls-3{font-size:11.47px;}.cls-4{font-size:11.47px;}.cls-5{font-size:11.47px;}.cls-6{font-size:11.47px;}.cls-7{font-size:11.47px;}.cls-8{font-size:11.47px;}.cls-9{font-size:11.47px;}.cls-10{font-size:11.47px;}.cls-11{font-size:11.47px;}.cls-12{font-size:11.47px;}.cls-13{font-size:11.47px;}.cls-14{font-size:11.47px;}.cls-15{font-size:11.47px;}.cls-16{font-size:11.47px;}.cls-17{font-size:11.47px;}.cls-18{font-size:11.47px;}.cls-19{font-size:11.47px;}.cls-20{font-size:11.47px;}.cls-21{font-size:11.47px;}.cls-22{font-size:11.47px;}.cls-23{font-size:11.47px;}.cls-24{font-size:11.47px;}.cls-25{font-size:11.47px;}.cls-26{font-size:11.47px;}.cls-27{font-size:11.47px;}.cls-28{font-size:11.47px;}.cls-29{font-size:11.47px;}.cls-30{font-size:11.47px;}.cls-31{font-size:11.47px;}.cls-32{font-size:11.47px;}.cls-33{font-size:11.47px;}.cls-34{font-size:11.47px;}.cls-35{font-size:11.47px;}.cls-36{font-size:13.38px;}.cls-37{font-size:13.38px;}.cls-38{font-size:13.38px;}.cls-39{font-size:13.38px;}.cls-40{font-size:13.38px;}.cls-41{font-size:13.38px;}.cls-42{font-size:13.38px;}.cls-43{font-size:13.38px;}.cls-44{font-size:13.38px;}.cls-45{font-size:13.38px;}.cls-46{font-size:13.38px;}.cls-47{font-size:13.38px;}.cls-48{font-size:15.29px;}.cls-49{font-size:15.29px;}.cls-50{font-size:15.29px;}.cls-51{font-size:15.29px;}.cls-52{font-size:15.29px;}.cls-53{font-size:15.29px;}.cls-54{font-size:15.29px;}.cls-55{font-size:15.29px;}.cls-56{font-size:15.29px;}.cls-57{font-size:15.29px;}.cls-58{font-size:15.29px;}.cls-59{font-size:15.29px;}.cls-60{font-size:15.29px;}.cls-61{font-size:15.29px;}.cls-62{font-size:15.29px;}.cls-63{font-size:11.47px;}.cls-64{font-size:11.47px;}.cls-65{font-size:11.47px;}.cls-66{fill:#232020;}</style></defs><title>Yosemite</title><path class="cls-1" d="M1010.39,834.84a5.69,5.69,0,0,0-.21-1.3c-.43.43-.82.8-1,1-.64.67-2.25,2.47-2.87,3.13s-2.21,2.53-3,3.39-3.08,3.82-3.52,5.22a8.91,8.91,0,0,0-.65,5.48c.22,1.24,0,2.57.51,3.57a18.31,18.31,0,0,0,2.82,3.86,14.56,14.56,0,0,0,3.42,1.81l4.53,2.12.78.39c0-1.34.08-2.76.12-4l.07-2.18.21-3.12c.22-2.79.63-8,.34-9a5.58,5.58,0,0,0-.91-1.83c-.67-1.06-.74-3.54-.62-7.48Z"/><polygon class="cls-1" points="993.72 821.26 994.88 821.92 996.69 822.08 997.51 822.58 998.99 822.91 999.98 822.41 999.82 821.59 997.51 817.96 996.52 816.97 994.88 815.99 993.56 815.49 992.24 815.65 991.75 816.31 992.73 819.94 993.72 821.26"/><path class="cls-1" d="M10.75-.2V602.61l1.63,1.09,3.35,4.52,1.52,1.52,1.24.69,1.89.29,2.44-.19.91.92.94,2.82.88.44,2.94.49,3.83,1.56,2.49,2,1.64.83,3.24,2L41,623.12l.93,1.86.83.52.43-.07.87-.75,1.61-2.57.93-1.12,2.45-1.75,1.32-.66,2.67.58,2.46.77.93-.12,1.25-.83,2-2,2.54-3.21,1.86-1.12,1.32-.44,3.26.81.72-.31,2.74-2.9,2.92-2.06,3.36-2,2-.74h1.28l1.31.44,1.25,1.24.76,1.72s.31,1.57.33,1.68l2,5.61.67,4s.95,5.21,1,5.36l.93,2.45,1.18,1.62,1.28,1,2.91,1.08,3.6.48,6.57.16h7.82l3.83-.83,2,.19,1.74.58,1.41,1.21.83,1.65v2l.3.37,1.39.38,4.89-.47,4-.69,1.43.41,4.14,2.31,2.48.83,1.08.65,1.06,1.7V645l-.15.6.12.82.75,1.26.8.34,2.22.34,1.27.85.48.65,1.54,1,.54.09.69-.34,2.82-1.94,3.87.19,1.72.58,1.45,1,1.16,2.66L165,654.5l.72,1.21-.35,3,.13.91.4.8,2,2.78,3.8,2.48.83,1.25.41,1.43-.19,2.29-1.13,2.44v1.33l.74,2.5.8.93,3.3,2.31,2.59,3.12,0,.07.68,1.25,1.8-.39,2.18.18,7.9,2.14,3.08.15,5.42-1.31H202l2.84.35,4.15,2.08,2.31,1.64,1.8.9,10.15,1.77,1.75-.15,1.05-.4,3.38-3.06,4.79-3.3,2.62-2,.27-.62c-.24-.6-3-7.61-3-7.7L232.56,672l-.41-2.25.93-1.64,12-6.68,4.83-3.5,6.6-2.54,13-2.33,1.54-.17h.52a8.15,8.15,0,0,0,2.56-.3,44.49,44.49,0,0,0,3.8-4.83,30.67,30.67,0,0,0,2.55-6.52,34.4,34.4,0,0,1,1.68-4.82l.19-.47a21,21,0,0,1,2.84-5.09,7.51,7.51,0,0,1,4.29-2.4,4.64,4.64,0,0,1,.67-.05,8.3,8.3,0,0,1,2.09.34,7,7,0,0,0,1.66.28,2.81,2.81,0,0,0,.45,0,20.59,20.59,0,0,0,4.21-1.57l.11-.06,1.23-.2,1.72.19,2.74,1.1,2.18,2.18,1.64.89,4.1,1.31,2.51,1,2.33,1.08L318,636l3.13,7.08.62.74,1.92.88,4.1,1.27h2l1.19-.4.9-.77,2.75-5.18,1.72-2.41,1.08-1.08,4.08-3.06,6.76-3,2.74-2,4.07-7.16,2.12-2.47,2.88-1.8,3.53-.67,2.37-1,1-1.11.46-.81c-.09-.57-1.41-8.34-1.41-8.34l-1.79-6.52L363,595l-.52-3.44v-2.8c0-.13-.5-3.2-.5-3.2l.22-1.3,1-1.63,1.59-1,4.2-1.17,2.4-.8,3.11-1.64,5.74-2.19,15.13-4,2.89.18,3.47,1.21,2.57,1.13,3,.79,3.21.46.48-.16.4-.71.32-3.36.82-4,.49-4.86v-5.22l-.35-2.59,2.37-8.3.8-1.8,1.93-1.07h1.66l1.58.47.65-.11,2.55-1.43,3.79-1.58.46-.58.89-1.78.82-4.74,1-3.61.61-.83,4.16-4.32,3.62-3.79,4.53-4.76,1.52-2.65,3.45-5.43,2.52-4.09,2.67-2.22,2.86-3,5-2.68,2-1.41,1.66-1.66,1.54-3.07,1.64-7.55,1.31-3.12.45-1.5c0-.29-.32-4.88-.32-4.88l.35-2.31.85-2.54.26-.38,1.29-1.11,1.94-.58h2.18l2,.36,2.47.88,7.23,4.88.73.58,3.26,1.4,1.58.29.93-.13,1.52-.56,4-4.51,2.29-1.8.41-.51v-4.46l.92-2.55,3.41-4.86c0-.27.1-.84.12-1l-.3-2.12-.69-2.1.21-1.49,2.75-5.49,1.77-2.12,5.29-4.1,3.39-1.13,4.33-4.8,1.45-4.83.7-1.76,2.25-2.94,1.28-1.45,2.67-1.24,2.8-1.15.07,0,3.71-1.18,11.79-2.49h3.14l3.35-.32,2.8-1,11.09-1,7.14-1.62,2-.78,2.63-1.39,2.26-2.42,5.37-4.86,2.26-1,.36.78-.25-.82,2.23-.68,5.63-1.13,3.27-1.87,7.27-6.1,4.13-2.81,2.7-1.75,1.86-2.17.94-1.26.65-1.31,1.73-2.42,2.78-2.78.52-.87,2.88-2.19,1.75-1.6,4.29-5.61,1.61-1.43L640,362.3l9.81-1.83,12.08-4.25,3.18-1.59,2.5-1.83,3-1.22,4.26-1,1.41-.7,8-9.15,2.09-1.75,2-1.06,12.29-5.25,6.82-3.57,1.44-1.3.54-1.15.61-1.56a38.75,38.75,0,0,1,2.68-6.92c.83-1.43,8.56-5,9.25-5.33-.47-1.28-1.75-4.84-2-5.69a11,11,0,0,1-.16-2.82l0-2.45-.1-1a14.93,14.93,0,0,1-.07-3.4,18.53,18.53,0,0,1,1.07-4.58l.12-.38c.64-2,5.23-8.34,6-9.36a33.46,33.46,0,0,0,1.4-5.46,21.3,21.3,0,0,0,.06-2.71,17.54,17.54,0,0,1,.11-3.1,21.54,21.54,0,0,1,1.35-4.43l1-3.24a17.48,17.48,0,0,0,.28-2.74l.36-3.93a36.33,36.33,0,0,1,2.29-7l-1.47-1.61-4-4-3.95-4.28s-2.92-2.78-3.3-4.78a8.42,8.42,0,0,1,.66-4.28s2.23-2.24,3.79-4a22,22,0,0,0,3-5.27L733.93,211l4.43-7.83a7.65,7.65,0,0,0,2.09-4.44,12.11,12.11,0,0,0-1-5.74l-2.61-6-3.13-3.4-5.74-4.7-5-2.09-6.37-2.2L713,173.42,708,171.12l-5.6-5.44-5.77-8.4s-1.81-5.23-2.14-7.08a8.15,8.15,0,0,1,0-3.13,12.18,12.18,0,0,1,1.32-4.12,3.74,3.74,0,0,1,2.47-1.81l10.22-5.27a17.5,17.5,0,0,0,2.31-3.91c.57-1.68.39-6.07.39-6.07v-5l1-6,1.56-5.22,1.31-3.39,3.65-8.87L723,90.06l4.3-6.26,2-4.7v-7l-1.31-7.24.87-8.7-.33-.66-.49-3-.83-6.26.16-4,.5-1.81,1.49-2.8,1.48-2.31L736,29.09l3.13-4.78,2-4.45.66-2.8.16-4.61L741.48,9l.21-9,2.1.26.17,11.2-.17,1.16-.33,3.79-.17,3.13-1.15,3.79-2,3.79-9.23,11.7-1.15,2.3-.65,3.13v1.81l.32,2,1.65,7.41,2.83,11.32.63,5.49V80.5l-4.28,8.73-5.77,8.23-7.42,17.14-1.31,8.24,0,5.19s-.47,3.21-1,5.54a17.83,17.83,0,0,1-2.76,5.36l-7.24,4.37-4.11,2.94a8.72,8.72,0,0,0-1.17,4.18,13.1,13.1,0,0,0,1.76,4.44l1.89,4.44,4,3.78,6.46,4.44,6.16,3.58,5.07,1.5,5.22,2.87,4.7,4,3.29,2.64,3,3.79,3.79,8.73a6.73,6.73,0,0,1,.83,4.12,7.26,7.26,0,0,1-1.65,4.12L741.64,207l-3.53,5.5-3.57,7.41-4.79,8.51s-2.17,5-2.09,6.85a9.61,9.61,0,0,0,2.09,5.68,49.54,49.54,0,0,0,6,5.22l5.22,4.7,3.92,1.57,4.18.52,7.31.26a16,16,0,0,1,5,2.87,39.72,39.72,0,0,1,4.18,5,11.82,11.82,0,0,1,2.35,2.61,18.12,18.12,0,0,1,1.31,4.18l1,5.22,2.08,6.26,1.48,8.09,3.3,6.59,3.45,7.63s2.12,4.08,2.31,5.72a16.09,16.09,0,0,1-.36,5.9c-.53,1.4-1.71,2.84-2.09,3.92s-.65,2.8-1.37,4.55a19.71,19.71,0,0,1-2.71,4.05L775,331.2v7.1l1.69,7.43,4.73,15.21,1.58,3.79a86.58,86.58,0,0,0,13.26,1.71c7.91.33,15.63-2.71,23.66-3.11,2.45-.12,6.66.21,8.63-1.52.79-.69.85-2.79,1.57-3.81a30.93,30.93,0,0,1,3.13-2.75c2.06-2,3.82-4.62,6.08-6.64,3.14-2.8,6.6-5.55,9-6.25s13.64-5.91,16-6.39,15.89-.51,24-1.8c7.33-1.16,21.08-.22,24-1.8s5.68-10.12,8.89-11.91c2-1.13,5.65,0,7.41-1.36,2.08-1.56,2.68-5.3,5.78-5.64,5.3.8,3.77,1.78,9.39,1.77a22.19,22.19,0,0,1,6.33,1c3.87,1,8.5.7,12.53,1.67-.13,4.66,8.82,5.06,17.45,4,6.86-.84,13.52-2.59,15.24-3.86,2.35-1.33,3.35-2.27,4.9-2.86,1.74-.72,2.22-.24,2.86-.61,6.41,1.19,12.26,1.23,18.07-2.35,1.72-1.06,5.63-6,6.84-7.3s2.89-1.29,5-1.18a13.61,13.61,0,0,1,4,.41c4.11,1.47,3.05-.1,5.44,2.87,1.51,1.89,2.82,6.09,5.26,6.59.81.17,5.64-5.68,6.73-5.61,7,.45,7.52,2.52,10.65,8.7,1.32,2.6,5.37,6.14,7,8.27s4.17,2.55,6,4.37c3.66,3.67,3.41,7.89,9,12.58.57,2.11,2.82,4,3.68,6.13a47.51,47.51,0,0,0,3.37,5.72c2.47,3.57,2.55,2.25,4.39,6.84a31.86,31.86,0,0,1,2.32,8.72c.52,3.81,3.08,5.84,5.09,9.15v.86c-2-3.31-4.57-5.34-5.09-9.15a31.86,31.86,0,0,0-2.32-8.72c-1.84-4.59-1.92-3.27-4.39-6.84a47.51,47.51,0,0,1-3.37-5.72c-.86-2.17-3.11-4-3.68-6.13-5.62-4.7-5.37-8.91-9-12.58-1.81-1.82-4.37-2.31-6-4.37s-5.73-5.67-7-8.27c-3.13-6.19-3.6-8.26-10.65-8.7-1.09-.07-5.92,5.78-6.73,5.61-2.43-.5-3.74-4.71-5.26-6.59-2.39-3-1.33-1.4-5.44-2.87a13.61,13.61,0,0,0-4-.41c-2.12-.11-3.75-.14-5,1.18s-5.11,6.24-6.84,7.3c-5.81,3.57-11.66,3.54-18.07,2.35-.63.38-1.12-.1-2.86.61-1.55.59-2.55,1.53-4.9,2.86-1.72,1.27-8.38,3-15.24,3.86-8.63,1.05-17.58.65-17.45-4-4-1-8.66-.64-12.53-1.67a22.19,22.19,0,0,0-6.33-1c-5.62,0-4.1-1-9.39-1.77-3.1.35-3.7,4.09-5.78,5.64-1.76,1.32-5.37.23-7.41,1.36-3.21,1.78-6,10.33-8.89,11.91s-16.69.64-24,1.8c-8.13,1.29-21.64,1.31-24,1.8s-13.66,5.69-16,6.39-5.82,3.45-9,6.25c-2.26,2-4,4.68-6.08,6.64a30.93,30.93,0,0,0-3.13,2.75c-.72,1-.78,3.11-1.57,3.81-2,1.73-6.18,1.4-8.63,1.52-8,.4-15.75,3.43-23.66,3.11a85.21,85.21,0,0,1-12.87-1.64l1.41,3.39,2.28,4.84.43.91.2.5,3.51,8.62,4.39,8.78a11.59,11.59,0,0,1,1.35,7.1c-.68,3.65-2.71,4.73-2.71,4.73s-6.25,3.1-7.43,4.73a45.07,45.07,0,0,0-3,6.08l-4.39,7.09-2,6.08-3,8.11s-2.71,5.36-3,7.77a79.31,79.31,0,0,0,0,9.12l.67,5.4s1.48,5,2.71,6.42a25.58,25.58,0,0,0,4.73,3.38l3.72,3.38,7.77,5.07L803.61,485l9,7.73,10.54,4.45,7.08,1.15s4.73,1.75,5.44,3.79a7.67,7.67,0,0,1,0,4.29l-2,7.5a3.19,3.19,0,0,0,2.06-.33c2-.88,8.62-.36,10.83,0S856.83,515,856.83,515h5.39c2.44,0,4.45.69,6.78,1,1.68.24,3.48-.15,5.18,0a37.89,37.89,0,0,1,5.39,1.35c3.06.71,7.06.27,10.27.17a14,14,0,0,0,5.89-1.17c1.83-.91,3.69-1.47,5.21-2.75,2.21-1.87,4-4.62,6.41-6.22,1.25-.83,2.92-1.22,3.73-2.47,2.73.08,4.54-3,6.54-4.37,2.33-1.62,4.95-2.41,6.88-4.75,1.18-1.44,1.85-3.72,3.11-5.23.69-.83,1.57-1.54,2.31-2.31,1.39-1.43,4.33-4.87,4.4-4.76a1.07,1.07,0,0,1,.63-.18c1.88-.24,3.41-2.06,5.07-3.15,1.5-1,3.42-1.77,5.05-2.76,2.28-1.37,1.35-1.1,3.85-3,.87-.67,2.8-1.75,3.66-2.58v1.3c-.86.83-2.78,1.91-3.66,2.58-2.5,1.93-1.57,1.65-3.85,3-1.64,1-3.55,1.77-5.05,2.76-1.66,1.09-3.19,2.91-5.07,3.15a1.07,1.07,0,0,0-.63.18c-.07-.11-3,3.33-4.4,4.76-.74.77-1.62,1.48-2.31,2.31-1.26,1.51-1.93,3.79-3.11,5.23-1.93,2.33-4.55,3.13-6.88,4.75-2,1.39-3.81,4.45-6.54,4.37-.81,1.25-2.49,1.64-3.73,2.47-2.4,1.6-4.2,4.35-6.41,6.22-1.51,1.28-3.37,1.83-5.21,2.75a14,14,0,0,1-5.89,1.17c-3.21.1-7.21.54-10.27-.17a37.87,37.87,0,0,0-5.39-1.35c-1.7-.14-3.5.25-5.18,0-2.33-.33-4.33-1-6.78-1h-5.39s-8-1.07-10.18-1.43-8.82-.88-10.83,0a2.64,2.64,0,0,1-2.38.21c-.48,1.64-1.51,4.65-2.83,5.66-1.85,1.42-5.27,1.32-5.27,1.32L809,525.35s-4.13,3.44-4.68,4.53.47,5.21,0,7.09a24.25,24.25,0,0,1-2,4.66l-1.3,7.83s-.57,4.74-1.57,6.78a76.81,76.81,0,0,1-4.7,7l-2.35,3.91-3.13,6a8.25,8.25,0,0,0,0,3.91,23.79,23.79,0,0,0,2.61,4.18,26.92,26.92,0,0,0,3.82,4.84c1.6,1.32,5.93,3,5.93,3l5.44,3.62,4,5.11,1.82,3.79,1.32,3.46,2.8,11.2,3.63,25s.51,2.68,1,5.77,3.29,15,3.29,15,1.34,9.08,2.31,12,1.93,7.41,3.13,9.56,4.61,7.58,4.61,7.58,4.43,5.26,5.6,7.91a40.07,40.07,0,0,1,2,7.25l.88,5.81s0,4,1,5.44a7.71,7.71,0,0,0,3.38,2.22,31.83,31.83,0,0,1,3.65,1.3A12.88,12.88,0,0,1,855,723.8l3.13,1.56,3.39-.52,3.17-1.62,5.27-2.8,4.45-3.3,4.94-2.8,4.78-2.47,5.44-2.64,6.26-1.81,4-.66,5.28-.17a11.32,11.32,0,0,0,4-1c1.53-.84,1.77-1.84,3.3-2.31s4.28.5,4.28.5l4,2,8.07,6.59,6.59,4.78,9.06,5.77,3.79,1.32a27.34,27.34,0,0,1,3.79,3c.78.95,1,4.61,1,4.61s-1.46,4.59-2.31,5.77-5.12,3.75-5.6,4.61a33.65,33.65,0,0,0-1.19,5.11,34,34,0,0,0-.78,5.22,15.58,15.58,0,0,0,1,5,32.67,32.67,0,0,0,2.87,3.91s3.74,4.77,4.18,6.27a19.83,19.83,0,0,1,.48,4v7.42l-.5,3.29-.66,8.24.66,8.57s.65,5.13,1.32,6.09a53.6,53.6,0,0,0,4.18,4.13A9.66,9.66,0,0,0,960.2,811c1.55.11,3.44-.6,4.7-.78s7.57-.26,7.57-.26,6.26-.51,7.57-.52a48.65,48.65,0,0,1,6.26,0c1.23.26,3.2.75,4.18,1s3.22.67,4.44,1a31.74,31.74,0,0,1,4.83,1.69c1.07.62,2.81,2.9,3.39,3.26s3.21,1.9,4,2.48a39.11,39.11,0,0,1,4.18,3,12.44,12.44,0,0,1,2.22,4.83,10.38,10.38,0,0,1-1.31,4.44,6.14,6.14,0,0,1-.71.93,9.56,9.56,0,0,1,.56,2.72l0,1.13c0,1.56-.17,5.68.35,6.5a7.32,7.32,0,0,1,1.13,2.33c.33,1.24.06,5.08-.29,9.61l-.2,3-.07,2.24c-.05,1.4-.12,3.21-.13,4.76l2.62,1.29,7.07,3.72,5.36,4.36.05.07a24.12,24.12,0,0,1,7-1.16,29.12,29.12,0,0,0,3.85-.42,10.27,10.27,0,0,0,3.43-1.29,32.92,32.92,0,0,1,3.94-1.85,15.34,15.34,0,0,1,5.39-1.41l3.11-.43a24.44,24.44,0,0,1,4.14-.46,14.88,14.88,0,0,0,4.17-.66c3.81-1.08,8.4.83,10.42,1.83l2.57-2.08,3.42-2.74,4.27-1.46a21.93,21.93,0,0,1,5.89-2c1-.13,3-.16,5.06-.16h4.57c.83,0,1.48,0,1.77,0l4.59-.49a27.48,27.48,0,0,1,2.89-.17,10.49,10.49,0,0,1,2.17.19c1.64.37,5.43,1.84,5.83,2l5.74,1.31,3.89,1,.73-.52,2-2.44,1.74-4.43.68-3,1-1.56,1.85-1.48,1.7-.76,3-.35,4.28.34,1.78.3,4.32-1.28,2.53-.36,8.92,2.15,3.24-.31,1.12-.32,1.42-.31,5-2,3.05-.85,5.09-.34,8.07.5,13.58-.17,3.37.53,1.94,1.16,1.8,2.45,2.21,1.18,1.75.48,3.5,1.11h2.57l1.42-.16.73-.18,13.93.67,2.71,1,8.46,2,4.45.5,4.14,1,3.23.65,3.79.47,6.78-1.73,2-1.3,4.24-1.36,4.85-1.5,5.07-.68h2.54l2.37-.89,2-1.52,1.33-1.47,1.12-2.89,2.72-4.41,1.45-1.63,10.09-6.45,2.1-1.62,4.14-4.14,2.77-1.91,1.35-.58,1.93-.21,2.49,1.72,1.46,1.63,3,1.77,2.34-.15,1.51-.15,1.77-.74,1.12-.8,2.4-1.28,4.64-5,3.84-1.67,1.23-1,.74.19,4.41-2.59,3.2-2.24,1.52-1.82,2.67-4,1.63-1.81,2.56-1.28,3.49-.7h3.29l5.64.48,1.36-.27.94-.63.95-.32,2.47-2,2.3-2.47,2.8-2.3,3.79-3.63a7.54,7.54,0,0,0,1.63-2.91,8.11,8.11,0,0,1,1.82-3.18c2.05-1.94,5.84-2.74,9.4-2.74a17.62,17.62,0,0,1,6.43,1.05c2,.86,3.87,2.75,5.35,4.27l.52.53,3.59,3.87,3.3,3.57,3.1,3.51c2.8,3.32,5.45,6.46,9.39,7.44a16.6,16.6,0,0,0,2.87.27c2,.09,4.05.17,5.28,1,.37.26.88,1,2.43,3.54l1.51,2.37-1.37,1-1.61-2.51c-.69-1.11-1.73-2.8-1.94-3-.81-.57-2.7-.65-4.37-.72a17.42,17.42,0,0,1-3.22-.32c-4.48-1.11-7.43-4.61-10.29-8l-3-3.42-3.34-3.61-3.54-3.81-.53-.54c-1.37-1.41-3.08-3.16-4.78-3.89a15.93,15.93,0,0,0-5.76-.92c-3.17,0-6.53.67-8.21,2.27a6.73,6.73,0,0,0-1.39,2.55,9.1,9.1,0,0,1-2,3.54l-3.84,3.67-2.76,2.27-2.31,2.47-2.81,2.28-1,.34-1,.69-1.94.39-5.81-.5h-3l-3.1.62-2.06,1-1.33,1.48-2.66,4-1.72,2.06-3.45,2.41-5.08,3-.58-.15-.75.62-3.74,1.63L1337,828.1l-2.55,1.36-1.19.85-2.19.91-1.77.18-.09-.86.05.86-2.9.18-3.63-2.18-1.5-1.67-1.79-1.24-1,.12-1,.41-2.5,1.72-4.1,4.1-2.25,1.73-9.95,6.36-1.19,1.34-2.55,4.15-1.19,3-1.64,1.82-2.31,1.77-2.9,1.09h-2.73l-4.82.64-4.7,1.46-4,1.28-2,1.33-7.38,1.89-4.18-.52-3.33-.67-4.07-1-4.45-.49-8.67-2-2.56-1-13.41-.64-.59.14-1.63.18h-2.94l-3.72-1.19-1.91-.52-2.73-1.46-1.83-2.49-1.36-.81-2.89-.46-13.5.16-8-.49-4.8.32-2.79.77-5,2-1.5.33-1.23.35-3.68.35-8.88-2.14-2.08.3-4.58,1.36-2.1-.35-4-.32-2.59.3-1.26.56-1.45,1.16-.67,1.06-.64,2.89-1.89,4.8-2.3,2.83-1.25.89c.21,3.68.61,12.48-.32,14.07a6.32,6.32,0,0,0,.58,2.25c.6,1.63,1.28,3.48.58,4.94a3.06,3.06,0,0,1-1.89,1.55,4,4,0,0,1-1.25.2c-2.91,0-6.3-2.85-9.1-5.2a18.19,18.19,0,0,0-2.93-2.22,1.52,1.52,0,0,0-.59-.12c-1.18,0-2,1.47-2,1.54l-.17.3-5.77,1.86h-.13a41.48,41.48,0,0,0-5.91.53l-1.49.4a26.94,26.94,0,0,1-7,1.23,9.24,9.24,0,0,1-3.76-.71c-1.45-.64-1.81-2.26-2.15-3.83a11.77,11.77,0,0,0-.67-2.29,20.74,20.74,0,0,0-2.85-4.14l-7.19-5.59.1-.13c-1.69-.85-6-2.77-9.39-1.82a16.73,16.73,0,0,1-4.57.72,22.75,22.75,0,0,0-3.88.43l-3.28.45a13.87,13.87,0,0,0-4.9,1.3,30.77,30.77,0,0,0-3.75,1.76,12,12,0,0,1-3.9,1.46,29.55,29.55,0,0,1-4.09.45,25.09,25.09,0,0,0-6,.87l1.71,2.18,2.64,4,3.13,4.12,3,3.62,1.48,2.47s2.13,5.92,2.47,7.74a21.6,21.6,0,0,1,.17,4.45l-1.16,10.71-1,7.91-.49,4.29-.41,6.13a16.88,16.88,0,0,1-.23,3.85,21.56,21.56,0,0,1-1.5,3.86,39.7,39.7,0,0,0-3.13,5.6c-.51,1.6-1.15,5.49-1.15,5.49l-2.61,9.92a19.52,19.52,0,0,1-.52,3.39c-.48,2-3.33,8.15-3.65,10.18s-.44,4.18-.78,5.74a31.35,31.35,0,0,1-1.3,3.92,11.32,11.32,0,0,0,0,3.65,6.7,6.7,0,0,0,1,2.35,3.2,3.2,0,0,0,1.83,1.3l3.13,1,5.67.79,3.62.82a6,6,0,0,1,2.8,2c.87,1.35,1.15,4.45,1.15,4.45l-.44,3c4.51,0,9,0,13.52,0,7,0,8.84-3.25,14.92-6.31,4.53-2.28,23.39-1.56,24.16-6.79,3.33-1.41,5-6.81,9.07-8.17,3.32-1.1,9.68-.14,13.22,0,7.74.39,16.66,0,24.66,1.15a225.78,225.78,0,0,1,22.82,4.14c3.77.95,6,2.51,10.45,2.74,3.47.18,8.75-1.21,10.42,2.19,3.2.2,5.16,2.72,8,4.12,3.51,1.74,5.72,1.32,9.74,1.71,6.64.65,14,2.43,21.28,3.26,19.61,2.24,40,.26,59.09,1.05,8.86.37,13.6,5.85,22.28,6.6,9.48.81,19.17-.45,28.68,0,4.64.22,8.19,1.8,12.62,2.29,4.87.54,9-.25,13.62,1.29,3.74,1.25,6.81,3.93,10.5,5.43,4.29,1.75,7.75,1.3,12.59,1.31,4.48,0,10.52,1.92,14.91.49,2.63-.86,4.2-3.87,6.76-4.37,1.31-.26,4.7.45,6.44.45,8.89,0,16.52,2.87,25.81,2.87v1.09c-9.29,0-16.92-2.91-25.81-2.87-1.73,0-5.13-.7-6.44-.45-2.56.51-4.12,3.51-6.76,4.37-4.39,1.43-10.44-.48-14.91-.49-4.83,0-8.3.44-12.59-1.31-3.69-1.5-6.75-4.19-10.5-5.43-4.62-1.54-8.76-.75-13.62-1.29-4.43-.49-8-2.08-12.62-2.29-9.51-.45-19.2.81-28.68,0-8.68-.74-13.42-6.23-22.28-6.6-19.08-.79-39.48,1.18-59.09-1.05-7.28-.83-14.64-2.62-21.28-3.26-4-.39-6.23,0-9.74-1.71-2.8-1.39-4.76-3.92-8-4.12-1.68-3.4-6.95-2-10.42-2.19-4.44-.23-6.68-1.8-10.45-2.74a225.76,225.76,0,0,0-22.82-4.14c-8-1.15-16.92-.76-24.66-1.15-3.54-.18-9.9-1.15-13.22,0-4.1,1.36-5.73,6.76-9.07,8.17-.76,5.22-19.63,4.5-24.16,6.79-6.08,3.06-7.91,6.26-14.92,6.31-4.59,0-9.19,0-13.79,0l-.11.4-3,7.74-1.48,3.79s-3.21,9.85-4.32,11.73-6.53,8.87-7.83,9.92-6,4.86-7.57,5.48a8.51,8.51,0,0,1-3.84.22,21.77,21.77,0,0,1-4.29.33c-.84-.21-4.28-1.65-4.28-1.65l-4.12-1.81a14.47,14.47,0,0,0-2.64-.16,39,39,0,0,0-4.28,1.81l-4.78,4.28-3.46,4.94a17.39,17.39,0,0,0-1.16,4.45,19.92,19.92,0,0,0,.82,4.78l3.29,6.43s1.28,5.52,1.57,6.14,2.87,4.41,2.87,4.41l5.22,5.25,3.39,5.22a41.93,41.93,0,0,0,3.09,3.37,44.81,44.81,0,0,0,5.27,2.63l9.06,1.81,4.28.83a19.14,19.14,0,0,0,3.13-.33,66,66,0,0,0,6.43-3.63l6.75-2.64a5.88,5.88,0,0,1,3.62-.49,12.54,12.54,0,0,1,4.61,2.3,40.58,40.58,0,0,1,2.8,4.45,30,30,0,0,1,1,2.94c2.42-2.16,9.1-3.47,12-3.75,4.84-.47,8.92-1.29,14.2-1.29,4.67,0,8.76.61,13.33.86,2.73.15,4.55-.06,6.78,1,1.76.82,1.93,2.42,4.34,2.54,1.43,3.23,3.71,3.92,5.6,7.32.24.43.94.52,1.25,1.25,5.32-.44,7.07,4.41,11,6.73a38.22,38.22,0,0,0,15.38,5.27c7.82.78,13.51,2,21.5,0,3.71-.92,7.25-.51,11.19-.87,3.49-.32,6.46-2,10.23-2.19,7.17-.31,14.43,0,21.61,0s10,2.81,15.81,5.69c6.11,3,13.8.35,20.33,2.82a61.88,61.88,0,0,0,18.06,4c6.86.53,8.82,4.41,14.65,7.31,3,1.51,6.15,1.44,9,2.56,2.68,1,4.77,4.07,7.74,3.89l0,1.38c-3,.17-5.07-2.85-7.74-3.89-2.86-1.12-6-1.05-9-2.56-5.83-2.9-7.79-6.79-14.65-7.31a61.88,61.88,0,0,1-18.06-4c-6.54-2.47-14.23.22-20.33-2.82-5.78-2.88-8.6-5.71-15.81-5.69s-14.44-.33-21.61,0c-3.77.16-6.74,1.87-10.23,2.19-3.95.36-7.48-.05-11.19.87-8,2-13.68.75-21.5,0a38.22,38.22,0,0,1-15.38-5.27c-3.88-2.32-6.34-6.85-11.66-6.41-.31-.73-1.1-.85-1.3-1.3-1.69-3.78-3.42-4.37-4.86-7.6-2.41-.12-2.58-1.72-4.34-2.54-2.22-1-4-.83-6.78-1-4.58-.25-8.66-.87-13.33-.86-5.28,0-9.35.82-14.2,1.29-2.8.27-9.08,1.49-11.71,3.5a18.89,18.89,0,0,1,.68,3.18c0,1-.16,4.45-.16,4.45a25,25,0,0,1-.33,4.28,37.48,37.48,0,0,1-1.81,5.6c-.59.91-3.41,4.66-4,5.27a12.94,12.94,0,0,1-1.82,1.48l-4,2.47s-4,3.9-8.08,7.42l-.29.25c0,1.59-.13,4.94-.14,5.23l1,2.25,1.29,2.42,2.17,3,1.06,2.82.53,3.18-.86,6.69-1.29,2.77-2,1.62-2.37,1.86-10.18,5.42-2.15,2-1.54,2.31-.58,1.46-.31,2.47v3l.31,2,1.16,3,.19,2.12-.58,1.73-2.12,3.74-.27,1.36.29,1.59.6,1.81,2.3,3.45.73,2,.19,2-.36,2.66-.57,1.52-2.58,3.44-2.75,3.24-.88,1.47-.44,1.91v3.64l1.49,11.92-.69,4.84-.72,1.65-1.05,1.75-2.29,2.78-.34.67c0,.4.25,2.28.28,2.55l1.19,2.23,1,1.18,2.7,2.54,1.06,1.23,1.63,3.25v2.09l-.34,3.7s-1.72,6.39-1.79,6.68.12,1.36.14,1.54l.41,1.11,1,1.41,1.46.87,1.9,1,2.92,2.05,1.36,1.88,1,1.23,3.65,5.31,2.27,3.72,3.31,3.64,1.16,2.17,1.9,2.85,2.06,1.58,2.19,1.85,1.57,1.75,4,6.28,3.24,4.54,1.49,1.34,1.36.68h2.23l2.85,2.14,1,.72,1.91.44,2.49.15,5.39-.64.49-.48,1.73-.24,4.43,1.11.35,0,0,.05.14,0,1.73,3.21,1.49,3.21v1.24h0l.72,1.14.81.58h.61l2.22.24,2.9,1.12.95.15,2.63-1,.88-.31,3.57-.65.87-.43-2.51-1.23-1.69-3.67-.57-2.19,1.62-.71,2.54.28,1.91.92,2.54,1.41,1.84,1.55,4.31-2.12,2.33,1.91-.42,2.12-.78,2-2.12,1.41-3.74.14-3.18-.85-.14-.07-2.26,1.13-1.48.27,2.33.69,11.35.33,1.49.37,2.23.8.71.18,2.51.79h1.63l3.26.91,4.19,3.49,1,1.45,1.37,1,4.73,1,2.41,1.3,2.45,3.16.5.83,1.93,2.9,5.21,6.52,1.53,1.52.58.23,1.58.29,1.75-.29,2.1-.77,2.58,1.39,2.18,2,1.77,3.71.39,1.94-.42,1.68-1.37,1.76-1.95,1.13-.44.65-.11.9.21.52.64.9,1.7.85.41.1,1-.15h2.26l2-.49h.83l.91-.22,1.78,1.11.1.15,2.8,4.12-.71.48.85-.09.17,1.74-.18,1.66-.34,1-.45,1.83c0,.24.13,1.18.14,1.28l.23.94,1.09.72,2,.54,1.2,1.6,1.22,2.28.95,2.28-1,3.13v1.1l1.13,1.84,2.65,2.49,2.15,1.23,3.15,1.17,2.43,1.21,1.31,1.31,5.22,7.74.49,1.47-.9,1.58-2.95,3.11-.35.69v.77l.89,2.07,2.45,3.6,2.1,4,1.62,1.62,1.05.53,4.7.48,1.82.54,1.4.8,2.13,3,1.29,2.25,5.34,6.64,6.5,6.68,1.39,2.43,2.85,5.53s1.61,6.92,1.65,7.1l2,4.09,1.35,4.55,1.5,6,.29,6.19,8.23.23c9.81.4,20,.82,27.35-3.09,2.46-1.3,4.71-2.69,6.89-4,7.45-4.59,13.88-8.56,24-6.4,6.4,1.36,11.4,4,16.24,6.53s9.35,4.91,15,6c9.19,1.78,20.09.48,29.71-.67l8.43-.93c5.12-.46,9.38-2.09,13.89-3.81,5-1.89,10.07-3.84,16.32-4.06l9.9-.58c12.16-.81,28.81-1.91,37.22.17l-.42,1.67c-8.16-2-24.65-.92-36.7-.13l-10,.58c-6,.21-11,2.12-15.77,4-4.42,1.69-9,3.44-14.35,3.92l-8.39.92c-9.74,1.16-20.78,2.48-30.24.65-5.94-1.15-10.81-3.71-15.52-6.18s-9.63-5.06-15.79-6.37c-9.49-2-15.65,1.78-22.79,6.18-2.2,1.36-4.48,2.76-7,4.09-7.81,4.13-18.19,3.7-28.23,3.29l-7.91-.22.08.34.82,1.8,1,2.8-.81.29.84-.18.51,2.42-.18,3.66-.65,4.05-.32,4c0,.15.13.89.14,1l1.14,3.74,2.6,9.08,1.39,1.91v4.49l.63,3.8,3,8.23.86,4.47-.2,2-.73,1-2.2,1.35-.94.94-2.09,1.94-.09.52,1.09,4.21.77,1.86,8.73,14,4,7.87.5,3.36.73,2.19,1.6,1.45,6.32,4.21,3.68,1.67,2.77,2.43,3.32,3.66,4,4.36,2,1.22.89.45,7.29,1.66,1.56,1,1,1.17,1.15,2.3,1.31,1.47,3.09,5.84.2,1.65-.67,2.34c0,.25.15,4.31.15,4.42l.66,3.82.16,2.37.93,3,1.53,3.58.83,7.77.75,2.11.31.46.81,1.78,3.35,4.48,5,5.52,6,3.79.37,5.16-.15.74.75,2.84,2,3.68,1.92,1.33,4.62,2.22,1.14,1.91,1.26,2.37,2.84,3,4,3.7,1.93,3.16,1.07,3.56s-.15,1.51-.17,1.71l.59,3.57.64.64,4.78,4.94.2.32,2.27,6.67,2.26,4.84.79.94,3.68,5.7,1,1.75,1,1.3.63.38,1.9,1,3.51,1,3.49,2.34,3,1.6,2.45.66,2.06.93.9,1.08,5.61,4.62,2.64,3.3.93.79,2.19.47,2.65,1.24,1.69,1.31.08.14,1.49,2.47-1.47.89-1.4-2.33-1.28-1-2.29-1.07-2.43-.52-1.38-1.18-2.63-3.29-5.6-4.61-.75-.9-1.57-.71-2.5-.66-3.29-1.74-3.35-2.23-3.41-1-2.1-1.06-1-.57-1.3-1.67-1-1.82-3.6-5.56-.86-1-2.39-5.13-2.25-6.58-4.63-4.79-1-1-.72-4.33.16-1.59-.91-3-1.69-2.77-3.91-3.58-3-3.22-1.35-2.53L1321,1695l-4.28-2.06-2.37-1.64-2.29-4.22-.9-3.43.18-.9c0-.2-.24-3.37-.29-4.06l-5.5-3.46-5.24-5.75-3.51-4.69L1296,1663l-.35-.52-.89-2.5-.82-7.72-1.46-3.42-1-3.23-.16-2.49-.67-3.85-.17-4.81.65-2.27-.12-1-2.84-5.37-1.32-1.49-1.16-2.32-.67-.8-1.08-.67-7.21-1.64-1.15-.58-2.24-1.38-4.21-4.53-3.26-3.59-2.51-2.19-3.57-1.62-6.54-4.36-2-1.84-.92-2.76s-.45-3-.49-3.23l-3.85-7.55-8.77-14.06-.87-2.1-1.22-4.69.24-1.45,2.5-2.32,1.06-1.06,2.09-1.28.25-.34c0-.32.11-1.11.13-1.28s-.76-4-.79-4.09l-3-8.25-.68-4.1v-4.07l-1.24-1.71-2.67-9.36-1.17-3.85-.19-1.32.35-4.28.65-4s.15-3.14.16-3.35l-.46-2.15-.94-2.68-.86-1.9-.36-1.64s-.32-6.74-.33-6.91l-1.45-5.81-1.3-4.39-2-4.14-1.64-7.07-2.73-5.31-1.26-2.21-6.4-6.58-5.48-6.81-1.31-2.29-1.86-2.65-.91-.51-1.47-.45-4.85-.5-1.58-.79-2-2-2.18-4.19-2.49-3.65-1.09-2.55v-1.53l.64-1.29,3-3.14.42-.73-.17-.52-5-7.41-1-1-2.09-1-3.2-1.18-2.46-1.4-3-2.78-1.51-2.45v-1.86l.93-2.79-.66-1.6-1.12-2.09-.77-1-1.66-.46-1.88-1.25-.42-1.7-.19-1.7.55-2.19.3-.9c0-.15.13-1.15.14-1.3l-.13-1.34-2.58-3.79-.85-.53-.41.1h-.82l-2,.49h-2.35l-1.26.18-.91-.23-2.26-1.13-1-1.41-.45-1.12.22-1.74.88-1.32,2-1.17.94-1.21.24-1c-.06-.28-.24-1.19-.27-1.36l-1.53-3.21-1.78-1.62-1.71-.92-1.52.56-2.2.36-2-.37-1.07-.43-1.84-1.84-5.32-6.65-2-3-.47-.78-2.16-2.78-1.87-1-4.83-1-1.93-1.35-1-1.51-3.72-3.1-2.68-.74h-1.66l-2.71-.85-.74-.19-2.23-.79-1.23-.31-11.39-.33-3-.89-1.56-1-.39.14-2.17.85,0,0-1.73,1-3.46-.24-2-.74-.67-.89-2-1.45-.34-.54-.09.17h-1.49l-1-.74-.49-4-1.23-1.23-4.7-1.49-.82-1-5,.6-2.79-.17-2.38-.55-1.31-.93-2.4-1.81H1055l-1.93-1-1.8-1.63-3.38-4.73L1044,1311l-1.39-1.55-2.07-1.75-2.26-1.73-2.1-3.16-1.1-2-3.28-3.61-2.33-3.82-3.57-5.2-1-1.2-1.23-1.7-2.6-1.84-1.84-1-1.8-1.08-1.32-1.89-.57-1.53-.19-2.08,1.84-6.83c0-.14.32-3.47.32-3.47v-1.61l-1.35-2.69-.85-1-2.7-2.53-1.22-1.4-1.44-2.7-.38-3.39.65-1.3,2.33-2.83.93-1.54.59-1.33.63-4.38-1.48-11.8v-3.94l.54-2.37,1.1-1.82,2.81-3.31,2.4-3.2.42-1.11c0-.17.28-2.11.3-2.28s-.13-1.42-.15-1.61l-.59-1.61-2.31-3.47-.72-2.14-.37-2,.39-1.95,2.17-3.83.41-1.24c0-.27-.12-1.33-.14-1.51l-1.14-2.94-.35-2.3v-3.25l.35-2.8.74-1.83,1.75-2.63,2.46-2.29,10.25-5.45,2.23-1.75,1.66-1.36,1-2.17c0-.25.76-5.93.79-6.17s-.44-2.61-.46-2.76l-.92-2.45-2.11-2.92-1.37-2.56-1.24-2.65.13-4.82a17.94,17.94,0,0,0-2.91,1l-10.21,6.09-11.37,9.23-19.94,19.11-7.91,10.38-6.59,6.26-3.79,2.3s-5.12,5.15-5.6,6.26a17.58,17.58,0,0,0-.66,4,12.35,12.35,0,0,1,.49,2.8c0,.94-.66,6.26-.66,6.26l-1.15,4-3.79,10.38-2.65,5.59.55,1.83a9.67,9.67,0,0,1,.18,1.39c0,.64-.17,2.28-.17,2.28a9.33,9.33,0,0,1-.74,1.85,6.24,6.24,0,0,1-.78,1.17c-.22.21-2.83,2.3-2.83,2.3L949.9,1242l-2.21.85-4.08.85-7.81.5h0l-2.05,1.93-3.79,2.63-3.79,1-3.62.5-2.47-.5-5.93-3.13-5.6-2.14-4.94-1.81-12.74-2.06-7.1-.72-9.66-.2-4.54.13s-7.81.16-9.14,0a26.21,26.21,0,0,1-4.25-1.31l-3.57-.07-1.36.17-4-.52-6.89-3-7.29-3.48-2.21-1.17-.2,0-2.8-.42-4.06.56-2.66.56a4.07,4.07,0,0,0-2.1,1,3.75,3.75,0,0,0-1,1.54l-5,5.73-1.16,1-5.44,4.34-1.82,2.38-1,2.1-2.8,5.34-1,4.78-3.3,10.21-.82,4.12-2.47,8.07-.69,6.12v1.82l1.12,2.38,1.4,3.08a5.11,5.11,0,0,0,1.63,2.25c1,.54,4.43.63,6.21,1.95a9.41,9.41,0,0,1,2.7,3.87l1.8,4.23,1.48,2.8a2.66,2.66,0,0,1,.83,2.14c0,1.53-.16,4.45-.16,4.45l.64,5.61.14,2.24.86,4.18L813,1335l.49,2.31.5,6.26v1.81l.66,6.93,1.14,9.95,1.66,7.84.86,3.36.29,2.41,2.23,9.92.43,2.51,1.09,2.14,2,1.32,1.32,1.65.49,1.48.33,1.65.33,3.62a21.23,21.23,0,0,1-.22,3,15.88,15.88,0,0,1-1.86,3.23l-2.94,3.61s-4.73,2.87-4.88,3.38a23.52,23.52,0,0,0-.21,2.78l-1.27,2.35a11.3,11.3,0,0,1-2.8,2.52,6.67,6.67,0,0,1-2.68.65l-4.4,6a37.71,37.71,0,0,0-3,2.47,14.76,14.76,0,0,0-1.49,2.81,15.41,15.41,0,0,0-.11,2.61l-.16,2.4-.51,2.91s.61,12.54-.17,14.33-2.86,5.82-2.86,5.82a19.8,19.8,0,0,1-1.41,3.27c-.65,1-2.08,3.35-2.08,3.35l-2.55,6.86a35.57,35.57,0,0,0-1.6,3.92c-.2.92.11,2-.1,2.93s-1.37,3.81-1.37,3.81l-.88,4.5-1.49,3.75-.17,1-1.48,4.61,0,2.11.69,4,4.61,10.78,3.41,7.58,3,4.71,2.09,2.87,2.46,2.65,2.84,2.65,2.08,3,2.08,2.65,5.68,4.17,4.55,5.11,2.46,3.6,1.45,3.22,2.55,4,6.38,5.74,2.09,2,4,3.13,2.64,3,6.59,8.57,1.65,4,1,3.63.66,3.46,2,5.6,2.31,9.06.33,3.13-.17,5.93-.33,3.3-.83,1.81-1.39,4.56-.76,3.6,1.89,5.49,1.71,4.92,1.89,7.2,1.14,6.44.76,7.57-.94,6.25-1.16,4.72v2.64l1.48,4.12,5.77,7.25,6.22,9.11,1.89,4.54.78,4.13a17.38,17.38,0,0,1,.92,4.77,29.33,29.33,0,0,1-1.58,5.77l-1.64,4.29s-6.34,10.55-6.62,11.91a4,4,0,0,0,.57,3.41,3.16,3.16,0,0,0,2.08.76l6.06,2.08,8.14,3.79,11,6.89,1.32,2.14.49,1.48v3.62l-1,5.93-2.31,4.45-4.78,4.45-1.32.66h-1.81l-1.32-.34-4.94-1.48-4-2-.82.66-.66,1.65-.16,2.64-1,3-1.15,1.48-2.3,1.65-2.47,4.61-3.13,3.29-1.65,1h-1.48l-2.64-1.15-.82-.16-1,.66-1.48,2.8-1.32,1.65-2.14,1.48-2.8,1.32-1.65,1.15-1.32.33-4-.66-1,.5-.66.65-1,2.31-2.14,3-1.15,2.8-.17,2,.17,1.48.82,1.65,4.45,2.8,3.79,1.81,3.29,1.81,2.8,2.47,1,1.82.5,1.15-.17,1.15-.66,1.16-1.82,1.81-2.3,1.48-1.65.83-3.3.17-1.15.49-1,1-.82,1.48.17,1,1.32,3,1.82,1.32,4.78,2.14,1.48,1.15.49,1.15-.16,1-1.65,2.14-4.28,3.63-1.81,2.14-1.15,3.79-.66,4.94.16,3.62.49,2.31,1.15,2.64.83,1.16,1.81,2,2.31,3.3.33,1v1.15l-.5,1-4,4-1.32,1.81-2,4.45-.82,5.93-2.14,4.45-.16,1.32,1.15,1.48,1.15.66,2.15,1,5.44,3.46,1.65,1.65,1.81,3.13.82,2.47,1.32,1.65,2,1.15,3,1.49,2,.49,2.63.49,1,.66,1.16,1.15,1.81,3.79v1.49l-.66,5.11-1.82,6.26-.33,2.14.33,1.64,1.16,2.31,2.47,4.45.83,1.15v1.32l-.55,0-1.76-.3-4.78-7.58-.33-1.48.33-3.13,1-3,1.32-6.26.5-1.65V1926l-.82-2.8-.83-1.48-1-.66-1-.16h-3.13l-1.65-.66-4.78-3.79-1.65-1.48-3-5.6-.66-1.32-1.65-1.32-3.63-1.65-1.81-.66-1.65-.82-2-2.31-.82-.66.16-.82.33-1.32,1.15-1.65,1.65-1.82.33-.82,1.15-7.41.66-1.82,1.49-2,3.62-4.62,1.15-1.65v-1.15l-.16-.83-2.31-2.47-1.81-2.63-2.47-5.6-.5-4.29,1.65-7.74,2.14-3.46,4.94-4.61.49-.82-.33-1.32-.66-.66-3.46-1-1.32-1-1.32-1.16-1.65-2.47-.17-.66-.16-2,.66-1.81.33-.83,1.65-1.15,2-.66,2.47-1,4.45-2.31.33-.5.66-1.32-.33-1.65-1.32-1.32-7.25-4-5.27-3.62-2-2-.49-1.15.17-2.48.33-1,2.63-7.41,1-1.81,1.32-1.49,2.14-.66h1.32l1.64.16H841l1.32-.33,1.32-1,3.13-1,1-1.31,1-3.13.82-1.65,1.32-1.32.66-.16,4.78,1.65h1l.82-.5,4.94-6.43,2.8-2.47,1.15-2,.66-4.61.33-1.65.83-1.15,1.32-.82,1.32-.17,2.31.5,3.79,1.81,3,1.15,1.65.33,1-.33,2.31-1.81,1.32-1.48,1.15-1.49,1.65-3.62,1-2.3-.23-3.8-.38-2.09-1.89-2.08-7.55-4.22L876,1745.3l-4.45-2.64-4-1-4.45-1.8-2.14-1.32a3.86,3.86,0,0,1-1.48-2.8,7.9,7.9,0,0,1,.49-3.46l1.32-2.31,6-10.72,1.52-5.3v-3.6l-.95-5.68-3.13-7.81-4-6.26-2.63-2.63-3.63-5.76-1.32-3.63.16-4.28.82-5.28v-8.9l-.66-7.41-4.12-12-2-6.26-.16-2.8.49-3.79,2.3-6.67.57-2.65.52-2.62-.82-8.4-1.59-5.46-.81-3.53-1.15-2-.33-2.31-1.16-4.12-2.64-5.27-2.14-3.3-3-3.79-3.79-3.46-1.65-1.82-8.9-6.92-.82-.82-1.65-2.47-2.8-4.45-4.94-6.76-2.77-2.36-2.23-1.44-4.15-4.47-2.88-3.35-2.23-3-2.55-2.71-3-4.47-3.51-5.59a87.46,87.46,0,0,1-4.16-8.14c-.57-1.8-2.14-7.44-2.14-7.44l-1.48-4.12a5,5,0,0,1-.73-2.64,10.29,10.29,0,0,1,.19-2.84s2.85-3.66,3-4.56V1493l1.32-8.07s1.51-4,1.48-5.11-.71-2.61-.66-4a14.77,14.77,0,0,1,1.32-4l2.64-4.94s2.49-3.86,3-4.94.76-3.19,1.52-4.69,1.09-1.05,1.6-2.4a15.86,15.86,0,0,0,.64-3.67l.36-13.14a20.34,20.34,0,0,1,.11-4.42,10.36,10.36,0,0,1,1.2-3.48c.68-1.06,6.31-7.25,6.31-7.25l2-2.94.78-2.84,2.05-2.74,2.55-1.76,1.56-.49,1.37-1.76,2.68-2.73.69-1.72,1-6.1a1,1,0,0,1,.82-1.15c1-.2,1.85.42,2.8.16a1.67,1.67,0,0,0,1.13-1.28l.52-1.19-.49-1.65-1.15-1.65-3.71-4.23-1.53-2.92-2.2-9.68-.42-5.18-2.16-8.7-.66-5.44-1.67-11.63-.7-9.24-.84-3.5-1-4.34-.92-4.24-.49-3.3v-7l-1.26-3.36-2-4.9-2.23-3.16-5.75-2.3-2.66-1.54-2.1-2.8L790,1292.5l-.56-3.78.28-2.66,1-6,1.54-4.62.43-2.56-4.84-.4-3.27-.69-4.7-1.51-2.73-1.19-3.42-2.57-1.73-1.72-3.69-4.69-4.2-6-6-4.59a3.74,3.74,0,0,1-2.35-1.31l-5.55-3.76-7.85-6.22-5.33-3.55-2.63-.77-2.81-.46-3.57.33-3.47-.18-1.68-.56-2.25-1.32-1.88-3.07-2.2-2.36-4.12-3.17-18.71-6.89-6-3.09-2.77-.46h-1.22l-5.79-1.88-7.2-3.52-3.3-2.3-6.15-3.07-4.09-1.26h-1l-.27.14-1.57,2.35-.78.78-.69,1.43-2.67,1.41-4.27.36-2.63-.62-3.62-.87-.87.25-4.12,2-4.52,1.68-3.64.66-4.52,1.51h-4.24l-4,1.77-3.34.7-2.33-.17-3.45-.82-3.48-.16-7.62.81-2.41.6-4.21,3.2H584.2l-3.67-1-4.63-.48-3.48.32-6.68,1.13-2.2.79-2.67,1.1-3.62,3.15L556.2,1224l-3.68,5.52-4.29,4.12-1.72,2.5-.78,1.39L545,1240l-1.69,1.26-1.68.42-1.79-.4-1.13-.57-5.08-3.44-1.44-.58-1.56-.15-.73-.1-.46.46-1.71,2.56-5.34,3.1-4.74,1.86-2.09.64-7,2.67-15.67,2.5-2.49-.18-4.36-1.22-3-2.33-1.88-.72h-.91l-1.49.14-2.09,1-4.54,2.86-1.49.5-3.62,2.13-7.44,2.65-2.51,1.25-3.31,2.65-1.64.73-4.29,1.15-3.51,1.43-5.11,2.64-.19.07-2.7.67-2.3.17-7.32-.17-7.49.65-5.45,1.6-3.66,1.75-3.29,2.3-2.46,1.23-1.83.41-1.68-.63-1.33-1-2.47-1.08-1.31-.29h-1.26l-5.38,1.63-4.78.66-2.83.83-2.72.17-2.36.18-10.83-4.83-1.82-.39-.4.32-1.51,2.27c-.06.18-.38,1.15-.43,1.29s-.48,4-.48,4l-.51,3.76-2.14,4.28c0,.24-.28,2.11-.3,2.25l.17,3.26-1.51,3.36-.49,4.27-1.16,2.81-1.47,11.09-.41.63-2.75,1.62-1.71,1.36-8.49,3.16-6.82,3-3.08,1-3.83.17-5.47-.83-5.15-.17-6.15.33-1.9-.15-1.05.26-2.8,1.71-3.31,2.68-2.6,3.9-2.4,3-.69,1.8.12.73.3,1.51,1,1.78,4.48,5.14,1.09,2.37.36,2.49v3.24l-.17,3.22-.7,2.64-1.18,3.21-2.09,3.48-1.87,1.69-2,2.32-3.59,2.94-2,2.89c-.05.25-.23,1.16-.27,1.35s.12,1.31.14,1.54l.75,1.66.38.77,2.2,1.35.54,1.62-.51,1-1.08,1.85c0,.28-1,5.41-1,5.41l-1.11,2.21-4.16,4.16-8.88,13-2,2.2-1.52.44-2.58-.18-4-1.51-1.93-.45-3.89.6-1.55,1.26-1.54,2.16-.68,1.35-3.25,3.77-2,1.63-7.64,2.49-2.35,1.41-4,2.67-3.5,2-6.14,3.07-1.47,1.48-1.05,1.65-.58,1.74v.86l.49,1.32v.87c.06.21,1.16,4.28,1.16,4.28v3.51l-1,4.23-.48,1.92c0,.11-.46,4-.48,4.14l.3,3,1,1.74,2.65,3,1.28,2.55.19,2.06s-.15,1.34-.17,1.49.48,6,.48,6v.12l-.86,4.32-2,4.74-1.24,2.49c0,.25-.13,1.41-.14,1.56s.45,3.74.47,3.93l1.17,3.18v3.65l-1.7,3.4-.52,1.39-5.15,8.53.11.8.8,3.84,1.71,3.27,1.69,2,4.83,4.66.22,1.53-.51,9.22-1.17,7.88-.75,1.5-1.48,2.13-2.16,4.49-2.54,3-7.63,9.29-4.38,4.38-1.21.6-7.33,1.7-5.38-.65-1,.38-1.13.85-.66.82-1.3,1.3-3.25,3.42-1.06,1.52-2.42,5.64-1,3.33c0,.14-1.47,13.39-1.47,13.39l-.17,3.36-1,5-4,6.8c0,.15-.69,2.08-.76,2.28s-.16,3.6-.16,3.6l-1.2,4.11-2.88,6.6-5.29,5.8-4.78,8.9-.08.08c-7,7.48-10.7,15.35-12.31,26.32-.8,5.44.46,9.37,1.79,13.54a56.25,56.25,0,0,1,1.66,5.93c1.24,6,.95,13.16.64,20.71-.39,9.61-.8,19.55,2.3,26.68l-1.58.69c-3.26-7.48-2.84-17.62-2.44-27.43.31-7.44.6-14.47-.61-20.29a54.63,54.63,0,0,0-1.61-5.76c-1.33-4.16-2.71-8.48-1.86-14.31,1.66-11.3,5.46-19.42,12.67-27.15l4.78-8.91,5.25-5.75,2.72-6.24,1.11-3.81c0-.19.16-3.64.16-3.64l.89-2.67,3.93-6.71.95-4.57c0-.13.16-3.28.16-3.28l1.5-13.58,1-3.58,2.53-5.9,1.24-1.77,3.36-3.52,1.25-1.24.73-.91,1.5-1.13,1.63-.61,5.5.67,6.84-1.59.77-.39,4.12-4.12,7.58-9.23,2.4-2.88,2.13-4.42,1.49-2.15.57-1.14c0-.26,1.13-7.53,1.13-7.53s.48-8.81.49-9-.07-.48-.11-.78l-4.46-4.31-1.88-2.21-1.91-3.65-.86-4.13-.21-1.46,5.39-8.93.5-1.33,1.55-3.11v-2.94l-1.13-3.08-.52-4.31.19-2.07,1.37-2.74,1.94-4.53.78-3.91c0-.23-.49-6.06-.49-6.06l.17-1.48c0-.14-.12-1.31-.15-1.56s-.94-1.89-1-2.05l-2.61-2.95-1.2-2.05-.11-.35-.34-3.39.51-4.44.5-2,1-4v-3.08l-1.15-4.28v-.78l-.5-1.32v-1.45l.74-2.21,1.26-2,1.81-1.81,6.35-3.17,3.41-1.95,4-2.66,2.56-1.53,7.52-2.45,1.62-1.34,3-3.49.64-1.28,1.75-2.45,2.09-1.7,4.68-.72,2.36.55,3.89,1.46,2,.15.77-.22,1.61-1.75,8.9-13,4.08-4.08.87-1.74c0-.23,1-5.46,1-5.46l1.21-2.06.17-.34-.12-.35-2.09-1.28-.61-1.24-.89-1.95-.19-2.08.39-1.94,2.31-3.38,3.66-3,1.93-2.25.08-.08,1.72-1.56,1.87-3.12,1.1-3,.64-2.39.16-3v-3.07c0-.11-.28-1.9-.31-2.12l-.88-1.92-4.42-5.08-1.27-2.17-.36-1.82-.21-1.22.91-2.36.13-.22,2.43-3.07,2.71-4.07,3.61-2.92,3.12-1.91,1.58-.4,2.06.17,6.11-.33,5.32.17,5.4.82,3.42-.16,2.78-.92,6.8-3,8.27-3.08,1.59-1.27,2.49-1.47,1.44-10.9,1.15-2.79.5-4.3,1.45-3.23-.15-3,.36-2.69,2.14-4.29.47-3.47.5-4.21.56-1.68,1.78-2.68.93-.74.72-.17,2.39.52,10.59,4.72,1.93-.15,2.54-.16,2.77-.81,4.77-.66,5.5-1.66h1.71l1.65.37,2.81,1.22,1.29,1,1,.36,1.13-.25,2.16-1.08,3.3-2.31,3.92-1.87,5.75-1.69,7.76-.67,7.33.17,2.07-.16,2.47-.62,5.09-2.63,3.68-1.5,4.27-1.15,1.32-.59,3.28-2.63,2.77-1.38,7.38-2.63,3.64-2.14,1.47-.49,4.44-2.79,2.44-1.23,1.89-.18h1.32l2.41.93,2.94,2.28,3.87,1.08,2.12.15,15.3-2.44,6.89-2.63,2.08-.64,4.55-1.79,4.88-2.83,1.59-2.37,1.18-1.19,1.54.22,1.77.18,1.84.74,5.14,3.48.84.42,1.18.26,1-.24.95-.71.61-2.13.92-1.64,1.86-2.71,4.28-4.11,3.61-5.41,1.21-1.55,4-3.44,3-1.22,2.38-.85,6.89-1.17,3.71-.34,4.93.51,3.58,1h1.9l4-3.06,2.86-.72,7.87-.84,3.77.18,3.47.83,2,.15,2.93-.61,4-1.78.35.79v-.86h4.14l4.38-1.46,3.61-.65,4.3-1.59,4.18-2,1.44-.42,4.06,1,2.36.56,3.64-.31,1.86-1,.57-1.18.87-.87,1.72-2.59,1-.52h1.65l4.47,1.38,6.38,3.2,3.29,2.3,7,3.41,5.42,1.75h1.09l3.17.53,6.17,3.17,18.86,6.95,4.45,3.42,2.42,2.58,1.74,2.86,1.71,1,1.28.43,3.12.16,3.68-.34,3.13.52,3,.87,5.61,3.74,7.86,6.22,5.6,3.79.15.11.09.14a2.34,2.34,0,0,0,2,.78,4.14,4.14,0,0,0,.48,0,32.23,32.23,0,0,0,4.19-.7h.11a15.21,15.21,0,0,1,2-.13c4.86,0,8.08,2.39,10.3,4a12.36,12.36,0,0,0,1.75,1.17l5.84,2.5c1.22.5,2.94,1,4.61,1.56s3.25,1,4.15,1.42l4.08,2,.9-3.6,1.68-4.06,1.68-4.06,2-2.95,2.5-3.07,4.9-3.92,2.66-2.52,1.8-2.51,2-2,3.3-2.14,2.31-1.15,1.15-.33h3l3,.17h3.46a28.89,28.89,0,0,0,4.29-.66c1.44-.43,7.74,1.15,7.74,1.15l1.14.08v0l5-.57,7.18,1.2,2,1.1,3.25,2.91,0,0,3.21,3.78,10.62-.06a24.49,24.49,0,0,1,4.48-.33,17.3,17.3,0,0,1,3.81.66l3.73.28,15.34,2.39,7.57,2.09,6,2.61a13.65,13.65,0,0,0,3.39,2.08,13,13,0,0,0,4.7,0,17.84,17.84,0,0,0,5.48-2.87c.84-.82,2.06-5.73,3.39-7s3.65-.73,4.53-.92,5.7-2.89,6.95-3,1.31.16,2.35-.26a19.5,19.5,0,0,0,3.13-2.09,29.3,29.3,0,0,0,2.35-3.14,23.54,23.54,0,0,0,1-4.17l4.7-13,.78-3.39v-5.22a14,14,0,0,1,.26-4.44,12.42,12.42,0,0,1,2.61-3.92,37.83,37.83,0,0,1,2.87-3.65c.85-.79,4.36-3,5.22-3.65s5.48-6,5.48-6l4.7-5.74,4.18-4.17,6.52-7,6.79-6.78,9.14-8.09,11.22-9.4,7.31-5.74a34.56,34.56,0,0,1,5-2.09c2-.55,4.7-3.91,4.7-3.91l5.48-3.13s3.72-1.79,4.44-2.61a36.92,36.92,0,0,0,2.41-3.91l1.65-5.6.12-3a30,30,0,0,0-.43-5.41c-.44-1.56-2.44-5.81-2.44-5.81s-2.51-2.36-3.39-2.35a16.78,16.78,0,0,0-3.65,1.31l-4.18,1.56-6.26,2.87a11.87,11.87,0,0,1-3.92,1c-1.62,0-7.83-.79-7.83-.79l-6.52-1.56-5.22-2.09-6.26-4.17-5-5.48-5.74-10.7-1.67-3.85c-1,6.86-8.86,12.4-15.66,12.4s-13.85-.47-20.13-2.84c-2.28-.86-3.83-2.15-6.26-2.26-1.71-.08-3.55.67-6,1.77-3.23.08-6.47,2.51-9.71,1.8-.95-.21-2.08-1.08-3.15-1.35s-1.39.1-2.16-.44c-1.57-1.12-2.05-3.63-2.05-5.34l-.2-17.2c0-2.15.44-9.07-1-10.16a8,8,0,0,1-2.62-4.59c-.4-1.55.85-1.89.55-2.81-1.15-3.54-2.3-9.23-3.63-10.79-3-3.48-6.58,1.42-10.23,3.31a66.23,66.23,0,0,1-7.82,3.55,44.78,44.78,0,0,0-10,5.17c-3.66,2.43-6.88,5.06-11.3,5.1s-8.37,1.78-12.89,1.78c-5.26,0-7,3.07-10.65,6v-1.45c3.6-2.93,5.39-6,10.65-6,4.52,0,8.37-1.74,12.89-1.78s7.64-2.67,11.3-5.1a44.78,44.78,0,0,1,10-5.17,66.23,66.23,0,0,0,7.82-3.55c3.65-1.89,7.68-6.76,10.66-3.28,1.33,1.56,2.54,7.15,3.77,10.66,1,2.72-.29,2.51.11,4.06.47,1.81.53,2.71,1.93,3.91,1.84,1.58,1.28,9.19,1.28,11.34l.11,15.65c0,1.71-.3,4.11,1.27,5.23.76.54,1.19.19,2.16.44s2.2,1.14,3.15,1.35c3.24.7,6.48-1.73,9.71-1.8,2.47-1.1,4.31-1.84,6-1.77,2.43.11,4,1.4,6.26,2.26,6.28,2.37,13.36,2.84,20.13,2.84s14.21-5.31,15.09-12.26l-1.15-2.66-2.87-6.27s-1.65-4.84-1.57-6.26a46.18,46.18,0,0,1,2.61-8.35,17.5,17.5,0,0,1,2.87-2.87l4.7-4.44s5.11-3.1,6.52-3.39,7.73.35,8.35.78,1.68,1.47,2.44,1.88,1.52-.08,2.77.2,1,.78,2.87.26a7.93,7.93,0,0,0,3.13-1.83l2.91-1.45,2.8-2.14,4.28-4.78,4.78-6.75,1.94-6,1.3-4.17,1-2.61.78-2.87.78-3.39a6.49,6.49,0,0,0,1-2.35c.06-.92-1-1.83-1-1.83l-2.35-1.31-8-2.64s-4.15,0-5.27-.49a3.9,3.9,0,0,1-2.31-1.81,8.24,8.24,0,0,1-.83-2.31l.17-2.64,2.31-12.36,7.08-21.09,1.32-5.44,2.35-10.24,2.49-7.93,1.36-4.53.72-3.17.86-8.38.91-7.93-.23-5.89-.45-3.17s-1.68-6.26-2.72-7.7-4.83-3.47-5.43-4.53-3-3.47-3.62-4.3a6.57,6.57,0,0,0-2.52-1.45l-2.82-1.81a18.37,18.37,0,0,0-4.73-1c-1.7,0-5.43-3.78-6.44-4.13s-5.84-2.62-5.84-2.62l-3.72-1.51s-3.44-1-4.33-2a3.91,3.91,0,0,1-.28-.4c-2.68.58-6.4-1.13-7.88-3-1.25-1.63-1-4-.75-6.28l0-.43a6.67,6.67,0,0,1-.8-1c-1.1-1.76-.65-5.35-.65-5.35a10.12,10.12,0,0,1,1.3-4c1-1.45,1.37-.87,2.34-2.26s5.36-9,6.14-10.26,1.15-1.51,1.83-2.74,2.47-2.9,2.57-4.46a4.32,4.32,0,0,0-2.31-3.62c-1-.52-2.49,0-3.13-.17s-2.84-.32-3.62-.82-.43-.41-.82-1.15-1-3.15-1.48-4.29A6,6,0,0,0,988,815a18.49,18.49,0,0,0-6.1-2.14c-1.27-.07-4.78.17-4.78.17l-3.3.33h-.05a26.61,26.61,0,0,1-.34,4.6,20,20,0,0,0-.28,4.59,34.23,34.23,0,0,1-1,7.13l-.34,1.7c-.63,3.75-7.28,10.91-7.94,11.44a8.7,8.7,0,0,0-1.07,1.47,15.59,15.59,0,0,1-1.47,2,12.13,12.13,0,0,1-3.4,2.11l-.95.48c-.51.35-1.83.69-5.2,1.34l-.61.12c-.91.18-12,1.55-13.72,1.55h-.13l-1.29-.17a26,26,0,0,0-3.25-.33l-2.5-.22a23.49,23.49,0,0,0-2.49-.2,4.69,4.69,0,0,0-1,.09l-1.19.24a11.7,11.7,0,0,0-3.08.92,22.63,22.63,0,0,1-3.64,1.25l-.76.22-.95.23a5.75,5.75,0,0,0-2,.69,7.69,7.69,0,0,1-1.92.79l-1.23.45-1.87.86-1.41.66-.49.3a11,11,0,0,0-1.7,1.16l-3.57,3-2.56,2.53a25.13,25.13,0,0,0-2.49,2.85l-.3.47a8.45,8.45,0,0,1-1.36,1.87,11.5,11.5,0,0,0-2.12,2.88l-.52,1-.86,1.72a19.56,19.56,0,0,1-1.4,2.79,17.7,17.7,0,0,0-.76,1.77l-.08.21-.62,2-.64,2.05c-.36,1-1.21,3.18-1.59,4l-.45,1.17a19.12,19.12,0,0,1-1.36,3.18,24.43,24.43,0,0,1-2.12,2.78l-.59.72a21.52,21.52,0,0,0-1.17,3.8,16.23,16.23,0,0,0,.48,4.88,14,14,0,0,1,.53,3.82l.12,2a10.85,10.85,0,0,1-1.3,7.2,17.46,17.46,0,0,1-4.94,5.39c-.86.58-2.86,2.25-4.32,3.5l-.72.61a25,25,0,0,0-2.34,2.11l-3.15,2.94a5.32,5.32,0,0,1-1.39,1.07,5.18,5.18,0,0,0-1.77,1.59,2.86,2.86,0,0,0-.68,2.25,10.29,10.29,0,0,1-.31,2.94,9.45,9.45,0,0,1-6.63,7.21l-2.5.76a58.05,58.05,0,0,0-5.72,1.89l-1.46.73a56,56,0,0,0-6.78,3.66l-.87.57c-3,1.94-5.12,3.35-6.32,6.53s-.93,6.23-.6,9.69l.1,1.11-1.71.16-.11-1.1c-.35-3.68-.65-6.85.71-10.46s4-5.4,7-7.37l.86-.56a57.67,57.67,0,0,1,7-3.78l1.26-.63a41.05,41.05,0,0,1,6.15-2.09l2.49-.76a7.73,7.73,0,0,0,5.47-6,8.73,8.73,0,0,0,.26-2.5,4.51,4.51,0,0,1,1-3.31,6.86,6.86,0,0,1,2.27-2,3.73,3.73,0,0,0,1-.75l1.78-1.67,1.36-1.26a26.59,26.59,0,0,1,2.52-2.28l.7-.59c.54-.47,3.29-2.82,4.48-3.62a15.71,15.71,0,0,0,4.41-4.81,9.2,9.2,0,0,0,1.08-6.21l-.13-2.07a12.41,12.41,0,0,0-.45-3.38,18,18,0,0,1-.56-5.55,20.19,20.19,0,0,1,1.44-4.58l.72-.9a23.52,23.52,0,0,0,2-2.56,17.79,17.79,0,0,0,1.21-2.87l.52-1.35c.32-.65,1.15-2.74,1.51-3.77l.61-2,.67-2.14.08-.21a8.41,8.41,0,0,1,1-2.24c.18-.25.89-1.77,1.13-2.36l.92-1.84.52-1a13.27,13.27,0,0,1,2.53-3.4,9,9,0,0,0,1-1.46l.3-.49a28.79,28.79,0,0,1,2.72-3.15l2.65-2.61,3.62-3a12.34,12.34,0,0,1,1.94-1.32l.38-.23,1.69-.81,1.78-.82,1.52-.57a5.81,5.81,0,0,0,1.52-.61,7.42,7.42,0,0,1,2.49-.89l.79-.19.82-.23a20.75,20.75,0,0,0,3.38-1.16,13.24,13.24,0,0,1,3.48-1l1.11-.22a13.12,13.12,0,0,1,4.09.07l2.37.21a26.88,26.88,0,0,1,3.45.36l1.15.15c.89,0,12.16-1.27,13.38-1.52l.62-.12a34.45,34.45,0,0,0,4.57-1.08l1.17-.61a11.51,11.51,0,0,0,2.88-1.73,14.16,14.16,0,0,0,1.29-1.81,8.38,8.38,0,0,1,1.43-1.88c.75-.61,6.83-7.46,7.33-10.4l.35-1.76a37.19,37.19,0,0,0,1-6.63,21.8,21.8,0,0,1,.29-5,26.61,26.61,0,0,0,.33-4.07c-1.5.26-3.51.6-4.17.68-1.08.15-5.11,0-5.11,0a46.89,46.89,0,0,1-5.27.49,9.89,9.89,0,0,1-3.3-1.32c-.49-.32-2.36-3.6-3.13-4.45s-1.76-1.14-2.07-1.75-1.31-6-1.31-6-1.11-6.24-1-7.31.52-6.26.52-6.26l.26-8.09,1-7.32a21.22,21.22,0,0,0-.82-4.61,16.58,16.58,0,0,0-2.14-2.8,15.69,15.69,0,0,1-1.72-1.2c-2.56,3.84-7.58,9.87-11.76,11.8l-.63.3a37.73,37.73,0,0,1-5.14,2.23l-2.47.56C917,780.14,913,781,912.48,781.09l-2.57.38c-2.3.36-3.73.57-4.13.57s-1.2-.27-4.11-1.36c-1.86-.69-4-1.48-4.83-1.67l-.87-.2c-4.73-1.1-14.56-3.39-20.88-.95-5.24,2-7.2,6.68-8.77,10.41a24.59,24.59,0,0,1-1.49,3.16,65.11,65.11,0,0,1-7.92,9c-2.37,1.81-6.25,4.13-7.39,4.79a25.37,25.37,0,0,1-3.28,1.19,41.35,41.35,0,0,0-6.41,2.43,27.47,27.47,0,0,0-4.19,3.26c-.37.38-1.44,1.72-2.47,3-1.23,1.54-2.4,3-2.87,3.48-.28.29-1.29,1.64-2,2.62l-1.08,1.44c-.74.95-3.4,5.14-4,6.06a21.57,21.57,0,0,1-3.89,3.37c-.82.64-1.85,1.43-2,1.62a54.35,54.35,0,0,1-5.15,5.15l-1,.68c-1.57,1-4.84,3.2-5.6,4.12a24.6,24.6,0,0,1-2.19,2.14,29.14,29.14,0,0,0-3.53,3.58l-1.51,2.05a51.4,51.4,0,0,1-3.53,4.56l-1.64,1.74-2.8,3-1.28,1.11c-1.52,1.24-3.42,2.78-4,5.5s.89,5.12,2.05,7l.81,1.39a12.85,12.85,0,0,1,1.47,5.69c-.07,2.42-.34,3.32-3.22,4.79a14.43,14.43,0,0,1-5.95,1.27l-2.74.26c-1.13.18-6.33,1.18-13.06,2.83a35.28,35.28,0,0,0-4.5,1.59,25.7,25.7,0,0,1-7.09,2.1,27.77,27.77,0,0,1-10.94-1.5,15.4,15.4,0,0,1-3.81-1.75c-1-.63-1.64-1-4.39-1.11a14.4,14.4,0,0,0-8.57,2.2l-.59.33a13.58,13.58,0,0,0-2,1.36,17,17,0,0,1-3.86,2.36,17.13,17.13,0,0,0-4.55,3.3c-2.1,1.92-4.28,3.91-8.35,3.83a29.91,29.91,0,0,1-7.78-1.48,32,32,0,0,0-11-1.66c-5.93.27-15,2-16.53,4.67s-.92,5-.35,7.17c.51,1.9,1,3.7-.35,5.11-2.73,2.9-9.79,3-15.47,3l-1.77,0c-.88,0-2.61.18-4.79.39-6.44.61-16.17,1.53-20.53.3-14.07-4-31-5.88-34.23-6.23l.18-1.71c3.27.35,20.31,2.28,34.52,6.28,4.05,1.14,14,.2,19.9-.36,2.22-.21,4-.38,4.93-.39l1.78,0c5.07-.06,12-.14,14.23-2.51.64-.68.41-1.72-.06-3.49-.59-2.22-1.39-5.25.53-8.49,2.33-3.93,14-5.33,17.93-5.51a33.77,33.77,0,0,1,11.5,1.72,28.55,28.55,0,0,0,7.34,1.41c3.38.07,5.13-1.53,7.15-3.38a18.92,18.92,0,0,1,5-3.59,15.36,15.36,0,0,0,3.52-2.15,15.26,15.26,0,0,1,2.23-1.51l.58-.32a16.09,16.09,0,0,1,9.47-2.42c3.05.11,3.94.57,5.23,1.36a13.66,13.66,0,0,0,3.44,1.58,26.08,26.08,0,0,0,10.27,1.42,24.49,24.49,0,0,0,6.6-2,36.12,36.12,0,0,1,4.73-1.66c6.78-1.67,12-2.68,13.2-2.86l2.89-.28a12.92,12.92,0,0,0,5.28-1.09c2.22-1.13,2.23-1.38,2.28-3.31a11.19,11.19,0,0,0-1.28-4.86l-.74-1.26c-1.18-1.91-3-4.79-2.27-8.24s2.92-5.16,4.57-6.5l1.14-1,2.75-2.91,1.69-1.79a53,53,0,0,0,3.36-4.36l1.52-2.08a30.13,30.13,0,0,1,3.75-3.82,24.28,24.28,0,0,0,2-2c.85-1,3.53-2.84,6-4.46l1-.66a57,57,0,0,0,4.76-4.77,16.5,16.5,0,0,1,2.35-2,31.9,31.9,0,0,0,3.47-2.9c.55-.9,3.25-5.17,4.07-6.22l1.06-1.42c1.09-1.47,1.83-2.46,2.17-2.8s1.66-2,2.76-3.35,2.15-2.69,2.57-3.13a28.66,28.66,0,0,1,4.47-3.5,37.27,37.27,0,0,1,6.84-2.64c1.26-.41,2.68-.88,2.94-1a84.71,84.71,0,0,0,7.22-4.67,65.74,65.74,0,0,0,7.49-8.55,23.58,23.58,0,0,0,1.37-2.93c1.61-3.82,3.81-9.06,9.73-11.35,6.81-2.63,17-.26,21.89.88l.86.2c1,.22,3,1,5,1.74,1.44.53,3.22,1.2,3.51,1.25s2.46-.33,3.87-.55l2.67-.39c.61-.07,7.65-1.68,11-2.45l2.49-.57a48.24,48.24,0,0,0,4.76-2.1l.66-.31c3.76-1.74,8.68-7.57,11.21-11.44a5,5,0,0,1-.64-.89A52.54,52.54,0,0,1,939,754a10.71,10.71,0,0,1-.17-3,33.86,33.86,0,0,1,1.48-5.93s2.07-4.44,2.64-5.42,4.44-6,4.44-6a6,6,0,0,0,1-2.61,3.39,3.39,0,0,0-1.31-3.39c-1-.52-5.1-1.58-6-2.09s-6.78-4.44-6.78-4.44l-7.83-6s-2.66-3.72-4.44-5-5.22-1.57-5.22-1.57h-2.09a10.91,10.91,0,0,0-2.35-.26,9.6,9.6,0,0,0-2.35,1L906.56,711s-3.62,1.4-4.61,1.15-2.17-1.55-3.63-1.4a13.29,13.29,0,0,0-3.89,1.61l-4.18,1.83-6,2.87-8.88,5.22-5.74,3.13-6.41,2.47c-1.49.58-1,1-2.31,1.49a6.55,6.55,0,0,1-3.63.49c-1.73-.18-7.74-4.29-7.74-4.29l-4.45-2s-3.92-2.64-4.61-3.62a23.35,23.35,0,0,1-1.65-4.45l-.79-6.56a48,48,0,0,0-1.56-5.48c-.71-1.69-4.7-7.83-4.7-7.83l-4.44-8.09s-3.82-9.25-4.44-11.74-2.35-14.09-2.35-14.09-2.2-17.13-2.81-19.68-2-4.72-2.3-6.75a30.19,30.19,0,0,1-.33-4.12s-.88-7.55-1.09-10.15a40.12,40.12,0,0,0-1.88-7.35l-2.64-8.9-2-5.15-6-5.48a12.93,12.93,0,0,1-8.61-5.48l-4.18-2.87a12.29,12.29,0,0,1-2.77-2.56,57.61,57.61,0,0,1-2.15-6.75l.17-4.78,3.46-6.75,7.08-7.91,1.15-2.14.49-6.09a23.23,23.23,0,0,0,1.15-5.6c0-2-.66-3.1-.75-4.48s.73-3.16.5-4.6a22.5,22.5,0,0,0-1.86-4.52,9.86,9.86,0,0,1,1-4.73c1.19-2.23,4.73-4.05,4.73-4.05l7.43-1.69,14.19-2.7s2.68-.88,3.38-2,.07-1.64.67-3,1.69-2.38,2.36-3.72a2.66,2.66,0,0,0-1-3.38c-1-.83-3.72-.34-3.72-.34L819,501.7l-8.57-1.56L805,496.43,796.24,491l-12.1-9.17-8.4-4.61-5.44-4.45s-5-3.24-6.09-4.61a40.86,40.86,0,0,1-3.13-5.93s-2.64-8.7-3-11.53.62-10.37.62-10.37a71.91,71.91,0,0,1,2.18-7.25c.88-2.05,3.79-6.76,3.79-6.76l3.46-6.76,4.61-9.23,6.1-8.57s3.13-3.26,3.85-4.35,1-4.73,1-4.73a26,26,0,0,0-.25-5.09A15.47,15.47,0,0,0,782,384l-2.14-6.26-2.14-8.57-3.62-8.57-4-8.89-1-3.46-1.48-8.4a75.74,75.74,0,0,1,.16-8.4,48.86,48.86,0,0,1,1.65-6.26l1.64-3.3,4-6.77a11.11,11.11,0,0,0,1.83-3.92,5,5,0,0,0-.39-3.46l-1.76-4.7-2-6.46-2.74-6.07-2.55-9-2.4-7.73L762.7,267l-4.31-4.89s-3.3-3.07-4.5-3.33-5.28-.39-5.28-.39l-5.05-.16a11.79,11.79,0,0,1-1,2l.59,3.08,0,.13-.67,5.56-.5,4.41-1.38,19.68-1.76,7.77-.34,1.87-.35,1.39-.91,2-2,2.23L727.92,311l-4,3.31s0,.06-.1.08c-7.26,2.9-9.38,4.16-9.68,4.68a38.57,38.57,0,0,0-2.53,6.61l-.66,1.7-.72,1.52-1.86,1.67-7.08,3.7L689,339.49l-1.74.95L685.42,342l-8.14,9.3-1.89.95-4.32,1-2.64,1.08L666,356.11l-3.41,1.7-12.31,4.33-9.63,1.8-1.45.87L637.83,366l-4.28,5.6-1.92,1.75-2.67,2-.47.77L625.67,379l-1.57,2.19-.67,1.33-1.07,1.42-2.06,2.4-2.89,1.87-4,2.75-7.32,6.15-3.65,2.08-2.6.52-3.21.64-2.09.64-2,.91-5.12,4.64L585,409.12l-3,1.57-2.24.87-7.37,1.67-11,1-2.8,1-3.65.34h-3L540.42,418l-3.59,1.15-2.73,1.12-2.31,1.08-1,1.14-2.07,2.71-.59,1.47-1.54,5.13-4.89,5.42-3.54,1.18-4.92,3.81L511.72,444,509.19,449c0,.17-.08.58-.11.82l.62,1.86.36,2.49-.2,1.65-3.52,5-.74,2.06v4.77l-.91,1.13-2.32,1.83-4.21,4.72-2.1.76-1.38.2-2-.37L489,474.41l-.86-.69-7-4.72-2.14-.76-1.67-.3h-1.77l-1.36.41-.84.71-.73,2.18-.3,2c0,.18.33,5,.33,5l-.57,1.88-1.29,3.06-1.65,7.61-1.76,3.51-2,2-2.25,1.56-4.86,2.59-2.74,2.9L453,505.4l-2.38,3.86-3.44,5.4-1.6,2.8-4.67,4.91-3.63,3.79-4.08,4.25-.36.49-.93,3.22-.84,4.9L430,541.19l-.85,1.07L425,544l-2.72,1.53-1.34.22-1.72-.51h-1l-1,.58-.52,1.16-2.24,7.84.32,2.35v5.42l-.51,5-.81,4-.35,3.64-.91,1.6-1.3.43-.39,0-3.5-.5-3.25-.85-2.63-1.15L398,573.71l-2.38-.15-14.77,3.89-5.55,2.12-3.15,1.66-2.57.86-4,1.12-1,.65-.63,1-.11.68.48,3.06v2.81l.47,3.14,1.14,3.12,1.83,6.67,1.54,9-.85,1.49L367,616.4l-2.9,1.27-3.4.65-2.38,1.49L356.5,622l-4.17,7.34-3.19,2.31-6.75,3-3.82,2.87-.9.89-1.58,2.2-2.85,5.37-1.41,1.2-1.77.6h-2.58L323,646.32l-2.37-1.09-1-1.23-3.14-7.1-.46-.58-1.91-.89-2.42-1-4.2-1.34-2-1.08-2.1-2.11-2.19-.88-1.25-.14-.75.13a20.84,20.84,0,0,1-4.57,1.67,4.45,4.45,0,0,1-.73.06,8.34,8.34,0,0,1-2.08-.34,6.81,6.81,0,0,0-1.66-.29,2.68,2.68,0,0,0-.41,0,5.93,5.93,0,0,0-3.33,1.91A19.52,19.52,0,0,0,284,636.6l-.19.48a34.6,34.6,0,0,0-1.58,4.5,31.74,31.74,0,0,1-2.75,7.06,43.27,43.27,0,0,1-3.83,4.92h0a1.34,1.34,0,0,1-.3.32l-.08.09,0,0a6.75,6.75,0,0,1-3.46.67h-.61l-1.37.15L257,657.06l-6.24,2.4L246,662.88l-11.7,6.5-.39.67.25,1.37,1.44,2.73,3.27,8.45-.72,1.68-3,2.3-4.73,3.26-3.54,3.2-1.58.6-2.21.18L212.51,692l-2.15-1.08-2.31-1.64-3.76-1.88-2.44-.3h-1.49l-5.46,1.32-3.51-.17-7.92-2.15-1.78-.15-2.18.47-.94-.43-.95-1.74-2.34-2.81-3.29-2.3-1.18-1.38-.91-3.09v-2l1.17-2.51c0-.24.12-1.42.14-1.67l-.25-.87-.49-.73-3.77-2.46-2.28-3.15-.58-1.17-.2-1.4.31-2.62-.26-.44-1.86-1.52-1.14-2.61-.86-.61-1.25-.42-3-.15L153.08,652l-1.29.65-1.43-.24-2.1-1.33-.5-.67-.71-.47-2.06-.32-1.51-.65-1.22-2-.21-1.49s.14-.57.18-.72v-2.12l-.58-.93-.57-.34-2.46-.82-4.1-2.3-.87-.25-3.66.63-5.26.51-2.23-.61-1-1.28V635l-.49-1-.89-.76-1.23-.41-1.58-.14-3.75.82h-8l-6.68-.17-3.89-.51-3.34-1.23-1.69-1.31-1.46-2-1.06-2.82-1-5.53-.65-3.88-2-5.59-.32-1.62-.55-1.25-.73-.73-.66-.22H80.8l-1.6.58L76,609.15l-2.73,1.93-2.87,3-1.58.68L65.52,614l-.66.22-1.43.86-2.41,3-2.23,2.24-1.73,1.14-1.7.21-2.74-.86-2-.43-.66.33-2.16,1.54-.72.86-1.69,2.7L43.95,627l-1.55.26-1.8-1.12-1-2.1-1-1.14-2.95-1.87-1.73-.87-2.44-2L28,616.86l-3-.5-1.75-.87-1-3.11-.07-.07-1.85.14-2.4-.37-1.72-1-1.78-1.78L11.17,605l-.42-.28V1950.79h1446V-.2Z"/><path class="cls-1" d="M728.3,283.82l0,.12-.08.1c-1.67,2.29-4.08,5.78-5.22,7.78,2.56-.85,6.91-2.63,7.78-3.85a4,4,0,0,0,.8-2.94l0-1.26c.14-1.37,1.28-10.61,1.67-12a43.18,43.18,0,0,1,2-5.43,7.81,7.81,0,0,1,1.74-2,11.49,11.49,0,0,0,1.46-1.55l.83-1.06a16.79,16.79,0,0,0,2.51-3.81l-3.41-2-3.61-4A29.67,29.67,0,0,0,733,257.8l-.34,3.77a18.38,18.38,0,0,1-.33,3.06s-1,3.35-1,3.42a20.83,20.83,0,0,0-1.26,4.07,16.3,16.3,0,0,0-.09,2.8,22.4,22.4,0,0,1-.07,2.92A35.56,35.56,0,0,1,728.3,283.82Z"/><path class="cls-1" d="M993.35,862.12l-2.09-2.22s-.56-.34-1.26-.86c-.17,1.69-.23,3.33.49,4.26a7.75,7.75,0,0,0,5.65,2.49c-.26-.61-.48-1.22-.7-1.71A5.67,5.67,0,0,0,993.35,862.12Z"/><path class="cls-1" d="M721.56,306.7c.17.6,1,2.88,1.64,4.68l4.1-6.45,2.05-2.22.75-.74,3-5.11,4.91-4.9,1.09-.93,1.25-17.79.5-4.46.64-5.3c0-.1-.13-.69-.26-1.34l-.54.67-.77,1a13,13,0,0,1-1.67,1.79,6.76,6.76,0,0,0-1.38,1.55,41,41,0,0,0-1.92,5.12c-.33,1.18-1.47,10.19-1.62,11.72l0,1a5.71,5.71,0,0,1-1.12,4c-1.46,2-7.59,4.12-8.57,4.45l-1.68,1.1a14,14,0,0,0-.57,6.16l.1,1.06,0,2.63A11.08,11.08,0,0,0,721.56,306.7Z"/><path class="cls-1" d="M731.47,303l-.88.88L728.67,306l-2.89,4.55,1.28-1.06,7.19-2.62,1.58-1.72.73-1.62.3-1.19.34-1.85,1.56-6.89-4.31,4.31Z"/><path class="cls-1" d="M1125.2,869.68c-1.83,0-4.14,1.22-6.39,2.43a19.62,19.62,0,0,1-5.82,2.43c-1.83.27-3.86-1-5.83-2.23-1.52-1-3.1-1.94-4.22-1.94-1.72,0-3.2,1.28-4.77,2.64s-3.38,2.93-5.61,3.09a21.65,21.65,0,0,1-4.68-.47c-2.09-.35-4.42-.73-5.86-.4a19.28,19.28,0,0,1,2.28,3.55,13,13,0,0,1,.78,2.64c.26,1.2.51,2.34,1.17,2.62a7.57,7.57,0,0,0,3.06.56,25.68,25.68,0,0,0,6.52-1.17l1.55-.41a40.1,40.1,0,0,1,6.14-.57l4.92-1.58a4.21,4.21,0,0,1,3.32-2.13,3.26,3.26,0,0,1,1.26.26,17.15,17.15,0,0,1,3.38,2.49c2.32,2,5.71,4.8,8,4.8a2.21,2.21,0,0,0,.71-.11c.68-.23.84-.55.89-.66.39-.81-.18-2.36-.64-3.6-.54-1.48-1-2.76-.45-3.71C1125.26,877.56,1125.32,873.88,1125.2,869.68Z"/><path class="cls-1" d="M1121.74,864l-5.83-1.33-.06,0s-4.08-1.59-5.64-1.94a8.63,8.63,0,0,0-1.78-.14,25.85,25.85,0,0,0-2.72.16l-4.63.5c-.35,0-1,0-1.91,0h-4.61c-2,0-3.86,0-4.81.14a21,21,0,0,0-5.37,1.89l-.06,0-4.1,1.4-3.19,2.55-2.32,1.88,6.08,4.73c1.82-.84,4.65-.37,7.4.08a21,21,0,0,0,4.27.45c1.66-.13,3.09-1.37,4.61-2.68,1.74-1.51,3.54-3.07,5.9-3.07,1.61,0,3.32,1.07,5.13,2.2s3.46,2.16,4.66,2a18.76,18.76,0,0,0,5.26-2.24c2.41-1.3,4.89-2.62,7.14-2.63,0-1-.09-2.07-.15-3.09Z"/><path class="cls-1" d="M787.79,1257.9c-1.7-.54-3.46-1.09-4.74-1.61l-5.9-2.53a12.88,12.88,0,0,1-2.07-1.36c-2-1.51-5-3.69-9.32-3.69a14,14,0,0,0-1.67.11,32,32,0,0,1-3.41.62l4.68,3.43,4.34,6.17,3.59,4.57,1.57,1.56,3.17,2.38,2.46,1.08,4.53,1.46,3.08.65,5,.41,1.44-5.41,1.68-3.5.1-.77-4.51-2.23C790.94,1258.89,789.41,1258.41,787.79,1257.9Z"/><path class="cls-1" d="M845.74,1231.44c-1.64-.67-9.94-1.4-9.94-1.4l-1.78.14,7,3.35,6.64,2.92,3.56.46,1.27-.16h.69l-2.69-1.68S847.37,1232.12,845.74,1231.44Z"/><path class="cls-1" d="M955.31,1232.1a3.47,3.47,0,0,1-.63,1.05,7.25,7.25,0,0,1-1.49,1.15c-.5.24-5.6,2.14-5.6,2.14l-3,.49-2,.49-2.14,1.15a7.24,7.24,0,0,0-2.14,1.48,22.13,22.13,0,0,0-1.4,2.37l6.41-.41,3.83-.8,2-.79,2.53-1.11c.16-.13,2.18-1.72,2.44-2a4.51,4.51,0,0,0,.54-.81c.06-.14.47-1.1.58-1.44a6.18,6.18,0,0,0,.15-1.76c0-.43-.13-1-.15-1.16Z"/><path class="cls-1" d="M855.65,1235a34.45,34.45,0,0,0,4.56,1.53c.71.06,3.1.07,4.16.07l-2.23-2.63-3-2.7-1.6-.87-6.66-1.11-2.08.24.93.69a37.33,37.33,0,0,0,4.12,4A8.79,8.79,0,0,0,855.65,1235Z"/><g id="Yosemite_creek" data-name="Yosemite creek"><text class="cls-2" transform="translate(1036.12 866.53) rotate(-19.12)">Y</text><text class="cls-3" transform="translate(1042.45 864.36) rotate(-15.67)">o</text><text class="cls-4" transform="matrix(0.97, -0.23, 0.23, 0.97, 1049.13, 862.54)">s</text><text class="cls-5" transform="matrix(0.98, -0.21, 0.21, 0.98, 1053.47, 861.44)">e</text><text class="cls-6" transform="translate(1059.64 860.08) rotate(-9.93)">m</text><text class="cls-5" transform="translate(1069.74 858.43) rotate(-8.68)">i</text><text class="cls-7" transform="translate(1073.04 857.9) rotate(-8.05)">t</text><text class="cls-4" transform="translate(1077.44 857.31) rotate(-7.24)">e</text><text class="cls-8" transform="translate(1083.87 856.4) rotate(-6.58)"> </text><text class="cls-9" transform="matrix(0.99, -0.11, 0.11, 0.99, 1087.09, 856.04)"> </text><text class="cls-9" transform="translate(1090.4 855.7) rotate(-5.53)">C</text><text class="cls-4" transform="matrix(1, -0.08, 0.08, 1, 1097.4, 854.99)">r</text><text class="cls-10" transform="translate(1101.98 854.64) rotate(-4.19)">e</text><text class="cls-4" transform="translate(1108.38 854.2) rotate(-3.38)">e</text><text class="cls-11" transform="matrix(1, -0.04, 0.04, 1, 1114.73, 853.75)">k</text><text class="cls-4" transform="translate(1121.18 853.56) rotate(-1.41)"> </text></g><g id="Sentier_Creek" data-name="Sentier Creek"><text class="cls-12" transform="matrix(0.68, -0.74, 0.74, 0.68, 777.37, 858.5)">S</text><text class="cls-13" transform="matrix(0.73, -0.68, 0.68, 0.73, 781.14, 854.42)">e</text><text class="cls-14" transform="translate(785.75 850.07) rotate(-40.59)">n</text><text class="cls-15" transform="matrix(0.77, -0.64, 0.64, 0.77, 791.14, 845.53)">t</text><text class="cls-16" transform="translate(794.72 842.53) rotate(-39.51)">i</text><text class="cls-17" transform="matrix(0.77, -0.64, 0.64, 0.77, 797.26, 840.48)">n</text><text class="cls-18" transform="translate(802.75 835.84) rotate(-41.02)">e</text><text class="cls-19" transform="translate(807.81 831.49) rotate(-42.68)">l</text><text class="cls-13" transform="matrix(0.72, -0.7, 0.7, 0.72, 810.28, 829.17)"> </text><text class="cls-19" transform="matrix(0.69, -0.72, 0.72, 0.69, 812.73, 826.71)"> </text><text class="cls-12" transform="matrix(0.65, -0.76, 0.76, 0.65, 815.12, 824.2)"> </text><text class="cls-17" transform="matrix(0.57, -0.82, 0.82, 0.57, 817.69, 821.48)">C</text><text class="cls-20" transform="matrix(0.66, -0.75, 0.75, 0.66, 821.4, 816.04)">r</text><text class="cls-13" transform="matrix(0.74, -0.68, 0.68, 0.74, 824.16, 812.9)">e</text><text class="cls-21" transform="translate(828.79 808.69) rotate(-39.23)">e</text><text class="cls-20" transform="translate(834 804.52) rotate(-41.4)">k</text><text class="cls-12" transform="matrix(0.68, -0.73, 0.73, 0.68, 839.17, 799.81)"> </text></g><g id="Tenaya_Creek" data-name="Tenaya Creek"><text class="cls-22" transform="translate(1026.54 1218.57) rotate(70.28)">T</text><text class="cls-23" transform="translate(1028.46 1223.81) rotate(70.77)">e</text><text class="cls-3" transform="translate(1030.58 1229.81) rotate(72.11)">n</text><text class="cls-3" transform="matrix(0.26, 0.97, -0.97, 0.26, 1032.75, 1236.48)">a</text><text class="cls-24" transform="translate(1034.34 1242.42) rotate(78.67)">y</text><text class="cls-25" transform="translate(1035.52 1247.9) rotate(83.11)">a</text><text class="cls-24" transform="matrix(0.02, 1, -1, 0.02, 1036.11, 1253.96)"> </text><text class="cls-26" transform="matrix(0, 1, -1, 0, 1036.08, 1257.18)"> </text><text class="cls-22" transform="translate(1036.17 1260.45) rotate(90.43)">C</text><text class="cls-27" transform="translate(1036.09 1267.54) rotate(90.45)">r</text><text class="cls-27" transform="matrix(0, 1, -1, 0, 1036.06, 1272.13)">e</text><text class="cls-28" transform="translate(1036.06 1278.69) rotate(89.53)">e</text><text class="cls-29" transform="translate(1036.05 1285.21) rotate(88.67)">k</text><text class="cls-30" transform="matrix(0.04, 1, -1, 0.04, 1036.23, 1291.81)"> </text></g><g id="Royal_Arch_Creek" data-name="Royal Arch Creek"><text class="cls-4" transform="matrix(1, -0.01, 0.01, 1, 1058.69, 1091.1)">R</text><text class="cls-22" transform="translate(1065.63 1091.06) rotate(0.87)">o</text><text class="cls-23" transform="translate(1072.67 1091.21) rotate(2.2)">y</text><text class="cls-31" transform="matrix(1, 0.06, -0.06, 1, 1078.39, 1091.39)">a</text><text class="cls-29" transform="translate(1084.84 1091.77) rotate(4.29)">l</text><text class="cls-22" transform="translate(1088.17 1092.03) rotate(4.92)"> </text><text class="cls-24" transform="translate(1091.39 1092.32) rotate(5.58)"> </text><text class="cls-25" transform="matrix(0.99, 0.11, -0.11, 0.99, 1094.6, 1092.71)"> </text><text class="cls-29" transform="matrix(0.99, 0.14, -0.14, 0.99, 1097.74, 1092.94)">A</text><text class="cls-28" transform="translate(1105.92 1094.26) rotate(10.4)">r</text><text class="cls-22" transform="matrix(0.98, 0.17, -0.17, 0.98, 1110.44, 1095.01)">c</text><text class="cls-4" transform="translate(1115.63 1095.98) rotate(9.49)">h</text><text class="cls-28" transform="translate(1122.66 1097.2) rotate(9)"> </text><text class="cls-28" transform="translate(1125.99 1097.69) rotate(8.55)"> </text><text class="cls-3" transform="translate(1129.29 1098.25) rotate(7.14)">C</text><text class="cls-28" transform="translate(1135.68 1098.86) rotate(17.28)">r</text><text class="cls-27" transform="matrix(0.94, 0.35, -0.35, 0.94, 1139.85, 1100.03)">e</text><text class="cls-25" transform="matrix(0.93, 0.36, -0.36, 0.93, 1145.93, 1102.33)">e</text><text class="cls-25" transform="matrix(0.93, 0.36, -0.36, 0.93, 1151.95, 1104.7)">k</text><text class="cls-26" transform="translate(1158.08 1107.11) rotate(20.07)"> </text></g><g id="Indian_Canyon_Creek" data-name="Indian Canyon Creek"><text class="cls-32" transform="translate(1049.17 1017.29) rotate(-2.03)">I</text><text class="cls-33" transform="matrix(1, -0.06, 0.06, 1, 1052.66, 1017.17)">n</text><text class="cls-28" transform="translate(1059.92 1016.71) rotate(-5.37)">d</text><text class="cls-2" transform="translate(1067.02 1016.11) rotate(-6.43)">i</text><text class="cls-34" transform="translate(1070.42 1015.72) rotate(-7.3)">a</text><text class="cls-34" transform="translate(1076.89 1014.88) rotate(-8.34)">n</text><text class="cls-2" transform="translate(1084.01 1013.72) rotate(-9.03)"> </text><text class="cls-33" transform="matrix(0.99, -0.16, 0.16, 0.99, 1087.2, 1013.27)"> </text><text class="cls-34" transform="translate(1090.63 1012.71) rotate(-10)">C</text><text class="cls-25" transform="translate(1097.67 1011.47) rotate(-10.66)">a</text><text class="cls-35" transform="translate(1104.08 1010.32) rotate(-11.24)">n</text><text class="cls-27" transform="matrix(0.98, -0.2, 0.2, 0.98, 1111.07, 1008.94)">y</text><text class="cls-28" transform="translate(1116.87 1007.67) rotate(-12.16)">o</text><text class="cls-24" transform="matrix(0.98, -0.22, 0.22, 0.98, 1123.82, 1006.17)">n</text><text class="cls-3" transform="translate(1130.79 1004.66) rotate(-12.85)"> </text><text class="cls-35" transform="translate(1134.07 1003.88) rotate(-13.01)"> </text><text class="cls-31" transform="translate(1137.23 1003.18) rotate(-13.24)">C</text><text class="cls-2" transform="translate(1144.17 1001.46) rotate(-13.48)">r</text><text class="cls-29" transform="translate(1148.72 1000.38) rotate(-13.68)">e</text><text class="cls-32" transform="translate(1154.97 998.93) rotate(-13.88)">e</text><text class="cls-25" transform="translate(1161.29 997.3) rotate(-14.05)">k</text><text class="cls-29" transform="matrix(0.97, -0.24, 0.24, 0.97, 1167.6, 995.78)"> </text></g><g id="Merced_River" data-name="Merced River"><text class="cls-36" transform="translate(810.33 1272.43) rotate(85.94)">M</text><text class="cls-37" transform="translate(811.28 1285.27) rotate(83.54)">e</text><text class="cls-38" transform="matrix(0.13, 0.99, -0.99, 0.13, 812.23, 1292.98)">r</text><text class="cls-39" transform="matrix(0.15, 0.99, -0.99, 0.15, 812.92, 1298.35)">c</text><text class="cls-40" transform="translate(813.78 1304.43) rotate(80.32)">e</text><text class="cls-41" transform="matrix(0.19, 0.98, -0.98, 0.19, 815.09, 1311.99)">d</text><text class="cls-42" transform="translate(816.69 1320.2) rotate(78.43)"> </text><text class="cls-43" transform="matrix(0.21, 0.98, -0.98, 0.21, 817.43, 1324.05)"> </text><text class="cls-36" transform="translate(818.3 1327.89) rotate(77.17)">R</text><text class="cls-44" transform="translate(820.12 1336.09) rotate(76.39)">i</text><text class="cls-45" transform="translate(821.07 1339.77) rotate(75.7)">v</text><text class="cls-40" transform="translate(822.73 1346.48) rotate(74.69)">e</text><text class="cls-46" transform="translate(824.79 1353.93) rotate(73.68)">r</text><text class="cls-47" transform="translate(826.34 1359.13) rotate(72.89)"> </text></g><g id="Merced_River-2" data-name="Merced River"><text class="cls-48" transform="matrix(0.07, 1, -1, 0.07, 780.99, 320.24)">M</text><text class="cls-49" transform="translate(782.18 335.24) rotate(81.63)">e</text><text class="cls-50" transform="translate(783.52 344.1) rotate(78.41)">r</text><text class="cls-51" transform="translate(784.78 350.3) rotate(75.4)">c</text><text class="cls-52" transform="translate(786.62 357.35) rotate(71.82)">e</text><text class="cls-53" transform="translate(789.47 365.94) rotate(68.46)">d</text><text class="cls-54" transform="translate(792.98 374.73) rotate(67.58)"> </text><text class="cls-55" transform="matrix(0.37, 0.93, -0.93, 0.37, 794.67, 378.8)"> </text><text class="cls-49" transform="translate(796.21 382.68) rotate(70.95)"> </text><text class="cls-54" transform="translate(797.5 386.37) rotate(75.45)"> </text><text class="cls-56" transform="translate(798.52 390.12) rotate(81.97)"> </text><text class="cls-53" transform="translate(799.09 393.79) rotate(89.69)"> </text><text class="cls-51" transform="translate(799.07 397.42) rotate(97.36)"> </text><text class="cls-52" transform="translate(798.58 401.25) rotate(103.55)"> </text><text class="cls-56" transform="translate(797.72 405.14) rotate(107.92)"> </text><text class="cls-54" transform="translate(796.39 409.01) rotate(111.75)"> </text><text class="cls-57" transform="translate(794.94 412.87) rotate(114.73)"> </text><text class="cls-58" transform="matrix(-0.45, 0.89, -0.89, -0.45, 793.17, 416.64)"> </text><text class="cls-54" transform="translate(791.15 420.5) rotate(117.76)"> </text><text class="cls-50" transform="matrix(-0.46, 0.89, -0.89, -0.46, 789.11, 424.44)">R</text><text class="cls-59" transform="translate(784.66 433.14) rotate(114.29)">i</text><text class="cls-60" transform="translate(782.62 437.5) rotate(110.02)">v</text><text class="cls-61" transform="translate(779.71 445.46) rotate(102.73)">e</text><text class="cls-56" transform="translate(777.84 454.61) rotate(95.66)">r</text><text class="cls-62" transform="translate(777.24 461.15) rotate(90.85)"> </text></g><g id="Bridalveil_Creek" data-name="Bridalveil Creek"><text class="cls-27" transform="translate(672.16 365.84) rotate(-28.72)">B</text><text class="cls-29" transform="translate(678.17 362.61) rotate(-23.9)">r</text><text class="cls-63" transform="translate(682.19 360.84) rotate(-21.49)">i</text><text class="cls-28" transform="matrix(0.94, -0.33, 0.33, 0.94, 685.13, 359.6)">d</text><text class="cls-64" transform="translate(691.9 357.21) rotate(-19.71)">a</text><text class="cls-31" transform="translate(698.19 354.98) rotate(-22.78)">l</text><text class="cls-28" transform="translate(701.75 353.6) rotate(-29.69)">v</text><text class="cls-28" transform="translate(707.32 350.21) rotate(-39.06)">e</text><text class="cls-25" transform="matrix(0.72, -0.69, 0.69, 0.72, 712.49, 345.85)">i</text><text class="cls-35" transform="matrix(0.69, -0.72, 0.72, 0.69, 714.99, 343.54)">l</text><text class="cls-27" transform="matrix(0.66, -0.75, 0.75, 0.66, 717.45, 340.95)"> </text><text class="cls-29" transform="translate(719.76 338.35) rotate(-50.52)"> </text><text class="cls-35" transform="matrix(0.6, -0.8, 0.8, 0.6, 721.96, 335.7)">C</text><text class="cls-63" transform="matrix(0.74, -0.68, 0.68, 0.74, 725.66, 330.59)">r</text><text class="cls-22" transform="translate(728.84 327.64) rotate(-38.99)">e</text><text class="cls-65" transform="translate(733.76 323.62) rotate(-36.43)">e</text><text class="cls-27" transform="translate(738.89 319.83) rotate(-33.87)">k</text><text class="cls-28" transform="matrix(0.85, -0.52, 0.52, 0.85, 744.08, 316.33)"> </text></g><g id="Ribbon_Creek" data-name="Ribbon Creek"><text class="cls-33" transform="matrix(1, -0.05, 0.05, 1, 856.27, 332.13)">R</text><text class="cls-2" transform="translate(863.51 331.75) rotate(-3.76)">i</text><text class="cls-31" transform="matrix(1, -0.08, 0.08, 1, 866.84, 331.54)">b</text><text class="cls-29" transform="translate(874.11 330.97) rotate(-6.57)">b</text><text class="cls-25" transform="matrix(0.99, -0.15, 0.15, 0.99, 881.38, 330.13)">o</text><text class="cls-29" transform="translate(888.56 329) rotate(-12.16)">n</text><text class="cls-22" transform="matrix(0.96, -0.29, 0.29, 0.96, 895.82, 327.42)"> </text><text class="cls-35" transform="translate(899.37 326.29) rotate(-21.74)"> </text><text class="cls-64" transform="translate(902.92 324.71) rotate(-30.36)">C</text><text class="cls-64" transform="translate(909.08 321.19) rotate(-30.13)">r</text><text class="cls-35" transform="translate(913 318.84) rotate(-29.8)">e</text><text class="cls-22" transform="translate(918.59 315.72) rotate(-29.22)">e</text><text class="cls-65" transform="translate(924.19 312.58) rotate(-28.15)">k</text><text class="cls-25" transform="translate(929.83 309.47) rotate(-26.25)"> </text></g><path class="cls-66" d="M1060.47,1510a1.81,1.81,0,1,0,1.81-1.85,1.83,1.83,0,0,0-1.81,1.85"/><path class="cls-66" d="M775.79,1493a2.72,2.72,0,1,0,2.73-2.77,2.75,2.75,0,0,0-2.73,2.77"/><path class="cls-66" d="M810.74,1391.9a2.72,2.72,0,1,0,2.73-2.77,2.75,2.75,0,0,0-2.73,2.77"/><path class="cls-66" d="M1093.15,1331.63a2.72,2.72,0,1,0,2.72-2.77,2.75,2.75,0,0,0-2.72,2.77"/><path class="cls-66" d="M1080.57,1198.55a2.72,2.72,0,1,0,2.72-2.77,2.75,2.75,0,0,0-2.72,2.77"/><path class="cls-66" d="M863.73,1085.19a2.72,2.72,0,1,0,2.73-2.77,2.75,2.75,0,0,0-2.73,2.77"/><path class="cls-66" d="M1139.75,850.58a2.72,2.72,0,1,0,2.72-2.77,2.75,2.75,0,0,0-2.72,2.77"/><path class="cls-66" d="M996.36,667.5a1.81,1.81,0,1,0,1.82-1.85,1.83,1.83,0,0,0-1.82,1.85"/><path class="cls-66" d="M884.84,519.14a2.72,2.72,0,1,0,2.72-2.77,2.75,2.75,0,0,0-2.72,2.77"/><path class="cls-66" d="M935.68,426.74a1.81,1.81,0,1,0,1.82-1.85,1.83,1.83,0,0,0-1.82,1.85"/><path class="cls-66" d="M729.73,361.77a2.72,2.72,0,1,0,2.72-2.77,2.75,2.75,0,0,0-2.72,2.77"/><path class="cls-66" d="M708.52,323.57a2.72,2.72,0,1,0,2.72-2.77,2.75,2.75,0,0,0-2.72,2.77"/><path class="cls-66" d="M705.63,55.62a2.72,2.72,0,1,0,2.72-2.77,2.75,2.75,0,0,0-2.72,2.77"/></svg>