<svg id="Calque_1" data-name="Calque 1" xmlns="http://www.w3.org/2000/svg" viewBox="0 0 1446.01 1951.25"><defs><style>.cls-1{fill:#acd0ee;}.cls-2{font-size:11.47px;}.cls-10,.cls-11,.cls-12,.cls-13,.cls-14,.cls-15,.cls-16,.cls-17,.cls-18,.cls-19,.cls-2,.cls-20,.cls-21,.cls-22,.cls-23,.cls-24,.cls-25,.cls-26,.cls-27,.cls-28,.cls-29,.cls-3,.cls-30,.cls-31,.cls-32,.cls-33,.cls-34,.cls-35,.cls-36,.cls-37,.cls-38,.cls-39,.cls-4,.cls-40,.cls-41,.cls-42,.cls-43,.cls-44,.cls-45,.cls-46,.cls-47,.cls-48,.cls-49,.cls-5,.cls-50,.cls-51,.cls-52,.cls-53,.cls-54,.cls-55,.cls-56,.cls-57,.cls-58,.cls-59,.cls-6,.cls-60,.cls-61,.cls-62,.cls-63,.cls-64,.cls-65,.cls-7,.cls-8,.cls-9{fill:#009dda;font-family:Futura, Futura;}.cls-3{font-size:11.47px;}.cls-4{font-size:11.47px;}.cls-5{font-size:11.47px;}.cls-6{font-size:11.47px;}.cls-7{font-size:11.47px;}.cls-8{font-size:11.47px;}.cls-9{font-size:11.47px;}.cls-10{font-size:11.47px;}.cls-11{font-size:11.47px;}.cls-12{font-size:11.47px;}.cls-13{font-size:11.47px;}.cls-14{font-size:11.47px;}.cls-15{font-size:11.47px;}.cls-16{font-size:11.47px;}.cls-17{font-size:11.47px;}.cls-18{font-size:11.47px;}.cls-19{font-size:11.47px;}.cls-20{font-size:11.47px;}.cls-21{font-size:11.47px;}.cls-22{font-size:11.47px;}.cls-23{font-size:11.47px;}.cls-24{font-size:11.47px;}.cls-25{font-size:11.47px;}.cls-26{font-size:11.47px;}.cls-27{font-size:11.47px;}.cls-28{font-size:11.47px;}.cls-29{font-size:11.47px;}.cls-30{font-size:11.47px;}.cls-31{font-size:11.47px;}.cls-32{font-size:11.47px;}.cls-33{font-size:11.47px;}.cls-34{font-size:11.47px;}.cls-35{font-size:11.47px;}.cls-36{font-size:13.38px;}.cls-37{font-size:13.38px;}.cls-38{font-size:13.38px;}.cls-39{font-size:13.38px;}.cls-40{font-size:13.38px;}.cls-41{font-size:13.38px;}.cls-42{font-size:13.38px;}.cls-43{font-size:13.38px;}.cls-44{font-size:13.38px;}.cls-45{font-size:13.38px;}.cls-46{font-size:13.38px;}.cls-47{font-size:13.38px;}.cls-48{font-size:15.29px;}.cls-49{font-size:15.29px;}.cls-50{font-size:15.29px;}.cls-51{font-size:15.29px;}.cls-52{font-size:15.29px;}.cls-53{font-size:15.29px;}.cls-54{font-size:15.29px;}.cls-55{font-size:15.29px;}.cls-56{font-size:15.29px;}.cls-57{font-size:15.29px;}.cls-58{font-size:15.29px;}.cls-59{font-size:15.29px;}.cls-60{font-size:15.29px;}.cls-61{font-size:15.29px;}.cls-62{font-size:15.29px;}.cls-63{font-size:11.47px;}.cls-64{font-size:11.47px;}.cls-65{font-size:11.47px;}.cls-66{fill:#232020;}</style></defs><title>Yosemite</title><path id="Fleuve" class="cls-1" d="M1407.88,1488.13l-9.9.58c-6.26.22-11.37,2.17-16.32,4.06-4.51,1.73-8.77,3.35-13.89,3.81l-8.43.93c-9.62,1.15-20.51,2.45-29.71.67-5.7-1.1-10.24-3.49-15-6s-9.84-5.17-16.24-6.53c-10.17-2.16-16.6,1.81-24,6.4-2.18,1.34-4.43,2.74-6.89,4-7.4,3.91-17.54,3.49-27.35,3.09l-8.23-.23-.29-6.19-1.5-6-1.35-4.55-2-4.09c0-.18-1.65-7.1-1.65-7.1l-2.85-5.53-1.39-2.43-6.5-6.68-5.34-6.64-1.29-2.25-2.13-3-1.4-.8-1.82-.54-4.7-.48-1.05-.53-1.62-1.62-2.1-4-2.45-3.6-.89-2.07V1430l.35-.69,2.95-3.11.9-1.58-.49-1.47-5.22-7.74-1.31-1.31-2.43-1.21-3.15-1.17-2.15-1.23-2.65-2.49-1.13-1.84V1405l1-3.13-.95-2.28-1.22-2.28-1.2-1.6-2-.54-1.09-.72-.23-.94c0-.1-.12-1-.14-1.28l.45-1.83.34-1,.18-1.66-.17-1.74-.85.09.71-.48-2.8-4.12-.1-.15-1.78-1.11-.91.22h-.83l-2,.49h-2.26l-1,.15-.41-.1-1.7-.85-.64-.9-.21-.52.11-.9.44-.65,1.95-1.13,1.37-1.76.42-1.68-.39-1.94-1.77-3.71-2.18-2-2.58-1.39-2.1.77-1.75.29-1.58-.29-.58-.23-1.53-1.52-5.21-6.52-1.93-2.9-.5-.83-2.45-3.16-2.41-1.3-4.73-1-1.37-1-1-1.45-4.19-3.49-3.26-.91h-1.63l-2.51-.79-.71-.18-2.23-.8-1.49-.37-11.35-.33L1096,1337l1.48-.27,2.26-1.13.14.07,3.18.85,3.74-.14,2.12-1.41.78-2,.42-2.12-2.33-1.91-4.31,2.12-1.84-1.55-2.54-1.41-1.91-.92-2.54-.28-1.62.71.57,2.19,1.69,3.67,2.51,1.23-.87.43-3.57.65-.88.31-2.63,1-.95-.15-2.9-1.12-2.22-.24h-.61l-.81-.58-.72-1.14h0v-1.24l-1.49-3.21-1.73-3.21-.14,0,0-.05-.35,0-4.43-1.11-1.73.24-.49.48-5.39.64-2.49-.15-1.91-.44-1-.72-2.85-2.14h-2.23l-1.36-.68-1.49-1.34-3.24-4.54-4-6.28-1.57-1.75-2.19-1.85-2.06-1.58-1.9-2.85-1.16-2.17-3.31-3.64-2.27-3.72-3.65-5.31-1-1.23-1.36-1.88-2.92-2.05-1.9-1-1.46-.87-1-1.41-.41-1.11c0-.18-.12-1.3-.14-1.54s1.79-6.68,1.79-6.68l.34-3.7v-2.09l-1.63-3.25-1.06-1.23-2.7-2.54-1-1.18-1.19-2.23c0-.27-.24-2.15-.28-2.55l.34-.67,2.29-2.78,1.05-1.75.72-1.65.69-4.84-1.49-11.92v-3.64l.44-1.91.88-1.47,2.75-3.24,2.58-3.44.57-1.52.36-2.66-.19-2-.73-2-2.3-3.45-.6-1.81-.29-1.59.27-1.36,2.12-3.74.58-1.73-.19-2.12-1.16-3-.31-2v-3l.31-2.47.58-1.46,1.54-2.31,2.15-2,10.18-5.42,2.37-1.86,2-1.62,1.29-2.77.86-6.69-.53-3.18-1.06-2.82-2.17-3-1.29-2.42-1-2.25c0-.29.09-3.64.14-5.23l.29-.25c4.06-3.52,8.08-7.42,8.08-7.42l4-2.47a12.94,12.94,0,0,0,1.82-1.48c.54-.62,3.36-4.37,4-5.27a37.48,37.48,0,0,0,1.81-5.6,25,25,0,0,0,.33-4.28s.17-3.4.16-4.45a18.89,18.89,0,0,0-.68-3.18c2.64-2,8.91-3.23,11.71-3.5,4.84-.47,8.92-1.29,14.2-1.29,4.67,0,8.76.61,13.33.86,2.73.15,4.55-.06,6.78,1,1.76.82,1.93,2.42,4.34,2.54,1.43,3.23,3.17,3.82,4.86,7.6.2.45,1,.57,1.3,1.3,5.32-.44,7.78,4.09,11.66,6.41a38.22,38.22,0,0,0,15.38,5.27c7.82.78,13.51,2,21.5,0,3.71-.92,7.25-.51,11.19-.87,3.49-.32,6.46-2,10.23-2.19,7.17-.31,14.43,0,21.61,0s10,2.81,15.81,5.69c6.11,3,13.8.35,20.33,2.82a61.88,61.88,0,0,0,18.06,4c6.86.53,8.82,4.41,14.65,7.31,3,1.51,6.15,1.44,9,2.56,2.67,1,4.77,4.07,7.74,3.89l0-1.38c-3,.17-5.07-2.85-7.74-3.89-2.86-1.12-6-1.05-9-2.56-5.83-2.9-7.79-6.79-14.65-7.31a61.88,61.88,0,0,1-18.06-4c-6.54-2.47-14.23.22-20.33-2.82-5.78-2.88-8.6-5.71-15.81-5.69s-14.44-.33-21.61,0c-3.77.16-6.74,1.87-10.23,2.19-3.95.36-7.48-.05-11.19.87-8,2-13.68.75-21.5,0a38.22,38.22,0,0,1-15.38-5.27c-3.88-2.32-5.64-7.17-11-6.73-.31-.73-1-.83-1.25-1.25-1.89-3.4-4.17-4.09-5.6-7.32-2.41-.12-2.58-1.72-4.34-2.54-2.22-1-4-.83-6.78-1-4.58-.25-8.66-.87-13.33-.86-5.28,0-9.35.82-14.2,1.29-2.91.29-9.59,1.59-12,3.75a30,30,0,0,0-1-2.94,40.58,40.58,0,0,0-2.8-4.45,12.54,12.54,0,0,0-4.61-2.3,5.88,5.88,0,0,0-3.62.49l-6.75,2.64a66,66,0,0,1-6.43,3.63,19.14,19.14,0,0,1-3.13.33l-4.28-.83-9.06-1.81a44.81,44.81,0,0,1-5.27-2.63,41.93,41.93,0,0,1-3.09-3.37l-3.39-5.22-5.22-5.25s-2.58-3.79-2.87-4.41-1.57-6.14-1.57-6.14l-3.29-6.43a19.92,19.92,0,0,1-.82-4.78,17.39,17.39,0,0,1,1.16-4.45l3.46-4.94,4.78-4.28a39,39,0,0,1,4.28-1.81,14.47,14.47,0,0,1,2.64.16l4.12,1.81s3.44,1.43,4.28,1.65a21.77,21.77,0,0,0,4.29-.33,8.51,8.51,0,0,0,3.84-.22c1.58-.62,6.27-4.44,7.57-5.48s6.72-8,7.83-9.92,4.32-11.73,4.32-11.73l1.48-3.79,3-7.74.11-.4c4.59,0,9.19,0,13.79,0,7,0,8.84-3.25,14.92-6.31,4.53-2.28,23.39-1.56,24.16-6.79,3.33-1.41,5-6.81,9.07-8.17,3.32-1.1,9.68-.14,13.22,0,7.74.39,16.66,0,24.66,1.15a225.76,225.76,0,0,1,22.82,4.14c3.77.95,6,2.51,10.45,2.74,3.47.18,8.75-1.21,10.42,2.19,3.2.2,5.16,2.72,8,4.12,3.51,1.74,5.72,1.32,9.74,1.71,6.64.65,14,2.43,21.28,3.26,19.61,2.24,40,.26,59.09,1.05,8.86.37,13.6,5.85,22.28,6.6,9.48.81,19.17-.45,28.68,0,4.64.22,8.19,1.8,12.62,2.29,4.87.54,9-.25,13.62,1.29,3.74,1.25,6.81,3.93,10.5,5.43,4.29,1.75,7.75,1.3,12.59,1.31,4.48,0,10.52,1.92,14.91.49,2.63-.86,4.2-3.87,6.76-4.37,1.31-.26,4.7.45,6.44.45,8.89,0,16.52,2.87,25.81,2.87v-1.09c-9.29,0-16.92-2.91-25.81-2.87-1.73,0-5.13-.7-6.44-.45-2.56.51-4.12,3.51-6.76,4.37-4.39,1.43-10.44-.48-14.91-.49-4.83,0-8.3.44-12.59-1.31-3.69-1.5-6.75-4.19-10.5-5.43-4.62-1.54-8.76-.75-13.62-1.29-4.43-.49-8-2.08-12.62-2.29-9.51-.45-19.2.81-28.68,0-8.68-.74-13.42-6.23-22.28-6.6-19.08-.79-39.48,1.18-59.09-1.05-7.28-.83-14.64-2.62-21.28-3.26-4-.39-6.23,0-9.74-1.71-2.8-1.39-4.76-3.92-8-4.12-1.68-3.4-6.95-2-10.42-2.19-4.44-.23-6.68-1.8-10.45-2.74a225.78,225.78,0,0,0-22.82-4.14c-8-1.15-16.92-.76-24.66-1.15-3.54-.18-9.9-1.15-13.22,0-4.1,1.36-5.73,6.76-9.07,8.17-.76,5.22-19.63,4.5-24.16,6.79-6.08,3.06-7.91,6.26-14.92,6.31-4.51,0-9,0-13.52,0l.44-3s-.28-3.1-1.15-4.45a6,6,0,0,0-2.8-2l-3.62-.82-5.67-.79-3.13-1a3.2,3.2,0,0,1-1.83-1.3,6.7,6.7,0,0,1-1-2.35,11.32,11.32,0,0,1,0-3.65,31.35,31.35,0,0,0,1.3-3.92c.34-1.56.46-3.71.78-5.74s3.18-8.13,3.65-10.18a19.52,19.52,0,0,0,.52-3.39l2.61-9.92s.64-3.89,1.15-5.49a39.7,39.7,0,0,1,3.13-5.6,21.56,21.56,0,0,0,1.5-3.86,16.88,16.88,0,0,0,.23-3.85l.41-6.13.49-4.29,1-7.91,1.16-10.71a21.6,21.6,0,0,0-.17-4.45c-.35-1.83-2.47-7.74-2.47-7.74l-1.48-2.47-3-3.62-3.13-4.12-2.64-4-1.71-2.18a25.09,25.09,0,0,1,6-.87,29.55,29.55,0,0,0,4.09-.45,12,12,0,0,0,3.9-1.46,30.77,30.77,0,0,1,3.75-1.76,13.87,13.87,0,0,1,4.9-1.3L1055,869a22.75,22.75,0,0,1,3.88-.43,16.73,16.73,0,0,0,4.57-.72c3.35-.95,7.7,1,9.39,1.82l-.1.13,7.19,5.59a20.74,20.74,0,0,1,2.85,4.14,11.77,11.77,0,0,1,.67,2.29c.34,1.57.7,3.19,2.15,3.83a9.24,9.24,0,0,0,3.76.71,26.94,26.94,0,0,0,7-1.23l1.49-.4a41.48,41.48,0,0,1,5.91-.53h.13l5.77-1.86.17-.3c0-.07.85-1.54,2-1.54a1.52,1.52,0,0,1,.59.12,18.19,18.19,0,0,1,2.93,2.22c2.8,2.35,6.2,5.2,9.1,5.2a4,4,0,0,0,1.25-.2,3.06,3.06,0,0,0,1.89-1.55c.7-1.46,0-3.31-.58-4.94a6.32,6.32,0,0,1-.58-2.25c.93-1.59.53-10.39.32-14.07l1.25-.89,2.3-2.83,1.89-4.8.64-2.89.67-1.06,1.45-1.16,1.26-.56,2.59-.3,4,.32,2.1.35,4.58-1.36,2.08-.3,8.88,2.14,3.68-.35,1.23-.35,1.5-.33,5-2,2.79-.77,4.8-.32,8,.49,13.5-.16,2.89.46,1.36.81,1.83,2.49,2.73,1.46,1.91.52,3.72,1.19h2.94l1.63-.18.59-.14,13.41.64,2.56,1,8.67,2,4.45.49,4.07,1,3.33.67,4.18.52,7.38-1.89,2-1.33,4-1.28,4.7-1.46,4.82-.64h2.73l2.9-1.09,2.31-1.77,1.64-1.82,1.19-3,2.55-4.15,1.19-1.34,9.95-6.36,2.25-1.73,4.1-4.1,2.5-1.72,1-.41,1-.12,1.79,1.24,1.5,1.67,3.63,2.18,2.9-.18-.05-.86.09.86,1.77-.18,2.19-.91,1.19-.85,2.55-1.36,4.59-4.92,3.74-1.63.75-.62.58.15,5.08-3,3.45-2.41,1.72-2.06,2.66-4,1.33-1.48,2.06-1,3.1-.62h3l5.81.5,1.94-.39,1-.69,1-.34,2.81-2.28,2.31-2.47,2.76-2.27,3.84-3.67a9.1,9.1,0,0,0,2-3.54,6.73,6.73,0,0,1,1.39-2.55c1.68-1.59,5-2.27,8.21-2.27a15.93,15.93,0,0,1,5.76.92c1.71.72,3.41,2.48,4.78,3.89l.53.54,3.54,3.81,3.34,3.61,3,3.42c2.86,3.38,5.81,6.89,10.29,8a17.42,17.42,0,0,0,3.22.32c1.67.07,3.55.15,4.37.72.22.23,1.26,1.91,1.94,3l1.61,2.51,1.37-1-1.51-2.37c-1.55-2.51-2.05-3.28-2.43-3.54-1.23-.85-3.29-.94-5.28-1a16.6,16.6,0,0,1-2.87-.27c-3.94-1-6.59-4.12-9.39-7.44l-3.1-3.51-3.3-3.57-3.59-3.87-.52-.53c-1.48-1.52-3.32-3.42-5.35-4.27a17.62,17.62,0,0,0-6.43-1.05c-3.55,0-7.34.8-9.4,2.74a8.11,8.11,0,0,0-1.82,3.18,7.54,7.54,0,0,1-1.63,2.91l-3.79,3.63-2.8,2.3-2.3,2.47-2.47,2-.95.32-.94.63-1.36.27-5.64-.48h-3.29l-3.49.7-2.56,1.28-1.63,1.81-2.67,4-1.52,1.82-3.2,2.24-4.41,2.59-.74-.19-1.23,1-3.84,1.67-4.64,5-2.4,1.28-1.12.8-1.77.74-1.51.15-2.34.15-3-1.77-1.46-1.63-2.49-1.72-1.93.21-1.35.58-2.77,1.91-4.14,4.14-2.1,1.62-10.09,6.45-1.45,1.63-2.72,4.41-1.12,2.89-1.33,1.47-2,1.52-2.37.89H1284l-5.07.68-4.85,1.5-4.24,1.36-2,1.3-6.78,1.73-3.79-.47-3.23-.65-4.14-1-4.45-.5-8.46-2-2.71-1-13.93-.67-.73.18-1.42.16h-2.57l-3.5-1.11-1.75-.48-2.21-1.18-1.8-2.45-1.94-1.16-3.37-.53-13.58.17-8.07-.5-5.09.34-3.05.85-5,2-1.42.31-1.12.32-3.24.31-8.92-2.15-2.53.36-4.32,1.28-1.78-.3-4.28-.34-3,.35-1.7.76-1.85,1.48-1,1.56-.68,3-1.74,4.43-2,2.44-.73.52-3.89-1-5.74-1.31c-.4-.16-4.19-1.62-5.83-2a10.49,10.49,0,0,0-2.17-.19,27.48,27.48,0,0,0-2.89.17l-4.59.49c-.28,0-.94,0-1.77,0h-4.57c-2,0-4,0-5.06.16a21.93,21.93,0,0,0-5.89,2l-4.27,1.46-3.42,2.74-2.57,2.08c-2-1-6.61-2.91-10.42-1.83a14.88,14.88,0,0,1-4.17.66,24.44,24.44,0,0,0-4.14.46l-3.11.43a15.34,15.34,0,0,0-5.39,1.41,32.92,32.92,0,0,0-3.94,1.85,10.27,10.27,0,0,1-3.43,1.29,29.12,29.12,0,0,1-3.85.42,24.12,24.12,0,0,0-7,1.16l-.05-.07-5.36-4.36-7.07-3.72-2.62-1.29c0-1.55.08-3.36.13-4.76l.07-2.24.2-3c.36-4.52.63-8.37.29-9.61a7.32,7.32,0,0,0-1.13-2.33c-.52-.82-.39-4.94-.35-6.5l0-1.13a9.56,9.56,0,0,0-.56-2.72,6.14,6.14,0,0,0,.71-.93,10.38,10.38,0,0,0,1.31-4.44,12.44,12.44,0,0,0-2.22-4.83,39.11,39.11,0,0,0-4.18-3c-.83-.58-3.47-2.11-4-2.48s-2.32-2.64-3.39-3.26a31.74,31.74,0,0,0-4.83-1.69c-1.22-.38-3.46-.75-4.44-1s-2.95-.78-4.18-1a48.65,48.65,0,0,0-6.26,0c-1.31,0-7.57.52-7.57.52s-6.3.08-7.57.26-3.15.89-4.7.78a9.66,9.66,0,0,1-3.65-1.56,53.6,53.6,0,0,1-4.18-4.12c-.67-1-1.32-6.09-1.32-6.09l-.66-8.57.66-8.24.5-3.29v-7.42a19.83,19.83,0,0,0-.48-4c-.43-1.49-4.18-6.27-4.18-6.27a32.67,32.67,0,0,1-2.87-3.91,15.58,15.58,0,0,1-1-5,34,34,0,0,1,.78-5.22,33.65,33.65,0,0,1,1.19-5.11c.48-.87,4.76-3.43,5.6-4.61s2.31-5.77,2.31-5.77-.21-3.66-1-4.61a27.34,27.34,0,0,0-3.79-3l-3.79-1.32-9.06-5.77-6.59-4.78-8.07-6.59-4-2s-2.75-1-4.28-.5-1.77,1.47-3.3,2.31a11.32,11.32,0,0,1-4,1l-5.28.17-4,.66-6.26,1.81-5.44,2.64-4.78,2.47-4.94,2.8-4.45,3.3-5.27,2.8-3.17,1.62-3.39.52L855,723.8a12.88,12.88,0,0,0-3.65-2.61,31.83,31.83,0,0,0-3.65-1.3,7.71,7.71,0,0,1-3.38-2.22c-1-1.43-1-5.44-1-5.44l-.88-5.81a40.07,40.07,0,0,0-2-7.25c-1.17-2.65-5.6-7.91-5.6-7.91s-3.41-5.43-4.61-7.58-2.16-6.6-3.13-9.56-2.31-12-2.31-12-2.82-11.9-3.29-15-1-5.77-1-5.77l-3.63-25-2.8-11.2-1.32-3.46L811,597.84l-4-5.11-5.44-3.62s-4.33-1.65-5.93-3a26.92,26.92,0,0,1-3.82-4.84,23.79,23.79,0,0,1-2.61-4.18,8.25,8.25,0,0,1,0-3.91l3.13-6,2.35-3.91a76.81,76.81,0,0,0,4.7-7c1-2,1.57-6.78,1.57-6.78l1.3-7.83a24.25,24.25,0,0,0,2-4.66c.47-1.88-.54-6,0-7.09s4.68-4.53,4.68-4.53l16.31-3.29s3.42.1,5.27-1.32c1.32-1,2.35-4,2.83-5.66a2.64,2.64,0,0,0,2.38-.21c2-.88,8.62-.36,10.83,0s10.18,1.43,10.18,1.43h5.39c2.44,0,4.45.69,6.78,1,1.68.24,3.48-.15,5.18,0a37.87,37.87,0,0,1,5.39,1.35c3.06.71,7.06.27,10.27.17a14,14,0,0,0,5.89-1.17c1.83-.91,3.69-1.47,5.21-2.75,2.21-1.87,4-4.62,6.41-6.22,1.25-.83,2.92-1.22,3.73-2.47,2.73.08,4.54-3,6.54-4.37,2.33-1.62,4.95-2.41,6.88-4.75,1.18-1.44,1.85-3.72,3.11-5.23.69-.83,1.57-1.54,2.31-2.31,1.39-1.43,4.33-4.87,4.4-4.76a1.07,1.07,0,0,1,.63-.18c1.88-.24,3.41-2.06,5.07-3.15,1.5-1,3.42-1.77,5.05-2.76,2.28-1.37,1.35-1.1,3.85-3,.87-.67,2.8-1.75,3.66-2.58v-1.3c-.86.83-2.78,1.91-3.66,2.58-2.5,1.93-1.57,1.65-3.85,3-1.64,1-3.55,1.77-5.05,2.76-1.66,1.09-3.19,2.91-5.07,3.15a1.07,1.07,0,0,0-.63.18c-.07-.11-3,3.33-4.4,4.76-.74.77-1.62,1.48-2.31,2.31-1.26,1.51-1.93,3.79-3.11,5.23-1.93,2.33-4.55,3.13-6.88,4.75-2,1.39-3.81,4.45-6.54,4.37-.81,1.25-2.49,1.64-3.73,2.47-2.4,1.6-4.2,4.35-6.41,6.22-1.51,1.28-3.37,1.83-5.21,2.75a14,14,0,0,1-5.89,1.17c-3.21.1-7.21.54-10.27-.17a37.89,37.89,0,0,0-5.39-1.35c-1.7-.14-3.5.25-5.18,0-2.33-.33-4.33-1-6.78-1h-5.39s-8-1.07-10.18-1.43-8.82-.88-10.83,0a3.19,3.19,0,0,1-2.06.33l2-7.5a7.67,7.67,0,0,0,0-4.29c-.71-2-5.44-3.79-5.44-3.79l-7.08-1.15-10.54-4.45-9-7.73-12.78-7.83-7.77-5.07-3.72-3.38a25.58,25.58,0,0,1-4.73-3.38c-1.23-1.39-2.71-6.42-2.71-6.42l-.67-5.4a79.31,79.31,0,0,1,0-9.12c.33-2.41,3-7.77,3-7.77l3-8.11,2-6.08,4.39-7.09a45.07,45.07,0,0,1,3-6.08c1.18-1.63,7.43-4.73,7.43-4.73s2-1.08,2.71-4.73a11.59,11.59,0,0,0-1.35-7.1l-4.39-8.78-3.51-8.62-.2-.5-.43-.91L784.76,369l-1.41-3.39a85.21,85.21,0,0,0,12.87,1.64c7.91.33,15.63-2.71,23.66-3.11,2.45-.12,6.66.21,8.63-1.52.79-.69.85-2.79,1.57-3.81a30.93,30.93,0,0,1,3.13-2.75c2.06-2,3.82-4.62,6.08-6.64,3.14-2.8,6.6-5.55,9-6.25s13.64-5.91,16-6.39,15.89-.51,24-1.8c7.33-1.16,21.08-.22,24-1.8s5.68-10.12,8.89-11.91c2-1.13,5.65,0,7.41-1.36,2.08-1.56,2.68-5.3,5.78-5.64,5.3.8,3.77,1.78,9.39,1.77a22.19,22.19,0,0,1,6.33,1c3.87,1,8.5.7,12.53,1.67-.13,4.66,8.82,5.06,17.45,4,6.86-.84,13.52-2.59,15.24-3.86,2.35-1.33,3.35-2.27,4.9-2.86,1.74-.72,2.22-.24,2.86-.61,6.41,1.19,12.26,1.23,18.07-2.35,1.72-1.06,5.63-6,6.84-7.3s2.89-1.29,5-1.18a13.61,13.61,0,0,1,4,.41c4.11,1.47,3.05-.1,5.44,2.87,1.51,1.89,2.82,6.09,5.26,6.59.81.17,5.64-5.68,6.73-5.61,7,.45,7.52,2.52,10.65,8.7,1.32,2.6,5.37,6.14,7,8.27s4.17,2.55,6,4.37c3.66,3.67,3.41,7.89,9,12.58.57,2.11,2.82,4,3.68,6.13a47.51,47.51,0,0,0,3.37,5.72c2.47,3.57,2.55,2.25,4.39,6.84a31.86,31.86,0,0,1,2.32,8.72c.52,3.81,3.08,5.84,5.09,9.15v-.86c-2-3.31-4.57-5.34-5.09-9.15a31.86,31.86,0,0,0-2.32-8.72c-1.84-4.59-1.92-3.27-4.39-6.84a47.51,47.51,0,0,1-3.37-5.72c-.86-2.17-3.11-4-3.68-6.13-5.62-4.7-5.37-8.91-9-12.58-1.81-1.82-4.37-2.31-6-4.37s-5.73-5.67-7-8.27c-3.13-6.19-3.6-8.26-10.65-8.7-1.09-.07-5.92,5.78-6.73,5.61-2.43-.5-3.74-4.71-5.26-6.59-2.39-3-1.33-1.4-5.44-2.87a13.61,13.61,0,0,0-4-.41c-2.12-.11-3.75-.14-5,1.18s-5.11,6.24-6.84,7.3c-5.81,3.57-11.66,3.54-18.07,2.35-.63.38-1.12-.1-2.86.61-1.55.59-2.55,1.53-4.9,2.86-1.72,1.27-8.38,3-15.24,3.86-8.63,1.05-17.58.65-17.45-4-4-1-8.66-.64-12.53-1.67a22.19,22.19,0,0,0-6.33-1c-5.62,0-4.1-1-9.39-1.77-3.1.35-3.7,4.09-5.78,5.64-1.76,1.32-5.37.23-7.41,1.36-3.21,1.78-6,10.33-8.89,11.91s-16.69.64-24,1.8c-8.13,1.29-21.64,1.31-24,1.8s-13.66,5.69-16,6.39-5.82,3.45-9,6.25c-2.26,2-4,4.68-6.08,6.64a30.93,30.93,0,0,0-3.13,2.75c-.72,1-.78,3.11-1.57,3.81-2,1.73-6.18,1.4-8.63,1.52-8,.4-15.75,3.43-23.66,3.11A86.58,86.58,0,0,1,783,364.72l-1.58-3.79-4.73-15.21L775,338.29v-7.1l1.35-5.41a19.71,19.71,0,0,0,2.71-4.05c.72-1.75,1-3.48,1.37-4.55s1.56-2.51,2.09-3.92a16.09,16.09,0,0,0,.36-5.9c-.19-1.63-2.31-5.72-2.31-5.72L777.06,294l-3.3-6.59-1.48-8.09-2.08-6.26-1-5.22a18.12,18.12,0,0,0-1.31-4.18,11.82,11.82,0,0,0-2.35-2.61,39.72,39.72,0,0,0-4.18-5,16,16,0,0,0-5-2.87l-7.31-.26-4.18-.52L741,250.89l-5.22-4.7a49.54,49.54,0,0,1-6-5.22,9.61,9.61,0,0,1-2.09-5.68c-.08-1.87,2.09-6.85,2.09-6.85l4.79-8.51,3.57-7.41,3.53-5.5,2.31-4.12a7.26,7.26,0,0,0,1.65-4.12,6.73,6.73,0,0,0-.83-4.12L741,185.94l-3-3.79-3.29-2.64-4.7-4-5.22-2.87-5.07-1.5-6.16-3.58-6.46-4.44-4-3.78-1.89-4.44a13.1,13.1,0,0,1-1.76-4.44,8.72,8.72,0,0,1,1.17-4.18l4.11-2.94,7.24-4.37a17.83,17.83,0,0,0,2.76-5.36c.49-2.32,1-5.54,1-5.54l0-5.19,1.31-8.24,7.42-17.14,5.77-8.23,4.28-8.73V72.26l-.63-5.49L731.1,55.45,729.45,48l-.32-2V44.25l.65-3.13,1.15-2.3,9.23-11.7,2-3.79,1.15-3.79.17-3.13.33-3.79.17-1.16L743.78.26,741.68,0l-.21,9,.49,3.46-.16,4.61-.66,2.8-2,4.45L736,29.09l-5.27,6.26-1.48,2.31-1.49,2.8-.5,1.81-.16,4,.83,6.26.49,3,.33.66-.87,8.7,1.31,7.24v7l-2,4.7L723,90.06l-4.18,7.37-3.65,8.87-1.31,3.39-1.56,5.22-1,6v5s.18,4.39-.39,6.07a17.5,17.5,0,0,1-2.31,3.91l-10.22,5.27a3.74,3.74,0,0,0-2.47,1.81,12.18,12.18,0,0,0-1.32,4.12,8.15,8.15,0,0,0,0,3.13c.33,1.85,2.14,7.08,2.14,7.08l5.77,8.4,5.6,5.44,4.95,2.31,3.62,1.15,6.37,2.2,5,2.09,5.74,4.7,3.13,3.4,2.61,6a12.11,12.11,0,0,1,1,5.74,7.65,7.65,0,0,1-2.09,4.44L733.93,211l-5.63,11.39a22,22,0,0,1-3,5.27c-1.56,1.71-3.79,4-3.79,4a8.42,8.42,0,0,0-.66,4.28c.38,2,3.3,4.78,3.3,4.78l3.95,4.28,4,4,1.47,1.61a36.33,36.33,0,0,0-2.29,7l-.36,3.93a17.48,17.48,0,0,1-.28,2.74l-1,3.24a21.54,21.54,0,0,0-1.35,4.43,17.54,17.54,0,0,0-.11,3.1,21.3,21.3,0,0,1-.06,2.71,33.46,33.46,0,0,1-1.4,5.46c-.74,1-5.34,7.38-6,9.36l-.12.38a18.53,18.53,0,0,0-1.07,4.58,14.93,14.93,0,0,0,.07,3.4l.1,1,0,2.45a11,11,0,0,0,.16,2.82c.25.85,1.54,4.41,2,5.69-.69.32-8.42,3.9-9.25,5.33a38.75,38.75,0,0,0-2.68,6.92l-.61,1.56-.54,1.15-1.44,1.3-6.82,3.57-12.29,5.25-2,1.06-2.09,1.75-8,9.15-1.41.7-4.26,1-3,1.22-2.5,1.83-3.18,1.59-12.08,4.25L640,362.3l-1.85,1.11-1.61,1.43-4.29,5.61-1.75,1.6-2.88,2.19-.52.87-2.78,2.78-1.73,2.42-.65,1.31-.94,1.26L619.17,385l-2.7,1.75-4.13,2.81-7.27,6.1-3.27,1.87-5.63,1.13-2.23.68.25.82-.36-.78-2.26,1-5.37,4.86-2.26,2.42-2.63,1.39-2,.78-7.14,1.62-11.09,1-2.8,1-3.35.32h-3.14L540,416.31l-3.71,1.18-.07,0-2.8,1.15-2.67,1.24-1.28,1.45-2.25,2.94-.7,1.76-1.45,4.83-4.33,4.8-3.39,1.13-5.29,4.1L510.27,443l-2.75,5.49-.21,1.49.69,2.1.3,2.12c0,.16-.09.72-.12,1l-3.41,4.86-.92,2.55v4.46l-.41.51-2.29,1.8-4,4.51-1.52.56-.93.13-1.58-.29-3.26-1.4-.73-.58-7.23-4.88-2.47-.88-2-.36h-2.18l-1.94.58L472,467.91l-.26.38-.85,2.54-.35,2.31s.31,4.59.32,4.88l-.45,1.5-1.31,3.12-1.64,7.55L466,493.26l-1.66,1.66-2,1.41-5,2.68-2.86,3-2.67,2.22-2.52,4.09-3.45,5.43-1.52,2.65-4.53,4.76L436.07,525l-4.16,4.32-.61.83-1,3.61-.82,4.74-.89,1.78-.46.58-3.79,1.58-2.55,1.43-.65.11-1.58-.47h-1.66l-1.93,1.07-.8,1.8-2.37,8.3.35,2.59v5.22l-.49,4.86-.82,4-.32,3.36-.4.71-.48.16-3.21-.46-3-.79-2.57-1.13L398.31,572l-2.89-.18-15.13,4L374.55,578l-3.11,1.64-2.4.8-4.2,1.17-1.59,1-1,1.63-.22,1.3s.49,3.07.5,3.2v2.8L363,595l1.18,3.21,1.79,6.52s1.32,7.78,1.41,8.34l-.46.81L366,615l-2.37,1-3.53.67-2.88,1.8L355.09,621,351,628.12l-2.74,2-6.76,3-4.08,3.06-1.08,1.08-1.72,2.41-2.75,5.18-.9.77-1.19.4h-2l-4.1-1.27-1.92-.88-.62-.74L318,636l-.85-1.07-2.33-1.08-2.51-1-4.1-1.31-1.64-.89-2.18-2.18-2.74-1.1-1.72-.19-1.23.2-.11.06a20.59,20.59,0,0,1-4.21,1.57,2.81,2.81,0,0,1-.45,0,7,7,0,0,1-1.66-.28,8.3,8.3,0,0,0-2.09-.34,4.64,4.64,0,0,0-.67.05,7.51,7.51,0,0,0-4.29,2.4,21,21,0,0,0-2.84,5.09l-.19.47a34.4,34.4,0,0,0-1.68,4.82,30.67,30.67,0,0,1-2.55,6.52,44.49,44.49,0,0,1-3.8,4.83,8.15,8.15,0,0,1-2.56.3h-.52l-1.54.17-13,2.33-6.6,2.54-4.83,3.5-12,6.68-.93,1.64.41,2.25,1.52,2.87c0,.09,2.75,7.1,3,7.7l-.27.62-2.62,2-4.79,3.3L226,691.56l-1.05.4-1.75.15-10.15-1.77-1.8-.9-2.31-1.64-4.15-2.08-2.84-.35h-1.8l-5.42,1.31-3.08-.15-7.9-2.14-2.18-.18-1.8.39-.68-1.25,0-.07-2.59-3.12-3.3-2.31-.8-.93-.74-2.5v-1.33l1.13-2.44.19-2.29-.41-1.43-.83-1.25-3.8-2.48-2-2.78-.4-.8-.13-.91.35-3L165,654.5l-1.77-1.45-1.16-2.66-1.45-1-1.72-.58-3.87-.19-2.82,1.94-.69.34-.54-.09-1.54-1-.48-.65-1.27-.85-2.22-.34-.8-.34-.75-1.26-.12-.82.15-.6v-2.82l-1.06-1.7-1.08-.65-2.48-.83-4.14-2.31-1.43-.41-4,.69-4.89.47-1.39-.38-.3-.37v-2l-.83-1.65L121,631.74l-1.74-.58-2-.19-3.83.83h-7.82L99,631.64l-3.6-.48-2.91-1.08-1.28-1L90,627.47,89.05,625c0-.15-1-5.36-1-5.36l-.67-4-2-5.61c0-.11-.33-1.68-.33-1.68l-.76-1.72-1.25-1.24-1.31-.44H80.49l-2,.74-3.36,2-2.92,2.06-2.74,2.9-.72.31-3.26-.81-1.32.44-1.86,1.12-2.54,3.21-2,2-1.25.83-.93.12-2.46-.77-2.67-.58-1.32.66L46.61,621l-.93,1.12-1.61,2.57-.87.75-.43.07-.83-.52L41,623.12l-1.31-1.49-3.24-2-1.64-.83-2.49-2-3.83-1.56-2.94-.49-.88-.44-.94-2.82-.91-.92-2.44.19-1.89-.29-1.24-.69-1.52-1.52-3.35-4.52L9.83,602l-1-.87L5,595.05l-2-2L.82,591.87,0,593.38l2,1.1,1.66,1.65,3.81,6.13,1.3,1.11L11.17,605l3.24,4.38,1.78,1.78,1.72,1,2.4.37,1.85-.14.07.07,1,3.11,1.75.87,3,.5,3.42,1.4,2.44,2,1.73.87,2.95,1.87,1,1.14,1,2.1,1.8,1.12,1.55-.26,1.44-1.23,1.69-2.7.72-.86L50,620.72l.66-.33,2,.43,2.74.86,1.7-.21,1.73-1.14L61,618.08l2.41-3,1.43-.86.66-.22,3.34.84,1.58-.68,2.87-3L76,609.15l3.17-1.9,1.6-.58h.69l.66.22.73.73.55,1.25.32,1.62,2,5.59.65,3.88,1,5.53,1.06,2.82,1.46,2,1.69,1.31,3.34,1.23,3.89.51,6.68.17h8l3.75-.82,1.58.14,1.23.41.89.76.49,1v2.24l1,1.28,2.23.61,5.26-.51,3.66-.63.87.25,4.1,2.3,2.46.82.57.34.58.93v2.12c0,.15-.18.72-.18.72l.21,1.49,1.22,2,1.51.65,2.06.32.71.47.5.67,2.1,1.33,1.43.24,1.29-.65,2.45-1.68,3,.15,1.25.42.86.61,1.14,2.61,1.86,1.52.26.44-.31,2.62.2,1.4.58,1.17,2.28,3.15,3.77,2.46.49.73.25.87c0,.24-.12,1.43-.14,1.67l-1.17,2.51v2l.91,3.09,1.18,1.38,3.29,2.3,2.34,2.81.95,1.74.94.43,2.18-.47,1.78.15,7.92,2.15,3.51.17,5.46-1.32h1.49l2.44.3,3.76,1.88,2.31,1.64,2.15,1.08,10.61,1.86,2.21-.18,1.58-.6,3.54-3.2,4.73-3.26,3-2.3.72-1.68-3.27-8.45-1.44-2.73-.25-1.37.39-.67,11.7-6.5,4.74-3.42,6.24-2.4,12.77-2.29,1.37-.15h.61a6.75,6.75,0,0,0,3.46-.67l0,0,.08-.09a1.34,1.34,0,0,0,.3-.32h0a43.27,43.27,0,0,0,3.83-4.92,31.74,31.74,0,0,0,2.75-7.06,34.6,34.6,0,0,1,1.58-4.5l.19-.48a19.52,19.52,0,0,1,2.46-4.52,5.93,5.93,0,0,1,3.33-1.91,2.68,2.68,0,0,1,.41,0,6.81,6.81,0,0,1,1.66.29,8.34,8.34,0,0,0,2.08.34,4.45,4.45,0,0,0,.73-.06,20.84,20.84,0,0,0,4.57-1.67l.75-.13,1.25.14,2.19.88,2.1,2.11,2,1.08,4.2,1.34,2.42,1,1.91.89.46.58,3.14,7.1,1,1.23,2.37,1.09,4.46,1.38h2.58l1.77-.6,1.41-1.2,2.85-5.37,1.58-2.2.9-.89,3.82-2.87,6.75-3,3.19-2.31L356.5,622l1.84-2.14,2.38-1.49,3.4-.65,2.9-1.27,1.34-1.53.85-1.49-1.54-9-1.83-6.67-1.14-3.12-.47-3.14V588.6l-.48-3.06.11-.68.63-1,1-.65,4-1.12,2.57-.86,3.15-1.66,5.55-2.12,14.77-3.89,2.38.15,3.19,1.12,2.63,1.15,3.25.85,3.5.5.39,0,1.3-.43.91-1.6.35-3.64.81-4,.51-5v-5.42l-.32-2.35,2.24-7.84.52-1.16,1-.58h1l1.72.51,1.34-.22L425,544l4.11-1.71.85-1.07,1.09-2.17.84-4.9.93-3.22.36-.49,4.08-4.25,3.63-3.79,4.67-4.91,1.6-2.8,3.44-5.4L453,505.4l2.53-2.11,2.74-2.9,4.86-2.59,2.25-1.56,2-2,1.76-3.51,1.65-7.61,1.29-3.06.57-1.88s-.32-4.82-.33-5l.3-2,.73-2.18.84-.71,1.36-.41h1.77l1.67.3,2.14.76,7,4.72.86.69,3.66,1.57,2,.37,1.38-.2,2.1-.76,4.21-4.72,2.32-1.83.91-1.13v-4.77l.74-2.06,3.52-5,.2-1.65-.36-2.49-.62-1.86c0-.23.09-.64.11-.82l2.53-5.06,1.52-1.83,4.92-3.81,3.54-1.18,4.89-5.42,1.54-5.13.59-1.47,2.07-2.71,1-1.14,2.31-1.08,2.73-1.12,3.59-1.15,11.53-2.43h3l3.65-.34,2.8-1,11-1,7.37-1.67,2.24-.87,3-1.57,2.41-2.58,5.12-4.64,2-.91,2.09-.64,3.21-.64,2.6-.52,3.65-2.08,7.32-6.15,4-2.75,2.89-1.87,2.06-2.4,1.07-1.42.67-1.33,1.57-2.19,2.82-2.83.47-.77,2.67-2,1.92-1.75,4.28-5.6,1.36-1.21,1.45-.87,9.63-1.8,12.31-4.33,3.41-1.7,2.45-1.79,2.64-1.08,4.32-1,1.89-.95,8.14-9.3,1.86-1.55,1.74-.95,12.28-5.24,7.08-3.7,1.86-1.67.72-1.52.66-1.7a38.57,38.57,0,0,1,2.53-6.61c.3-.51,2.42-1.78,9.68-4.68.07,0,.1-.06.1-.08l4-3.31,7.31-2.66,2-2.23.91-2,.35-1.39.34-1.87,1.76-7.77L742,273.38l.5-4.41.67-5.56,0-.13-.59-3.08a11.79,11.79,0,0,0,1-2l5.05.16s4.09.14,5.28.39,4.5,3.33,4.5,3.33L762.7,267l2.5,6.75,2.4,7.73,2.55,9,2.74,6.07,2,6.46,1.76,4.7a5,5,0,0,1,.39,3.46,11.11,11.11,0,0,1-1.83,3.92l-4,6.77-1.64,3.3a48.86,48.86,0,0,0-1.65,6.26,75.74,75.74,0,0,0-.16,8.4l1.48,8.4,1,3.46,4,8.89,3.62,8.57,2.14,8.57L782,384a15.47,15.47,0,0,1,1.48,3.62,26,26,0,0,1,.25,5.09s-.29,3.64-1,4.73-3.85,4.35-3.85,4.35l-6.1,8.57-4.61,9.23-3.46,6.76s-2.91,4.7-3.79,6.76a71.91,71.91,0,0,0-2.18,7.25s-1,7.54-.62,10.37,3,11.53,3,11.53a40.86,40.86,0,0,0,3.13,5.93c1.12,1.37,6.09,4.61,6.09,4.61l5.44,4.45,8.4,4.61,12.1,9.17,8.79,5.41,5.41,3.72L819,501.7l5.28,2.16s2.68-.49,3.72.34a2.66,2.66,0,0,1,1,3.38c-.67,1.34-1.76,2.32-2.36,3.72s0,1.9-.67,3-3.38,2-3.38,2l-14.19,2.7L801,520.75s-3.54,1.83-4.73,4.05a9.86,9.86,0,0,0-1,4.73,22.5,22.5,0,0,1,1.86,4.52c.23,1.44-.59,3.22-.5,4.6s.71,2.49.75,4.48a23.23,23.23,0,0,1-1.15,5.6l-.49,6.09L794.53,557l-7.08,7.91L784,571.65l-.17,4.78a57.61,57.61,0,0,0,2.15,6.75,12.29,12.29,0,0,0,2.77,2.56l4.18,2.87a12.93,12.93,0,0,0,8.61,5.48l6,5.48,2,5.15,2.64,8.9a40.12,40.12,0,0,1,1.88,7.35c.2,2.6,1.09,10.15,1.09,10.15a30.19,30.19,0,0,0,.33,4.12c.32,2,1.68,4.2,2.3,6.75s2.81,19.68,2.81,19.68,1.73,11.6,2.35,14.09,4.44,11.74,4.44,11.74l4.44,8.09s4,6.13,4.7,7.83a48,48,0,0,1,1.56,5.48l.79,6.56a23.35,23.35,0,0,0,1.65,4.45c.7,1,4.61,3.62,4.61,3.62l4.45,2s6,4.1,7.74,4.29a6.55,6.55,0,0,0,3.63-.49c1.26-.45.81-.91,2.31-1.49l6.41-2.47,5.74-3.13,8.88-5.22,6-2.87,4.18-1.83a13.29,13.29,0,0,1,3.89-1.61c1.46-.15,2.63,1.15,3.63,1.4s4.61-1.15,4.61-1.15l3.53-1.51a9.6,9.6,0,0,1,2.35-1,10.91,10.91,0,0,1,2.35.26h2.09s3.44.32,5.22,1.57,4.44,5,4.44,5l7.83,6s5.88,3.93,6.78,4.44,5,1.57,6,2.09a3.39,3.39,0,0,1,1.31,3.39,6,6,0,0,1-1,2.61s-3.87,5-4.44,6-2.64,5.42-2.64,5.42a33.86,33.86,0,0,0-1.48,5.93,10.71,10.71,0,0,0,.17,3,52.54,52.54,0,0,0,2.8,7.58,5,5,0,0,0,.64.89c-2.53,3.87-7.46,9.7-11.21,11.44l-.66.31a48.24,48.24,0,0,1-4.76,2.1l-2.49.57c-3.38.77-10.42,2.38-11,2.45l-2.67.39c-1.41.22-3.53.55-3.87.55s-2.07-.71-3.51-1.25c-2-.74-4.08-1.52-5-1.74l-.86-.2c-4.89-1.14-15.08-3.51-21.89-.88-5.92,2.29-8.12,7.53-9.73,11.35a23.58,23.58,0,0,1-1.37,2.93,65.74,65.74,0,0,1-7.49,8.55,84.71,84.71,0,0,1-7.22,4.67c-.26.15-1.69.62-2.94,1a37.27,37.27,0,0,0-6.84,2.64,28.66,28.66,0,0,0-4.47,3.5c-.42.44-1.47,1.75-2.57,3.13s-2.34,2.93-2.76,3.35-1.08,1.33-2.17,2.8l-1.06,1.42c-.82,1.06-3.52,5.33-4.07,6.22a31.9,31.9,0,0,1-3.47,2.9,16.5,16.5,0,0,0-2.35,2,57,57,0,0,1-4.76,4.77l-1,.66c-2.45,1.62-5.13,3.43-6,4.46a24.28,24.28,0,0,1-2,2,30.13,30.13,0,0,0-3.75,3.82L797,850.46a53,53,0,0,1-3.36,4.36l-1.69,1.79-2.75,2.91-1.14,1c-1.65,1.34-3.91,3.17-4.57,6.5s1.1,6.33,2.27,8.24l.74,1.26a11.19,11.19,0,0,1,1.28,4.86c-.06,1.93-.07,2.18-2.28,3.31a12.92,12.92,0,0,1-5.28,1.09l-2.89.28c-1.15.18-6.42,1.2-13.2,2.86a36.12,36.12,0,0,0-4.73,1.66,24.49,24.49,0,0,1-6.6,2,26.08,26.08,0,0,1-10.27-1.42,13.66,13.66,0,0,1-3.44-1.58c-1.29-.8-2.17-1.26-5.23-1.36a16.09,16.09,0,0,0-9.47,2.42l-.58.32a15.26,15.26,0,0,0-2.23,1.51,15.36,15.36,0,0,1-3.52,2.15,18.92,18.92,0,0,0-5,3.59c-2,1.85-3.77,3.45-7.15,3.38a28.55,28.55,0,0,1-7.34-1.41,33.77,33.77,0,0,0-11.5-1.72c-3.91.18-15.59,1.58-17.93,5.51-1.92,3.25-1.12,6.28-.53,8.49.47,1.77.71,2.81.06,3.49-2.23,2.36-9.17,2.45-14.23,2.51l-1.78,0c-.95,0-2.7.18-4.93.39-5.93.56-15.85,1.5-19.9.36-14.2-4-31.25-5.94-34.52-6.28l-.18,1.71c3.25.34,20.16,2.26,34.23,6.23,4.36,1.23,14.09.31,20.53-.3,2.19-.2,3.91-.37,4.79-.39l1.77,0c5.67-.07,12.74-.15,15.47-3,1.33-1.41.85-3.21.35-5.11-.57-2.13-1.2-4.55.35-7.17s10.6-4.4,16.53-4.67a32,32,0,0,1,11,1.66,29.91,29.91,0,0,0,7.78,1.48c4.07.08,6.24-1.91,8.35-3.83a17.13,17.13,0,0,1,4.55-3.3,17,17,0,0,0,3.86-2.36,13.58,13.58,0,0,1,2-1.36l.59-.33a14.4,14.4,0,0,1,8.57-2.2c2.75.1,3.36.48,4.39,1.11a15.4,15.4,0,0,0,3.81,1.75,27.77,27.77,0,0,0,10.94,1.5,25.7,25.7,0,0,0,7.09-2.1,35.28,35.28,0,0,1,4.5-1.59c6.73-1.65,11.93-2.65,13.06-2.83l2.74-.26a14.43,14.43,0,0,0,5.95-1.27c2.88-1.47,3.15-2.38,3.22-4.79a12.85,12.85,0,0,0-1.47-5.69l-.81-1.39c-1.16-1.88-2.61-4.22-2.05-7s2.44-4.26,4-5.5l1.28-1.11,2.8-3,1.64-1.74a51.4,51.4,0,0,0,3.53-4.56l1.51-2.05a29.14,29.14,0,0,1,3.53-3.58,24.6,24.6,0,0,0,2.19-2.14c.76-.92,4-3.08,5.6-4.12l1-.68a54.35,54.35,0,0,0,5.15-5.15c.17-.19,1.19-1,2-1.62a21.57,21.57,0,0,0,3.89-3.37c.56-.92,3.23-5.11,4-6.06l1.08-1.44c.73-1,1.74-2.34,2-2.62.47-.48,1.64-1.94,2.87-3.48,1-1.29,2.1-2.63,2.47-3a27.47,27.47,0,0,1,4.19-3.26,41.35,41.35,0,0,1,6.41-2.43,25.37,25.37,0,0,0,3.28-1.19c1.13-.67,5-3,7.39-4.79a65.11,65.11,0,0,0,7.92-9,24.59,24.59,0,0,0,1.49-3.16c1.57-3.73,3.52-8.38,8.77-10.41,6.32-2.44,16.15-.15,20.88.95l.87.2c.86.2,3,1,4.83,1.67,2.91,1.08,3.7,1.36,4.11,1.36s1.83-.21,4.13-.57l2.57-.38c.53,0,4.53-.95,11.25-2.49l2.47-.56a37.73,37.73,0,0,0,5.14-2.23l.63-.3c4.18-1.94,9.2-8,11.76-11.8a15.69,15.69,0,0,0,1.72,1.2,16.58,16.58,0,0,1,2.14,2.8,21.22,21.22,0,0,1,.82,4.61l-1,7.32-.26,8.09s-.46,5.2-.52,6.26,1,7.31,1,7.31,1,5.4,1.31,6,1.3.9,2.07,1.75,2.64,4.13,3.13,4.45a9.89,9.89,0,0,0,3.3,1.32,46.89,46.89,0,0,0,5.27-.49s4,.15,5.11,0c.65-.09,2.66-.43,4.17-.68a26.61,26.61,0,0,1-.33,4.07,21.8,21.8,0,0,0-.29,5,37.19,37.19,0,0,1-1,6.63L970,831.1c-.5,2.94-6.58,9.79-7.33,10.4a8.38,8.38,0,0,0-1.43,1.88,14.16,14.16,0,0,1-1.29,1.81,11.51,11.51,0,0,1-2.88,1.73l-1.17.61a34.45,34.45,0,0,1-4.57,1.08l-.62.12c-1.22.25-12.49,1.57-13.38,1.52l-1.15-.15a26.88,26.88,0,0,0-3.45-.36l-2.37-.21a13.12,13.12,0,0,0-4.09-.07l-1.11.22a13.24,13.24,0,0,0-3.48,1,20.75,20.75,0,0,1-3.38,1.16l-.82.23-.79.19a7.42,7.42,0,0,0-2.49.89,5.81,5.81,0,0,1-1.52.61l-1.52.57-1.78.82-1.69.81-.38.23a12.34,12.34,0,0,0-1.94,1.32l-3.62,3-2.65,2.61a28.79,28.79,0,0,0-2.72,3.15l-.3.49a9,9,0,0,1-1,1.46,13.27,13.27,0,0,0-2.53,3.4l-.52,1-.92,1.84c-.25.58-1,2.11-1.13,2.36a8.41,8.41,0,0,0-1,2.24l-.08.21-.67,2.14-.61,2c-.36,1-1.19,3.12-1.51,3.77l-.52,1.35a17.79,17.79,0,0,1-1.21,2.87,23.52,23.52,0,0,1-2,2.56l-.72.9a20.19,20.19,0,0,0-1.44,4.58,18,18,0,0,0,.56,5.55,12.41,12.41,0,0,1,.45,3.38l.13,2.07a9.2,9.2,0,0,1-1.08,6.21,15.71,15.71,0,0,1-4.41,4.81c-1.19.8-3.94,3.16-4.48,3.62l-.7.59a26.59,26.59,0,0,0-2.52,2.28l-1.36,1.26-1.78,1.67a3.73,3.73,0,0,1-1,.75,6.86,6.86,0,0,0-2.27,2,4.51,4.51,0,0,0-1,3.31,8.73,8.73,0,0,1-.26,2.5,7.73,7.73,0,0,1-5.47,6l-2.49.76a41.05,41.05,0,0,0-6.15,2.09l-1.26.63a57.67,57.67,0,0,0-7,3.78l-.86.56c-3,2-5.59,3.66-7,7.37s-1.06,6.78-.71,10.46l.11,1.1,1.71-.16-.1-1.11c-.33-3.46-.62-6.46.6-9.69s3.35-4.59,6.32-6.53l.87-.57a56,56,0,0,1,6.78-3.66l1.46-.73a58.05,58.05,0,0,1,5.72-1.89l2.5-.76a9.45,9.45,0,0,0,6.63-7.21,10.29,10.29,0,0,0,.31-2.94,2.86,2.86,0,0,1,.68-2.25,5.18,5.18,0,0,1,1.77-1.59,5.32,5.32,0,0,0,1.39-1.07l3.15-2.94a25,25,0,0,1,2.34-2.11l.72-.61c1.46-1.25,3.46-2.92,4.32-3.5a17.46,17.46,0,0,0,4.94-5.39,10.85,10.85,0,0,0,1.3-7.2l-.12-2a14,14,0,0,0-.53-3.82,16.23,16.23,0,0,1-.48-4.88,21.52,21.52,0,0,1,1.17-3.8l.59-.72a24.43,24.43,0,0,0,2.12-2.78,19.12,19.12,0,0,0,1.36-3.18l.45-1.17c.38-.78,1.23-2.95,1.59-4l.64-2.05.62-2,.08-.21a17.7,17.7,0,0,1,.76-1.77,19.56,19.56,0,0,0,1.4-2.79l.86-1.72.52-1a11.5,11.5,0,0,1,2.12-2.88,8.45,8.45,0,0,0,1.36-1.87l.3-.47a25.13,25.13,0,0,1,2.49-2.85l2.56-2.53,3.57-3a11,11,0,0,1,1.7-1.16l.49-.3,1.41-.66,1.87-.86,1.23-.45a7.69,7.69,0,0,0,1.92-.79,5.75,5.75,0,0,1,2-.69l.95-.23.76-.22a22.63,22.63,0,0,0,3.64-1.25,11.7,11.7,0,0,1,3.08-.92l1.19-.24a4.69,4.69,0,0,1,1-.09,23.49,23.49,0,0,1,2.49.2l2.5.22a26,26,0,0,1,3.25.33l1.29.17h.13c1.7,0,12.8-1.37,13.72-1.55l.61-.12c3.38-.65,4.69-1,5.2-1.34l.95-.48a12.13,12.13,0,0,0,3.4-2.11,15.59,15.59,0,0,0,1.47-2,8.7,8.7,0,0,1,1.07-1.47c.65-.53,7.3-7.69,7.94-11.44l.34-1.7a34.23,34.23,0,0,0,1-7.13,20,20,0,0,1,.28-4.59,26.61,26.61,0,0,0,.34-4.6h.05l3.3-.33s3.51-.24,4.78-.17A18.49,18.49,0,0,1,988,815a6,6,0,0,1,1.81,2.47c.46,1.14,1.1,3.54,1.48,4.29s0,.65.82,1.15,3,.63,3.62.82,2.1-.35,3.13.17a4.32,4.32,0,0,1,2.31,3.62c-.1,1.56-1.89,3.22-2.57,4.46s-1,1.51-1.83,2.74-5.18,8.88-6.14,10.26-1.29.82-2.34,2.26a10.12,10.12,0,0,0-1.3,4s-.45,3.59.65,5.35a6.67,6.67,0,0,0,.8,1l0,.43c-.24,2.29-.5,4.66.75,6.28,1.48,1.92,5.2,3.62,7.88,3a3.91,3.91,0,0,0,.28.4c.89,1,4.33,2,4.33,2l3.72,1.51s4.83,2.27,5.84,2.62,4.74,4.17,6.44,4.13a18.37,18.37,0,0,1,4.73,1l2.82,1.81a6.57,6.57,0,0,1,2.52,1.45c.63.84,3,3.25,3.62,4.3s4.4,3.09,5.43,4.53,2.72,7.7,2.72,7.7l.45,3.17.23,5.89-.91,7.93-.86,8.38-.72,3.17-1.36,4.53-2.49,7.93-2.35,10.24-1.32,5.44L1023,976.62,1020.74,989l-.17,2.64a8.24,8.24,0,0,0,.83,2.31,3.9,3.9,0,0,0,2.31,1.81c1.12.46,5.27.49,5.27.49l8,2.64,2.35,1.31s1.1.9,1,1.83a6.49,6.49,0,0,1-1,2.35l-.78,3.39-.78,2.87-1,2.61-1.3,4.17-1.94,6-4.78,6.75-4.28,4.78-2.8,2.14-2.91,1.45a7.93,7.93,0,0,1-3.13,1.83c-1.84.52-1.62,0-2.87-.26s-2,.21-2.77-.2-1.82-1.45-2.44-1.88-6.94-1.08-8.35-.78-6.52,3.39-6.52,3.39l-4.7,4.44a17.5,17.5,0,0,0-2.87,2.87,46.18,46.18,0,0,0-2.61,8.35c-.08,1.42,1.57,6.26,1.57,6.26l2.87,6.27,1.15,2.66c-.88,7-8.22,12.26-15.09,12.26s-13.85-.47-20.13-2.84c-2.28-.86-3.83-2.15-6.26-2.26-1.71-.08-3.55.67-6,1.77-3.23.08-6.47,2.51-9.71,1.8-.95-.21-2.08-1.08-3.15-1.35s-1.39.1-2.16-.44c-1.57-1.12-1.27-3.53-1.27-5.23l-.11-15.65c0-2.15.56-9.76-1.28-11.34-1.4-1.21-1.46-2.1-1.93-3.91-.4-1.55.84-1.34-.11-4.06-1.23-3.51-2.44-9.1-3.77-10.66-3-3.48-7,1.39-10.66,3.28a66.23,66.23,0,0,1-7.82,3.55,44.78,44.78,0,0,0-10,5.17c-3.66,2.43-6.88,5.06-11.3,5.1s-8.37,1.78-12.89,1.78c-5.26,0-7,3.07-10.65,6v1.45c3.6-2.93,5.39-6,10.65-6,4.52,0,8.37-1.74,12.89-1.78s7.64-2.67,11.3-5.1a44.78,44.78,0,0,1,10-5.17,66.23,66.23,0,0,0,7.82-3.55c3.65-1.89,7.25-6.79,10.23-3.31,1.33,1.56,2.48,7.25,3.63,10.79.3.92-1,1.26-.55,2.81a8,8,0,0,0,2.62,4.59c1.4,1.1,1,8,1,10.16l.2,17.2c0,1.71.48,4.22,2.05,5.34.76.54,1.19.19,2.16.44s2.2,1.14,3.15,1.35c3.24.7,6.48-1.73,9.71-1.8,2.47-1.1,4.31-1.84,6-1.77,2.43.11,4,1.4,6.26,2.26,6.28,2.37,13.36,2.84,20.13,2.84s14.61-5.55,15.66-12.4l1.67,3.85,5.74,10.7,5,5.48,6.26,4.17,5.22,2.09,6.52,1.56s6.21.78,7.83.79a11.87,11.87,0,0,0,3.92-1l6.26-2.87,4.18-1.56a16.78,16.78,0,0,1,3.65-1.31c.88,0,3.39,2.35,3.39,2.35s2,4.25,2.44,5.81a30,30,0,0,1,.43,5.41l-.12,3-1.65,5.6a36.92,36.92,0,0,1-2.41,3.91c-.72.82-4.44,2.61-4.44,2.61l-5.48,3.13s-2.73,3.36-4.7,3.91a34.56,34.56,0,0,0-5,2.09l-7.31,5.74-11.22,9.4-9.14,8.09-6.79,6.78-6.52,7-4.18,4.17-4.7,5.74s-4.62,5.4-5.48,6-4.37,2.87-5.22,3.65a37.83,37.83,0,0,0-2.87,3.65,12.42,12.42,0,0,0-2.61,3.92,14,14,0,0,0-.26,4.44v5.22l-.78,3.39-4.7,13a23.54,23.54,0,0,1-1,4.17,29.3,29.3,0,0,1-2.35,3.14,19.5,19.5,0,0,1-3.13,2.09c-1,.42-1.1.16-2.35.26s-6.06,2.79-6.95,3-3.21-.39-4.53.92-2.55,6.22-3.39,7a17.84,17.84,0,0,1-5.48,2.87,13,13,0,0,1-4.7,0,13.65,13.65,0,0,1-3.39-2.08l-6-2.61-7.57-2.09-15.34-2.39-3.73-.28a17.3,17.3,0,0,0-3.81-.66,24.49,24.49,0,0,0-4.48.33l-10.62.06-3.21-3.78,0,0-3.25-2.91-2-1.1-7.18-1.2-5,.57v0l-1.14-.08s-6.3-1.58-7.74-1.15a28.89,28.89,0,0,1-4.29.66h-3.46l-3-.17h-3l-1.15.33-2.31,1.15-3.3,2.14-2,2-1.8,2.51-2.66,2.52-4.9,3.92-2.5,3.07-2,2.95L799.1,1252l-1.68,4.06-.9,3.6-4.08-2c-.9-.4-2.48-.9-4.15-1.42s-3.39-1.06-4.61-1.56l-5.84-2.5a12.36,12.36,0,0,1-1.75-1.17c-2.22-1.65-5.44-4-10.3-4a15.21,15.21,0,0,0-2,.13h-.11a32.23,32.23,0,0,1-4.19.7,4.14,4.14,0,0,1-.48,0,2.34,2.34,0,0,1-2-.78l-.09-.14-.15-.11-5.6-3.79-7.86-6.22-5.61-3.74-3-.87-3.13-.52L728,1232l-3.12-.16-1.28-.43-1.71-1-1.74-2.86-2.42-2.58-4.45-3.42-18.86-6.95-6.17-3.17-3.17-.53H684l-5.42-1.75-7-3.41-3.29-2.3-6.38-3.2-4.47-1.38h-1.65l-1,.52L653,1202l-.87.87-.57,1.18-1.86,1-3.64.31-2.36-.56-4.06-1-1.44.42-4.18,2-4.3,1.59-3.61.65-4.38,1.46H617.6v.86l-.35-.79-4,1.78-2.93.61-2-.15-3.47-.83-3.77-.18-7.87.84-2.86.72-4,3.06h-1.9l-3.58-1-4.93-.51-3.71.34-6.89,1.17-2.38.85-3,1.22-4,3.44L554.8,1223l-3.61,5.41-4.28,4.11-1.86,2.71-.92,1.64-.61,2.13-.95.71-1,.24-1.18-.26-.84-.42-5.14-3.48-1.84-.74-1.77-.18-1.54-.22-1.18,1.19-1.59,2.37-4.88,2.83-4.55,1.79-2.08.64-6.89,2.63-15.3,2.44-2.12-.15-3.87-1.08-2.94-2.28-2.41-.93h-1.32l-1.89.18-2.44,1.23-4.44,2.79-1.47.49-3.64,2.14-7.38,2.63-2.77,1.38-3.28,2.63-1.32.59-4.27,1.15-3.68,1.5-5.09,2.63-2.47.62-2.07.16-7.33-.17-7.76.67-5.75,1.69-3.92,1.87-3.3,2.31-2.16,1.08-1.13.25-1-.36-1.29-1-2.81-1.22-1.65-.37h-1.71l-5.5,1.66-4.77.66-2.77.81-2.54.16-1.93.15-10.59-4.72-2.39-.52-.72.17-.93.74-1.78,2.68-.56,1.68-.5,4.21-.47,3.47-2.14,4.29-.36,2.69.15,3-1.45,3.23-.5,4.3-1.15,2.79-1.44,10.9-2.49,1.47-1.59,1.27-8.27,3.08-6.8,3-2.78.92-3.42.16-5.4-.82-5.32-.17-6.11.33-2.06-.17-1.58.4-3.12,1.91-3.61,2.92-2.71,4.07-2.43,3.07-.13.22-.91,2.36.21,1.22.36,1.82,1.27,2.17,4.42,5.08.88,1.92c0,.22.29,2,.31,2.12v3.07l-.16,3-.64,2.39-1.1,3-1.87,3.12-1.72,1.56-.08.08-1.93,2.25-3.66,3-2.31,3.38-.39,1.94.19,2.08.89,1.95.61,1.24,2.09,1.28.12.35-.17.34-1.21,2.06s-1,5.23-1,5.46l-.87,1.74-4.08,4.08-8.9,13-1.61,1.75-.77.22-2-.15-3.89-1.46-2.36-.55-4.68.72-2.09,1.7-1.75,2.45-.64,1.28-3,3.49-1.62,1.34-7.52,2.45-2.56,1.53-4,2.66-3.41,1.95-6.35,3.17-1.81,1.81-1.26,2-.74,2.21V1440l.5,1.32v.78l1.15,4.28v3.08l-1,4-.5,2-.51,4.44.34,3.39.11.35,1.2,2.05,2.61,2.95c.09.17.91,1.81,1,2.05s.13,1.42.15,1.56l-.17,1.48s.47,5.83.49,6.06l-.78,3.91-1.94,4.53-1.37,2.74-.19,2.07.52,4.31,1.13,3.08v2.94l-1.55,3.11-.5,1.33-5.39,8.93.21,1.46.86,4.13,1.91,3.65,1.88,2.21,4.46,4.31c0,.29.09.67.11.78s-.49,9-.49,9-1.08,7.27-1.13,7.53l-.57,1.14-1.49,2.15-2.13,4.42-2.4,2.88-7.58,9.23-4.12,4.12-.77.39-6.84,1.59-5.5-.67-1.63.61-1.5,1.13-.73.91-1.25,1.24-3.36,3.52-1.24,1.77-2.53,5.9-1,3.58-1.5,13.58s-.16,3.15-.16,3.28l-.95,4.57-3.93,6.71-.89,2.67s-.16,3.44-.16,3.64L172.1,1632l-2.72,6.24-5.25,5.75-4.78,8.91c-7.22,7.73-11,15.85-12.67,27.15-.85,5.83.52,10.15,1.86,14.31a54.63,54.63,0,0,1,1.61,5.76c1.21,5.83.91,12.85.61,20.29-.4,9.81-.82,19.95,2.44,27.43l1.58-.69c-3.1-7.12-2.69-17.06-2.3-26.68.31-7.55.61-14.68-.64-20.71a56.25,56.25,0,0,0-1.66-5.93c-1.33-4.16-2.59-8.1-1.79-13.54,1.61-11,5.3-18.84,12.31-26.32l.08-.08,4.78-8.9,5.29-5.8,2.88-6.6,1.2-4.11s.15-3.38.16-3.6.71-2.12.76-2.28l4-6.8,1-5,.17-3.36s1.46-13.25,1.47-13.39l1-3.33,2.42-5.64,1.06-1.52,3.25-3.42,1.3-1.3.66-.82,1.13-.85,1-.38,5.38.65,7.33-1.7,1.21-.6,4.38-4.38,7.63-9.29,2.54-3,2.16-4.49,1.48-2.13.75-1.5,1.17-7.88.51-9.22-.22-1.53-4.83-4.66-1.69-2-1.71-3.27-.8-3.84-.11-.8,5.15-8.53.52-1.39,1.7-3.4v-3.65l-1.17-3.18c0-.19-.45-3.76-.47-3.93s.12-1.31.14-1.56l1.24-2.49,2-4.74.86-4.32v-.12s-.47-5.85-.48-6,.17-1.49.17-1.49l-.19-2.06-1.28-2.55-2.65-3-1-1.74-.3-3c0-.17.47-4,.48-4.14l.48-1.92,1-4.23v-3.51s-1.1-4.07-1.16-4.28V1441l-.49-1.32v-.86l.58-1.74,1.05-1.65,1.47-1.48,6.14-3.07,3.5-2,4-2.67,2.35-1.41,7.64-2.49,2-1.63,3.25-3.77.68-1.35,1.54-2.16,1.55-1.26,3.89-.6,1.93.45,4,1.51,2.58.18,1.52-.44,2-2.2,8.88-13,4.16-4.16,1.11-2.21s.93-5.12,1-5.41l1.08-1.85.51-1-.54-1.62-2.2-1.35-.38-.77-.75-1.66c0-.22-.13-1.34-.14-1.54s.22-1.1.27-1.35l2-2.89,3.59-2.94,2-2.32,1.87-1.69,2.09-3.48,1.18-3.21.7-2.64.17-3.22v-3.24l-.36-2.49-1.09-2.37-4.48-5.14-1-1.78-.3-1.51-.12-.73.69-1.8,2.4-3,2.6-3.9,3.31-2.68,2.8-1.71,1.05-.26,1.9.15,6.15-.33,5.15.17,5.47.83,3.83-.17,3.08-1,6.82-3,8.49-3.16,1.71-1.36,2.75-1.62.41-.63,1.47-11.09,1.16-2.81.49-4.27,1.51-3.36-.17-3.26c0-.14.26-2,.3-2.25l2.14-4.28.51-3.76s.46-3.88.48-4,.37-1.11.43-1.29l1.51-2.27.4-.32,1.82.39,10.83,4.83,2.36-.18,2.72-.17,2.83-.83,4.78-.66,5.38-1.63h1.26l1.31.29,2.47,1.08,1.33,1,1.68.63,1.83-.41,2.46-1.23,3.29-2.3,3.66-1.75,5.45-1.6,7.49-.65,7.32.17,2.3-.17,2.7-.67.19-.07,5.11-2.64,3.51-1.43,4.29-1.15,1.64-.73,3.31-2.65,2.51-1.25,7.44-2.65,3.62-2.13,1.49-.5,4.54-2.86,2.09-1,1.49-.14h.91l1.88.72,3,2.33,4.36,1.22,2.49.18,15.67-2.5,7-2.67,2.09-.64,4.74-1.86,5.34-3.1,1.71-2.56.46-.46.73.1,1.56.15,1.44.58,5.08,3.44,1.13.57,1.79.4,1.68-.42L545,1240l.71-2.49.78-1.39,1.72-2.5,4.29-4.12,3.68-5.52,1.06-1.36,3.62-3.15,2.67-1.1,2.2-.79,6.68-1.13,3.48-.32,4.63.48,3.67,1h2.71l4.21-3.2,2.41-.6,7.62-.81,3.48.16,3.45.82,2.33.17,3.34-.7,4-1.77H622l4.52-1.51,3.64-.66,4.52-1.68,4.12-2,.87-.25,3.62.87,2.63.62,4.27-.36,2.67-1.41.69-1.43.78-.78,1.57-2.35.27-.14h1l4.09,1.26,6.15,3.07,3.3,2.3,7.2,3.52,5.79,1.88h1.22l2.77.46,6,3.09,18.71,6.89,4.12,3.17,2.2,2.36,1.88,3.07,2.25,1.32,1.68.56,3.47.18,3.57-.33,2.81.46,2.63.77,5.33,3.55,7.85,6.22,5.55,3.76a3.74,3.74,0,0,0,2.35,1.31l6,4.59,4.2,6,3.69,4.69,1.73,1.72,3.42,2.57,2.73,1.19,4.7,1.51,3.27.69,4.84.4-.43,2.56-1.54,4.62-1,6-.28,2.66.56,3.78,1.26,3.22,2.1,2.8,2.66,1.54,5.75,2.3,2.23,3.16,2,4.9,1.26,3.36v7l.49,3.3.92,4.24,1,4.34.84,3.5.7,9.24,1.67,11.63.66,5.44,2.16,8.7.42,5.18,2.2,9.68,1.53,2.92,3.71,4.23,1.15,1.65.49,1.65-.52,1.19a1.67,1.67,0,0,1-1.13,1.28c-.95.25-1.85-.36-2.8-.16a1,1,0,0,0-.82,1.15l-1,6.1-.69,1.72-2.68,2.73-1.37,1.76-1.56.49-2.55,1.76-2.05,2.74-.78,2.84-2,2.94s-5.63,6.2-6.31,7.25a10.36,10.36,0,0,0-1.2,3.48,20.34,20.34,0,0,0-.11,4.42l-.36,13.14a15.86,15.86,0,0,1-.64,3.67c-.51,1.34-.84.9-1.6,2.4s-1,3.61-1.52,4.69-3,4.94-3,4.94L787.9,1472a14.77,14.77,0,0,0-1.32,4c-.05,1.34.63,2.88.66,4s-1.48,5.11-1.48,5.11l-1.32,8.07v.82c-.17.9-3,4.56-3,4.56a10.29,10.29,0,0,0-.19,2.84,5,5,0,0,0,.73,2.64l1.48,4.12s1.57,5.64,2.14,7.44a87.46,87.46,0,0,0,4.16,8.14l3.51,5.59,3,4.47,2.55,2.71,2.23,3,2.88,3.35,4.15,4.47,2.23,1.44,2.77,2.36,4.94,6.76,2.8,4.45,1.65,2.47.82.82,8.9,6.92,1.65,1.82,3.79,3.46,3,3.79,2.14,3.3,2.64,5.27,1.16,4.12.33,2.31,1.15,2,.81,3.53,1.59,5.46.82,8.4-.52,2.62-.57,2.65-2.3,6.67-.49,3.79.16,2.8,2,6.26,4.12,12,.66,7.41v8.9l-.82,5.28-.16,4.28,1.32,3.63,3.63,5.76,2.63,2.63,4,6.26,3.13,7.81.95,5.68v3.6l-1.52,5.3-6,10.72-1.32,2.31a7.9,7.9,0,0,0-.49,3.46,3.86,3.86,0,0,0,1.48,2.8l2.14,1.32,4.45,1.8,4,1,4.45,2.64,4.45,2.31,7.55,4.22,1.89,2.08.38,2.09.23,3.8-1,2.3-1.65,3.62-1.15,1.49-1.32,1.48-2.31,1.81-1,.33-1.65-.33-3-1.15-3.79-1.81-2.31-.5-1.32.17-1.32.82-.83,1.15-.33,1.65-.66,4.61-1.15,2-2.8,2.47-4.94,6.43-.82.5h-1l-4.78-1.65-.66.16-1.32,1.32-.82,1.65-1,3.13-1,1.31-3.13,1-1.32,1-1.32.33h-1.81l-1.64-.16h-1.32l-2.14.66-1.32,1.49-1,1.81-2.63,7.41-.33,1-.17,2.48.49,1.15,2,2,5.27,3.62,7.25,4,1.32,1.32.33,1.65-.66,1.32-.33.5-4.45,2.31-2.47,1-2,.66-1.65,1.15-.33.83-.66,1.81.16,2,.17.66,1.65,2.47,1.32,1.16,1.32,1,3.46,1,.66.66.33,1.32-.49.82-4.94,4.61-2.14,3.46-1.65,7.74.5,4.29,2.47,5.6,1.81,2.63,2.31,2.47.16.83v1.15l-1.15,1.65L835,1883l-1.49,2-.66,1.82-1.15,7.41-.33.82-1.65,1.82-1.15,1.65-.33,1.32-.16.82.82.66,2,2.31,1.65.82,1.81.66,3.63,1.65,1.65,1.32.66,1.32,3,5.6,1.65,1.48,4.78,3.79,1.65.66h3.13l1,.16,1,.66.83,1.48.82,2.8v1.15l-.5,1.65-1.32,6.26-1,3-.33,3.13.33,1.48,4.78,7.58,1.76.3.55,0v-1.32l-.83-1.15-2.47-4.45-1.16-2.31-.33-1.64.33-2.14,1.82-6.26.66-5.11v-1.49l-1.81-3.79-1.16-1.15-1-.66-2.63-.49-2-.49-3-1.49-2-1.15-1.32-1.65-.82-2.47-1.81-3.13-1.65-1.65-5.44-3.46-2.15-1-1.15-.66L831.4,1900l.16-1.32,2.14-4.45.82-5.93,2-4.45,1.32-1.81,4-4,.5-1v-1.15l-.33-1-2.31-3.3-1.81-2-.83-1.16-1.15-2.64-.49-2.31-.16-3.62.66-4.94,1.15-3.79,1.81-2.14,4.28-3.63,1.65-2.14.16-1-.49-1.15-1.48-1.15-4.78-2.14-1.82-1.32-1.32-3-.17-1,.82-1.48,1-1,1.15-.49,3.3-.17,1.65-.83,2.3-1.48,1.82-1.81.66-1.16.17-1.15-.5-1.15-1-1.82-2.8-2.47-3.29-1.81-3.79-1.81-4.45-2.8-.82-1.65-.17-1.48.17-2,1.15-2.8,2.14-3,1-2.31.66-.65,1-.5,4,.66,1.32-.33,1.65-1.15,2.8-1.32,2.14-1.48,1.32-1.65,1.48-2.8,1-.66.82.16,2.64,1.15h1.48l1.65-1,3.13-3.29,2.47-4.61,2.3-1.65,1.15-1.48,1-3,.16-2.64.66-1.65.82-.66,4,2,4.94,1.48,1.32.34H883l1.32-.66,4.78-4.45,2.31-4.45,1-5.93v-3.62l-.49-1.48-1.32-2.14-11-6.89-8.14-3.79-6.06-2.08a3.16,3.16,0,0,1-2.08-.76,4,4,0,0,1-.57-3.41c.29-1.36,6.62-11.91,6.62-11.91l1.64-4.29a29.33,29.33,0,0,0,1.58-5.77,17.38,17.38,0,0,0-.92-4.77l-.78-4.13-1.89-4.54-6.22-9.11-5.77-7.25-1.48-4.12v-2.64l1.16-4.72.94-6.25-.76-7.57-1.14-6.44-1.89-7.2-1.71-4.92-1.89-5.49.76-3.6,1.39-4.56.83-1.81.33-3.3.17-5.93-.33-3.13-2.31-9.06-2-5.6-.66-3.46-1-3.63-1.65-4-6.59-8.57-2.64-3-4-3.13-2.09-2-6.38-5.74-2.55-4-1.45-3.22-2.46-3.6-4.55-5.11-5.68-4.17-2.08-2.65-2.08-3-2.84-2.65-2.46-2.65-2.09-2.87-3-4.71-3.41-7.58-4.61-10.78-.69-4,0-2.11,1.48-4.61.17-1,1.49-3.75.88-4.5s1.16-2.89,1.37-3.81-.09-2,.1-2.93a35.57,35.57,0,0,1,1.6-3.92l2.55-6.86s1.42-2.35,2.08-3.35a19.8,19.8,0,0,0,1.41-3.27s2.08-4,2.86-5.82.17-14.33.17-14.33l.51-2.91.16-2.4a15.41,15.41,0,0,1,.11-2.61,14.76,14.76,0,0,1,1.49-2.81,37.71,37.71,0,0,1,3-2.47l4.4-6a6.67,6.67,0,0,0,2.68-.65,11.3,11.3,0,0,0,2.8-2.52l1.27-2.35a23.52,23.52,0,0,1,.21-2.78c.15-.52,4.88-3.38,4.88-3.38l2.94-3.61a15.88,15.88,0,0,0,1.86-3.23,21.23,21.23,0,0,0,.22-3l-.33-3.62-.33-1.65-.49-1.48-1.32-1.65-2-1.32-1.09-2.14-.43-2.51-2.23-9.92-.29-2.41-.86-3.36-1.66-7.84-1.14-9.95-.66-6.93v-1.81l-.5-6.26L813,1335l-1.82-6.09-.86-4.18-.14-2.24-.64-5.61s.17-2.92.16-4.45a2.66,2.66,0,0,0-.83-2.14l-1.48-2.8-1.8-4.23a9.41,9.41,0,0,0-2.7-3.87c-1.78-1.32-5.24-1.41-6.21-1.95a5.11,5.11,0,0,1-1.63-2.25l-1.4-3.08-1.12-2.38v-1.82l.69-6.12,2.47-8.07.82-4.12,3.3-10.21,1-4.78,2.8-5.34,1-2.1,1.82-2.38,5.44-4.34,1.16-1,5-5.73a3.75,3.75,0,0,1,1-1.54,4.07,4.07,0,0,1,2.1-1l2.66-.56,4.06-.56,2.8.42.2,0,2.21,1.17,7.29,3.48,6.89,3,4,.52,1.36-.17,3.57.07a26.21,26.21,0,0,0,4.25,1.31c1.33.16,9.14,0,9.14,0l4.54-.13,9.66.2,7.1.72,12.74,2.06,4.94,1.81,5.6,2.14,5.93,3.13,2.47.5,3.62-.5,3.79-1,3.79-2.63,2.05-1.93h0l7.81-.5,4.08-.85,2.21-.85,2.78-1.22s2.61-2.09,2.83-2.3a6.24,6.24,0,0,0,.78-1.17,9.33,9.33,0,0,0,.74-1.85s.19-1.64.17-2.28a9.67,9.67,0,0,0-.18-1.39l-.55-1.83,2.65-5.59,3.79-10.38,1.15-4s.61-5.33.66-6.26a12.35,12.35,0,0,0-.49-2.8,17.58,17.58,0,0,1,.66-4c.48-1.11,5.6-6.26,5.6-6.26l3.79-2.3,6.59-6.26,7.91-10.38,19.94-19.11,11.37-9.23,10.21-6.09a17.94,17.94,0,0,1,2.91-1l-.13,4.82,1.24,2.65,1.37,2.56,2.11,2.92.92,2.45c0,.15.42,2.54.46,2.76s-.76,5.92-.79,6.17l-1,2.17-1.66,1.36-2.23,1.75-10.25,5.45-2.46,2.29-1.75,2.63-.74,1.83-.35,2.8v3.25l.35,2.3,1.14,2.94c0,.19.11,1.24.14,1.51l-.41,1.24-2.17,3.83-.39,1.95.37,2,.72,2.14,2.31,3.47.59,1.61c0,.19.13,1.45.15,1.61s-.28,2.1-.3,2.28l-.42,1.11-2.4,3.2-2.81,3.31-1.1,1.82-.54,2.37V1227l1.48,11.8-.63,4.38-.59,1.33-.93,1.54-2.33,2.83-.65,1.3.38,3.39,1.44,2.7,1.22,1.4,2.7,2.53.85,1,1.35,2.69v1.61s-.31,3.33-.32,3.47l-1.84,6.83.19,2.08.57,1.53,1.32,1.89,1.8,1.08,1.84,1,2.6,1.84,1.23,1.7,1,1.2,3.57,5.2,2.33,3.82,3.28,3.61,1.1,2,2.1,3.16,2.26,1.73,2.07,1.75L1044,1311l3.91,6.2,3.38,4.73,1.8,1.63,1.93,1h2.06l2.4,1.81,1.31.93,2.38.55,2.79.17,5-.6.82,1,4.7,1.49,1.23,1.23.49,4,1,.74h1.49l.09-.17.34.54,2,1.45.67.89,2,.74,3.46.24,1.73-1,0,0,2.17-.85.39-.14,1.56,1,3,.89,11.39.33,1.23.31,2.23.79.74.19,2.71.85H1118l2.68.74,3.72,3.1,1,1.51,1.93,1.35,4.83,1,1.87,1,2.16,2.78.47.78,2,3,5.32,6.65,1.84,1.84,1.07.43,2,.37,2.2-.36,1.52-.56,1.71.92,1.78,1.62,1.53,3.21c0,.16.21,1.08.27,1.36l-.24,1-.94,1.21-2,1.17-.88,1.32-.22,1.74.45,1.12,1,1.41,2.26,1.13.91.23,1.26-.18h2.35l2-.49h.82l.41-.1.85.53,2.58,3.79.13,1.34c0,.15-.13,1.15-.14,1.3l-.3.9-.55,2.19.19,1.7.42,1.7,1.88,1.25,1.66.46.77,1,1.12,2.09.66,1.6-.93,2.79v1.86l1.51,2.45,3,2.78,2.46,1.4,3.2,1.18,2.09,1,1,1,5,7.41.17.52-.42.73-3,3.14-.64,1.29v1.53l1.09,2.55,2.49,3.65,2.18,4.19,2,2,1.58.79,4.85.5,1.47.45.91.51,1.86,2.65,1.31,2.29,5.48,6.81,6.4,6.58,1.26,2.21,2.73,5.31,1.64,7.07,2,4.14,1.3,4.39,1.45,5.81c0,.17.33,6.91.33,6.91l.36,1.64.86,1.9.94,2.68.46,2.15c0,.21-.16,3.35-.16,3.35l-.65,4-.35,4.28.19,1.32,1.17,3.85,2.67,9.36,1.24,1.71v4.07l.68,4.1,3,8.25c0,.13.74,3.86.79,4.09s-.09,1-.13,1.28l-.25.34-2.09,1.28-1.06,1.06-2.5,2.32-.24,1.45,1.22,4.69.87,2.1,8.77,14.06,3.85,7.55c0,.25.49,3.23.49,3.23l.92,2.76,2,1.84,6.54,4.36,3.57,1.62,2.51,2.19,3.26,3.59,4.21,4.53,2.24,1.38,1.15.58,7.21,1.64,1.08.67.67.8,1.16,2.32,1.32,1.49,2.84,5.37.12,1-.65,2.27.17,4.81.67,3.85.16,2.49,1,3.23,1.46,3.42.82,7.72.89,2.5.35.52.83,1.83,3.51,4.69,5.24,5.75,5.5,3.46c0,.69.28,3.86.29,4.06l-.18.9.9,3.43,2.29,4.22,2.37,1.64L1321,1695l.85,1.43,1.35,2.53,3,3.22,3.91,3.58,1.69,2.77.91,3-.16,1.59.72,4.33,1,1,4.63,4.79,2.25,6.58,2.39,5.13.86,1,3.6,5.56,1,1.82,1.3,1.67,1,.57,2.1,1.06,3.41,1,3.35,2.23,3.29,1.74,2.5.66,1.57.71.75.9,5.6,4.61,2.63,3.29,1.38,1.18,2.43.52,2.29,1.07,1.28,1,1.4,2.33,1.47-.89-1.49-2.47-.08-.14-1.69-1.31-2.65-1.24-2.19-.47-.93-.79-2.64-3.3-5.61-4.62-.9-1.08-2.06-.93-2.45-.66-3-1.6-3.49-2.34-3.51-1-1.9-1-.63-.38-1-1.3-1-1.75-3.68-5.7-.79-.94-2.26-4.84-2.27-6.67-.2-.32-4.78-4.94-.64-.64-.59-3.57c0-.2.17-1.71.17-1.71l-1.07-3.56-1.93-3.16-4-3.7-2.84-3-1.26-2.37-1.14-1.91-4.62-2.22-1.92-1.33-2-3.68-.75-2.84.15-.74-.37-5.16-6-3.79-5-5.52-3.35-4.48-.81-1.78-.31-.46-.75-2.11-.83-7.77-1.53-3.58-.93-3-.16-2.37-.66-3.82c0-.11-.15-4.16-.15-4.42l.67-2.34-.2-1.65-3.09-5.84-1.31-1.47-1.15-2.3-1-1.17-1.56-1-7.29-1.66-.89-.45-2-1.22-4-4.36-3.32-3.66-2.77-2.43-3.68-1.67-6.32-4.21-1.6-1.45-.73-2.19-.5-3.36-4-7.87-8.73-14-.77-1.86-1.09-4.21.09-.52,2.09-1.94.94-.94,2.2-1.35.73-1,.2-2-.86-4.47-3-8.23-.63-3.8v-4.49l-1.39-1.91-2.6-9.08-1.14-3.74c0-.11-.12-.85-.14-1l.32-4,.65-4.05.18-3.66-.51-2.42-.84.18.81-.29-1-2.8-.82-1.8-.08-.34,7.91.22c10,.41,20.42.84,28.23-3.29,2.51-1.33,4.79-2.73,7-4.09,7.13-4.4,13.29-8.19,22.79-6.18,6.17,1.31,11.06,3.88,15.79,6.37s9.58,5,15.52,6.18c9.46,1.83,20.5.52,30.24-.65l8.39-.92c5.35-.48,9.93-2.23,14.35-3.92,4.82-1.84,9.8-3.74,15.77-4l10-.58c12-.8,28.54-1.9,36.7.13l.42-1.67C1436.69,1486.22,1420,1487.32,1407.88,1488.13Zm-283-609.92c-.56.95-.09,2.23.45,3.71.46,1.24,1,2.79.64,3.6-.05.11-.21.43-.89.66a2.21,2.21,0,0,1-.71.11c-2.28,0-5.67-2.85-8-4.8A17.15,17.15,0,0,0,1113,879a3.26,3.26,0,0,0-1.26-.26,4.21,4.21,0,0,0-3.32,2.13l-4.92,1.58a40.1,40.1,0,0,0-6.14.57l-1.55.41a25.68,25.68,0,0,1-6.52,1.17,7.57,7.57,0,0,1-3.06-.56c-.65-.29-.9-1.42-1.17-2.62a13,13,0,0,0-.78-2.64,19.28,19.28,0,0,0-2.28-3.55c1.44-.33,3.77.06,5.86.4a21.65,21.65,0,0,0,4.68.47c2.23-.17,3.94-1.65,5.61-3.09s3-2.64,4.77-2.64c1.11,0,2.69,1,4.22,1.94,2,1.23,4,2.5,5.83,2.23a19.62,19.62,0,0,0,5.82-2.43c2.25-1.21,4.56-2.44,6.39-2.43C1125.32,873.88,1125.26,877.56,1124.91,878.21Zm-47.89-11,3.19-2.55,4.1-1.4.06,0a21,21,0,0,1,5.37-1.89c1-.12,2.85-.14,4.81-.14h4.61c.89,0,1.57,0,1.91,0l4.63-.5a25.85,25.85,0,0,1,2.72-.16,8.63,8.63,0,0,1,1.78.14c1.57.35,5.6,1.92,5.64,1.94l.06,0,5.83,1.33,3.25.87c.06,1,.11,2.06.15,3.09-2.25,0-4.73,1.33-7.14,2.63a18.76,18.76,0,0,1-5.26,2.24c-1.2.18-3-.92-4.66-2s-3.52-2.2-5.13-2.2c-2.36,0-4.16,1.56-5.9,3.07-1.51,1.31-2.95,2.55-4.61,2.68a21,21,0,0,1-4.27-.45c-2.75-.46-5.57-.92-7.4-.08l-6.08-4.73ZM737.2,300.48l-.34,1.85-.3,1.19-.73,1.62-1.58,1.72-7.19,2.62-1.28,1.06,2.89-4.55,1.92-2.08.88-.88,3-5.11,4.31-4.31Zm3.61-31.71-.5,4.46L739.06,291l-1.09.93-4.91,4.9-3,5.11-.75.74-2.05,2.22-4.1,6.45c-.65-1.8-1.46-4.08-1.64-4.68a11.08,11.08,0,0,1-.09-2.32l0-2.63-.1-1.06a14,14,0,0,1,.57-6.16l1.68-1.1c1-.33,7.11-2.43,8.57-4.45a5.71,5.71,0,0,0,1.12-4l0-1c.15-1.53,1.29-10.54,1.62-11.72a41,41,0,0,1,1.92-5.12,6.76,6.76,0,0,1,1.38-1.55,13,13,0,0,0,1.67-1.79l.77-1,.54-.67c.12.65.24,1.24.26,1.34Zm-1.48-7.06-.83,1.06a11.49,11.49,0,0,1-1.46,1.55,7.81,7.81,0,0,0-1.74,2,43.18,43.18,0,0,0-2,5.43c-.39,1.4-1.54,10.64-1.67,12l0,1.26a4,4,0,0,1-.8,2.94c-.88,1.21-5.23,3-7.78,3.85,1.13-2,3.55-5.49,5.22-7.78l.08-.1,0-.12a35.56,35.56,0,0,0,1.53-6,22.4,22.4,0,0,0,.07-2.92,16.3,16.3,0,0,1,.09-2.8,20.83,20.83,0,0,1,1.26-4.07c0-.07,1-3.42,1-3.42a18.38,18.38,0,0,0,.33-3.06l.34-3.77a29.67,29.67,0,0,1,1.86-5.91l3.61,4,3.41,2A16.79,16.79,0,0,1,739.32,261.71ZM999,822.91l-1.48-.33-.83-.49-1.81-.16-1.16-.66-1-1.32-1-3.62.49-.66,1.32-.16,1.32.49,1.65,1,1,1,2.31,3.63.16.82Zm-8.51,40.39c-.72-.93-.65-2.57-.49-4.26.7.52,1.26.86,1.26.86l2.09,2.22a5.67,5.67,0,0,1,2.09,2c.22.49.44,1.1.7,1.71A7.75,7.75,0,0,1,990.48,863.3Zm21.07-9-.21,3.12-.07,2.18c0,1.22-.1,2.65-.12,4l-.78-.39-4.53-2.12a14.56,14.56,0,0,1-3.42-1.81,18.31,18.31,0,0,1-2.82-3.86c-.51-1-.3-2.33-.51-3.57a8.91,8.91,0,0,1,.65-5.48c.44-1.4,2.73-4.35,3.52-5.22s2.38-2.73,3-3.39,2.23-2.46,2.87-3.13c.22-.24.61-.61,1-1a5.69,5.69,0,0,1,.21,1.3l0,1.08c-.12,3.94-.06,6.42.62,7.48a5.58,5.58,0,0,1,.91,1.83C1012.19,846.3,1011.77,851.49,1011.55,854.27Zm-215.39,408-1.68,3.5-1.44,5.41-5-.41-3.08-.65-4.53-1.46-2.46-1.08-3.17-2.38-1.57-1.56-3.59-4.57-4.34-6.17-4.68-3.43a32,32,0,0,0,3.41-.62,14,14,0,0,1,1.67-.11c4.35,0,7.29,2.19,9.32,3.69a12.88,12.88,0,0,0,2.07,1.36l5.9,2.53c1.28.52,3,1.07,4.74,1.61s3.15,1,4,1.35l4.51,2.23Zm56.39-25.5h-.06l-1.27.16-3.56-.46-6.64-2.92-7-3.35,1.78-.14s8.31.73,9.94,1.4,4.76,3.64,4.76,3.64l2.69,1.68Zm7.66-.25a34.45,34.45,0,0,1-4.56-1.53,8.79,8.79,0,0,1-1.81-.83,37.33,37.33,0,0,1-4.12-4l-.93-.69,2.08-.24,6.66,1.11,1.6.87,3,2.7,2.23,2.63C863.32,1236.57,860.92,1236.56,860.22,1236.5Zm95.12-1.39c-.11.35-.52,1.3-.58,1.44a4.51,4.51,0,0,1-.54.81c-.26.27-2.28,1.86-2.44,2l-2.53,1.11-2,.79-3.83.8-6.41.41a22.13,22.13,0,0,1,1.4-2.37,7.24,7.24,0,0,1,2.14-1.48l2.14-1.15,2-.49,3-.49s5.1-1.9,5.6-2.14a7.25,7.25,0,0,0,1.49-1.15,3.47,3.47,0,0,0,.63-1.05l0,.09c0,.12.1.73.15,1.16A6.18,6.18,0,0,1,955.33,1235.11Z"/><g id="Yosemite_creek" data-name="Yosemite creek"><text class="cls-2" transform="translate(1036.12 866.53) rotate(-19.12)">Y</text><text class="cls-3" transform="translate(1042.45 864.36) rotate(-15.67)">o</text><text class="cls-4" transform="matrix(0.97, -0.23, 0.23, 0.97, 1049.13, 862.54)">s</text><text class="cls-5" transform="matrix(0.98, -0.21, 0.21, 0.98, 1053.47, 861.44)">e</text><text class="cls-6" transform="translate(1059.64 860.08) rotate(-9.93)">m</text><text class="cls-5" transform="translate(1069.74 858.43) rotate(-8.68)">i</text><text class="cls-7" transform="translate(1073.04 857.9) rotate(-8.05)">t</text><text class="cls-4" transform="translate(1077.44 857.31) rotate(-7.24)">e</text><text class="cls-8" transform="translate(1083.87 856.4) rotate(-6.58)"> </text><text class="cls-9" transform="matrix(0.99, -0.11, 0.11, 0.99, 1087.09, 856.04)"> </text><text class="cls-9" transform="translate(1090.4 855.7) rotate(-5.53)">C</text><text class="cls-4" transform="matrix(1, -0.08, 0.08, 1, 1097.4, 854.99)">r</text><text class="cls-10" transform="translate(1101.98 854.64) rotate(-4.19)">e</text><text class="cls-4" transform="translate(1108.38 854.2) rotate(-3.38)">e</text><text class="cls-11" transform="matrix(1, -0.04, 0.04, 1, 1114.73, 853.75)">k</text><text class="cls-4" transform="translate(1121.18 853.56) rotate(-1.41)"> </text></g><g id="Sentier_Creek" data-name="Sentier Creek"><text class="cls-12" transform="matrix(0.68, -0.74, 0.74, 0.68, 777.37, 858.5)">S</text><text class="cls-13" transform="matrix(0.73, -0.68, 0.68, 0.73, 781.14, 854.42)">e</text><text class="cls-14" transform="translate(785.75 850.07) rotate(-40.59)">n</text><text class="cls-15" transform="matrix(0.77, -0.64, 0.64, 0.77, 791.14, 845.53)">t</text><text class="cls-16" transform="translate(794.72 842.53) rotate(-39.51)">i</text><text class="cls-17" transform="matrix(0.77, -0.64, 0.64, 0.77, 797.26, 840.48)">n</text><text class="cls-18" transform="translate(802.75 835.84) rotate(-41.02)">e</text><text class="cls-19" transform="translate(807.81 831.49) rotate(-42.68)">l</text><text class="cls-13" transform="matrix(0.72, -0.7, 0.7, 0.72, 810.28, 829.17)"> </text><text class="cls-19" transform="matrix(0.69, -0.72, 0.72, 0.69, 812.73, 826.71)"> </text><text class="cls-12" transform="matrix(0.65, -0.76, 0.76, 0.65, 815.12, 824.2)"> </text><text class="cls-17" transform="matrix(0.57, -0.82, 0.82, 0.57, 817.69, 821.48)">C</text><text class="cls-20" transform="matrix(0.66, -0.75, 0.75, 0.66, 821.4, 816.04)">r</text><text class="cls-13" transform="matrix(0.74, -0.68, 0.68, 0.74, 824.16, 812.9)">e</text><text class="cls-21" transform="translate(828.79 808.69) rotate(-39.23)">e</text><text class="cls-20" transform="translate(834 804.52) rotate(-41.4)">k</text><text class="cls-12" transform="matrix(0.68, -0.73, 0.73, 0.68, 839.17, 799.81)"> </text></g><g id="Tenaya_Creek" data-name="Tenaya Creek"><text class="cls-22" transform="matrix(0.34, 0.94, -0.94, 0.34, 1026.58, 1218.58)">T</text><text class="cls-23" transform="matrix(0.33, 0.94, -0.94, 0.33, 1028.49, 1223.8)">e</text><text class="cls-3" transform="matrix(0.31, 0.95, -0.95, 0.31, 1030.61, 1229.78)">n</text><text class="cls-3" transform="matrix(0.26, 0.97, -0.97, 0.26, 1032.72, 1236.49)">a</text><text class="cls-24" transform="translate(1034.36 1242.36) rotate(78.67)">y</text><text class="cls-25" transform="matrix(0.12, 0.99, -0.99, 0.12, 1035.5, 1247.92)">a</text><text class="cls-24" transform="translate(1036.05 1253.97) rotate(88.83)"> </text><text class="cls-26" transform="translate(1036.09 1257.1) rotate(89.86)"> </text><text class="cls-22" transform="matrix(-0.01, 1, -1, -0.01, 1036.14, 1260.45)">C</text><text class="cls-27" transform="translate(1036.12 1267.59) rotate(90.45)">r</text><text class="cls-27" transform="translate(1036.02 1272.1) rotate(90.15)">e</text><text class="cls-28" transform="translate(1036.02 1278.64) rotate(89.53)">e</text><text class="cls-29" transform="matrix(0.02, 1, -1, 0.02, 1036.08, 1285.23)">k</text><text class="cls-30" transform="translate(1036.23 1291.86) rotate(87.86)"> </text></g><g id="Royal_Arch_Creek" data-name="Royal Arch Creek"><text class="cls-4" transform="matrix(1, -0.01, 0.01, 1, 1058.74, 1091.1)">R</text><text class="cls-22" transform="translate(1065.56 1091.07) rotate(0.87)">o</text><text class="cls-23" transform="translate(1072.61 1091.21) rotate(2.2)">y</text><text class="cls-31" transform="matrix(1, 0.06, -0.06, 1, 1078.44, 1091.4)">a</text><text class="cls-29" transform="translate(1084.8 1091.77) rotate(4.29)">l</text><text class="cls-22" transform="translate(1088.14 1092.06) rotate(4.92)"> </text><text class="cls-24" transform="translate(1091.37 1092.37) rotate(5.58)"> </text><text class="cls-25" transform="translate(1094.57 1092.66) rotate(6.32)"> </text><text class="cls-29" transform="translate(1097.78 1092.94) rotate(8.28)">A</text><text class="cls-28" transform="translate(1105.89 1094.27) rotate(10.4)">r</text><text class="cls-22" transform="matrix(0.98, 0.17, -0.17, 0.98, 1110.43, 1094.99)">c</text><text class="cls-4" transform="translate(1115.62 1096.05) rotate(9.49)">h</text><text class="cls-28" transform="matrix(0.99, 0.16, -0.16, 0.99, 1122.7, 1097.26)"> </text><text class="cls-28" transform="translate(1126.01 1097.67) rotate(8.55)"> </text><text class="cls-3" transform="translate(1129.26 1098.21) rotate(7.14)">C</text><text class="cls-28" transform="translate(1135.72 1098.84) rotate(17.28)">r</text><text class="cls-27" transform="translate(1139.85 1100.08) rotate(20.49)">e</text><text class="cls-25" transform="matrix(0.93, 0.36, -0.36, 0.93, 1145.91, 1102.27)">e</text><text class="cls-25" transform="translate(1151.99 1104.74) rotate(21.02)">k</text><text class="cls-26" transform="matrix(0.94, 0.34, -0.34, 0.94, 1158.05, 1107.14)"> </text></g><g id="Indian_Canyon_Creek" data-name="Indian Canyon Creek"><text class="cls-32" transform="translate(1049.17 1017.29) rotate(-2.03)">I</text><text class="cls-33" transform="matrix(1, -0.06, 0.06, 1, 1052.66, 1017.17)">n</text><text class="cls-28" transform="translate(1059.92 1016.71) rotate(-5.37)">d</text><text class="cls-2" transform="translate(1067.02 1016.11) rotate(-6.43)">i</text><text class="cls-34" transform="translate(1070.42 1015.72) rotate(-7.3)">a</text><text class="cls-34" transform="translate(1076.89 1014.88) rotate(-8.34)">n</text><text class="cls-2" transform="translate(1084.01 1013.72) rotate(-9.03)"> </text><text class="cls-33" transform="matrix(0.99, -0.16, 0.16, 0.99, 1087.2, 1013.27)"> </text><text class="cls-34" transform="translate(1090.63 1012.71) rotate(-10)">C</text><text class="cls-25" transform="translate(1097.67 1011.47) rotate(-10.66)">a</text><text class="cls-35" transform="translate(1104.08 1010.32) rotate(-11.24)">n</text><text class="cls-27" transform="matrix(0.98, -0.2, 0.2, 0.98, 1111.07, 1008.94)">y</text><text class="cls-28" transform="translate(1116.87 1007.67) rotate(-12.16)">o</text><text class="cls-24" transform="matrix(0.98, -0.22, 0.22, 0.98, 1123.82, 1006.17)">n</text><text class="cls-3" transform="translate(1130.79 1004.66) rotate(-12.85)"> </text><text class="cls-35" transform="translate(1134.07 1003.88) rotate(-13.01)"> </text><text class="cls-31" transform="translate(1137.23 1003.18) rotate(-13.24)">C</text><text class="cls-2" transform="translate(1144.17 1001.46) rotate(-13.48)">r</text><text class="cls-29" transform="translate(1148.72 1000.38) rotate(-13.68)">e</text><text class="cls-32" transform="translate(1154.97 998.93) rotate(-13.88)">e</text><text class="cls-25" transform="translate(1161.29 997.3) rotate(-14.05)">k</text><text class="cls-29" transform="matrix(0.97, -0.24, 0.24, 0.97, 1167.6, 995.78)"> </text></g><g id="Merced_River" data-name="Merced River"><text class="cls-36" transform="translate(810.26 1272.41) rotate(85.94)">M</text><text class="cls-37" transform="translate(811.29 1285.2) rotate(83.54)">e</text><text class="cls-38" transform="matrix(0.13, 0.99, -0.99, 0.13, 812.22, 1293.03)">r</text><text class="cls-39" transform="translate(812.93 1298.33) rotate(81.36)">c</text><text class="cls-40" transform="matrix(0.17, 0.99, -0.99, 0.17, 813.77, 1304.38)">e</text><text class="cls-41" transform="translate(815.09 1312.01) rotate(79.22)">d</text><text class="cls-42" transform="matrix(0.2, 0.98, -0.98, 0.2, 816.67, 1320.28)"> </text><text class="cls-43" transform="matrix(0.21, 0.98, -0.98, 0.21, 817.4, 1324.03)"> </text><text class="cls-36" transform="translate(818.25 1327.87) rotate(77.17)">R</text><text class="cls-44" transform="matrix(0.24, 0.97, -0.97, 0.24, 820.07, 1336.11)">i</text><text class="cls-45" transform="translate(821.05 1339.76) rotate(75.7)">v</text><text class="cls-40" transform="translate(822.74 1346.52) rotate(74.69)">e</text><text class="cls-46" transform="translate(824.85 1353.91) rotate(73.68)">r</text><text class="cls-47" transform="translate(826.39 1359.15) rotate(72.89)"> </text></g><g id="Merced_River-2" data-name="Merced River"><text class="cls-48" transform="matrix(0.07, 1, -1, 0.07, 780.99, 320.24)">M</text><text class="cls-49" transform="translate(782.18 335.24) rotate(81.63)">e</text><text class="cls-50" transform="translate(783.52 344.1) rotate(78.41)">r</text><text class="cls-51" transform="translate(784.78 350.3) rotate(75.4)">c</text><text class="cls-52" transform="translate(786.62 357.35) rotate(71.82)">e</text><text class="cls-53" transform="translate(789.47 365.94) rotate(68.46)">d</text><text class="cls-54" transform="translate(792.98 374.73) rotate(67.58)"> </text><text class="cls-55" transform="matrix(0.37, 0.93, -0.93, 0.37, 794.67, 378.8)"> </text><text class="cls-49" transform="translate(796.21 382.68) rotate(70.95)"> </text><text class="cls-54" transform="translate(797.5 386.37) rotate(75.45)"> </text><text class="cls-56" transform="translate(798.52 390.12) rotate(81.97)"> </text><text class="cls-53" transform="translate(799.09 393.79) rotate(89.69)"> </text><text class="cls-51" transform="translate(799.07 397.42) rotate(97.36)"> </text><text class="cls-52" transform="translate(798.58 401.25) rotate(103.55)"> </text><text class="cls-56" transform="translate(797.72 405.14) rotate(107.92)"> </text><text class="cls-54" transform="translate(796.39 409.01) rotate(111.75)"> </text><text class="cls-57" transform="translate(794.94 412.87) rotate(114.73)"> </text><text class="cls-58" transform="matrix(-0.45, 0.89, -0.89, -0.45, 793.17, 416.64)"> </text><text class="cls-54" transform="translate(791.15 420.5) rotate(117.76)"> </text><text class="cls-50" transform="matrix(-0.46, 0.89, -0.89, -0.46, 789.11, 424.44)">R</text><text class="cls-59" transform="translate(784.66 433.14) rotate(114.29)">i</text><text class="cls-60" transform="translate(782.62 437.5) rotate(110.02)">v</text><text class="cls-61" transform="translate(779.71 445.46) rotate(102.73)">e</text><text class="cls-56" transform="translate(777.84 454.61) rotate(95.66)">r</text><text class="cls-62" transform="translate(777.24 461.15) rotate(90.85)"> </text></g><g id="Bridalveil_Creek" data-name="Bridalveil Creek"><text class="cls-27" transform="translate(672.16 365.84) rotate(-28.72)">B</text><text class="cls-29" transform="translate(678.17 362.61) rotate(-23.9)">r</text><text class="cls-63" transform="translate(682.19 360.84) rotate(-21.49)">i</text><text class="cls-28" transform="matrix(0.94, -0.33, 0.33, 0.94, 685.13, 359.6)">d</text><text class="cls-64" transform="translate(691.9 357.21) rotate(-19.71)">a</text><text class="cls-31" transform="translate(698.19 354.98) rotate(-22.78)">l</text><text class="cls-28" transform="translate(701.75 353.6) rotate(-29.69)">v</text><text class="cls-28" transform="translate(707.32 350.21) rotate(-39.06)">e</text><text class="cls-25" transform="matrix(0.72, -0.69, 0.69, 0.72, 712.49, 345.85)">i</text><text class="cls-35" transform="matrix(0.69, -0.72, 0.72, 0.69, 714.99, 343.54)">l</text><text class="cls-27" transform="matrix(0.66, -0.75, 0.75, 0.66, 717.45, 340.95)"> </text><text class="cls-29" transform="translate(719.76 338.35) rotate(-50.52)"> </text><text class="cls-35" transform="matrix(0.6, -0.8, 0.8, 0.6, 721.96, 335.7)">C</text><text class="cls-63" transform="matrix(0.74, -0.68, 0.68, 0.74, 725.66, 330.59)">r</text><text class="cls-22" transform="translate(728.84 327.64) rotate(-38.99)">e</text><text class="cls-65" transform="translate(733.76 323.62) rotate(-36.43)">e</text><text class="cls-27" transform="translate(738.89 319.83) rotate(-33.87)">k</text><text class="cls-28" transform="matrix(0.85, -0.52, 0.52, 0.85, 744.08, 316.33)"> </text></g><g id="Ribbon_Creek" data-name="Ribbon Creek"><text class="cls-33" transform="matrix(1, -0.05, 0.05, 1, 856.27, 332.13)">R</text><text class="cls-2" transform="translate(863.51 331.75) rotate(-3.76)">i</text><text class="cls-31" transform="matrix(1, -0.08, 0.08, 1, 866.84, 331.54)">b</text><text class="cls-29" transform="translate(874.11 330.97) rotate(-6.57)">b</text><text class="cls-25" transform="matrix(0.99, -0.15, 0.15, 0.99, 881.38, 330.13)">o</text><text class="cls-29" transform="translate(888.56 329) rotate(-12.16)">n</text><text class="cls-22" transform="matrix(0.96, -0.29, 0.29, 0.96, 895.82, 327.42)"> </text><text class="cls-35" transform="translate(899.37 326.29) rotate(-21.74)"> </text><text class="cls-64" transform="translate(902.92 324.71) rotate(-30.36)">C</text><text class="cls-64" transform="translate(909.08 321.19) rotate(-30.13)">r</text><text class="cls-35" transform="translate(913 318.84) rotate(-29.8)">e</text><text class="cls-22" transform="translate(918.59 315.72) rotate(-29.22)">e</text><text class="cls-65" transform="translate(924.19 312.58) rotate(-28.15)">k</text><text class="cls-25" transform="translate(929.83 309.47) rotate(-26.25)"> </text></g><path class="cls-66" d="M1060.47,1510a1.81,1.81,0,1,0,1.81-1.85,1.83,1.83,0,0,0-1.81,1.85"/><path class="cls-66" d="M775.79,1493a2.72,2.72,0,1,0,2.73-2.77,2.75,2.75,0,0,0-2.73,2.77"/><path class="cls-66" d="M810.74,1391.9a2.72,2.72,0,1,0,2.73-2.77,2.75,2.75,0,0,0-2.73,2.77"/><path class="cls-66" d="M1093.15,1331.63a2.72,2.72,0,1,0,2.72-2.77,2.75,2.75,0,0,0-2.72,2.77"/><path class="cls-66" d="M1080.57,1198.55a2.72,2.72,0,1,0,2.72-2.77,2.75,2.75,0,0,0-2.72,2.77"/><path class="cls-66" d="M863.73,1085.19a2.72,2.72,0,1,0,2.73-2.77,2.75,2.75,0,0,0-2.73,2.77"/><path class="cls-66" d="M1139.75,850.58a2.72,2.72,0,1,0,2.72-2.77,2.75,2.75,0,0,0-2.72,2.77"/><path class="cls-66" d="M996.36,667.5a1.81,1.81,0,1,0,1.82-1.85,1.83,1.83,0,0,0-1.82,1.85"/><path class="cls-66" d="M884.84,519.14a2.72,2.72,0,1,0,2.72-2.77,2.75,2.75,0,0,0-2.72,2.77"/><path class="cls-66" d="M935.68,426.74a1.81,1.81,0,1,0,1.82-1.85,1.83,1.83,0,0,0-1.82,1.85"/><path class="cls-66" d="M729.73,361.77a2.72,2.72,0,1,0,2.72-2.77,2.75,2.75,0,0,0-2.72,2.77"/><path class="cls-66" d="M708.52,323.57a2.72,2.72,0,1,0,2.72-2.77,2.75,2.75,0,0,0-2.72,2.77"/><path class="cls-66" d="M705.63,55.62a2.72,2.72,0,1,0,2.72-2.77,2.75,2.75,0,0,0-2.72,2.77"/></svg>