<?xml version="1.0" encoding="UTF-8"?>
<svg width="81px" height="81px" viewBox="0 0 81 81" version="1.1" xmlns="http://www.w3.org/2000/svg" xmlns:xlink="http://www.w3.org/1999/xlink">
    <!-- Generator: Sketch 41 (35326) - http://www.bohemiancoding.com/sketch -->
    <title>Nature</title>
    <desc>Created with Sketch.</desc>
    <defs></defs>
    <g id="Maquettes" stroke="none" stroke-width="1" fill="none" fill-rule="evenodd">
        <g id="A3.1---Spirit" transform="translate(-148.000000, -1070.000000)" fill="#FFFFFF">
            <g id="Nature" transform="translate(35.000000, 1050.000000)">
                <g transform="translate(113.000000, 20.000000)" id="Shape">
                    <path d="M12.192,50.213 L12.248,50.249 C14.399,50.889 15.045,53.129 15.671,55.033 C16.371,54.716 17.071,54.397 17.773,54.086 C25.046,50.905 31.778,50.036 42.171,52.256 C42.264,52.276 42.708,52.21 43.418,52.031 C43.885,51.913 45.903,51.349 46.198,51.269 C47.749,50.852 49.009,50.57 50.243,50.395 L51.896,50.232 C55.395,50.158 57.582,51.07 59.339,54.156 L59.623,54.074 C60.398,53.851 61.267,53.598 62.208,53.321 C62.955,53.101 66.08,52.125 65.854,52.195 C66.881,51.878 67.73,51.628 68.547,51.404 C70.42,50.821 72.349,50.545 74.289,50.315 C76.326,50.351 75.477,50.255 76.849,50.469 C79.629,51.055 80.93,53.162 80.407,56.622 C80.251,57.654 79.51,58.008 77.821,58.403 C77.615,58.452 75.861,58.828 75.284,58.968 C74.2,59.231 73.271,59.518 72.393,59.88 C72.162,59.976 71.935,60.077 71.715,60.182 C67.984,61.964 64.642,63.195 61.407,64.06 C60.14,64.399 58.926,64.673 57.601,64.932 C56.847,65.08 54.565,65.49 54.563,65.491 C53.424,65.703 52.674,65.874 52.012,66.085 C50.982,66.412 49.862,66.786 48.489,67.256 C48.209,67.352 47.917,67.453 47.599,67.562 C40.974,69.85 40.513,70.004 38.882,70.391 C38.586,70.461 38.288,70.526 37.988,70.585 C32.931,71.584 28.149,71.099 21.162,69.46 C19.293,69.022 20.312,69.26 18.106,68.747 C18.182,71.225 18.38,73.713 17.874,76.17 C17.668,77.171 17.14,78.732 16.031,79.202 C15.912,79.359 16.012,79.246 15.617,79.385 L7.012,80.576 C6.465,80.652 5.96,80.27 5.885,79.723 C5.809,79.176 6.191,78.671 6.738,78.595 L13.182,77.703 C10.763,74.083 10.324,69.542 9.709,65.327 C9.288,61.537 8.854,57.644 9.522,53.853 C9.598,53.417 9.744,52.996 9.855,52.567 L1.157,53.948 C0.612,54.035 0.099,53.663 0.012,53.117 C-0.074,52.572 0.298,52.059 0.843,51.973 L11.747,50.242 L11.793,50.229 L11.793,50.229 L11.824,50.23 L11.843,50.227 C12.104,50.225 11.988,50.232 12.192,50.213 Z M13.102,67.87 C12.454,67.892 12.767,67.863 12.161,67.951 L12.152,67.951 C13.303,73.061 12.691,70.949 13.777,74.347 C14.498,76.337 15.251,77.41 15.35,77.397 C15.765,76.631 15.857,75.692 15.999,74.847 C16.267,72.672 16.22,70.472 16.071,68.289 C14.575,67.98 15.347,68.12 13.757,67.875 L13.102,67.87 Z M51.87,52.235 L50.525,52.375 C49.386,52.537 48.197,52.803 46.718,53.201 C46.445,53.274 44.404,53.845 43.907,53.97 C42.878,54.229 42.263,54.321 41.753,54.212 C31.789,52.084 25.48,52.899 18.574,55.918 C17.944,56.194 15.687,57.227 15.174,57.451 C13.903,58.006 12.913,58.369 11.936,58.613 C11.365,58.743 11.591,58.7 11.262,58.759 C11.439,63.311 11.272,61.21 11.692,65.067 L11.832,65.98 L11.839,65.977 C13.738,65.668 13.84,65.687 21.619,67.513 C28.349,69.092 32.894,69.552 37.6,68.623 C37.876,68.569 38.149,68.509 38.421,68.445 C39.95,68.082 40.451,67.915 46.947,65.672 C47.266,65.562 47.559,65.461 47.84,65.364 C49.227,64.889 50.359,64.512 51.406,64.179 C52.164,63.937 52.983,63.751 54.197,63.524 C62.093,62.053 64.518,61.404 70.852,58.378 C71.106,58.256 71.365,58.141 71.63,58.032 C72.613,57.626 73.636,57.31 74.812,57.024 C75.422,56.876 77.187,56.498 77.365,56.456 C77.895,56.332 78.238,56.228 78.445,56.129 L78.449,56.133 C78.714,54.222 78.376,52.985 76.436,52.426 C74.82,52.085 72.408,52.418 69.076,53.332 C68.282,53.55 67.452,53.795 66.443,54.106 C66.684,54.032 63.538,55.014 62.773,55.239 C61.828,55.517 60.956,55.771 60.178,55.996 C59.537,56.18 59.779,56.111 59.449,56.205 C58.889,58.132 55.688,58.669 53.986,59.129 C53.992,59.128 47.298,60.644 45.068,61.255 C41.629,62.197 39.194,62.372 36.561,61.96 C35.284,61.76 30.359,60.548 30.135,60.498 C30.057,60.481 30.057,60.481 29.978,60.464 C29.439,60.346 29.097,59.813 29.215,59.273 C29.333,58.734 29.866,58.392 30.405,58.51 C30.487,58.528 30.487,58.528 30.567,58.545 C30.869,58.612 35.694,59.8 36.87,59.984 C39.213,60.35 41.363,60.196 44.539,59.326 C46.821,58.701 53.55,57.177 53.505,57.188 C56.893,56.347 57.843,55.745 57.581,55.066 C56.423,52.392 54.444,52.351 51.87,52.235 Z M12.018,52.252 C11.539,53.279 11.459,54.454 11.318,55.564 L11.261,56.716 L11.451,56.673 C12.265,56.47 13.053,56.175 13.825,55.849 C13.555,54.868 13.11,53.958 12.639,53.064 C12.418,52.689 12.212,52.424 12.044,52.279 L12.018,52.252 Z"></path>
                    <path d="M77.718,0 L78.139,0.321 C78.789,1.019 78.574,1.634 77.944,2.389 C77.844,2.509 77.406,3.009 77.322,3.106 C77.026,3.451 76.758,3.78 76.476,4.153 C74.71,6.487 72.973,9.776 71.207,14.689 C69.938,18.22 69.412,19.622 68.594,21.551 C62.635,35.593 53.539,42.315 36.165,40.601 C26.007,39.598 20.912,39.933 19.372,40.968 L19.255,41.049 L19.1,41.318 L19.075,41.402 C18.882,41.864 19.026,41.681 18.667,41.968 C18.592,42.058 18.635,42.035 18.552,42.06 C18.226,42.321 18.433,42.219 17.887,42.26 L17.883,42.259 L17.882,42.26 C17.879,42.259 17.877,42.258 17.874,42.257 C17.488,42.181 17.175,42.19 16.959,41.728 C16.524,40.798 16.978,39.14 17.124,38.148 C17.456,35.996 18.053,33.487 18.875,30.997 C21.133,24.153 24.64,18.53 29.481,15.284 C38.975,8.919 49.265,6.45 58.35,7.302 C63.069,7.746 67.332,6.423 71.441,3.827 C72.681,3.044 73.336,2.56 75.148,1.155 C75.752,0.687 76.057,0.462 76.341,0.288 C77.097,-0.11 76.65,0.033 77.718,0 Z M73.637,4.771 C73.115,5.143 73.485,4.885 72.509,5.518 C68.057,8.331 63.376,9.783 58.163,9.294 C49.528,8.483 39.698,10.842 30.595,16.945 C26.189,19.899 22.906,25.163 20.774,31.624 C20.176,33.467 19.655,35.342 19.314,37.252 C21.674,33.394 25.071,30.444 28.819,27.998 C32.462,25.794 35.773,24.588 42.544,22.669 C50.525,20.406 53.516,19.38 57.691,17.116 C60.331,15.684 62.791,13.979 65.14,11.908 L65.484,11.709 C66.368,11.765 66.036,11.605 66.552,11.997 C66.917,12.411 66.877,13.043 66.463,13.408 C63.999,15.581 61.414,17.372 58.644,18.874 C54.296,21.232 51.213,22.29 43.09,24.593 C36.484,26.466 33.298,27.625 29.854,29.709 C26.172,31.824 23.37,34.941 20.965,38.374 C23.149,37.821 25.611,37.982 27.871,38.028 C30.709,38.106 33.536,38.347 36.362,38.611 C52.773,40.23 61.109,34.069 66.753,20.77 C67.551,18.888 68.069,17.507 69.325,14.012 C70.542,10.856 71.717,7.589 73.637,4.771 Z"></path>
                </g>
            </g>
        </g>
    </g>
</svg>