<?xml version="1.0" encoding="UTF-8"?>
<svg width="90px" height="61px" viewBox="0 0 90 61" version="1.1" xmlns="http://www.w3.org/2000/svg" xmlns:xlink="http://www.w3.org/1999/xlink">
    <!-- Generator: Sketch 41 (35326) - http://www.bohemiancoding.com/sketch -->
    <title>Wildlife</title>
    <desc>Created with Sketch.</desc>
    <defs></defs>
    <g id="Maquettes" stroke="none" stroke-width="1" fill="none" fill-rule="evenodd">
        <g id="A2.1---Will-do" transform="translate(-143.000000, -1000.000000)" stroke-width="2" stroke="#FFFFFF">
            <g id="Wildlife" transform="translate(35.000000, 970.000000)">
                <path d="M127.872634,34.4413565 C127.872634,34.4413565 125.512358,30.8126389 123.667984,31.3746508 C121.638304,31.9923418 122.678809,36.0299535 122.678809,36.0299535 C118.896103,36.685924 117.243127,42.3434523 110.477235,42.7941058 C107.994291,42.9594034 110.269308,49.2120031 117.03955,50.5726635 C126.451074,52.4648861 133.223926,57.2010977 134.169603,60.160795 C134.735964,61.9338293 139.826261,79.6171939 137.664342,82.8300575 C137.664342,82.8300575 133.595411,83.7766038 135.534613,87.5653991 C136.044426,88.5624047 144.462424,88.2483392 144.975717,86.3665564 C145.178424,85.6209772 147.196794,79.1874201 147.196794,79.1874201 C149.027248,81.2910497 148.963739,83.7070048 147.47432,85.4626395 C146.258948,86.8946388 148.970699,89.7299278 152.811693,88.4875858 C157.420887,86.9964273 157.653173,74.4677383 157.653173,69.5096799 C157.653173,69.5096799 166.328688,72.7251535 175.344368,71.1426463 C175.344368,71.1426463 176.468392,82.0401089 175.957709,82.7439287 C175.429627,83.4721082 172.236773,85.0885449 174.338662,87.6811074 C175.783711,89.4637117 179.791744,89.0400278 181.045395,87.9247039 C183.722347,85.5444183 186.648985,74.7374344 186.648985,74.7374344 C186.648985,74.7374344 189.280697,83.073654 188.833523,83.5190875 C186.040863,86.2926075 187.822598,89.0104482 190.661367,89.0104482 C190.661367,89.0104482 195.428028,89.8169266 196.500722,85.5217986 C196.500722,85.5217986 195.29231,63.1709515 196.120538,58.563498 C198.06061,47.766954 176.007298,42.7575663 172.931893,42.4609006 C167.670209,41.952828 155.257228,41.9249884 153.7478,41.4195257 C152.36452,40.9558224 148.974179,39.0174904 146.635653,38.5729268 C144.74256,38.212752 141.98209,39.0096605 140.460482,38.7486642 C138.725727,38.4511285 133.892077,36.2152608 133.892077,36.2152608 C133.892077,36.2152608 134.127843,32.8501495 131.901545,32.2524681 C130.409517,31.8505339 127.872634,34.4413565 127.872634,34.4413565 Z"></path>
            </g>
        </g>
    </g>
</svg>