<?xml version="1.0" encoding="UTF-8"?>
<svg width="66px" height="68px" viewBox="0 0 66 68" version="1.1" xmlns="http://www.w3.org/2000/svg" xmlns:xlink="http://www.w3.org/1999/xlink">
    <!-- Generator: Sketch 41 (35326) - http://www.bohemiancoding.com/sketch -->
    <title>Observation</title>
    <desc>Created with Sketch.</desc>
    <defs></defs>
    <g id="Maquettes" stroke="none" stroke-width="1" fill="none" fill-rule="evenodd">
        <g id="A3.1---Spirit" transform="translate(-155.000000, -1680.000000)" stroke-width="2" stroke="#FFFFFF">
            <g id="Observation" transform="translate(35.000000, 1654.000000)">
                <path d="M184.264811,67.1118356 C184.264811,67.0125471 184.250954,66.9171996 184.227053,66.8257931 L184.203153,66.6390391 L177.109679,38.3526091 C176.98649,37.8083655 176.519669,37.4387985 175.975425,37.4387985 L169.181851,37.4387985 L169.181851,30.5023302 C169.182105,28.8217985 167.815457,27.4551507 166.136833,27.4551507 L158.594463,27.4551507 C156.917872,27.4551507 155.551224,28.8217985 155.551224,30.5023302 L155.551224,41.2070595 L150.326943,41.2070595 L150.326943,30.5023302 C150.32707,28.8217985 148.960422,27.4551507 147.283959,27.4551507 L139.741589,27.4551507 C138.063091,27.4551507 136.696443,28.8217985 136.696443,30.5023302 L136.696443,37.4387985 L129.902869,37.4387985 C129.358626,37.4387985 128.895745,37.8082384 128.772556,38.3365907 L121.655309,66.8097747 C121.627468,66.9130043 121.613611,67.0124199 121.613611,67.1117085 L121.613611,89.5024837 C121.613611,91.1811085 122.978224,92.5457221 124.656722,92.5457221 L139.741462,92.5457221 C141.418053,92.5457221 142.7847,91.1811085 142.7847,89.5024837 L142.7847,66.1503513 L149.129251,66.1503513 L149.133192,66.1503513 C149.810541,66.1503513 150.32707,65.6298809 150.32707,64.9902898 L150.32707,62.3801833 L155.551351,62.3801833 L155.551351,64.9902898 C155.551351,65.6298809 156.071822,66.1503513 156.711413,66.1503513 L162.366665,66.1503513 L163.093721,66.1503513 L163.093721,89.5026108 C163.093721,91.1811085 164.460369,92.5458493 166.13696,92.5458493 L181.219793,92.5458493 C182.89829,92.5458493 184.264938,91.1812356 184.264938,89.5026108 L184.264938,67.1118356 L184.264811,67.1118356 Z"></path>
            </g>
        </g>
    </g>
</svg>