<?xml version="1.0" encoding="UTF-8"?>
<svg width="60px" height="80px" viewBox="0 0 60 80" version="1.1" xmlns="http://www.w3.org/2000/svg" xmlns:xlink="http://www.w3.org/1999/xlink">
    <!-- Generator: Sketch 41 (35326) - http://www.bohemiancoding.com/sketch -->
    <title>Fire</title>
    <desc>Created with Sketch.</desc>
    <defs></defs>
    <g id="Maquettes" stroke="none" stroke-width="1" fill="none" fill-rule="evenodd">
        <g id="A2.1---Will-do" transform="translate(-157.000000, -164.000000)" stroke="#FFFFFF" stroke-width="2">
            <g id="Firewatch" transform="translate(35.000000, 145.000000)">
                <path d="M140.590001,94.8303298 C144.311043,96.7325093 148.653368,97.7397648 153.149018,97.7397648 L153.150615,97.7397648 C161.265356,97.7397648 168.807262,94.522084 173.840877,88.9145672 C179.086378,83.0720064 181.331674,75.0198189 180.337462,65.6231157 C180.299131,64.0049587 179.708992,49.0473216 171.017421,37.4566967 L168.933701,34.6768952 L164.698383,41.0632782 C161.656387,36.0174181 154.942859,27.40943 142.876556,23.3460699 L136.874548,21.3262352 L139.953013,26.8618812 C139.989481,26.9292268 143.158715,32.7249385 142.57949,39.1243647 L132.97729,33.4540275 L134.104063,38.8818674 C134.127754,38.9968606 136.408187,50.229995 134.313021,60.7782275 C134.043373,61.0034226 133.676033,61.1996032 133.176931,61.1996032 C132.414036,61.1996032 130.731727,60.7510764 128.049085,57.7447489 L124.515971,53.7873316 L123.791407,59.0437464 C123.756803,59.3035459 120.434244,85.2566115 140.590001,94.8303298 Z" id="Fire"></path>
            </g>
        </g>
    </g>
</svg>