<?xml version="1.0" encoding="UTF-8"?>
<svg width="92px" height="45px" viewBox="0 0 92 45" version="1.1" xmlns="http://www.w3.org/2000/svg" xmlns:xlink="http://www.w3.org/1999/xlink">
    <!-- Generator: Sketch 41 (35326) - http://www.bohemiancoding.com/sketch -->
    <title>Poaching</title>
    <desc>Created with Sketch.</desc>
    <defs></defs>
    <g id="Maquettes" stroke="none" stroke-width="1" fill="none" fill-rule="evenodd">
        <g id="A2.1---Will-do" transform="translate(-142.000000, -733.000000)" stroke-width="2" stroke="#FFFFFF">
            <g id="Poaching" transform="translate(35.000000, 695.000000)">
                <path d="M197.780802,60.06965 C198.058802,58.65165 197.945802,57.24965 197.326802,55.77965 C196.655802,54.18965 195.820802,52.59065 194.908802,51.11165 C193.479802,48.79465 192.205802,46.33265 190.465802,44.26765 C188.313802,41.71465 185.447802,40.16365 181.958802,40.03065 C181.043802,39.99565 180.140802,39.82165 179.275802,39.52165 C177.405802,38.87465 175.480802,38.84465 173.659802,39.34765 C168.451802,40.78565 163.119802,40.55565 157.820802,40.73465 C156.403802,40.78265 154.960802,40.45165 153.547802,40.19165 C150.060802,39.54965 146.642802,39.17465 143.386802,41.16765 C141.024802,42.61265 138.525802,43.83465 136.166802,45.28365 C134.200802,46.49065 132.353802,47.89165 130.443802,49.19165 C129.645802,49.73465 128.820802,50.23665 127.995802,50.76565 C126.893802,48.58865 124.656802,48.65865 122.523802,49.37665 C120.675802,50.21265 122.329802,51.51365 123.831802,52.37265 C124.539802,52.77765 124.565802,53.34265 124.157802,54.11465 C123.798802,54.79265 123.772802,55.64265 123.557802,56.40465 C123.343802,57.16265 123.170802,57.95565 122.808802,58.64365 C122.428802,59.36665 121.977802,59.46465 121.064802,58.95365 C119.660802,58.16865 118.163802,57.19165 117.148802,56.03365 C116.840802,55.68165 116.110802,55.04365 115.731802,55.35765 C115.353802,55.67165 115.741802,56.80365 115.886802,57.28165 C116.337802,58.77065 116.918802,60.21865 117.425802,61.69165 C117.827802,62.86065 117.606802,63.09265 116.350802,62.93865 C112.770802,62.49965 110.085802,60.80565 108.487802,57.48465 C107.808802,56.26965 108.036802,58.21365 108.036802,58.21365 C108.396802,60.99765 109.775802,63.05865 111.795802,64.64565 C112.776802,65.41665 116.128802,67.54465 117.315802,68.14765 C117.783802,71.16065 119.711802,73.35965 122.203802,72.94665 C125.515802,72.39665 127.953802,70.13465 130.102802,67.65565 C132.251802,65.17665 134.057802,63.44665 136.703802,63.23865 C139.349802,63.03065 140.891802,64.57165 141.481802,65.50765 C142.379802,66.92965 143.161802,68.42865 143.907802,69.93765 C144.199802,70.52865 144.371802,71.21165 144.444802,71.86965 C144.548802,72.80865 144.436802,73.77265 144.552802,74.70865 C144.751802,76.30165 144.350802,77.54065 142.895802,78.38665 C142.452802,78.64465 141.984802,79.05165 141.798802,79.50265 C141.638802,79.89065 141.642802,80.67465 141.936802,80.85465 C142.547802,81.22965 146.787802,81.28965 147.403802,81.21465 C148.747802,81.04865 149.240802,80.12365 148.709802,78.89765 C148.504802,78.42465 148.383802,77.64965 148.518802,77.15165 C148.999802,75.37965 149.611802,73.64365 150.108802,72.09665 C151.191802,74.87565 152.040802,75.24565 154.950802,76.64565 C157.391802,77.81965 157.672802,80.00765 158.718802,80.15865 C159.764802,80.30965 161.244802,79.77065 161.391802,77.59565 C161.406802,77.37065 161.429802,77.14065 161.486802,76.92365 C162.095802,74.61165 161.409802,73.76365 159.007802,73.82265 C158.056802,73.84665 157.298802,73.49965 156.632802,72.73965 C155.218802,71.12665 155.391802,69.37865 156.018802,67.44465 C156.158802,67.01165 156.575802,66.74265 157.028802,66.77765 C158.287802,66.87465 159.575802,66.81365 160.811802,67.03965 C163.328802,67.49865 165.860802,67.98165 168.384802,67.39865 C171.487802,66.68165 174.558802,65.78965 176.787802,63.24365 C177.174802,62.80165 177.634802,62.42465 178.220802,61.86565 C179.086802,63.45265 180.413802,64.83865 180.509802,66.30565 C180.652802,68.49165 182.074802,70.22465 181.954802,72.52765 C181.855802,74.43065 182.105802,76.23965 180.876802,77.87865 C180.054802,78.97565 180.623802,80.32765 182.006802,80.28765 C183.249802,80.25165 184.911802,79.95865 185.715802,79.47565 C186.519802,78.99265 186.898802,77.08665 186.258802,75.64965 C186.083802,75.25765 186.580802,73.71165 186.689802,73.19265 C186.967802,73.72965 187.443802,75.86365 187.571802,76.73865 C187.782802,78.17365 187.116802,78.15665 186.331802,78.95965 C185.701802,79.77265 185.876802,80.84065 186.565802,80.94265 C187.891802,81.13865 190.562802,81.14565 191.823802,80.89365 C193.084802,80.64165 192.815802,79.38965 192.508802,78.23865 C191.999802,76.33065 191.443802,74.33165 192.827802,72.43865 C193.098802,72.06865 193.005802,71.33665 192.897802,70.80965 C192.768802,70.18765 192.329802,69.62565 192.220802,69.00365 C191.949802,67.45565 191.420802,65.82865 191.659802,64.34065 C192.210802,60.92065 193.156802,57.56465 193.942802,54.18265 C194.013802,53.87765 194.085802,53.57365 194.212802,53.03565 C195.793802,55.28465 197.587802,57.71565 196.851802,60.53565 C196.692802,61.02265 196.221802,61.99565 196.141802,62.53765 C196.047802,63.17865 196.468802,64.03765 196.468802,64.03765 C196.468802,64.03765 197.109802,63.84965 197.609802,62.86565 C198.109802,61.88165 197.802802,60.06165 197.802802,60.06165 L197.780802,60.06965 Z"></path>
            </g>
        </g>
    </g>
</svg>