<?xml version="1.0" encoding="UTF-8"?>
<svg width="58px" height="86px" viewBox="0 0 58 86" version="1.1" xmlns="http://www.w3.org/2000/svg" xmlns:xlink="http://www.w3.org/1999/xlink">
    <!-- Generator: Sketch 41 (35326) - http://www.bohemiancoding.com/sketch -->
    <title>Walker</title>
    <desc>Created with Sketch.</desc>
    <defs></defs>
    <g id="Maquettes" stroke="none" stroke-width="1" fill="none" fill-rule="evenodd">
        <g id="A3.1---Spirit" transform="translate(-159.000000, -765.000000)" stroke-width="2" stroke="#FFFFFF">
            <g id="Walker" transform="translate(35.000000, 748.000000)">
                <path d="M167.3,27.1 C167.3,31.8 163.5,35.5 158.9,35.5 C154.3,35.5 150.5,31.7 150.5,27.1 C150.5,22.5 154.3,18.7 158.9,18.7 C163.5,18.7 167.3,22.5 167.3,27.1 Z M145.9,37.9 C146.4,36.2 145.3,33.9 143.1,33.8 C141.9,33.8 139.4,33.7 137.5,33.7 C135.6,33.7 133.9,34 133.4,35.7 L125.4,57.8 C124.9,59.5 125.8,61.3 127.5,61.8 L133.6,64.3 C135.3,64.9 137.2,64 137.7,62.3 L145.9,37.9 Z M178.4,57.3 L177.6,56.9 L177.6,46.1 L174.6,46.1 L174.6,55.4 L168,52.3 L159.8,40.9 C158.5,38.3 156.1,36.3 152.2,36.9 C148.6,37.4 147.3,41.4 146.4,45.8 L144,57.5 L144,57.5 L144,57.5 L142,66.6 C141.9,67 141.9,67.3 141.9,67.6 L139.8,78 L127.5,93.5 C126.1,95.2 126.4,97.8 128.2,99.1 C128.9,99.7 129.7,99.9 130.6,100 C131.8,100 133,99.5 133.8,98.5 L146.6,82.2 C147,81.7 147.2,81.2 147.4,80.6 L149.4,71.4 L157.1,81.6 L157.9,97.6 C158,99.7 159.7,101.4 161.8,101.4 L162.1,101.4 C164.3,101.3 166,99.4 165.9,97.2 L165,79.9 C165,79.1 164.7,78.3 164.2,77.7 L156.9,68 L160.3,51.9 L163.5,56.4 C163.8,56.8 164.2,57.1 164.6,57.4 L174.5,62.1 L174.5,100.2 L177.5,100.2 L177.5,62.9 C178.4,62.8 179.3,62.2 179.7,61.2 C180.5,59.8 179.9,58 178.4,57.3 Z"></path>
            </g>
        </g>
    </g>
</svg>