<?xml version="1.0" encoding="UTF-8"?>
<svg width="59px" height="73px" viewBox="0 0 59 73" version="1.1" xmlns="http://www.w3.org/2000/svg" xmlns:xlink="http://www.w3.org/1999/xlink">
    <!-- Generator: Sketch 41 (35326) - http://www.bohemiancoding.com/sketch -->
    <title>Strong</title>
    <desc>Created with Sketch.</desc>
    <defs></defs>
    <g id="Maquettes" stroke="none" stroke-width="1" fill="none" fill-rule="evenodd">
        <g id="A3.1---Spirit" transform="translate(-158.000000, -168.000000)" fill="#FFFFFF">
            <g id="Strong" transform="translate(35.000000, 145.000000)">
                <path d="M181.132233,62.9305213 C180.642854,58.933923 179.990348,56.3238996 179.256279,53.5507497 C178.603773,50.9407263 177.869704,47.9228867 177.135635,43.2737825 C176.483129,39.0324944 177.054071,35.9330916 177.625014,33.4861946 C178.03283,31.3655506 178.440646,29.4895963 177.706577,27.6952052 C177.135635,26.3901935 175.912186,26.0639405 174.933427,25.7376876 C174.362485,25.5745611 173.791542,25.4114347 173.383726,25.0851818 C170.529013,22.8014113 167.103357,22.3935951 163.922391,23.8617333 C161.638621,24.9220553 160.333609,26.227067 159.925793,27.9398949 C159.681103,28.9186537 159.844229,29.8158492 160.088919,30.4683551 C158.783907,31.5286771 157.397333,33.2415049 157.886712,35.4437122 C158.376091,38.0537356 162.862069,40.5006326 165.227403,41.5609546 C164.982713,44.2525412 164.085518,52.0826115 162.291126,58.3629804 C160.904551,63.0936478 160.822988,66.7639932 161.149241,69.2108902 C157.152643,66.5193036 149.975078,62.5227052 141.900318,61.8701993 C130.481466,60.9730038 124.853603,66.1114874 124.608913,66.2746139 C124.037971,66.7639932 124.037971,67.6611888 124.52735,68.2321314 C125.016729,68.803074 125.913925,68.803074 126.484868,68.3136947 C126.566431,68.2321314 131.460225,63.8277169 141.655629,64.6433492 C152.829792,65.5405448 162.535816,73.6153047 162.617379,73.696868 L164.738023,71.9840401 C164.738023,71.9024769 162.454253,67.5796256 164.982713,59.0154862 C167.266484,51.1038527 168.082116,41.0715752 168.082116,40.663759 L168.163679,39.6850003 L167.266484,39.2771841 C164.330207,37.9721724 160.822988,35.8515284 160.659862,34.7096431 C160.496735,33.8940108 161.067678,33.2415049 161.638621,32.7521256 C162.535816,33.4046314 163.922391,34.2202637 165.308966,34.2202637 L165.390529,34.2202637 C166.043035,34.2202637 167.511173,33.975574 168.082116,31.7733668 C168.326806,30.9577344 168.326806,30.1421021 168.326806,29.9789757 C168.326806,29.2449066 167.6743,28.5924007 166.940231,28.5924007 L166.940231,28.5924007 C166.206162,28.5924007 165.553656,29.2449066 165.553656,30.0605389 C165.553656,30.5499183 165.390529,31.2839874 165.390529,31.3655506 C164.90115,31.3655506 164.330207,31.0392977 163.677701,30.7130448 L163.025196,29.8974124 C163.025196,29.8974124 162.535816,29.1633433 162.698943,28.4292743 C162.862069,27.6952052 163.759265,26.8795729 165.14584,26.227067 C168.000553,24.9220553 170.284323,25.9823773 171.670898,27.1242626 C172.48653,27.7767684 173.383726,28.0214581 174.117795,28.2661478 C174.444048,28.347711 175.014991,28.5108375 175.096554,28.673964 C175.50437,29.6527227 175.25968,30.9577344 174.851864,32.7521256 C174.362485,35.2805857 173.628416,38.7878047 174.362485,43.6000354 C175.096554,48.3307028 175.912186,51.4301057 176.564692,54.1216923 C177.298761,56.8948422 177.869704,59.3417391 178.359083,63.175211 C179.256279,70.0265225 179.500968,73.7784312 178.603773,76.6331443 C178.114393,78.1012825 177.951267,79.6509839 177.78814,81.2006853 C177.543451,83.4844558 177.298761,85.5235366 176.075313,86.8285483 C175.422807,87.5626174 174.117795,87.8073071 172.894347,87.9704335 C171.997151,88.13356 171.018392,88.2966865 170.20276,88.7045026 C165.390529,90.9067099 159.925793,90.4988937 156.010758,90.1726408 C153.156044,89.9279511 151.0354,89.7648246 149.730389,90.580457 C141.737192,95.7189406 128.931765,91.8039054 125.179856,89.4385717 C124.52735,89.0307556 123.630155,89.193882 123.222338,89.8463879 C122.814522,90.4988937 122.977649,91.3960893 123.630155,91.8039054 C126.403304,93.5167333 133.009926,95.882067 139.861238,95.882067 C143.857836,95.882067 147.854434,95.0664347 151.28009,92.9457907 C151.76947,92.6195378 154.05324,92.7826642 155.847631,92.9457907 C160.088919,93.2720436 165.961472,93.761423 171.426208,91.2329628 C171.915588,90.9882731 172.73122,90.8251467 173.465289,90.7435834 C175.096554,90.4173305 176.890945,90.0910776 178.195957,88.7860659 C180.153474,86.8285483 180.479727,84.1369616 180.724417,81.5269382 C180.887543,80.1403633 181.05067,78.7537883 181.376923,77.5303399 C182.355681,74.2678106 182.110992,70.189649 181.132233,62.9305213 L181.132233,62.9305213 Z"></path>
            </g>
        </g>
    </g>
</svg>