<?xml version="1.0" encoding="utf-8"?>
<!-- Generator: Adobe Illustrator 19.2.1, SVG Export Plug-In . SVG Version: 6.00 Build 0)  -->
<svg version="1.1" id="Layer_1" xmlns="http://www.w3.org/2000/svg" xmlns:xlink="http://www.w3.org/1999/xlink" x="0px" y="0px"
	 viewBox="0 0 24 24" style="enable-background:new 0 0 24 24;" xml:space="preserve">
<style type="text/css">
	.st0{fill:#FF6E41;}
</style>
<g>
	<path class="st0" d="M12,24.2l-0.6-0.3c-3.7-2-6.7-5.7-8.8-10.7c-1.5-3.7-2-6.8-2-6.9L0.4,5l1.3-0.1c4.4-0.3,9.5-4.1,9.6-4.1
		L12,0.2l0.7,0.5c0.1,0,5.2,3.9,9.6,4.1L23.6,5l-0.2,1.3c0,0.1-0.5,3.2-2,6.9c-2.1,5-5.1,8.7-8.8,10.7L12,24.2z M3.2,7.1
		c0.7,3,2.9,10.6,8.8,14.3c5.9-3.6,8.1-11.3,8.8-14.3c-3.7-0.7-7.3-2.9-8.8-3.9C10.5,4.2,6.9,6.5,3.2,7.1z"/>
</g>
<path class="st0" d="M14.5,11.2c0.4,0.1,1.6,0.2,1.6,0.2c-0.8-1-4.1-6.6-4.1-6.6s-3.3,5.6-4.1,6.6c0,0,1.2,0,1.6-0.2
	c0,0-0.7,1.8-2.2,4c0,0,2,0,3.3-0.3V18H12h1.3v-3.1c1.3,0.3,3.3,0.3,3.3,0.3C15.1,13,14.5,11.2,14.5,11.2z"/>
</svg>
