<?xml version="1.0" encoding="UTF-8"?>
<svg width="56px" height="70px" viewBox="0 0 56 70" version="1.1" xmlns="http://www.w3.org/2000/svg" xmlns:xlink="http://www.w3.org/1999/xlink">
    <!-- Generator: Sketch 41 (35326) - http://www.bohemiancoding.com/sketch -->
    <title>Hiking trail</title>
    <desc>Created with Sketch.</desc>
    <defs></defs>
    <g id="Maquettes" stroke="none" stroke-width="1" fill="none" fill-rule="evenodd">
        <g id="A2.1---Will-do" transform="translate(-160.000000, -1545.000000)" fill="#FFFFFF">
            <g id="Hiking-trail" transform="translate(35.000000, 1520.000000)">
                <path d="M133.4,71.3 C133.6,71.5 133.8,71.6 134.1,71.6 L148.6,71.6 L148.6,93.6 C148.6,94.2 149,94.6 149.6,94.6 L154.9,94.6 C155.5,94.6 155.9,94.2 155.9,93.6 L155.9,71.6 L171.2,71.6 C171.8,71.6 172.2,71.2 172.2,70.6 L172.2,55 C172.2,54.4 171.8,54 171.2,54 L156,54 L156,48.9 L171.4,48.9 C171.7,48.9 171.9,48.8 172.1,48.6 L180.2,40.8 C180.4,40.6 180.5,40.4 180.5,40.1 C180.5,39.8 180.4,39.6 180.2,39.4 L172.1,31.6 C171.9,31.4 171.7,31.3 171.4,31.3 L156,31.3 L156,28.5 C156,26.6 154.4,25 152.5,25 L152.1,25 C150.2,25 148.6,26.6 148.6,28.5 L148.6,31.3 L134.3,31.3 C133.7,31.3 133.3,31.7 133.3,32.3 L133.3,47.8 C133.3,48.4 133.7,48.8 134.3,48.8 L148.7,48.8 L148.7,53.9 L134.1,53.9 C133.8,53.9 133.6,54 133.4,54.2 L125.3,62 C125.1,62.2 125,62.4 125,62.7 C125,63 125.1,63.2 125.3,63.4 L133.4,71.3 Z M154,92.6 L150.7,92.6 L150.7,71.6 L154,71.6 L154,92.6 Z M150.6,28.5 C150.6,27.7 151.3,27 152.1,27 L152.5,27 C153.3,27 154,27.7 154,28.5 L154,31.3 L150.7,31.3 L150.7,28.5 L150.6,28.5 Z M135.3,33.4 L149.7,33.4 L155,33.4 L171,33.4 L178.1,40.2 L171,47 L155,47 L149.7,47 L135.3,47 L135.3,33.4 Z M150.6,48.9 L153.9,48.9 L153.9,54 L150.6,54 L150.6,48.9 Z M134.5,56 L149.6,56 L154.9,56 L170.2,56 L170.2,69.5 L155,69.5 L149.7,69.5 L134.5,69.5 L127.4,62.8 L134.5,56 Z"></path>
            </g>
        </g>
    </g>
</svg>