<?xml version="1.0" encoding="UTF-8"?>
<svg width="41px" height="102px" viewBox="0 0 41 102" version="1.1" xmlns="http://www.w3.org/2000/svg" xmlns:xlink="http://www.w3.org/1999/xlink">
    <!-- Generator: Sketch 41 (35326) - http://www.bohemiancoding.com/sketch -->
    <title>Solitary</title>
    <desc>Created with Sketch.</desc>
    <defs></defs>
    <g id="Maquettes" stroke="none" stroke-width="1" fill="none" fill-rule="evenodd">
        <g id="A3.1---Spirit" transform="translate(-164.000000, -1361.000000)" stroke-width="2" stroke="#FFFFFF">
            <g id="Solitary" transform="translate(35.000000, 1352.000000)">
                <path d="M165.396,26.597 C169.242,22.907 169.366,16.806 165.669,12.962 C161.983,9.125 155.882,8.998 152.04,12.691 C148.192,16.383 148.074,22.484 151.758,26.326 C155.449,30.167 161.557,30.294 165.396,26.597 Z M162.204,81.549 L154.907,63.686 C154.97,63.286 155.036,62.883 155.039,62.466 L155.232,36.493 C155.271,31.987 151.646,28.305 147.137,28.276 C144.315,28.253 141.819,29.664 140.339,31.826 L140.36,31.839 L131.376,46.777 C130.492,48.226 130.608,50.066 131.655,51.407 L142.326,65.025 L138.732,61.046 L138.722,62.346 C138.719,62.659 138.776,62.957 138.807,63.262 L138.745,63.278 L140.277,83.5 L141.618,108.458 L150.279,108.262 L150.473,83.149 L150.46,82.862 L150.158,79.018 L152.592,84.977 L158.567,108.964 L166.899,107.188 L162.48,82.415 L162.204,81.549 Z M139.812,48.593 L147.388,36.102 L141.285,48.505 L149.628,61.106 L139.812,48.593 Z"></path>
            </g>
        </g>
    </g>
</svg>